<?xml version="1.0" encoding="UTF-8"?>
<svg width="12px" height="12px" viewBox="0 0 12 12" version="1.1" xmlns="http://www.w3.org/2000/svg" xmlns:xlink="http://www.w3.org/1999/xlink">
    <!-- Generator: Sketch 51.2 (57519) - http://www.bohemiancoding.com/sketch -->
    <title>ion-social-instagram-outline - Ionicons</title>
    <desc>Created with Sketch.</desc>
    <defs></defs>
    <g id="Symbols" stroke="none" stroke-width="1" fill="none" fill-rule="evenodd">
        <g id="footer-sp" transform="translate(-207.000000, -495.000000)" fill="#343434">
            <g id="Group-20" transform="translate(139.000000, 479.000000)">
                <path d="M79.25,18.15625 L79.25,26.6230469 C79.25,26.9941425 79.1132826,27.3164049 78.8398438,27.5898438 C78.5664049,27.8632826 78.234377,28 77.84375,28 L69.40625,28 C69.015623,28 68.6835951,27.8632826 68.4101562,27.5898438 C68.1367174,27.3164049 68,26.9941425 68,26.6230469 L68,18.15625 C68,17.765623 68.1367174,17.4335951 68.4101562,17.1601562 C68.6835951,16.8867174 69.015623,16.75 69.40625,16.75 L77.84375,16.75 C78.234377,16.75 78.5664049,16.8867174 78.8398438,17.1601562 C79.1132826,17.4335951 79.25,17.765623 79.25,18.15625 Z M73.625,20.03125 C72.9804655,20.03125 72.4287132,20.2607399 71.9697266,20.7197266 C71.5107399,21.1787132 71.28125,21.7304655 71.28125,22.375 C71.28125,23.0195345 71.5107399,23.5712868 71.9697266,24.0302734 C72.4287132,24.4892601 72.9804655,24.71875 73.625,24.71875 C74.2695345,24.71875 74.8212868,24.4892601 75.2802734,24.0302734 C75.7392601,23.5712868 75.96875,23.0195345 75.96875,22.375 C75.96875,21.7304655 75.7392601,21.1787132 75.2802734,20.7197266 C74.8212868,20.2607399 74.2695345,20.03125 73.625,20.03125 Z M78.3125,19.5625 L78.3125,18.15625 C78.3125,17.8437484 78.1562516,17.6875 77.84375,17.6875 L76.4375,17.6875 C76.1249984,17.6875 75.96875,17.8437484 75.96875,18.15625 L75.96875,19.5625 C75.96875,19.8750016 76.1249984,20.03125 76.4375,20.03125 L77.84375,20.03125 C78.1562516,20.03125 78.3125,19.8750016 78.3125,19.5625 Z M77.8730469,27.0625 C78.1660171,27.0625 78.3125,26.9062516 78.3125,26.59375 L78.3125,21.4375 L76.7890625,21.4375 C76.8671879,21.6914075 76.90625,22.0039044 76.90625,22.375 C76.90625,23.2929733 76.5937531,24.06445 75.96875,24.6894531 C75.3242155,25.3339876 74.5429733,25.65625 73.625,25.65625 C72.726558,25.65625 71.9550813,25.3339876 71.3105469,24.6894531 C70.6660124,24.0449187 70.34375,23.273442 70.34375,22.375 C70.34375,22.0820298 70.3925776,21.7695329 70.4902344,21.4375 L68.9375,21.4375 L68.9375,26.59375 C68.9375,26.7304694 68.9863276,26.842773 69.0839844,26.9306641 C69.1816411,27.0185551 69.2988274,27.0625 69.4355469,27.0625 L77.8730469,27.0625 Z" id="ion-social-instagram-outline---Ionicons"></path>
            </g>
        </g>
    </g>
</svg>