<?xml version="1.0" encoding="UTF-8"?>
<svg width="43px" height="43px" viewBox="0 0 43 43" version="1.1" xmlns="http://www.w3.org/2000/svg" xmlns:xlink="http://www.w3.org/1999/xlink">
    <!-- Generator: Sketch 51.2 (57519) - http://www.bohemiancoding.com/sketch -->
    <title>Group 3</title>
    <desc>Created with Sketch.</desc>
    <defs></defs>
    <g id="Symbols" stroke="none" stroke-width="1" fill="none" fill-rule="evenodd">
        <g id="footer-sp" transform="translate(-191.000000, -480.000000)">
            <g id="Group-20" transform="translate(139.000000, 479.000000)">
                <g id="Group-3" transform="translate(52.000000, 1.000000)">
                    <rect id="Rectangle-21-Copy-3" stroke="#DDDDDD" stroke-width="2" fill="#FFFFFF" fill-rule="nonzero" transform="translate(21.920310, 21.920310) rotate(-45.000000) translate(-21.920310, -21.920310) " x="7.42031022" y="7.42031022" width="29" height="29" rx="2"></rect>
                    <path d="M27.25,17.15625 L27.25,25.6230469 C27.25,25.9941425 27.1132826,26.3164049 26.8398438,26.5898438 C26.5664049,26.8632826 26.234377,27 25.84375,27 L17.40625,27 C17.015623,27 16.6835951,26.8632826 16.4101562,26.5898438 C16.1367174,26.3164049 16,25.9941425 16,25.6230469 L16,17.15625 C16,16.765623 16.1367174,16.4335951 16.4101562,16.1601562 C16.6835951,15.8867174 17.015623,15.75 17.40625,15.75 L25.84375,15.75 C26.234377,15.75 26.5664049,15.8867174 26.8398438,16.1601562 C27.1132826,16.4335951 27.25,16.765623 27.25,17.15625 Z M21.625,19.03125 C20.9804655,19.03125 20.4287132,19.2607399 19.9697266,19.7197266 C19.5107399,20.1787132 19.28125,20.7304655 19.28125,21.375 C19.28125,22.0195345 19.5107399,22.5712868 19.9697266,23.0302734 C20.4287132,23.4892601 20.9804655,23.71875 21.625,23.71875 C22.2695345,23.71875 22.8212868,23.4892601 23.2802734,23.0302734 C23.7392601,22.5712868 23.96875,22.0195345 23.96875,21.375 C23.96875,20.7304655 23.7392601,20.1787132 23.2802734,19.7197266 C22.8212868,19.2607399 22.2695345,19.03125 21.625,19.03125 Z M26.3125,18.5625 L26.3125,17.15625 C26.3125,16.8437484 26.1562516,16.6875 25.84375,16.6875 L24.4375,16.6875 C24.1249984,16.6875 23.96875,16.8437484 23.96875,17.15625 L23.96875,18.5625 C23.96875,18.8750016 24.1249984,19.03125 24.4375,19.03125 L25.84375,19.03125 C26.1562516,19.03125 26.3125,18.8750016 26.3125,18.5625 Z M25.8730469,26.0625 C26.1660171,26.0625 26.3125,25.9062516 26.3125,25.59375 L26.3125,20.4375 L24.7890625,20.4375 C24.8671879,20.6914075 24.90625,21.0039044 24.90625,21.375 C24.90625,22.2929733 24.5937531,23.06445 23.96875,23.6894531 C23.3242155,24.3339876 22.5429733,24.65625 21.625,24.65625 C20.726558,24.65625 19.9550813,24.3339876 19.3105469,23.6894531 C18.6660124,23.0449187 18.34375,22.273442 18.34375,21.375 C18.34375,21.0820298 18.3925776,20.7695329 18.4902344,20.4375 L16.9375,20.4375 L16.9375,25.59375 C16.9375,25.7304694 16.9863276,25.842773 17.0839844,25.9306641 C17.1816411,26.0185551 17.2988274,26.0625 17.4355469,26.0625 L25.8730469,26.0625 Z" id="ion-social-instagram-outline---Ionicons" fill="#343434"></path>
                </g>
            </g>
        </g>
    </g>
</svg>