<?xml version="1.0" encoding="utf-8"?>
<!-- Generator: Adobe Illustrator 22.0.0, SVG Export Plug-In . SVG Version: 6.00 Build 0)  -->
<svg version="1.1" id="レイヤー_1" xmlns="http://www.w3.org/2000/svg" xmlns:xlink="http://www.w3.org/1999/xlink" x="0px"
	 y="0px" viewBox="0 0 23 14" style="enable-background:new 0 0 23 14;" xml:space="preserve">
<style type="text/css">
	.st0{fill:#777777;}
</style>
<title>ion-ios-arrow-thin-right - Ionicons Copy 2</title>
<desc>Created with Sketch.</desc>
<g id="Symbols">
	<g id="icon_x2F_arrow--long">
		
			<g id="ion-ios-arrow-thin-right---Ionicons-Copy-2" transform="translate(11.500000, 7.000000) rotate(-180.000000) translate(-11.500000, -7.000000) ">
			<path id="path-1_1_" class="st0" d="M16.2,14c-0.2-0.3-0.2-0.6,0-0.9l4.9-5.4H0.6C0.2,7.7,0,7.5,0,7.1c0-0.4,0.2-0.6,0.6-0.6
				h20.5l-4.8-5.4c-0.3-0.3-0.3-0.6,0-0.9c0.3-0.3,0.6-0.3,0.9,0c3.7,4.3,5.6,6.5,5.7,6.5C23,6.8,23,6.9,23,7.1s0,0.3-0.1,0.4
				l-5.8,6.4c-0.1,0.2-0.2,0.2-0.4,0.2C16.5,14.1,16.3,14.1,16.2,14z"/>
		</g>
	</g>
</g>
</svg>
