<?xml version="1.0" encoding="UTF-8"?>
<svg width="13px" height="12px" viewBox="0 0 13 12" version="1.1" xmlns="http://www.w3.org/2000/svg" xmlns:xlink="http://www.w3.org/1999/xlink">
    <!-- Generator: Sketch 51.2 (57519) - http://www.bohemiancoding.com/sketch -->
    <title>Shape Copy</title>
    <desc>Created with Sketch.</desc>
    <defs></defs>
    <g id="SP" stroke="none" stroke-width="1" fill="none" fill-rule="evenodd">
        <g id="質問詳細1" transform="translate(-210.000000, -1612.000000)" fill="#343434">
            <g id="Group-5" transform="translate(0.000000, 1101.000000)">
                <path d="M223,516.110098 C223,513.29267 220.084208,511 216.5,511 C212.916333,511 210,513.29267 210,516.110098 C210,518.636285 212.312375,520.752112 215.436167,521.151978 C215.647958,521.196057 215.935583,521.287365 216.008708,521.462635 C216.07425,521.621636 216.0515,521.870897 216.029833,522.031997 L215.937208,522.570924 C215.9085,522.729926 215.806125,523.193288 216.5,522.910443 C217.193875,522.627074 220.243458,520.775201 221.606833,519.254451 C222.548792,518.253736 223,517.237804 223,516.110098 Z M212.714833,514.74835 C212.784708,514.74835 212.841583,514.803449 212.841583,514.871143 L212.841583,517.050465 L214.080375,517.050465 C214.15025,517.050465 214.206583,517.10504 214.206583,517.172734 L214.206583,517.614581 C214.206583,517.682274 214.15025,517.737374 214.080375,517.737374 L212.25875,517.737374 C212.224625,517.737374 212.194292,517.724255 212.171542,517.703265 L212.171,517.70274 L212.169917,517.701691 L212.169375,517.701166 L212.16775,517.699591 C212.146083,517.677552 212.132542,517.64764 212.132542,517.615105 L212.132542,514.871143 C212.132542,514.803449 212.188875,514.74835 212.25875,514.74835 L212.714833,514.74835 Z M220.8355,514.74835 C220.905375,514.74835 220.961708,514.803449 220.961708,514.871143 L220.961708,515.31299 C220.961708,515.380684 220.905375,515.435783 220.8355,515.435783 L219.596708,515.435783 L219.596708,515.899145 L220.8355,515.899145 C220.905375,515.899145 220.961708,515.954245 220.961708,516.021939 L220.961708,516.463785 C220.961708,516.531479 220.905375,516.586579 220.8355,516.586579 L219.596708,516.586579 L219.596708,517.050465 L220.8355,517.050465 C220.905375,517.050465 220.961708,517.105565 220.961708,517.172734 L220.961708,517.614581 C220.961708,517.682274 220.905375,517.737374 220.8355,517.737374 L219.013875,517.737374 C218.97975,517.737374 218.948875,517.724255 218.926125,517.703265 L218.9245,517.701166 L218.922875,517.699591 C218.901208,517.677552 218.887125,517.64764 218.887125,517.615105 L218.887125,514.871143 C218.887125,514.838608 218.900667,514.808697 218.922333,514.786657 L218.9245,514.784558 L218.926125,514.782984 C218.948875,514.761994 218.97975,514.74835 219.013875,514.74835 L220.8355,514.74835 Z M215.179417,514.748875 C215.249292,514.748875 215.306167,514.803449 215.306167,514.871143 L215.306167,517.615105 C215.306167,517.682274 215.249292,517.737374 215.179417,517.737374 L214.723333,517.737374 C214.653458,517.737374 214.596583,517.682274 214.596583,517.615105 L214.596583,514.871143 C214.596583,514.803449 214.653458,514.748875 214.723333,514.748875 L215.179417,514.748875 Z M216.331542,514.748875 L216.335875,514.748875 L216.342375,514.749399 L216.349417,514.749924 L216.354833,514.750449 L216.361875,514.752023 L216.366208,514.753597 L216.373792,514.755696 L216.378125,514.757271 L216.385167,514.760419 L216.388958,514.761994 L216.396,514.765667 L216.399792,514.767766 L216.406292,514.772489 L216.409542,514.774588 L216.416583,514.78036 L216.41875,514.782459 L216.426333,514.789806 L216.427417,514.790855 L216.437167,514.802925 L217.735,516.501043 L217.735,514.871143 C217.735,514.803449 217.791875,514.748875 217.86175,514.748875 L218.317292,514.748875 C218.387708,514.748875 218.444042,514.803449 218.444042,514.871143 L218.444042,517.615105 C218.444042,517.682274 218.387708,517.737374 218.317292,517.737374 L217.86175,517.737374 L217.82925,517.733176 L217.827083,517.732651 L217.818958,517.730027 L217.815167,517.728453 L217.808667,517.726354 L217.802708,517.723206 L217.798917,517.721631 L217.791333,517.716909 L217.79025,517.715859 L217.75775,517.685423 L216.458292,515.985206 L216.458292,517.615105 C216.458292,517.682274 216.401958,517.737374 216.331542,517.737374 L215.876,517.737374 C215.806125,517.737374 215.74925,517.682274 215.74925,517.615105 L215.74925,514.871143 C215.74925,514.803449 215.806125,514.748875 215.876,514.748875 L216.331542,514.748875 Z" id="Shape-Copy"></path>
            </g>
        </g>
    </g>
</svg>