<?xml version="1.0" encoding="UTF-8"?>
<svg width="13px" height="13px" viewBox="0 0 13 13" version="1.1" xmlns="http://www.w3.org/2000/svg" xmlns:xlink="http://www.w3.org/1999/xlink">
    <!-- Generator: Sketch 51.2 (57519) - http://www.bohemiancoding.com/sketch -->
    <title>ion-ios-search-strong - Ionicons</title>
    <desc>Created with Sketch.</desc>
    <defs></defs>
    <g id="SP" stroke="none" stroke-width="1" fill="none" fill-rule="evenodd">
        <g id="検索中" transform="translate(-29.000000, -69.000000)" fill="#343434">
            <path d="M38.4791667,76.921875 L38.34375,77.1588542 L42,80.8489583 L40.8489583,82 L37.1927083,78.3098958 L36.9557292,78.4791667 C36.0529469,79.0434056 35.1163243,79.3255208 34.1458333,79.3255208 C32.7239512,79.3255208 31.5108557,78.8177134 30.5065104,77.8020833 C29.5021651,76.7864533 29,75.5677154 29,74.1458333 C29,72.7239512 29.5021651,71.5108557 30.5065104,70.5065104 C31.5108557,69.5021651 32.7239512,69 34.1458333,69 C35.5677154,69 36.780811,69.5021651 37.7851562,70.5065104 C38.7895015,71.5108557 39.2916667,72.7239512 39.2916667,74.1458333 C39.2916667,75.1388939 39.020836,76.0642318 38.4791667,76.921875 Z M37.0234375,71.2682292 C36.233503,70.4782947 35.2743112,70.0833333 34.1458333,70.0833333 C33.0173555,70.0833333 32.0581637,70.4782947 31.2682292,71.2682292 C30.4782947,72.0581637 30.0833333,73.0173555 30.0833333,74.1458333 C30.0833333,75.2743112 30.4782947,76.233503 31.2682292,77.0234375 C32.0581637,77.813372 33.0173555,78.2083333 34.1458333,78.2083333 C35.2743112,78.2083333 36.233503,77.813372 37.0234375,77.0234375 C37.8359416,76.2109334 38.2421875,75.2517416 38.2421875,74.1458333 C38.2421875,73.039925 37.8359416,72.0807332 37.0234375,71.2682292 Z" id="ion-ios-search-strong---Ionicons"></path>
        </g>
    </g>
</svg>