<?xml version="1.0" encoding="UTF-8"?>
<svg width="13px" height="13px" viewBox="0 0 13 13" version="1.1" xmlns="http://www.w3.org/2000/svg" xmlns:xlink="http://www.w3.org/1999/xlink">
    <!-- Generator: Sketch 51.2 (57519) - http://www.bohemiancoding.com/sketch -->
    <title>ion-ios-search-strong - Ionicons</title>
    <desc>Created with Sketch.</desc>
    <defs></defs>
    <g id="Symbols" stroke="none" stroke-width="1" fill="none" fill-rule="evenodd">
        <g id="header-sp" transform="translate(-335.000000, -49.000000)" fill="#FFFFFF">
            <g id="Group-12" transform="translate(0.000000, 27.000000)">
                <path d="M344.479167,29.921875 L344.34375,30.1588542 L348,33.8489583 L346.848958,35 L343.192708,31.3098958 L342.955729,31.4791667 C342.052947,32.0434056 341.116324,32.3255208 340.145833,32.3255208 C338.723951,32.3255208 337.510856,31.8177134 336.50651,30.8020833 C335.502165,29.7864533 335,28.5677154 335,27.1458333 C335,25.7239512 335.502165,24.5108557 336.50651,23.5065104 C337.510856,22.5021651 338.723951,22 340.145833,22 C341.567715,22 342.780811,22.5021651 343.785156,23.5065104 C344.789502,24.5108557 345.291667,25.7239512 345.291667,27.1458333 C345.291667,28.1388939 345.020836,29.0642318 344.479167,29.921875 Z M343.023438,24.2682292 C342.233503,23.4782947 341.274311,23.0833333 340.145833,23.0833333 C339.017355,23.0833333 338.058164,23.4782947 337.268229,24.2682292 C336.478295,25.0581637 336.083333,26.0173555 336.083333,27.1458333 C336.083333,28.2743112 336.478295,29.233503 337.268229,30.0234375 C338.058164,30.813372 339.017355,31.2083333 340.145833,31.2083333 C341.274311,31.2083333 342.233503,30.813372 343.023438,30.0234375 C343.835942,29.2109334 344.242188,28.2517416 344.242188,27.1458333 C344.242188,26.039925 343.835942,25.0807332 343.023438,24.2682292 Z" id="ion-ios-search-strong---Ionicons"></path>
            </g>
        </g>
    </g>
</svg>