<?xml version="1.0" encoding="UTF-8"?>
<svg width="7px" height="13px" viewBox="0 0 7 13" version="1.1" xmlns="http://www.w3.org/2000/svg" xmlns:xlink="http://www.w3.org/1999/xlink">
    <!-- Generator: Sketch 51.2 (57519) - http://www.bohemiancoding.com/sketch -->
    <title>icon/woman</title>
    <desc>Created with Sketch.</desc>
    <defs></defs>
    <g id="SP" stroke="none" stroke-width="1" fill="none" fill-rule="evenodd">
        <g id="トップ" transform="translate(-26.000000, -430.000000)" fill="#343434">
            <g id="icon/woman" transform="translate(26.000000, 430.000000)">
                <path d="M1.6953125,3.16875 C1.75000027,2.9701379 1.87760316,2.77152877 2.078125,2.57291667 C2.27864684,2.37430456 2.53385262,2.26597231 2.84375,2.24791667 L4.15625,2.24791667 C4.44791812,2.26597231 4.69400941,2.36979072 4.89453125,2.559375 C5.09505309,2.74895928 5.23177047,2.95208225 5.3046875,3.16875 L6.09765625,5.98541667 C6.15234402,6.18402877 6.12955779,6.3420133 6.02929687,6.459375 C5.92903596,6.5767367 5.80599031,6.61736129 5.66015625,6.58125 C5.51432219,6.54513871 5.41406277,6.43680646 5.359375,6.25625 L4.6484375,3.65625 L4.40234375,3.65625 L5.66015625,8.23333333 L4.484375,8.23333333 L4.484375,11.6729167 C4.484375,11.8715288 4.41145906,12.0114579 4.265625,12.0927083 C4.11979094,12.1739587 3.97851631,12.1739587 3.84179687,12.0927083 C3.70507744,12.0114579 3.63671875,11.8715288 3.63671875,11.6729167 L3.63671875,8.23333333 L3.36328125,8.23333333 L3.36328125,11.6729167 C3.36328125,11.8715288 3.29036531,12.0114579 3.14453125,12.0927083 C2.99869719,12.1739587 2.85286531,12.1739587 2.70703125,12.0927083 C2.56119719,12.0114579 2.48828125,11.8715288 2.48828125,11.6729167 L2.48828125,8.23333333 L1.33984375,8.23333333 L2.5703125,3.65625 L2.37890625,3.65625 L1.640625,6.25625 C1.58593723,6.43680646 1.48567781,6.54513871 1.33984375,6.58125 C1.19400969,6.61736129 1.07096404,6.5767367 0.970703125,6.459375 C0.870442207,6.3420133 0.847655977,6.18402877 0.90234375,5.98541667 L1.6953125,3.16875 Z M4.51171875,1.00208333 C4.51171875,1.29097367 4.41145934,1.53020739 4.2109375,1.71979167 C4.01041566,1.90937595 3.77343887,2.00416667 3.5,2.00416667 C3.22656113,2.00416667 2.98958434,1.90937595 2.7890625,1.71979167 C2.58854066,1.53020739 2.48828125,1.29097367 2.48828125,1.00208333 C2.48828125,0.713193 2.58854066,0.473959281 2.7890625,0.284375 C2.98958434,0.0947907187 3.22656113,0 3.5,0 C3.77343887,0 4.01041566,0.0947907187 4.2109375,0.284375 C4.41145934,0.473959281 4.51171875,0.713193 4.51171875,1.00208333 Z" id=""></path>
            </g>
        </g>
    </g>
</svg>