<?xml version="1.0" encoding="UTF-8"?>
<svg width="14px" height="15px" viewBox="0 0 14 15" version="1.1" xmlns="http://www.w3.org/2000/svg" xmlns:xlink="http://www.w3.org/1999/xlink">
    <!-- Generator: Sketch 51.2 (57519) - http://www.bohemiancoding.com/sketch -->
    <title>icon/close2</title>
    <desc>Created with Sketch.</desc>
    <defs></defs>
    <g id="SP" stroke="none" stroke-width="1" fill="none" fill-rule="evenodd">
        <g id="検索中" transform="translate(-255.000000, -68.000000)" fill="#BABABA">
            <g id="icon/close2" transform="translate(255.000000, 68.000000)">
                <path d="M7,0.03125 C8.93750969,0.03125 10.5885348,0.713534844 11.953125,2.078125 C13.3177152,3.44271516 14,5.09374031 14,7.03125 C14,8.96875969 13.3177152,10.6197848 11.953125,11.984375 C10.5885348,13.3489652 8.93750969,14.03125 7,14.03125 C5.06249031,14.03125 3.41146516,13.3489652 2.046875,11.984375 C0.682284844,10.6197848 0,8.96875969 0,7.03125 C0,5.09374031 0.682284844,3.44271516 2.046875,2.078125 C3.41146516,0.713534844 5.06249031,0.03125 7,0.03125 Z M10.375,9.375 L8.03125,7.03125 L10.40625,4.6875 C10.5312506,4.56249938 10.5312506,4.43750062 10.40625,4.3125 L9.71875,3.65625 C9.65624969,3.59374969 9.59375031,3.5625 9.53125,3.5625 C9.48958313,3.5625 9.43750031,3.59374969 9.375,3.65625 L7,5.96875 L4.625,3.65625 C4.56249969,3.59374969 4.51041687,3.5625 4.46875,3.5625 C4.40624969,3.5625 4.34375031,3.59374969 4.28125,3.65625 L3.625,4.3125 C3.49999938,4.43750062 3.49999938,4.56249938 3.625,4.6875 L6,7.03125 L3.625,9.40625 C3.58333313,9.42708344 3.5625,9.47916625 3.5625,9.5625 C3.5625,9.64583375 3.58333313,9.70833312 3.625,9.75 L4.28125,10.4375 C4.32291687,10.4791669 4.38541625,10.5 4.46875,10.5 C4.55208375,10.5 4.61458313,10.4791669 4.65625,10.4375 L7,8.0625 L9.375,10.40625 C9.43750031,10.4687503 9.48958313,10.5 9.53125,10.5 C9.59375031,10.5 9.65624969,10.4687503 9.71875,10.40625 L10.375,9.75 C10.4375003,9.70833312 10.46875,9.64583375 10.46875,9.5625 C10.46875,9.49999969 10.4375003,9.43750031 10.375,9.375 Z" id="ion-close-circled---Ionicons"></path>
            </g>
        </g>
    </g>
</svg>