<?xml version="1.0" encoding="UTF-8"?>
<svg width="14px" height="14px" viewBox="0 0 14 14" version="1.1" xmlns="http://www.w3.org/2000/svg" xmlns:xlink="http://www.w3.org/1999/xlink">
    <!-- Generator: Sketch 51.2 (57519) - http://www.bohemiancoding.com/sketch -->
    <title>ion-link - Ionicons Copy</title>
    <desc>Created with Sketch.</desc>
    <defs></defs>
    <g id="SP" stroke="none" stroke-width="1" fill="none" fill-rule="evenodd">
        <g id="質問詳細1" transform="translate(-267.000000, -1612.000000)" fill="#000000">
            <g id="Group-5" transform="translate(0.000000, 1101.000000)">
                <path d="M278.28125,514.3125 C279.09766,514.3125 279.796547,514.603187 280.37793,515.18457 C280.959313,515.765953 281.25,516.46484 281.25,517.28125 L281.25,518.46875 C281.25,519.28516 280.959313,519.984047 280.37793,520.56543 C279.796547,521.146813 279.09766,521.4375 278.28125,521.4375 L274.125,521.4375 C272.863275,521.4375 271.960289,520.843756 271.416016,519.65625 C271.242838,519.235675 271.15625,518.839846 271.15625,518.46875 L271.15625,517.28125 L272.9375,517.28125 L272.9375,518.46875 C272.9375,518.815106 273.048827,519.099608 273.271484,519.322266 C273.494142,519.544923 273.778644,519.65625 274.125,519.65625 L278.28125,519.65625 C278.627606,519.65625 278.912108,519.544923 279.134766,519.322266 C279.357423,519.099608 279.46875,518.815106 279.46875,518.46875 L279.46875,517.28125 C279.46875,516.934894 279.357423,516.650392 279.134766,516.427734 C278.912108,516.205077 278.627606,516.09375 278.28125,516.09375 L277.6875,516.09375 C277.613281,515.747394 277.477215,515.425783 277.279297,515.128906 C277.081379,514.83203 276.895834,514.621745 276.722656,514.498047 L276.5,514.3125 L278.28125,514.3125 Z M276.871094,516.09375 C277.019532,516.464846 277.09375,516.860675 277.09375,517.28125 L277.09375,518.46875 L275.3125,518.46875 L275.3125,517.28125 C275.3125,516.934894 275.201173,516.650392 274.978516,516.427734 C274.755858,516.205077 274.471356,516.09375 274.125,516.09375 L269.96875,516.09375 C269.622394,516.09375 269.337892,516.205077 269.115234,516.427734 C268.892577,516.650392 268.78125,516.934894 268.78125,517.28125 L268.78125,518.46875 C268.78125,518.815106 268.892577,519.099608 269.115234,519.322266 C269.337892,519.544923 269.622394,519.65625 269.96875,519.65625 L270.5625,519.65625 C270.636719,520.002606 270.772785,520.324217 270.970703,520.621094 C271.168621,520.91797 271.354166,521.128255 271.527344,521.251953 L271.75,521.4375 L269.96875,521.4375 C269.15234,521.4375 268.453453,521.146813 267.87207,520.56543 C267.290687,519.984047 267,519.28516 267,518.46875 L267,517.28125 C267,516.46484 267.290687,515.765953 267.87207,515.18457 C268.453453,514.603187 269.15234,514.3125 269.96875,514.3125 L274.125,514.3125 C274.718753,514.3125 275.269203,514.479491 275.776367,514.813477 C276.283531,515.147463 276.648436,515.574216 276.871094,516.09375 Z" id="ion-link---Ionicons-Copy" transform="translate(274.125000, 517.875000) rotate(-45.000000) translate(-274.125000, -517.875000) "></path>
            </g>
        </g>
    </g>
</svg>