<?xml version="1.0" encoding="UTF-8"?>
<svg width="5px" height="11px" viewBox="0 0 5 11" version="1.1" xmlns="http://www.w3.org/2000/svg" xmlns:xlink="http://www.w3.org/1999/xlink">
    <!-- Generator: Sketch 51.2 (57519) - http://www.bohemiancoding.com/sketch -->
    <title>icon/woman copy</title>
    <desc>Created with Sketch.</desc>
    <defs></defs>
    <g id="SP" stroke="none" stroke-width="1" fill="none" fill-rule="evenodd">
        <g id="トップ" transform="translate(-194.000000, -567.000000)" fill="#343434">
            <g id="icon/man" transform="translate(194.000000, 567.000000)">
                <path d="M2.71875,1.71875 C2.46874875,1.71875 2.26171957,1.63472306 2.09765625,1.46666667 C1.93359293,1.29861027 1.8515625,1.09236233 1.8515625,0.847916667 C1.8515625,0.603471 1.93359293,0.401042469 2.09765625,0.240625 C2.26171957,0.0802075312 2.46874875,0 2.71875,0 C2.96875125,0 3.17578043,0.0802075312 3.33984375,0.240625 C3.50390707,0.401042469 3.5859375,0.603471 3.5859375,0.847916667 C3.5859375,1.09236233 3.50390707,1.29861027 3.33984375,1.46666667 C3.17578043,1.63472306 2.96875125,1.71875 2.71875,1.71875 Z M3.5859375,1.90208333 C3.89843906,1.90208333 4.1601552,2.01284611 4.37109375,2.234375 C4.5820323,2.45590389 4.6875,2.7118041 4.6875,3.00208333 L4.6875,5.61458333 C4.6875,5.76736187 4.62500062,5.87812466 4.5,5.946875 C4.37499938,6.01562534 4.25000062,6.01562534 4.125,5.946875 C3.99999938,5.87812466 3.9375,5.76736187 3.9375,5.61458333 L3.9375,3.20833333 L3.8203125,3.20833333 L3.8203125,9.7625 C3.8203125,9.9611121 3.73828207,10.1062495 3.57421875,10.1979167 C3.41015543,10.2895838 3.24609457,10.2972226 3.08203125,10.2208333 C2.91796793,10.1444441 2.82812508,9.99166781 2.8125,9.7625 L2.8125,5.98125 L2.625,5.98125 L2.625,9.7625 C2.625,9.97638996 2.53906336,10.1253468 2.3671875,10.209375 C2.19531164,10.2934032 2.02734457,10.2934032 1.86328125,10.209375 C1.69921793,10.1253468 1.6171875,9.97638996 1.6171875,9.7625 L1.6171875,3.20833333 L1.4765625,3.20833333 L1.4765625,5.61458333 C1.4765625,5.76736187 1.41796934,5.87812466 1.30078125,5.946875 C1.18359316,6.01562534 1.06250062,6.01562534 0.9375,5.946875 C0.812499375,5.87812466 0.75,5.76736187 0.75,5.61458333 L0.75,3.00208333 C0.75,2.7118041 0.855467695,2.45590389 1.06640625,2.234375 C1.2773448,2.01284611 1.53906094,1.90208333 1.8515625,1.90208333 L3.5859375,1.90208333 Z" id="ion-man---Ionicons"></path>
            </g>
        </g>
    </g>
</svg>