<?xml version="1.0" encoding="UTF-8"?>
<svg width="10px" height="6px" viewBox="0 0 10 6" version="1.1" xmlns="http://www.w3.org/2000/svg" xmlns:xlink="http://www.w3.org/1999/xlink">
    <!-- Generator: Sketch 51.2 (57519) - http://www.bohemiancoding.com/sketch -->
    <title>ion-ios-arrow-thin-right - Ionicons</title>
    <desc>Created with Sketch.</desc>
    <defs></defs>
    <g id="SP" stroke="none" stroke-width="1" fill="none" fill-rule="evenodd">
        <g id="トップ" transform="translate(-337.000000, -207.000000)" fill="#343434">
            <g id="Group-2" transform="translate(332.000000, 200.000000)">
                <path d="M11.8359375,12.5871394 C11.7217542,12.4729562 11.7217542,12.3587746 11.8359375,12.2445913 L13.7484976,10.1322115 L5.61298077,10.1322115 C5.46073642,10.1322115 5.38461538,10.0560905 5.38461538,9.90384615 C5.38461538,9.7516018 5.46073642,9.67548077 5.61298077,9.67548077 L13.7484976,9.67548077 L11.8359375,7.56310096 C11.7217542,7.4489177 11.7217542,7.33473615 11.8359375,7.22055288 C11.9501208,7.10636962 12.0643023,7.10636962 12.1784856,7.22055288 C13.6818985,8.8762102 14.4431089,9.71354157 14.4621394,9.73257212 C14.5002005,9.7706332 14.5192308,9.82772398 14.5192308,9.90384615 C14.5192308,9.97996833 14.5002005,10.0370591 14.4621394,10.0751202 L12.1784856,12.5871394 C12.1404245,12.6252005 12.0833337,12.6442308 12.0072115,12.6442308 C11.9310894,12.6442308 11.8739986,12.6252005 11.8359375,12.5871394 Z" id="ion-ios-arrow-thin-right---Ionicons"></path>
            </g>
        </g>
    </g>
</svg>