<?xml version="1.0" encoding="UTF-8"?>
<svg width="43px" height="43px" viewBox="0 0 43 43" version="1.1" xmlns="http://www.w3.org/2000/svg" xmlns:xlink="http://www.w3.org/1999/xlink">
    <!-- Generator: Sketch 51.2 (57519) - http://www.bohemiancoding.com/sketch -->
    <title>Group 2</title>
    <desc>Created with Sketch.</desc>
    <defs></defs>
    <g id="Symbols" stroke="none" stroke-width="1" fill="none" fill-rule="evenodd">
        <g id="footer-sp" transform="translate(-165.000000, -506.000000)">
            <g id="Group-20" transform="translate(139.000000, 479.000000)">
                <g id="Group-2" transform="translate(26.000000, 27.000000)">
                    <rect id="Rectangle-21-Copy-4" stroke="#DDDDDD" stroke-width="2" fill="#FFFFFF" fill-rule="nonzero" transform="translate(21.920310, 21.920310) rotate(-45.000000) translate(-21.920310, -21.920310) " x="7.42031022" y="7.42031022" width="29" height="29" rx="2"></rect>
                    <path d="M22.5,20 L24.75,20 L24.46875,22.25 L22.5,22.25 L22.5,29 L19.5820312,29 L19.5820312,22.25 L18,22.25 L18,20 L19.5820312,20 L19.5820312,18.4882812 C19.5820312,17.5039013 19.8281225,16.7597681 20.3203125,16.2558594 C20.8125025,15.7519506 21.6328068,15.5 22.78125,15.5 L24.75,15.5 L24.75,17.75 L23.5546875,17.75 C23.1093728,17.75 22.8222663,17.8203118 22.6933594,17.9609375 C22.5644525,18.1015632 22.5,18.3359359 22.5,18.6640625 L22.5,20 Z" id="ion-social-facebook---Ionicons" fill="#343434"></path>
                </g>
            </g>
        </g>
    </g>
</svg>