<?xml version="1.0" encoding="UTF-8"?>
<svg width="43px" height="43px" viewBox="0 0 43 43" version="1.1" xmlns="http://www.w3.org/2000/svg" xmlns:xlink="http://www.w3.org/1999/xlink">
    <!-- Generator: Sketch 51.2 (57519) - http://www.bohemiancoding.com/sketch -->
    <title>Group</title>
    <desc>Created with Sketch.</desc>
    <defs></defs>
    <g id="Symbols" stroke="none" stroke-width="1" fill="none" fill-rule="evenodd">
        <g id="footer-sp" transform="translate(-140.000000, -480.000000)">
            <g id="Group-20" transform="translate(139.000000, 479.000000)">
                <g id="Group">
                    <rect id="Rectangle-21-Copy-5" stroke="#DDDDDD" stroke-width="2" fill="#FFFFFF" fill-rule="nonzero" transform="translate(22.500000, 22.500000) rotate(-45.000000) translate(-22.500000, -22.500000) " x="8" y="8" width="29" height="29" rx="2"></rect>
                    <path d="M28.984375,18.4179688 C28.679686,18.8919295 28.27344,19.3151023 27.765625,19.6875 L27.765625,19.9921875 C27.765625,21.7695401 27.126634,23.3818287 25.8486328,24.8291016 C24.5706316,26.2763744 22.8737085,27 20.7578125,27 C19.4036391,27 18.1510474,26.6276079 17,25.8828125 C17.2708347,25.9166668 17.4654942,25.9335938 17.5839844,25.9335938 C18.7181046,25.9335938 19.7337195,25.5781286 20.6308594,24.8671875 C20.1061172,24.8502603 19.6321636,24.6852229 19.2089844,24.3720703 C18.7858052,24.0589177 18.4980476,23.6569035 18.3457031,23.1660156 C18.5488291,23.19987 18.7011714,23.2167969 18.8027344,23.2167969 C18.9720061,23.2167969 19.1920559,23.182943 19.4628906,23.1152344 C18.9042941,22.9967442 18.4345722,22.7132184 18.0537109,22.2646484 C17.6728497,21.8160785 17.4824219,21.2955759 17.4824219,20.703125 L17.4824219,20.6777344 C17.8548196,20.8808604 18.2272117,20.9824219 18.5996094,20.9824219 C17.8717412,20.5084612 17.5078125,19.8229212 17.5078125,18.9257812 C17.5078125,18.5026021 17.6178374,18.0963561 17.8378906,17.7070312 C19.1412826,19.3151122 20.8255105,20.1699214 22.890625,20.2714844 C22.8567707,20.1529942 22.8398438,19.9667981 22.8398438,19.7128906 C22.8398438,19.0188767 23.0768205,18.4348982 23.5507812,17.9609375 C24.024742,17.4869768 24.6087205,17.25 25.3027344,17.25 C25.9967483,17.25 26.5891903,17.5123672 27.0800781,18.0371094 C27.5878932,17.9524735 28.1126275,17.7493506 28.6542969,17.4277344 C28.4850252,18.0201853 28.1210965,18.4772119 27.5625,18.7988281 C28.0872422,18.7480466 28.5611958,18.6210948 28.984375,18.4179688 Z" id="ion-social-twitter---Ionicons" fill="#343434"></path>
                </g>
            </g>
        </g>
    </g>
</svg>