<?xml version="1.0" encoding="UTF-8"?>
<svg width="17px" height="11px" viewBox="0 0 17 11" version="1.1" xmlns="http://www.w3.org/2000/svg" xmlns:xlink="http://www.w3.org/1999/xlink">
    <!-- Generator: Sketch 51.2 (57519) - http://www.bohemiancoding.com/sketch -->
    <title>ion-ios-arrow-thin-right - Ionicons Copy 2</title>
    <desc>Created with Sketch.</desc>
    <defs>
        <path d="M11.9179688,10.8320313 C11.7070302,10.6210927 11.7070302,10.4101573 11.9179688,10.1992188 L15.4511719,6.296875 L0.421875,6.296875 C0.140623594,6.296875 0,6.15625141 0,5.875 C0,5.59374859 0.140623594,5.453125 0.421875,5.453125 L15.4511719,5.453125 L11.9179688,1.55078125 C11.7070302,1.3398427 11.7070302,1.1289073 11.9179688,0.91796875 C12.1289073,0.707030195 12.3398427,0.707030195 12.5507812,0.91796875 C15.3281389,3.97657779 16.7343748,5.52343732 16.7695312,5.55859375 C16.8398441,5.6289066 16.875,5.7343743 16.875,5.875 C16.875,6.0156257 16.8398441,6.1210934 16.7695312,6.19140625 L12.5507812,10.8320313 C12.4804684,10.9023441 12.3750007,10.9375 12.234375,10.9375 C12.0937493,10.9375 11.9882816,10.9023441 11.9179688,10.8320313 Z" id="path-1"></path>
    </defs>
    <g id="Symbols" stroke="none" stroke-width="1" fill="none" fill-rule="evenodd">
        <g id="icon/arrow--long">
            <mask id="mask-2" fill="white">
                <use xlink:href="#path-1"></use>
            </mask>
            <use id="ion-ios-arrow-thin-right---Ionicons-Copy-2" fill="#58DDC4" xlink:href="#path-1"></use>
        </g>
    </g>
</svg>