<svg width="160" height="35" viewBox="0 0 160 35" fill="none" xmlns="http://www.w3.org/2000/svg">
<path fill-rule="evenodd" clip-rule="evenodd" d="M31.2998 0.876036L24.8599 7.31592C23.6919 8.48396 23.6919 10.378 24.8599 11.5461L34.6367 21.3234C34.8385 21.5247 35.1653 21.5247 35.3666 21.3234L45.3068 11.3832C45.5086 11.1814 45.5086 10.8551 45.3068 10.6533L35.5295 0.876036C34.3614 -0.292012 32.4679 -0.292012 31.2998 0.876036Z" fill="#4477D3"/>
<path fill-rule="evenodd" clip-rule="evenodd" d="M7.3161 2.46197L0.876219 8.90185C-0.291829 10.0699 -0.291829 11.9635 0.876219 13.132L21.8521 34.1079C22.0534 34.3092 22.3806 34.3092 22.5819 34.1079L32.5221 24.1677C32.7234 23.9664 32.7234 23.6396 32.5221 23.4378L11.5458 2.46197C10.3782 1.29393 8.48415 1.29393 7.3161 2.46197Z" fill="#F77F99"/>
<path fill-rule="evenodd" clip-rule="evenodd" d="M70.0408 24.1179V25.8769C70.0408 26.1095 69.8857 26.2647 69.6526 26.2647H60.9372C60.7046 26.2647 60.5494 26.1095 60.5494 25.8769V8.54887C60.5494 8.31584 60.7046 8.16064 60.9372 8.16064H62.9802C63.2132 8.16064 63.3684 8.31584 63.3684 8.54887V23.7297H69.6526C69.8857 23.7297 70.0408 23.8853 70.0408 24.1179Z" fill="#343434"/>
<path fill-rule="evenodd" clip-rule="evenodd" d="M81.5046 19.9282C81.5046 17.5229 79.7979 15.7903 77.6257 15.7903C75.453 15.7903 73.7458 17.5229 73.7458 19.9282C73.7458 22.2811 75.453 24.0142 77.6257 24.0142C79.7979 24.0142 81.5046 22.2811 81.5046 19.9282ZM71.1339 19.9281C71.1339 16.2044 73.9788 13.3071 77.6257 13.3071C81.2461 13.3071 84.117 16.2044 84.117 19.9281C84.117 23.6005 81.2461 26.5232 77.6257 26.5232C73.9788 26.5232 71.1339 23.6005 71.1339 19.9281Z" fill="#343434"/>
<path fill-rule="evenodd" clip-rule="evenodd" d="M94.3326 13.592H96.2983C96.5827 13.592 96.712 13.7468 96.6082 14.0317L91.85 25.9538C91.7726 26.1614 91.5915 26.2647 91.3839 26.2647H89.3933C89.1857 26.2647 89.0051 26.1614 88.9272 25.9538L84.1945 14.0317C84.0917 13.7468 84.2204 13.592 84.5049 13.592H86.4705C86.6771 13.592 86.8578 13.6953 86.9356 13.902L90.4013 23.1094L93.867 13.902C93.9449 13.6953 94.1255 13.592 94.3326 13.592Z" fill="#343434"/>
<path fill-rule="evenodd" clip-rule="evenodd" d="M99.3509 19.0231H106.567C106.359 17.006 104.937 15.6871 102.997 15.6871C101.058 15.6871 99.6094 17.006 99.3509 19.0231ZM108.971 19.4887C108.971 20.4453 108.842 20.9114 108.144 20.9114H99.3763C99.7127 22.8766 101.213 24.1695 103.488 24.1695C104.782 24.1695 105.713 23.7818 106.567 23.1351C106.773 22.9799 106.929 22.9284 107.109 23.1096L107.937 23.911C108.144 24.1181 108.144 24.2983 107.937 24.5059C106.748 25.7215 105.092 26.4456 103.23 26.4456C99.3509 26.4456 96.6866 23.5233 96.6866 19.8764C96.6866 16.2301 99.3249 13.3333 102.971 13.3333C106.644 13.3333 108.971 16.2301 108.971 19.4887Z" fill="#343434"/>
<path fill-rule="evenodd" clip-rule="evenodd" d="M118.23 14.2904L117.635 15.7127C117.532 15.9716 117.377 15.9971 117.118 15.9457C116.859 15.8679 116.575 15.7905 116.083 15.7905C114.48 15.7905 113.368 16.9797 113.368 18.5576V25.8772C113.368 26.1093 113.213 26.2645 112.98 26.2645H111.04C110.807 26.2645 110.652 26.1093 110.652 25.8772V13.98C110.652 13.747 110.807 13.5923 111.04 13.5923H112.85C113.084 13.5923 113.213 13.747 113.238 13.98L113.342 15.2211C114.04 14.0833 115.075 13.3074 116.523 13.3074C117.196 13.3074 117.764 13.5145 118.126 13.7989C118.308 13.9541 118.334 14.0833 118.23 14.2904Z" fill="#343434"/>
<path fill-rule="evenodd" clip-rule="evenodd" d="M128.399 19.9283C128.399 17.6523 126.821 15.7904 124.571 15.7904C122.373 15.7904 120.743 17.549 120.743 19.9283C120.743 22.2303 122.373 23.9629 124.571 23.9629C126.821 23.9629 128.399 22.2039 128.399 19.9283ZM131.037 13.98V25.8772C131.037 26.1092 130.882 26.2649 130.649 26.2649H128.969C128.735 26.2649 128.606 26.1092 128.58 25.8772L128.451 24.4285C127.52 25.6441 126.149 26.4456 124.313 26.4456C120.718 26.4456 118.131 23.5492 118.131 19.9543C118.131 16.2555 120.718 13.3333 124.313 13.3333C126.149 13.3333 127.545 14.1866 128.477 15.4541L128.58 13.98C128.606 13.7469 128.735 13.5922 128.969 13.5922H130.649C130.882 13.5922 131.037 13.7469 131.037 13.98Z" fill="#343434"/>
<path fill-rule="evenodd" clip-rule="evenodd" d="M143.114 19.7987C143.114 17.6778 141.511 15.79 139.286 15.79C137.088 15.79 135.459 17.5486 135.459 19.7987C135.459 22.0492 137.088 23.8587 139.286 23.8587C141.511 23.8587 143.114 21.9455 143.114 19.7987ZM145.778 13.9796V26.0574C145.778 30.0665 142.131 31.3855 139.235 31.3855C137.166 31.3855 135.33 30.8161 134.062 29.9887C133.881 29.859 133.855 29.6524 133.958 29.4458L134.579 28.3339C134.683 28.1264 134.864 28.049 135.096 28.1782C136.209 28.7471 137.373 29.1094 139.028 29.1094C140.89 29.1094 143.217 28.3339 143.217 25.9541V24.2474C142.261 25.4885 140.838 26.3418 139.002 26.3418C135.433 26.3418 132.847 23.3936 132.847 19.8246C132.847 16.2556 135.433 13.3074 139.002 13.3074C140.786 13.3074 142.183 14.1348 143.166 15.3504L143.244 13.9796C143.269 13.7465 143.398 13.5923 143.631 13.5923H145.39C145.623 13.5923 145.778 13.7465 145.778 13.9796Z" fill="#343434"/>
<path fill-rule="evenodd" clip-rule="evenodd" d="M150.226 19.0231H157.442C157.235 17.006 155.812 15.6871 153.873 15.6871C151.933 15.6871 150.484 17.006 150.226 19.0231ZM159.847 19.4887C159.847 20.4453 159.717 20.9114 159.019 20.9114H150.252C150.588 22.8766 152.088 24.1695 154.363 24.1695C155.657 24.1695 156.588 23.7818 157.442 23.1351C157.648 22.9799 157.804 22.9284 157.984 23.1096L158.812 23.911C159.019 24.1181 159.019 24.2983 158.812 24.5059C157.623 25.7215 155.967 26.4456 154.105 26.4456C150.226 26.4456 147.562 23.5233 147.562 19.8764C147.562 16.2301 150.2 13.3333 153.846 13.3333C157.52 13.3333 159.847 16.2301 159.847 19.4887Z" fill="#343434"/>
</svg>
