<?xml version="1.0" encoding="UTF-8"?>
<svg width="128px" height="28px" viewBox="0 0 128 28" version="1.1" xmlns="http://www.w3.org/2000/svg" xmlns:xlink="http://www.w3.org/1999/xlink">
    <!-- Generator: Sketch 51.2 (57519) - http://www.bohemiancoding.com/sketch -->
    <title>logo</title>
    <desc>Created with Sketch.</desc>
    <defs></defs>
    <g id="Symbols" stroke="none" stroke-width="1" fill="none" fill-rule="evenodd">
        <g id="header-sp" transform="translate(-20.000000, -42.000000)">
            <g id="Group-12" transform="translate(0.000000, 27.000000)">
                <g id="logo" transform="translate(20.000000, 15.000000)">
                    <g>
                        <path d="M25.0398366,0.70080961 L19.8879327,5.85271351 C18.9534943,6.78715195 18.9534943,8.3023952 19.8879327,9.23683363 L27.7093862,17.0586715 C27.8708276,17.2197285 28.132209,17.2197285 28.2932661,17.0586715 L36.2454102,9.10652733 C36.4068517,8.94508589 36.4068517,8.68408889 36.2454102,8.52264745 L28.4235724,0.70080961 C27.4891339,-0.233628829 25.9742751,-0.233628829 25.0398366,0.70080961" id="Fill-1" fill="#58DDC4"></path>
                        <path d="M5.85286727,1.96958559 L0.700963363,7.12148949 C-0.233475075,8.05592793 -0.233475075,9.57078679 0.700963363,10.5056096 L17.481648,27.2862943 C17.6427051,27.4473514 17.9044709,27.4473514 18.0655279,27.2862943 L26.0176721,19.3341502 C26.1787291,19.1730931 26.1787291,18.9117117 26.0176721,18.7502703 L9.236603,1.96958559 C8.30254895,1.03514715 6.78730571,1.03514715 5.85286727,1.96958559" id="Fill-3" fill="#FFA9C8"></path>
                        <path d="M56.0326727,19.2942895 L56.0326727,20.7015207 C56.0326727,20.8875628 55.9085165,21.0117189 55.7220901,21.0117189 L48.7497417,21.0117189 C48.5636997,21.0117189 48.4395435,20.8875628 48.4395435,20.7015207 L48.4395435,6.83908228 C48.4395435,6.65265586 48.5636997,6.5284997 48.7497417,6.5284997 L50.3841441,6.5284997 C50.5705706,6.5284997 50.6947267,6.65265586 50.6947267,6.83908228 L50.6947267,18.9837069 L55.7220901,18.9837069 C55.9085165,18.9837069 56.0326727,19.1082474 56.0326727,19.2942895" id="Fill-5" fill="#343434"></path>
                        <path d="M65.2036613,15.942573 C65.2036613,14.0183447 63.8383279,12.6322547 62.1005261,12.6322547 C60.3623399,12.6322547 58.9966222,14.0183447 58.9966222,15.942573 C58.9966222,17.8249033 60.3623399,19.2113778 62.1005261,19.2113778 C63.8383279,19.2113778 65.2036613,17.8249033 65.2036613,15.942573 M56.9071087,15.942573 C56.9071087,12.963594 59.1830486,10.6457562 62.1005261,10.6457562 C64.9968625,10.6457562 67.2935592,12.963594 67.2935592,15.942573 C67.2935592,18.8804228 64.9968625,21.218633 62.1005261,21.218633 C59.1830486,21.218633 56.9071087,18.8804228 56.9071087,15.942573" id="Fill-7" fill="#343434"></path>
                        <path d="M75.4660709,10.8736577 L77.0385874,10.8736577 C77.2661429,10.8736577 77.3695423,10.9974294 77.2865153,11.2253694 L73.4799568,20.7630991 C73.4180709,20.9291532 73.273158,21.0117958 73.1071039,21.0117958 L71.5145994,21.0117958 C71.3485453,21.0117958 71.2040168,20.9291532 71.1417465,20.7630991 L67.3555604,11.2253694 C67.2733021,10.9974294 67.3763171,10.8736577 67.6038727,10.8736577 L69.1763892,10.8736577 C69.3416745,10.8736577 69.486203,10.9563003 69.5484733,11.1215856 L72.3210378,18.4875435 L75.0936024,11.1215856 C75.1558727,10.9563003 75.3004012,10.8736577 75.4660709,10.8736577" id="Fill-9" fill="#343434"></path>
                        <path d="M79.4806967,15.2184697 L85.2533814,15.2184697 C85.0873273,13.604824 83.9495495,12.5496889 82.3977898,12.5496889 C80.84603,12.5496889 79.6874955,13.604824 79.4806967,15.2184697 M87.1768408,15.5909381 C87.1768408,16.3562474 87.0738258,16.7291003 86.5153153,16.7291003 L79.5010691,16.7291003 C79.7701381,18.3012324 80.9701862,19.3356108 82.7906306,19.3356108 C83.8253934,19.3356108 84.5703303,19.0254126 85.2533814,18.5080312 C85.4182823,18.3838751 85.5428228,18.3427459 85.6873514,18.4876589 L86.3492613,19.128812 C86.5153153,19.2944817 86.5153153,19.4386258 86.3492613,19.6046799 C85.3982943,20.5771724 84.0737057,21.1564396 82.5838318,21.1564396 C79.4806967,21.1564396 77.3492853,18.8186138 77.3492853,15.9011363 C77.3492853,12.9840432 79.4599399,10.6665898 82.377033,10.6665898 C85.3152673,10.6665898 87.1768408,12.9840432 87.1768408,15.5909381" id="Fill-11" fill="#343434"></path>
                        <path d="M94.5839279,11.432245 L94.1080601,12.5700228 C94.0254174,12.777206 93.9012613,12.7975784 93.6944625,12.7564492 C93.4872793,12.694179 93.2601081,12.6322931 92.8664985,12.6322931 C91.5838078,12.6322931 90.6943423,13.5836444 90.6943423,14.8459628 L90.6943423,20.7016745 C90.6943423,20.8873321 90.5701862,21.0114883 90.3837598,21.0114883 L88.832,21.0114883 C88.645958,21.0114883 88.5218018,20.8873321 88.5218018,20.7016745 L88.5218018,11.1839327 C88.5218018,10.9975063 88.645958,10.8737345 88.832,10.8737345 L90.2803604,10.8737345 C90.4667868,10.8737345 90.5701862,10.9975063 90.5905586,11.1839327 L90.6735856,12.1767976 C91.2320961,11.2665754 92.0596757,10.6457946 93.2182102,10.6457946 C93.7567327,10.6457946 94.2114595,10.8114643 94.5009009,11.0390198 C94.6461982,11.163176 94.666955,11.2665754 94.5839279,11.432245" id="Fill-13" fill="#343434"></path>
                        <path d="M102.719423,15.942573 C102.719423,14.1217441 101.457105,12.6322547 99.657033,12.6322547 C97.8984745,12.6322547 96.5946426,14.0391015 96.5946426,15.942573 C96.5946426,17.7841586 97.8984745,19.1702486 99.657033,19.1702486 C101.457105,19.1702486 102.719423,17.7630174 102.719423,15.942573 M104.829309,11.1838943 L104.829309,20.701636 C104.829309,20.8872937 104.705538,21.0118342 104.519495,21.0118342 L103.174919,21.0118342 C102.988108,21.0118342 102.884709,20.8872937 102.863952,20.701636 L102.760553,19.5427171 C102.016,20.5152096 100.918967,21.1563628 99.4502342,21.1563628 C96.5746547,21.1563628 94.5051291,18.8392937 94.5051291,15.9633297 C94.5051291,13.0043387 96.5746547,10.6665129 99.4502342,10.6665129 C100.918967,10.6665129 102.036372,11.3491796 102.781309,12.3631856 L102.863952,11.1838943 C102.884709,10.9974679 102.988108,10.8736961 103.174919,10.8736961 L104.519495,10.8736961 C104.705538,10.8736961 104.829309,10.9974679 104.829309,11.1838943" id="Fill-15" fill="#343434"></path>
                        <path d="M114.491195,15.8389429 C114.491195,14.1422703 113.208505,12.632024 111.428805,12.632024 C109.670631,12.632024 108.366799,14.0388709 108.366799,15.8389429 C108.366799,17.6393994 109.670631,19.086991 111.428805,19.086991 C113.208505,19.086991 114.491195,17.5563724 114.491195,15.8389429 M116.622607,11.1836637 L116.622607,20.8459339 C116.622607,24.0532372 113.705129,25.1083724 111.38806,25.1083724 C109.732517,25.1083724 108.263784,24.6528769 107.249778,23.990967 C107.104865,23.8871832 107.084108,23.7218979 107.166751,23.5566126 L107.663375,22.6671471 C107.746018,22.5010931 107.890931,22.4392072 108.076973,22.5426066 C108.967207,22.9977177 109.898186,23.2875435 111.222006,23.2875435 C112.71188,23.2875435 114.573838,22.6671471 114.573838,20.7632913 L114.573838,19.397958 C113.808529,20.3908228 112.670751,21.0734895 111.201249,21.0734895 C108.346426,21.0734895 106.277285,18.7149069 106.277285,15.8596997 C106.277285,13.0044925 108.346426,10.6459099 111.201249,10.6459099 C112.628853,10.6459099 113.746258,11.3078198 114.532709,12.2803123 L114.594979,11.1836637 C114.615351,10.9972372 114.718751,10.8738498 114.904793,10.8738498 L116.31164,10.8738498 C116.49845,10.8738498 116.622607,10.9972372 116.622607,11.1836637" id="Fill-17" fill="#343434"></path>
                        <path d="M120.180776,15.2184697 L125.953461,15.2184697 C125.787791,13.604824 124.649629,12.5496889 123.098253,12.5496889 C121.546109,12.5496889 120.387575,13.604824 120.180776,15.2184697 M127.877305,15.5909381 C127.877305,16.3562474 127.773905,16.7291003 127.215395,16.7291003 L120.201533,16.7291003 C120.470217,18.3012324 121.670265,19.3356108 123.49071,19.3356108 C124.525473,19.3356108 125.27041,19.0254126 125.953461,18.5080312 C126.118746,18.3838751 126.242902,18.3427459 126.387431,18.4876589 L127.049725,19.128812 C127.215395,19.2944817 127.215395,19.4386258 127.049725,19.6046799 C126.098374,20.5771724 124.773785,21.1564396 123.283911,21.1564396 C120.180776,21.1564396 118.049365,18.8186138 118.049365,15.9011363 C118.049365,12.9840432 120.160019,10.6665898 123.077112,10.6665898 C126.015731,10.6665898 127.877305,12.9840432 127.877305,15.5909381" id="Fill-19" fill="#343434"></path>
                    </g>
                </g>
            </g>
        </g>
    </g>
</svg>