<?xml version="1.0" encoding="UTF-8"?>
<svg width="140px" height="106px" viewBox="0 0 140 106" version="1.1" xmlns="http://www.w3.org/2000/svg" xmlns:xlink="http://www.w3.org/1999/xlink">
    <!-- Generator: Sketch 51.2 (57519) - http://www.bohemiancoding.com/sketch -->
    <title>Combined Shape</title>
    <desc>Created with Sketch.</desc>
    <defs></defs>
    <g id="SP" stroke="none" stroke-width="1" fill="none" fill-rule="evenodd">
        <g id="トップ" transform="translate(-198.000000, -3203.000000)" fill="#232323">
            <g id="whatisloverage" transform="translate(40.000000, 3161.000000)">
                <g id="Group-28" transform="translate(158.000000, 42.000000)">
                    <path d="M96.3916604,2.6982204 C99.9893077,-0.8994068 105.82161,-0.8994068 109.419258,2.6982204 L139.53383,32.8126243 C140.15539,33.4341806 140.15539,34.43903 139.53383,35.0605863 L108.91757,65.676675 C108.29749,66.2967514 107.291155,66.2967514 106.669596,65.676675 L76.5565032,35.5622711 C72.9588559,31.9646439 72.9588559,26.1308938 76.5565032,22.5332666 L96.3916604,2.6982204 Z M22.5441815,7.47643028 C26.1435514,3.87706042 31.9801273,3.87706042 35.5780165,7.47643028 L100.217132,72.1140652 C100.837509,72.7359226 100.837509,73.7427394 100.217132,74.3631162 L69.5862133,104.994035 C68.9658365,105.614412 67.9575391,105.614412 67.3371624,104.994035 L2.69952739,40.3564 C-0.899842465,36.7555496 -0.899842465,30.9204543 2.69952739,27.3210844 L22.5441815,7.47643028 Z" id="Combined-Shape"></path>
                </g>
            </g>
        </g>
    </g>
</svg>