<?xml version="1.0" encoding="UTF-8"?>
<svg width="14px" height="11px" viewBox="0 0 14 11" version="1.1" xmlns="http://www.w3.org/2000/svg" xmlns:xlink="http://www.w3.org/1999/xlink">
    <!-- Generator: Sketch 51.2 (57519) - http://www.bohemiancoding.com/sketch -->
    <title>Combined Shape</title>
    <desc>Created with Sketch.</desc>
    <defs></defs>
    <g id="Symbols" stroke="none" stroke-width="1" fill="none" fill-rule="evenodd" opacity="0.100000001">
        <g id="header-sp" transform="translate(-341.000000, -9.000000)" fill="#343434">
            <g id="Group" transform="translate(341.000000, 9.000000)">
                <path d="M9.52602481,0.266612351 C9.88151769,-0.0888805327 10.4578227,-0.0888805327 10.8133156,0.266612351 L13.7890148,3.24231153 C13.8504327,3.30372947 13.8504327,3.4030218 13.7890148,3.46443974 L10.7637425,6.48971197 C10.7024708,6.55098368 10.6030322,6.55098368 10.5416143,6.48971197 L7.56606137,3.5140128 C7.21056848,3.15851991 7.21056848,2.58206868 7.56606137,2.22657579 L9.52602481,0.266612351 Z M2.22663429,0.749298864 C2.58212717,0.39380598 3.1585784,0.39380598 3.51392506,0.749298864 L9.89802742,7.13325499 C9.95929913,7.19467293 9.95929913,7.2941115 9.89802742,7.35538321 L6.87275519,10.3806554 C6.81148348,10.4419271 6.71189868,10.4419271 6.65062697,10.3806554 L0.266670845,3.99669931 C-0.0888220394,3.64106019 -0.0888220394,3.06475519 0.266670845,2.70926231 L2.22663429,0.749298864 Z" id="Combined-Shape"></path>
            </g>
        </g>
    </g>
</svg>