<?xml version="1.0" encoding="UTF-8"?>
<svg width="111px" height="33px" viewBox="0 0 111 33" version="1.1" xmlns="http://www.w3.org/2000/svg" xmlns:xlink="http://www.w3.org/1999/xlink">
    <!-- Generator: Sketch 51.3 (57544) - http://www.bohemiancoding.com/sketch -->
    <title>Men’sTopic</title>
    <desc>Created with Sketch.</desc>
    <defs></defs>
    <g id="PC" stroke="none" stroke-width="1" fill="none" fill-rule="evenodd">
        <g id="トップ" transform="translate(-737.000000, -1391.000000)" fill="#FFA9C8">
            <g id="Group-43" transform="translate(120.000000, 947.000000)">
                <g id="Group-37" transform="translate(613.000000, 440.000000)">
                    <path d="M33.5890946,10.1119385 C33.590904,10.1074666 33.592,10.1022813 33.592,10.096 C33.6150145,10.0844928 33.6159595,10.0913767 33.6089439,10.1037188 L33.5890946,10.1119385 Z M33.6089439,10.1037188 C33.5940115,10.1299885 33.5430145,10.1809855 33.592,10.132 L33.844,9.916 C34.348,9.448 34.852,9.016 35.428,8.656 C36.076,8.296 36.796,8.044 37.516,8.404 C37.696,8.512 37.948,8.764 37.768,8.98 L37.192,9.808 C35.824,11.68 34.492,13.552 33.196,15.46 C31.468,17.98 29.776,20.536 28.228,23.164 L27.724,24.064 C27.436,24.568 27.4,24.604 27.4,24.64 C27.328,24.748 27.436,24.568 27.364,24.676 L27.256,24.856 C26.896,25.504 26.572,26.188 26.284,26.872 C26.14,27.232 25.996,27.628 25.888,28.024 L25.816,28.492 L25.816,28.744 C25.816,28.852 25.852,28.924 25.852,28.996 C25.852,29.032 25.852,29.032 25.888,29.068 C26.068,29.176 26.284,29.356 26.212,29.572 C26.14,29.86 25.708,29.86 25.492,29.788 C24.124,29.428 24.628,27.628 24.988,26.692 C25.528,25.36 26.248,24.064 27.004,22.84 C27.76,21.544 28.552,20.248 29.38,18.988 C30.964,16.54 32.62,14.128 34.276,11.752 C34.708,11.176 35.104,10.564 35.536,9.988 C35.5,10.024 35.5,10.024 35.464,10.024 C35.464,10.024 35.428,10.06 35.248,10.204 C35.032,10.384 34.852,10.564 34.636,10.708 C34.6,10.78 34.528,10.816 34.456,10.888 C34.456,10.888 34.348,10.96 34.42,10.888 L33.808,11.428 L32.512,12.544 C31.684,13.336 30.82,14.092 30.028,14.884 C28.516,16.324 27.04,17.8 25.672,19.348 C24.34,20.86 23.08,22.408 21.82,23.956 L20.02,26.044 C19.372,26.836 18.76,27.628 17.932,28.276 C17.608,28.492 17.032,28.24 16.888,27.952 C16.708,27.592 16.708,27.16 16.78,26.8 C16.888,26.332 17.032,25.864 17.212,25.396 C18.148,23.092 19.588,21.004 20.884,18.916 L21.856,17.224 L22.648,15.784 C22.828,15.532 22.972,15.244 23.116,14.992 C23.152,14.884 23.188,14.812 23.26,14.74 C23.26,14.704 23.296,14.668 23.296,14.668 C23.296,14.632 23.332,14.596 23.332,14.596 L23.548,14.2 C24.124,13.12 24.7,12.076 25.204,10.96 L25.42,10.528 C24.088,11.464 22.972,12.724 21.892,13.948 C20.488,15.568 19.012,17.116 17.644,18.772 C16.168,20.536 14.764,22.3 13.432,24.136 C12.064,25.972 10.768,27.808 9.508,29.716 C8.932,30.58 8.356,31.516 7.816,32.416 C7.672,32.776 7.564,33.136 7.42,33.496 C7.132,34.252 6.844,35.044 6.34,35.656 C6.196,35.836 5.872,35.836 5.656,35.764 C5.512,35.728 5.152,35.548 5.188,35.296 C5.224,34.612 5.512,34.036 5.836,33.424 C6.052,32.956 6.304,32.524 6.556,32.092 C6.7,31.768 6.808,31.48 6.952,31.192 C7.456,30.22 7.924,29.248 8.428,28.312 C9.472,26.368 10.588,24.46 11.74,22.588 C12.82,20.716 13.936,18.844 14.98,16.936 C15.52,16 16.024,15.028 16.492,14.056 C16.96,13.12 17.356,12.148 17.788,11.212 C18.292,10.204 18.688,9.16 19.012,8.08 L19.228,7.144 C19.264,6.964 19.336,6.64 19.336,6.532 L19.336,6.352 C19.336,6.1 19.336,5.848 19.264,5.632 C19.264,5.596 19.228,5.452 19.264,5.596 L19.264,5.524 L19.192,5.38 C19.192,5.344 19.156,5.308 19.156,5.308 C19.12,5.272 19.12,5.272 19.084,5.272 L19.048,5.236 L18.868,5.236 C18.832,5.236 18.76,5.236 18.688,5.272 L18.58,5.272 L18.328,5.344 C18.148,5.38 17.968,5.452 17.788,5.524 C17.752,5.524 17.68,5.56 17.644,5.56 L17.608,5.596 C17.68,5.56 17.608,5.596 17.572,5.596 L16.564,6.1 C16.024,6.388 15.52,6.748 15.016,7.108 C14.44,7.576 13.9,8.008 13.36,8.548 C12.712,9.196 12.064,9.844 11.488,10.564 C10.084,12.22 8.824,14.092 7.852,16.036 C6.988,17.728 6.232,19.528 5.872,21.364 C5.8,21.904 5.512,23.344 5.836,23.884 C5.872,23.956 5.908,24.064 5.944,24.136 C6.016,24.244 5.872,24.064 5.944,24.172 L6.052,24.244 C6.232,24.424 6.124,24.712 5.872,24.784 C5.584,24.856 5.296,24.712 5.08,24.532 C4.54,23.992 4.504,23.092 4.54,22.408 C4.612,20.716 5.152,19.06 5.8,17.512 C6.664,15.46 7.816,13.48 9.112,11.68 C10.228,10.168 11.452,8.728 12.82,7.468 C13.828,6.604 14.872,5.776 16.06,5.164 C16.78,4.804 17.608,4.444 18.436,4.408 C19.048,4.336 19.696,4.516 20.128,4.984 C20.452,5.344 20.56,5.884 20.56,6.388 C20.56,7.612 20.128,8.872 19.66,10.024 C19.48,10.528 19.264,10.996 19.084,11.464 L17.896,14.056 C16.528,16.828 14.98,19.492 13.396,22.156 C14.656,20.464 15.988,18.844 17.356,17.224 C18.112,16.36 18.832,15.532 19.624,14.704 C20.272,14.02 20.884,13.3 21.496,12.58 C22.792,11.176 24.16,9.772 25.888,8.98 C26.212,8.836 26.68,8.908 26.86,9.196 C27.076,9.448 27.004,9.736 26.932,10.024 C26.824,10.384 26.68,10.708 26.536,11.068 C26.068,12.148 25.492,13.192 24.952,14.236 C24.34,15.316 23.764,16.396 23.116,17.476 C22.792,18.052 22.468,18.664 22.108,19.24 L20.452,21.94 L19.912,22.804 C19.84,22.984 19.732,23.128 19.66,23.272 L19.552,23.524 C19.48,23.632 19.588,23.452 19.516,23.56 L19.444,23.668 C19.12,24.244 18.832,24.82 18.58,25.432 C18.436,25.756 18.328,26.044 18.22,26.368 C18.544,25.936 18.868,25.504 19.228,25.108 C19.912,24.352 20.56,23.56 21.244,22.732 C22.504,21.22 23.764,19.672 25.096,18.196 C26.5,16.612 28.048,15.136 29.596,13.66 C30.424,12.868 31.288,12.112 32.116,11.356 L32.8,10.78 C33.016,10.6 33.232,10.384 33.484,10.204 C33.484,10.204 33.52,10.168 33.556,10.168 C33.556,10.1382813 33.5805334,10.133096 33.5890946,10.1119385 L33.6089439,10.1037188 Z M19.12,5.236 L19.084,5.236 C19.12,5.236 19.156,5.272 19.12,5.236 Z M23.296,14.668 L23.296,14.632 L23.296,14.668 Z M32.944,22.408 C32.584,22.588 32.008,22.66 31.576,22.48 L31.504,22.552 C31.432,22.696 31.36,22.84 31.324,23.02 C31.288,23.056 31.288,23.092 31.288,23.128 C31.288,23.164 31.252,23.2 31.252,23.236 L31.216,23.38 C31.216,23.632 31.18,23.884 31.432,24.1 C31.504,24.136 31.576,24.172 31.648,24.172 L31.972,24.172 C32.836,24.1 33.448,23.884 34.204,23.56 C35.968,22.768 37.588,21.724 39.532,20.392 C39.928,20.104 40.432,19.816 40.792,19.528 C40.972,19.42 41.224,19.24 41.476,19.168 C41.548,19.132 41.62,19.132 41.728,19.132 L41.764,19.132 C41.728,19.132 41.872,19.168 41.872,19.168 C42.052,19.204 41.98,19.204 42.088,19.276 L42.196,19.384 C42.232,19.492 42.232,19.528 42.196,19.636 L42.124,19.744 L42.016,19.852 L41.548,20.212 L41.404,20.32 L40.252,21.112 C39.208,21.832 37.984,22.66 36.616,23.38 C35.68,23.884 34.492,24.46 33.484,24.712 C32.944,24.856 32.332,24.928 31.756,24.892 C31.072,24.82 30.388,24.424 30.172,23.74 C30.028,23.092 30.388,22.336 30.712,21.796 C31.108,21.184 31.684,20.5 32.224,19.996 C32.692,19.528 33.304,19.024 33.988,18.628 C34.564,18.268 35.5,17.908 36.184,18.412 C36.76,18.88 36.436,19.6 36.076,20.104 C35.716,20.608 35.248,21.04 34.708,21.436 C34.204,21.796 33.556,22.192 32.944,22.408 Z M31.936,21.868 C31.792,22.084 34.168,21.184 35.356,19.384 C35.356,19.384 35.5,19.132 35.464,18.88 C35.14,18.952 34.816,19.132 34.456,19.384 C34.24,19.528 34.096,19.672 33.916,19.816 C33.88,19.852 33.736,19.96 33.736,19.96 C33.16,20.464 32.584,21.004 32.116,21.616 L31.936,21.868 Z M52.456,19.096 C52.636,19.132 52.888,19.42 52.708,19.6 C51.916,20.32 51.052,20.932 50.152,21.58 C49.072,22.336 47.956,23.056 46.768,23.776 C46.264,24.064 45.796,24.352 45.292,24.568 C44.896,24.784 44.428,24.964 43.996,25.036 C43.42,25.144 42.988,24.928 42.7,24.46 C42.376,23.884 42.556,23.236 42.808,22.66 C43.06,22.012 43.456,21.4 43.852,20.752 C43.996,20.464 44.176,20.176 44.284,19.816 C43.348,20.356 42.52,21.184 41.8,21.94 C40.864,22.984 40.036,24.172 39.064,25.252 C39.028,25.252 38.992,25.288 38.956,25.324 C38.812,25.54 38.488,25.468 38.272,25.36 C38.128,25.324 37.912,25.144 37.984,24.964 C38.632,23.452 39.46,22.12 40.36,20.824 C40.684,20.356 40.864,19.852 41.224,19.312 C41.44,18.88 41.764,18.232 42.34,18.232 C42.556,18.232 42.88,18.34 42.988,18.556 C43.096,18.808 42.916,18.952 42.7,18.952 C42.664,18.952 42.664,18.988 42.592,19.024 L42.376,19.312 L42.052,19.996 L41.764,20.644 C42.556,19.816 43.528,19.06 44.644,18.736 C44.896,18.628 45.4,18.808 45.472,19.132 C45.508,19.78 45.22,20.392 44.932,20.968 C44.608,21.58 44.212,22.156 43.96,22.804 C43.816,23.128 43.708,23.38 43.672,23.74 C43.636,23.884 43.636,24.1 43.708,24.28 C43.888,24.244 44.032,24.172 44.212,24.1 L44.896,23.74 L46.48,22.804 C47.596,22.084 48.676,21.4 49.756,20.608 L51.088,19.636 C51.232,19.492 51.376,19.384 51.556,19.276 L51.736,19.168 C51.808,19.132 51.88,19.024 51.808,19.132 C51.988,18.952 52.24,18.988 52.456,19.096 Z M54.004,12.112 C54.148,11.716 54.94,11.932 54.976,12.328 C54.976,12.688 54.688,13.084 54.472,13.372 C54.292,13.624 54.076,14.02 53.788,14.092 C53.536,14.128 53.212,14.056 53.068,13.876 C52.96,13.732 52.96,13.552 53.104,13.444 C53.14,13.408 53.176,13.336 53.248,13.3 L53.572,12.868 C53.752,12.58 53.896,12.4 54.004,12.112 Z M66.28,19.42 C66.424,19.528 66.46,19.672 66.352,19.852 C66.136,20.14 65.884,20.32 65.56,20.608 C65.308,20.824 65.056,21.076 64.768,21.292 C64.192,21.724 63.94,21.976 63.328,22.408 C62.464,23.02 61.564,23.596 60.592,24.136 C59.296,24.82 58.468,25.216 57.028,25.432 C56.74,25.468 56.416,25.504 56.128,25.504 L56.02,25.828 C55.984,25.972 55.876,26.116 55.768,26.224 C55.732,26.296 55.624,26.332 55.516,26.332 C55.264,26.44 54.976,26.332 54.76,26.224 C54.508,26.08 54.292,25.864 54.112,25.648 L53.32,24.928 C53.104,24.64 52.852,24.388 52.6,24.1 C52.492,23.992 52.348,23.848 52.276,23.74 C52.204,23.668 52.132,23.524 52.096,23.416 C52.06,23.38 52.06,23.344 52.06,23.308 C51.988,23.164 52.168,23.056 52.276,23.02 C52.564,22.948 53.032,23.02 53.14,23.308 C53.212,23.38 53.248,23.452 53.32,23.524 C53.392,23.596 53.464,23.668 53.536,23.776 C53.572,23.776 53.644,23.884 53.644,23.884 L53.788,23.992 L54.184,24.28 L54.328,24.352 C54.436,24.424 54.544,24.46 54.652,24.496 C54.688,24.496 54.76,24.532 54.76,24.532 L54.904,24.604 L55.12,24.64 C55.48,23.272 55.768,21.976 56.344,20.68 C56.92,19.42 57.82,18.232 59.188,17.764 C59.512,17.692 59.944,17.836 60.088,18.124 C60.196,18.34 60.052,18.484 59.836,18.556 L59.872,18.556 L59.728,18.628 C59.692,18.628 59.584,18.7 59.692,18.628 L59.44,18.736 L59.008,19.024 C58.972,19.06 58.864,19.132 58.684,19.312 L58.36,19.672 L57.82,20.464 L57.604,20.896 L57.388,21.364 L57.028,22.372 C56.776,23.02 56.596,23.74 56.416,24.424 C56.38,24.496 56.38,24.568 56.344,24.676 C56.992,24.676 57.676,24.424 58.36,24.208 C59.008,23.992 59.152,23.92 59.296,23.848 C60.052,23.452 60.268,23.308 60.916,22.912 C61.672,22.444 62.284,21.976 63.004,21.436 L64.192,20.5 C64.624,20.176 65.092,19.672 65.56,19.348 C65.776,19.204 66.064,19.276 66.28,19.42 Z M100.768,7.108 C100.84,7.288 100.804,7.468 100.624,7.54 C100.336,7.756 99.976,7.828 99.616,7.936 C99.364,8.044 98.968,7.9 98.788,7.684 C98.716,7.612 98.68,7.54 98.68,7.468 C98.32,7.432 97.96,7.396 97.6,7.396 C97.384,7.396 97.132,7.396 96.916,7.36 L96.376,7.36 C95.944,7.36 95.512,7.324 95.08,7.324 C93.136,7.324 91.228,7.432 89.284,7.504 C87.052,7.612 84.856,7.756 82.624,7.936 C80.392,8.116 78.16,8.296 75.928,8.548 C73.624,8.764 71.356,9.052 69.052,9.304 C67.936,9.412 66.784,9.484 65.668,9.664 C64.768,9.772 63.832,9.952 62.896,9.952 C62.572,9.916 62.176,9.808 61.996,9.484 C61.852,9.196 62.14,8.98 62.428,8.98 C63.22,9.016 64.048,8.872 64.84,8.764 C65.74,8.62 66.676,8.548 67.576,8.44 C69.592,8.26 71.572,8.008 73.588,7.756 C78.016,7.252 82.48,6.892 86.944,6.64 C89.248,6.496 91.552,6.388 93.856,6.388 C95.908,6.352 97.996,6.388 100.048,6.676 C100.336,6.712 100.66,6.856 100.768,7.108 Z M78.826,9.538 L78.844,9.52 L78.826,9.538 Z M78.826,9.538 L78.808,9.556 C78.844,9.448 78.988,9.412 79.096,9.412 C79.384,9.412 79.672,9.556 79.78,9.844 C79.888,10.06 79.744,10.312 79.672,10.528 C79.492,10.96 79.24,11.356 78.988,11.752 C78.772,12.112 78.484,12.472 78.232,12.832 C77.98,13.264 77.692,13.696 77.404,14.092 C76.324,15.784 75.244,17.44 74.2,19.132 L72.4,22.12 L70.6,25.072 C69.484,27.016 68.44,29.032 67.648,31.156 C67.504,31.516 66.892,31.408 66.64,31.192 C66.424,31.012 66.244,30.796 66.28,30.472 C66.316,30.292 66.46,30.148 66.496,30.04 C66.568,29.896 66.676,29.824 66.82,29.824 C68.08,26.8 69.808,23.92 71.536,21.148 L73.372,18.16 C73.984,17.152 74.632,16.144 75.28,15.172 L77.224,12.184 C77.512,11.716 77.836,11.32 78.124,10.852 C78.232,10.636 78.376,10.42 78.484,10.168 L78.628,9.808 C78.664,9.736 78.664,9.664 78.736,9.628 L78.826,9.538 Z M87.304,18.844 C87.628,18.628 88.492,19.06 88.06,19.42 C87.412,19.96 86.62,20.32 85.828,20.644 C85.036,20.968 84.208,21.256 83.344,21.436 C83.02,21.472 82.552,21.58 82.12,21.616 C81.94,21.868 81.76,22.12 81.544,22.372 C81.184,22.84 80.824,23.272 80.428,23.704 C79.96,24.208 79.42,24.712 78.772,24.964 C78.16,25.216 77.44,25.36 76.828,25 C76.54,24.82 76.324,24.568 76.252,24.208 C76.18,23.92 76.216,23.596 76.288,23.308 C76.504,22.372 77.008,21.508 77.548,20.752 C78.16,19.96 78.88,19.24 79.744,18.736 C79.96,18.628 80.284,18.7 80.464,18.844 C80.752,19.06 80.608,19.456 80.284,19.456 C79.672,19.96 79.132,20.536 78.628,21.184 C78.124,21.832 77.656,22.588 77.44,23.416 C77.404,23.56 77.332,23.74 77.332,23.92 L77.332,24.208 C77.332,24.388 77.512,24.388 77.62,24.388 C77.692,24.388 77.728,24.352 77.8,24.352 C77.836,24.352 78.016,24.244 77.908,24.316 L78.088,24.208 C78.664,23.92 79.06,23.524 79.528,23.056 C79.924,22.588 80.356,22.12 80.716,21.616 C80.824,21.472 80.932,21.364 81.004,21.256 L80.896,21.148 C80.68,20.896 80.608,20.572 80.608,20.248 C80.608,20.032 80.608,19.744 80.716,19.528 C80.824,19.204 81.076,18.88 81.364,18.7 C81.832,18.448 82.408,18.592 82.696,19.024 C83.056,19.528 82.912,20.104 82.696,20.644 L82.696,20.68 L82.768,20.68 C83.632,20.5 84.46,20.212 85.288,19.888 L86.368,19.384 C86.692,19.204 87.016,19.06 87.304,18.844 Z M81.76,19.24 L81.724,19.24 L81.76,19.24 Z M99.22,19.204 C99.364,19.276 99.616,19.528 99.436,19.708 C98.356,20.788 97.168,21.724 95.908,22.624 C94.684,23.488 93.352,24.316 91.984,24.892 C90.796,25.432 89.428,25.9 88.132,25.648 C87.916,25.612 87.664,25.504 87.556,25.288 C87.484,25.144 87.52,25.036 87.664,24.928 C87.7,24.928 87.736,24.892 87.772,24.856 C87.772,24.856 87.808,24.856 87.808,24.82 C87.808,24.82 87.844,24.82 87.844,24.784 L88.168,24.496 L88.996,23.704 C89.644,23.056 90.256,22.372 90.832,21.616 L91.3,20.968 L91.516,20.608 C91.516,20.572 91.552,20.572 91.552,20.536 L91.624,20.392 C91.696,20.212 91.768,20.032 91.804,19.852 C91.84,19.816 91.84,19.744 91.84,19.708 L91.84,19.6 C91.84,19.564 91.804,19.528 91.732,19.528 L91.552,19.528 C91.48,19.528 91.444,19.528 91.408,19.564 L91.372,19.564 C91.3,19.564 91.228,19.564 91.156,19.6 C91.084,19.6 91.012,19.636 90.94,19.672 C90.904,19.672 90.868,19.672 90.832,19.708 C90.508,19.852 90.22,19.996 89.968,20.212 C89.644,20.428 89.464,20.536 89.212,20.824 C88.96,21.04 88.708,21.292 88.492,21.544 C88.096,22.012 87.7,22.48 87.376,22.984 C87.196,23.236 87.016,23.488 86.872,23.74 L85.72,25.468 C85,27.34 84.244,29.176 83.56,31.012 C83.2,31.912 82.912,32.812 82.48,33.676 C82.084,34.504 81.616,35.296 80.932,35.908 C80.644,36.196 80.068,36.052 79.888,35.692 C79.6,35.044 79.672,34.288 79.816,33.64 C79.996,32.848 80.284,32.092 80.644,31.372 C80.968,30.652 81.4,29.968 81.796,29.284 C82.372,28.384 82.948,27.484 83.56,26.584 L84.82,24.712 L84.892,24.496 C85.252,23.524 85.684,22.552 86.044,21.58 C86.368,20.752 86.692,19.852 86.836,18.988 C86.764,18.952 86.728,18.88 86.692,18.808 C86.656,18.772 86.656,18.664 86.692,18.628 L86.764,18.556 L86.764,18.592 C86.8,18.52 86.872,18.484 86.944,18.448 C86.98,18.448 87.052,18.412 87.088,18.412 C87.268,18.376 87.412,18.412 87.592,18.484 C87.664,18.52 87.844,18.664 87.844,18.808 C87.808,19.6 87.592,20.356 87.376,21.112 C87.7,20.716 88.06,20.392 88.42,20.068 C88.96,19.6 89.536,19.168 90.22,18.916 C90.796,18.736 91.552,18.628 92.128,18.844 C92.56,19.024 92.992,19.348 92.992,19.852 C92.992,20.284 92.776,20.68 92.56,21.076 C92.02,22.048 91.228,22.912 90.472,23.74 C90.148,24.136 89.752,24.496 89.392,24.856 C89.572,24.82 89.752,24.784 89.896,24.712 C90.292,24.604 90.688,24.46 91.048,24.316 C90.976,24.352 91.12,24.28 91.156,24.28 C91.192,24.244 91.264,24.208 91.3,24.208 L92.164,23.776 C93.496,23.092 94.756,22.264 95.98,21.328 C96.268,21.148 96.556,20.932 96.808,20.716 L97.204,20.392 L97.492,20.176 C97.852,19.888 98.212,19.564 98.536,19.24 C98.716,19.06 99.004,19.096 99.22,19.204 Z M82.372,30.94 L82.768,29.968 C82.48,30.436 82.228,30.868 81.976,31.336 C81.58,32.092 81.22,32.884 81.004,33.676 C80.968,33.856 80.932,34.072 80.896,34.288 C81.544,33.244 81.94,32.056 82.372,30.94 Z M100.264,19.024 L100.048,19.24 L99.904,19.348 L99.508,19.708 C98.896,20.32 98.32,20.968 97.852,21.688 C97.564,22.084 97.348,22.48 97.204,22.804 C96.988,23.2 96.772,23.632 96.664,24.064 C96.628,24.208 96.592,24.352 96.592,24.46 C96.628,24.568 96.736,24.568 96.844,24.532 L97.276,24.424 C97.852,24.28 98.428,23.992 99.004,23.776 L99.724,23.416 C100.048,23.272 100.588,22.984 101.056,22.696 C101.164,22.624 101.344,22.552 101.416,22.48 L103.504,21.184 C103.864,20.896 104.332,20.644 104.728,20.392 C105.376,19.924 105.808,19.672 106.24,19.456 C106.492,19.384 107.284,19.708 106.96,20.068 C106.744,20.32 106.384,20.536 105.988,20.788 C105.124,21.364 104.872,21.472 104.764,21.58 C103.576,22.372 102.388,23.128 100.804,23.956 C100.372,24.172 99.724,24.496 99.256,24.676 C98.428,25.036 96.196,26.008 95.548,24.748 C95.44,24.496 95.44,24.172 95.512,23.92 C95.62,23.524 95.8,23.056 96.016,22.696 C96.448,21.868 96.952,21.04 97.456,20.392 C97.708,20.068 97.996,19.708 98.32,19.42 L98.86,18.916 L99.508,18.448 C99.652,18.376 99.904,18.376 100.084,18.484 L100.048,18.484 C100.156,18.556 100.3,18.736 100.264,19.024 Z M100.48,17.404 C100.3,17.368 100.084,17.152 100.084,16.936 C100.12,16.828 100.228,16.72 100.372,16.612 C100.408,16.612 100.516,16.54 100.552,16.504 L100.732,16.396 L101.02,16.18 L101.308,15.928 C101.524,15.748 101.956,15.892 102.1,16.036 C102.208,16.108 102.424,16.36 102.244,16.54 L101.884,16.828 L101.56,17.08 C101.236,17.296 100.912,17.512 100.48,17.404 Z M108.868,19.456 C108.724,19.672 108.364,19.564 108.22,19.384 C108.148,19.456 108.004,19.492 107.932,19.564 C107.716,19.708 107.356,19.924 107.14,20.14 L106.852,20.356 C106.564,20.644 106.456,20.752 106.168,21.076 C105.736,21.544 105.34,22.012 104.98,22.516 C104.44,23.308 104.332,23.344 104.188,23.776 C104.116,23.92 104.08,24.136 104.08,24.388 C104.08,24.496 104.008,24.784 105.16,24.424 C105.808,24.208 105.952,24.1 106.06,24.064 L106.888,23.704 L107.32,23.488 C108.004,23.092 108.652,22.732 109.3,22.3 L111.172,21.004 C111.172,21.004 111.316,20.896 111.352,20.86 L112.36,20.068 C112.828,19.636 112.936,19.636 113.26,19.312 C113.404,19.24 113.62,19.24 113.764,19.312 C113.908,19.42 114.088,19.6 114.124,19.744 C114.052,19.888 113.872,20.14 113.728,20.284 L113.224,20.752 L112.792,21.076 C112.468,21.292 112.18,21.544 111.856,21.76 L110.992,22.408 C109.516,23.416 107.824,24.46 105.916,25.108 C105.304,25.324 104.512,25.432 103.864,25.216 C103.36,25.036 102.82,24.676 102.856,24.064 C102.892,23.632 103.216,23.056 103.432,22.66 C104.08,21.652 104.908,20.788 105.736,19.96 C106.348,19.348 107.5,18.232 108.508,18.556 C108.724,18.628 108.976,18.772 109.012,19.024 C109.048,19.168 108.976,19.312 108.868,19.456 Z" id="Men’sTopic"></path>
                </g>
            </g>
        </g>
    </g>
</svg>