<?xml version="1.0" encoding="UTF-8"?>
<svg width="60px" height="16px" viewBox="0 0 60 16" version="1.1" xmlns="http://www.w3.org/2000/svg" xmlns:xlink="http://www.w3.org/1999/xlink">
    <!-- Generator: Sketch 51.2 (57519) - http://www.bohemiancoding.com/sketch -->
    <title>Featured</title>
    <desc>Created with Sketch.</desc>
    <defs></defs>
    <g id="SP" stroke="none" stroke-width="1" fill="none" fill-rule="evenodd">
        <g id="トップ" transform="translate(-156.000000, -1791.000000)" fill="#58DDC4">
            <path d="M175.936,1792.08 C175.984,1792.224 175.912,1792.344 175.768,1792.368 C175.096,1792.584 174.4,1792.728 173.704,1792.8 C173.536,1792.824 173.296,1792.728 173.224,1792.56 C173.176,1792.464 173.2,1792.368 173.272,1792.32 C171.064,1792.272 168.856,1792.32 166.648,1792.44 C164.368,1792.56 162.088,1792.704 159.808,1792.8 C159.688,1792.848 159.544,1792.848 159.448,1792.848 C159.208,1792.872 158.968,1792.896 158.728,1792.896 C158.464,1792.92 158.2,1792.92 157.936,1792.896 C157.672,1792.872 157.336,1792.776 157.264,1792.488 C157.264,1792.44 157.264,1792.392 157.312,1792.344 L157.432,1792.248 C157.576,1792.104 157.792,1792.128 157.96,1792.224 C158.008,1792.224 158.296,1792.272 158.392,1792.272 L158.92,1792.248 C161.752,1792.104 164.248,1791.96 167.44,1791.816 C170.128,1791.72 172.816,1791.72 175.504,1791.84 C175.672,1791.84 175.864,1791.936 175.936,1792.08 Z M168.976,1798.296 C169.192,1798.32 169.6,1798.584 169.312,1798.8 C169.216,1798.848 169.168,1798.92 169.072,1798.968 C168.928,1799.064 168.712,1798.992 168.592,1798.896 L168.52,1798.824 L168.4,1798.824 L168.4,1798.8 C168.376,1798.824 168.376,1798.824 168.352,1798.824 C168.328,1798.824 168.28,1798.8 168.232,1798.8 L167.296,1798.8 C165.904,1798.776 164.512,1798.824 163.096,1798.896 L161.608,1798.992 C161.392,1799.28 161.176,1799.592 160.96,1799.904 C160.264,1800.864 159.616,1801.872 158.992,1802.88 C158.632,1803.432 158.32,1803.984 158.008,1804.56 C157.648,1805.184 157.336,1805.808 156.976,1806.408 C156.832,1806.648 156.184,1806.408 156.304,1806.144 C156.4,1805.928 156.472,1805.712 156.592,1805.496 C157.744,1803.264 159.088,1801.152 160.576,1799.112 L160.6,1799.088 C160.384,1799.088 160.192,1799.112 160,1799.136 L159.496,1799.208 C159.376,1799.208 159.256,1799.232 159.136,1799.208 C159.112,1799.256 159.112,1799.28 159.064,1799.28 L159.04,1799.28 C158.968,1799.328 158.848,1799.28 158.8,1799.208 C158.728,1799.136 158.728,1799.064 158.68,1798.992 C158.584,1798.8 158.776,1798.704 158.92,1798.68 L160.72,1798.488 C160.84,1798.464 160.96,1798.464 161.056,1798.44 L162.76,1796.208 L163.96,1794.6 C164.152,1794.312 164.368,1794.024 164.584,1793.736 L164.92,1793.256 L165.064,1793.04 C165.136,1792.944 165.088,1793.04 165.112,1792.992 L165.112,1792.944 C165.208,1792.632 165.952,1792.848 165.856,1793.184 C165.784,1793.376 165.616,1793.544 165.52,1793.712 C164.392,1795.272 163.216,1796.808 162.064,1798.368 C163,1798.32 163.96,1798.272 164.92,1798.248 C165.616,1798.224 166.288,1798.224 166.984,1798.224 C167.32,1798.224 167.656,1798.224 167.968,1798.248 C168.304,1798.248 168.64,1798.248 168.976,1798.296 Z M158.776,1799.088 C158.8,1799.088 158.8,1799.088 158.8,1799.064 L158.776,1799.088 Z M169.912,1801.272 C169.672,1801.392 169.288,1801.44 169,1801.32 L168.952,1801.368 C168.904,1801.464 168.856,1801.56 168.832,1801.68 C168.808,1801.704 168.808,1801.728 168.808,1801.752 C168.808,1801.776 168.784,1801.8 168.784,1801.824 L168.76,1801.92 C168.76,1802.088 168.736,1802.256 168.904,1802.4 C168.952,1802.424 169,1802.448 169.048,1802.448 L169.264,1802.448 C169.84,1802.4 170.248,1802.256 170.752,1802.04 C171.928,1801.512 173.008,1800.816 174.304,1799.928 C174.568,1799.736 174.904,1799.544 175.144,1799.352 C175.264,1799.28 175.432,1799.16 175.6,1799.112 C175.648,1799.088 175.696,1799.088 175.768,1799.088 L175.792,1799.088 C175.768,1799.088 175.864,1799.112 175.864,1799.112 C175.984,1799.136 175.936,1799.136 176.008,1799.184 L176.08,1799.256 C176.104,1799.328 176.104,1799.352 176.08,1799.424 L176.032,1799.496 L175.96,1799.568 L175.648,1799.808 L175.552,1799.88 L174.784,1800.408 C174.088,1800.888 173.272,1801.44 172.36,1801.92 C171.736,1802.256 170.944,1802.64 170.272,1802.808 C169.912,1802.904 169.504,1802.952 169.12,1802.928 C168.664,1802.88 168.208,1802.616 168.064,1802.16 C167.968,1801.728 168.208,1801.224 168.424,1800.864 C168.688,1800.456 169.072,1800 169.432,1799.664 C169.744,1799.352 170.152,1799.016 170.608,1798.752 C170.992,1798.512 171.616,1798.272 172.072,1798.608 C172.456,1798.92 172.24,1799.4 172,1799.736 C171.76,1800.072 171.448,1800.36 171.088,1800.624 C170.752,1800.864 170.32,1801.128 169.912,1801.272 Z M169.24,1800.912 C169.144,1801.056 170.728,1800.456 171.52,1799.256 C171.52,1799.256 171.616,1799.088 171.592,1798.92 C171.376,1798.968 171.16,1799.088 170.92,1799.256 C170.776,1799.352 170.68,1799.448 170.56,1799.544 C170.536,1799.568 170.44,1799.64 170.44,1799.64 C170.056,1799.976 169.672,1800.336 169.36,1800.744 L169.24,1800.912 Z M182.776,1799.28 C182.896,1799.328 183.088,1799.52 182.968,1799.616 C182.176,1800.312 181.456,1800.96 180.568,1801.536 C180.16,1801.8 179.968,1801.944 179.656,1802.112 C178.696,1802.64 178.36,1802.784 178,1802.856 C177.424,1802.928 176.68,1802.856 176.368,1802.328 C176.176,1802.04 176.224,1801.656 176.32,1801.32 C176.104,1801.584 175.864,1801.8 175.6,1802.04 C175.36,1802.256 175.144,1802.544 174.904,1802.712 C174.712,1802.88 174.496,1803 174.232,1803.096 C173.944,1803.216 173.608,1803.216 173.296,1803 C173.08,1802.832 172.984,1802.544 172.984,1802.28 C173.008,1801.68 173.368,1801.2 173.704,1800.744 C174.088,1800.264 174.52,1799.832 175.024,1799.472 C175.384,1799.208 175.792,1799.016 176.296,1798.848 C176.464,1798.8 176.704,1798.752 176.896,1798.776 C177.112,1798.848 177.424,1799.016 177.304,1799.28 C177.232,1799.448 177.04,1799.448 176.896,1799.376 C176.848,1799.376 176.824,1799.352 176.776,1799.328 L176.752,1799.328 C176.728,1799.352 176.68,1799.328 176.656,1799.352 C176.632,1799.352 176.512,1799.4 176.56,1799.376 C176.176,1799.544 175.816,1799.76 175.48,1800 C175.192,1800.24 174.832,1800.552 174.544,1800.912 C174.256,1801.248 173.944,1801.608 173.8,1802.064 C173.728,1802.256 173.68,1802.472 173.752,1802.664 C173.776,1802.664 173.8,1802.664 173.824,1802.64 C174.088,1802.496 174.28,1802.376 174.472,1802.184 C174.736,1801.968 174.976,1801.728 175.192,1801.488 L176.584,1800 L177.328,1799.328 L177.352,1799.304 C177.52,1799.088 177.736,1798.896 177.88,1798.68 C178.048,1798.488 178.6,1798.656 178.6,1798.92 L178.6,1798.944 C178.6,1798.992 178.528,1799.088 178.48,1799.136 C178.456,1799.184 178.408,1799.208 178.384,1799.256 C178.192,1799.496 178.096,1799.52 177.64,1800.216 C177.568,1800.336 177.472,1800.456 177.424,1800.576 C177.28,1800.864 177.136,1801.176 177.064,1801.44 L176.992,1801.68 C176.824,1802.112 177.184,1802.496 177.76,1802.328 C178.24,1802.184 178.648,1801.944 179.152,1801.68 C180.328,1801.056 181.288,1800.168 182.296,1799.28 C182.464,1799.184 182.656,1799.208 182.776,1799.28 Z M185.128155,1796.064 C185.632108,1796.064 186.160054,1796.088 186.688,1796.088 C187.312,1796.088 187.96,1796.064 188.584,1796.136 C188.728,1796.16 188.92,1796.256 188.992,1796.4 C189.04,1796.52 188.968,1796.664 188.824,1796.688 C188.416,1796.76 188.032,1796.904 187.6,1796.976 C187.408,1797 187.192,1796.952 187.072,1796.808 C187.024,1796.76 187,1796.712 187,1796.64 L184.792,1796.64 C184.36,1797.432 183.88,1798.248 183.448,1799.04 C182.944,1800.024 182.416,1801.008 182.056,1802.064 C181.984,1802.28 181.912,1802.496 181.888,1802.76 L181.888,1802.784 C181.888,1803.216 182.296,1803.048 182.56,1802.976 C182.896,1802.88 183.232,1802.76 183.616,1802.568 C185.56,1801.632 187.456,1800.384 189.136,1799.064 C189.28,1798.944 189.568,1799.04 189.688,1799.136 C189.784,1799.208 189.904,1799.376 189.784,1799.472 C189.28,1799.928 188.608,1800.336 188.056,1800.744 C187.48,1801.152 186.904,1801.512 186.28,1801.896 C185.416,1802.424 184.552,1802.928 183.616,1803.312 C182.992,1803.552 182.176,1803.816 181.552,1803.48 C181.288,1803.336 181.096,1803.096 181.072,1802.784 C181.048,1802.424 181.192,1802.04 181.312,1801.704 C181.672,1800.648 182.2,1799.664 182.752,1798.68 C183.112,1797.984 183.496,1797.312 183.904,1796.64 L183.448,1796.64 C182.056,1796.64 180.688,1796.64 179.32,1796.664 C178,1796.664 176.68,1796.688 175.36,1796.688 C174.376,1796.688 173.392,1796.712 172.384,1796.712 L171.544,1796.712 C171.256,1796.736 170.848,1796.76 170.752,1796.4 C170.728,1796.328 170.8,1796.256 170.848,1796.208 C170.896,1796.16 170.992,1796.16 171.064,1796.16 L171.016,1796.16 L171.112,1796.16 C171.88,1796.136 172.648,1796.136 173.44,1796.136 C173.824,1796.136 174.232,1796.136 179.2,1796.088 L183.304,1796.088 C183.616,1796.088 183.928,1796.088 184.24,1796.064 C184.312,1795.92 184.408,1795.776 184.504,1795.608 C184.552,1795.488 184.624,1795.368 184.696,1795.248 L184.84,1794.984 C184.984,1794.72 185.152,1794.456 185.32,1794.192 L185.896,1793.328 L186.232,1792.896 L186.4,1792.704 C186.472,1792.608 186.544,1792.584 186.688,1792.56 C186.832,1792.56 186.976,1792.608 187.048,1792.704 C187.12,1792.776 187.12,1792.872 187.072,1792.968 C186.64,1793.496 186.304,1794.096 185.944,1794.648 C185.872,1794.792 185.752,1794.936 185.68,1795.056 L185.536,1795.344 C185.416,1795.584 185.296,1795.8 185.152,1796.016 C185.152,1796.03609 185.135179,1796.05619 185.129701,1796.0622 L185.128155,1796.064 Z M188.152,1802.688 L188.128,1802.688 L188.152,1802.688 Z M197.656,1799.088 C197.752,1799.136 197.968,1799.328 197.824,1799.448 L197.632,1799.64 C196.792,1800.432 195.904,1801.152 194.944,1801.8 C194.488,1802.112 194.032,1802.4 193.552,1802.616 C193.072,1802.832 192.52,1803.072 191.968,1803 C191.488,1802.976 191.08,1802.664 190.984,1802.184 C190.936,1801.872 191.008,1801.56 191.104,1801.248 C190.96,1801.392 190.816,1801.512 190.648,1801.656 C190.336,1801.944 190.024,1802.232 189.688,1802.496 C189.424,1802.688 189.136,1802.904 188.848,1803.048 C188.584,1803.192 188.296,1803.312 187.984,1803.264 C187.648,1803.216 187.312,1803 187.24,1802.664 C187.168,1802.352 187.312,1801.992 187.432,1801.728 C187.624,1801.32 187.84,1800.936 188.104,1800.552 C188.344,1800.192 188.584,1799.832 188.848,1799.472 C188.968,1799.328 189.064,1799.184 189.16,1799.04 L189.304,1798.872 C189.304,1798.848 189.328,1798.824 189.352,1798.8 C189.448,1798.632 189.688,1798.656 189.784,1798.68 C189.928,1798.704 190.072,1798.752 190.12,1798.872 C190.168,1798.968 190.12,1799.04 190.048,1799.088 C190.048,1799.112 190.048,1799.112 190.024,1799.112 L189.976,1799.16 L189.904,1799.28 L189.688,1799.568 C189.52,1799.832 189.328,1800.072 189.16,1800.312 L188.584,1801.152 C188.56,1801.176 188.44,1801.44 188.368,1801.56 L188.152,1801.944 C188.08,1802.112 188.032,1802.256 187.984,1802.424 C187.984,1802.472 187.96,1802.544 187.96,1802.592 C187.96,1802.64 187.96,1802.664 187.984,1802.688 C187.984,1802.712 188.008,1802.736 188.104,1802.712 C188.128,1802.688 188.224,1802.664 188.152,1802.688 C188.176,1802.688 188.2,1802.664 188.2,1802.664 L188.608,1802.424 L189.04,1802.136 L189.256,1801.944 C189.208,1801.968 189.28,1801.92 189.28,1801.92 C189.304,1801.896 189.328,1801.896 189.328,1801.872 L189.448,1801.776 C190.096,1801.224 190.696,1800.624 191.296,1800.048 C191.536,1799.808 191.776,1799.544 192.04,1799.328 C192.208,1799.16 192.4,1798.992 192.592,1798.872 C192.832,1798.728 193.408,1798.944 193.216,1799.256 C193.216,1799.28 193.264,1799.184 193.216,1799.28 C193.216,1799.304 193.192,1799.352 193.168,1799.376 C193.168,1799.376 193.024,1799.52 193.096,1799.424 L192.952,1799.568 C192.832,1799.688 192.736,1799.832 192.64,1799.976 C192.376,1800.312 192.184,1800.648 192.016,1801.008 C191.944,1801.2 191.848,1801.416 191.8,1801.608 L191.728,1801.968 L191.728,1802.088 C191.728,1802.4 191.896,1802.544 192.208,1802.448 L192.376,1802.4 C192.664,1802.328 192.856,1802.232 193.096,1802.112 C193.576,1801.872 194.032,1801.608 194.464,1801.296 C195.424,1800.624 196.288,1799.928 197.128,1799.112 C197.272,1798.968 197.488,1798.992 197.656,1799.088 Z M197.392,1798.992 C197.512,1798.944 197.704,1798.992 197.848,1799.04 C197.848,1799.04 197.872,1799.064 197.92,1799.088 C198.112,1799.136 197.608,1800.024 197.392,1800.36 C198.016,1799.928 198.712,1799.448 199.48,1799.04 L199.624,1798.968 L199.84,1798.872 C200.176,1798.728 200.536,1798.608 200.872,1798.56 C200.872,1798.56 200.896,1798.56 201.064,1798.536 C201.208,1798.536 201.376,1798.536 201.424,1798.56 C201.64,1798.608 201.928,1798.752 201.856,1799.064 C201.76,1799.256 201.4,1799.184 201.208,1799.112 C201.16,1799.112 201.064,1799.112 200.824,1799.184 C200.8,1799.184 200.8,1799.184 200.752,1799.208 L200.536,1799.28 C200.272,1799.4 200.032,1799.52 199.816,1799.64 L199.576,1799.76 L199.12,1800.024 L198.856,1800.192 L198.28,1800.528 L197.848,1800.864 L197.248,1801.44 L196.696,1801.944 L196.144,1802.568 C196.024,1802.784 195.976,1802.856 195.808,1803.096 C195.784,1803.144 195.76,1803.192 195.736,1803.216 C195.688,1803.312 195.4,1803.24 195.304,1803.216 C195.184,1803.168 195.04,1802.952 195.088,1802.856 L195.376,1802.424 C195.832,1801.728 195.88,1801.68 196.096,1801.272 L196.24,1800.984 L196.744,1800.072 C196.912,1799.664 197.152,1799.184 197.392,1798.992 Z M201.736,1801.272 C201.496,1801.392 201.112,1801.44 200.824,1801.32 L200.776,1801.368 C200.728,1801.464 200.68,1801.56 200.656,1801.68 C200.632,1801.704 200.632,1801.728 200.632,1801.752 C200.632,1801.776 200.608,1801.8 200.608,1801.824 L200.584,1801.92 C200.584,1802.088 200.56,1802.256 200.728,1802.4 C200.776,1802.424 200.824,1802.448 200.872,1802.448 L201.088,1802.448 C201.664,1802.4 202.072,1802.256 202.576,1802.04 C203.752,1801.512 204.832,1800.816 206.128,1799.928 C206.392,1799.736 206.728,1799.544 206.968,1799.352 C207.088,1799.28 207.256,1799.16 207.424,1799.112 C207.472,1799.088 207.52,1799.088 207.592,1799.088 L207.616,1799.088 C207.592,1799.088 207.688,1799.112 207.688,1799.112 C207.808,1799.136 207.76,1799.136 207.832,1799.184 L207.904,1799.256 C207.928,1799.328 207.928,1799.352 207.904,1799.424 L207.856,1799.496 L207.784,1799.568 L207.472,1799.808 L207.376,1799.88 L206.608,1800.408 C205.912,1800.888 205.096,1801.44 204.184,1801.92 C203.56,1802.256 202.768,1802.64 202.096,1802.808 C201.736,1802.904 201.328,1802.952 200.944,1802.928 C200.488,1802.88 200.032,1802.616 199.888,1802.16 C199.792,1801.728 200.032,1801.224 200.248,1800.864 C200.512,1800.456 200.896,1800 201.256,1799.664 C201.568,1799.352 201.976,1799.016 202.432,1798.752 C202.816,1798.512 203.44,1798.272 203.896,1798.608 C204.28,1798.92 204.064,1799.4 203.824,1799.736 C203.584,1800.072 203.272,1800.36 202.912,1800.624 C202.576,1800.864 202.144,1801.128 201.736,1801.272 Z M201.064,1800.912 C200.968,1801.056 202.552,1800.456 203.344,1799.256 C203.344,1799.256 203.44,1799.088 203.416,1798.92 C203.2,1798.968 202.984,1799.088 202.744,1799.256 C202.6,1799.352 202.504,1799.448 202.384,1799.544 C202.36,1799.568 202.264,1799.64 202.264,1799.64 C201.88,1799.976 201.496,1800.336 201.184,1800.744 L201.064,1800.912 Z M208.334559,1799.20847 C208.26209,1799.23201 208.118886,1799.23295 207.952,1799.376 C207.664,1799.64 207.4,1799.904 207.16,1800.216 C206.848,1800.576 206.584,1800.936 206.344,1801.344 C206.224,1801.536 206.128,1801.728 206.056,1801.92 C206.008,1802.016 205.984,1802.112 205.96,1802.208 C205.96,1802.256 205.936,1802.304 205.936,1802.328 C205.936,1802.352 205.936,1802.376 205.936,1802.4 C205.936,1802.352 205.936,1802.424 205.936,1802.424 C205.912,1802.52 205.936,1802.592 205.96,1802.664 C205.984,1802.736 205.984,1802.712 206.032,1802.712 C206.056,1802.712 206.08,1802.688 206.128,1802.688 C206.128,1802.688 206.224,1802.64 206.152,1802.688 C206.752,1802.4 207.256,1801.968 207.904,1801.32 C208.099701,1801.1346 208.290981,1800.94588 208.47879,1800.75433 C208.577334,1800.29575 208.752517,1799.84742 208.936,1799.424 C209.248,1798.632 209.656,1797.864 210.088,1797.12 C210.328,1796.712 210.568,1796.304 210.832,1795.92 C211.192,1795.392 211.576,1794.84 211.984,1794.336 C212.44,1793.736 212.944,1793.112 213.52,1792.632 C213.736,1792.44 213.976,1792.248 214.264,1792.152 C214.552,1792.08 214.936,1792.128 215.128,1792.392 C215.344,1792.656 215.224,1793.04 215.104,1793.304 C214.936,1793.712 214.696,1794.096 214.456,1794.456 C213.328,1796.112 212.08,1797.696 210.784,1799.208 C210.263392,1799.82451 209.727142,1800.44102 209.161858,1801.02181 C209.149535,1801.08097 209.138223,1801.14037 209.128,1801.2 C209.128,1801.248 209.128,1801.296 209.104,1801.344 C209.104,1801.368 209.104,1801.392 209.104,1801.416 C209.104,1801.416 209.104,1801.488 209.104,1801.44 C209.104,1801.512 209.104,1801.584 209.104,1801.68 C209.104,1801.752 209.104,1801.824 209.104,1801.92 C209.104,1801.968 209.128,1801.992 209.128,1802.016 C209.128,1802.04 209.176,1802.136 209.152,1802.064 C209.152,1802.13288 209.195928,1802.17979 209.220749,1802.24677 C209.223031,1802.24869 209.233445,1802.26433 209.244605,1802.27645 C209.250322,1802.30632 209.274268,1802.33027 209.32,1802.376 C209.32,1802.376 209.344,1802.4 209.368,1802.4 C209.368,1802.4 209.392,1802.424 209.416,1802.424 C209.44,1802.424 209.464,1802.424 209.488,1802.424 C209.368,1802.424 209.488,1802.424 209.512,1802.424 C209.536,1802.424 209.584,1802.424 209.608,1802.424 C209.627594,1802.424 209.647188,1802.424 209.666782,1802.41094 C209.658534,1802.41259 209.616557,1802.42204 209.645025,1802.42374 C209.708523,1802.4 209.730261,1802.4 209.752,1802.4 C209.848,1802.376 209.92,1802.352 209.992,1802.328 C210.328,1802.232 210.664,1802.064 210.976,1801.872 C211.744,1801.44 212.488,1800.912 213.184,1800.384 C213.496,1800.144 213.784,1799.904 214.072,1799.688 C214.192,1799.592 214.312,1799.496 214.432,1799.4 C214.48,1799.376 214.504,1799.328 214.552,1799.304 C214.6,1799.256 214.528,1799.328 214.576,1799.28 C214.58314,1799.27286 214.594527,1799.2636 214.605108,1799.25537 C214.610419,1799.25424 214.618453,1799.25112 214.622091,1799.24243 C214.632135,1799.23489 214.635888,1799.23216 214.62266,1799.24092 C214.623506,1799.23839 214.624,1799.23544 214.624,1799.232 C214.744,1799.136 214.912,1799.16 215.056,1799.232 C215.152,1799.256 215.32,1799.424 215.2,1799.544 C215.056,1799.664 214.888,1799.808 214.744,1799.952 C214.72,1799.976 214.696,1800 214.672,1800.024 C214.648,1800.048 214.528,1800.144 214.6,1800.096 C214.528,1800.144 214.456,1800.216 214.384,1800.264 C214.24,1800.36 214.12,1800.48 213.976,1800.576 C213.304,1801.128 212.584,1801.656 211.816,1802.088 C211.456,1802.328 211.096,1802.52 210.688,1802.688 C210.4,1802.808 210.064,1802.904 209.728,1802.928 C209.344,1802.928 209.008,1802.808 208.744,1802.544 C208.534713,1802.33471 208.415552,1802.0353 208.408347,1801.75492 C208.219894,1801.9275 208.027921,1802.09491 207.832,1802.256 C207.376,1802.64 206.824,1803.12 206.224,1803.192 C205.936,1803.216 205.6,1803.12 205.432,1802.904 C205.216,1802.592 205.24,1802.208 205.36,1801.872 C205.528,1801.416 205.768,1801.008 206.056,1800.624 C206.296,1800.264 206.584,1799.928 206.872,1799.616 C207.184,1799.28 207.544,1798.944 207.976,1798.752 C208.312,1798.608 209.2,1798.56 208.984,1799.112 L208.936,1799.208 C208.864,1799.352 208.408,1799.4 208.36,1799.304 C208.339149,1799.24145 208.336413,1799.21513 208.336054,1799.20929 L208.334559,1799.20847 Z M209.708475,1799.41912 C209.956729,1799.13579 210.202364,1798.84898 210.448,1798.56 C211.384,1797.456 212.32,1796.328 213.136,1795.128 C213.304,1794.864 213.496,1794.6 213.688,1794.36 C213.808,1794.168 213.928,1794 214.048,1793.808 C214.168,1793.616 214.264,1793.448 214.336,1793.28 C214.432,1793.112 214.456,1792.992 214.528,1792.824 C214.552,1792.776 214.552,1792.704 214.552,1792.656 C214.552,1792.608 214.432,1792.656 214.264,1792.824 C214.216,1792.872 214.192,1792.896 214.168,1792.92 C214.216,1792.872 214.12,1792.968 214.12,1792.968 C214.048,1793.016 214,1793.088 213.928,1793.136 C213.664,1793.4 213.4,1793.688 213.16,1793.976 C212.392,1794.864 211.696,1795.824 211.072,1796.832 C210.904,1797.12 210.736,1797.408 210.568,1797.72 C210.472,1797.864 210.376,1798.032 210.28,1798.224 C210.184,1798.416 210.088,1798.608 209.992,1798.8 C209.896132,1799.00452 209.800264,1799.21074 209.708475,1799.41912 Z M209.223524,1802.25459 C209.223684,1802.25506 209.223842,1802.25553 209.224,1802.256 C209.224,1802.256 209.248,1802.28 209.248,1802.304 C209.235123,1802.27825 209.227428,1802.26286 209.223524,1802.25459 Z M209.248161,1802.2834 C209.248054,1802.28227 209.248,1802.28113 209.248,1802.28 C209.246866,1802.27887 209.245732,1802.27768 209.244605,1802.27645 L209.248161,1802.2834 Z M209.679405,1802.40613 C209.690756,1802.40262 209.695864,1802.4 209.68,1802.4 C209.675594,1802.40441 209.671188,1802.408 209.666782,1802.41094 L209.679405,1802.40613 Z M209.645025,1802.42374 C209.647922,1802.42391 209.651548,1802.424 209.656,1802.424 C209.660523,1802.42174 209.664832,1802.41969 209.668948,1802.41784 L209.645025,1802.42374 Z M214.605108,1799.25537 C214.602124,1799.256 214.6,1799.256 214.6,1799.256 C214.610327,1799.24912 214.617692,1799.24421 214.62266,1799.24092 C214.622485,1799.24144 214.622295,1799.24194 214.622091,1799.24243 C214.617429,1799.24593 214.611412,1799.25047 214.605108,1799.25537 Z" id="Featured"></path>
        </g>
    </g>
</svg>