<?xml version="1.0" encoding="UTF-8"?>
<svg width="96px" height="22px" viewBox="0 0 96 22" version="1.1" xmlns="http://www.w3.org/2000/svg" xmlns:xlink="http://www.w3.org/1999/xlink">
    <!-- Generator: Sketch 51.2 (57519) - http://www.bohemiancoding.com/sketch -->
    <title>Editor’s Pick</title>
    <desc>Created with Sketch.</desc>
    <defs></defs>
    <g id="SP" stroke="none" stroke-width="1" fill="none" fill-rule="evenodd">
        <g id="トップ" transform="translate(-260.000000, -2724.000000)" fill="#58DDC4">
            <path d="M276.244,2740.584 L276.256,2740.584 L276.244,2740.584 Z M276.244,2740.584 L276.232,2740.584 L276.232,2740.56 L276.136,2740.56 C276.088,2740.536 276.04,2740.536 275.992,2740.536 C275.968,2740.536 275.944,2740.536 275.896,2740.512 L275.656,2740.512 C275.512,2740.512 275.368,2740.536 275.2,2740.536 C274.528,2740.56 273.832,2740.608 273.136,2740.656 C270.112,2740.968 267.16,2741.784 264.304,2742.864 L263.8,2743.056 L263.44,2743.2 C263.128,2743.344 262.816,2743.488 262.504,2743.584 C262.192,2743.704 261.856,2743.8 261.52,2743.824 C261.352,2743.848 261.184,2743.848 260.992,2743.824 C260.752,2743.776 260.584,2743.656 260.488,2743.416 C260.368,2742.984 260.464,2742.528 260.632,2742.144 L260.632,2742.096 L260.704,2741.952 C260.824,2741.616 260.992,2741.304 261.16,2741.016 C262.288,2738.952 263.536,2736.984 264.928,2735.088 L264.952,2735.04 C264.76,2735.064 264.544,2735.088 264.352,2735.112 L263.824,2735.16 C263.704,2735.184 263.584,2735.184 263.464,2735.184 C263.44,2735.232 263.416,2735.232 263.392,2735.256 C263.32,2735.28 263.2,2735.232 263.128,2735.184 C263.08,2735.112 263.056,2735.016 263.032,2734.944 C262.936,2734.776 263.128,2734.656 263.272,2734.656 C263.872,2734.584 264.448,2734.512 265.048,2734.464 C265.168,2734.464 265.288,2734.44 265.408,2734.44 L267.088,2732.16 C267.496,2731.632 267.904,2731.104 268.288,2730.552 C268.504,2730.264 268.72,2729.976 268.912,2729.688 L269.248,2729.232 C269.32,2729.16 269.368,2729.064 269.416,2728.992 L269.44,2728.968 C269.44,2728.944 269.464,2728.92 269.464,2728.92 C269.56,2728.584 270.28,2728.824 270.184,2729.136 C270.136,2729.328 269.968,2729.52 269.848,2729.664 C268.72,2731.248 267.544,2732.808 266.416,2734.368 C267.352,2734.296 268.312,2734.248 269.272,2734.224 C269.944,2734.2 270.64,2734.176 271.336,2734.2 L272.32,2734.2 L273.328,2734.248 C273.52,2734.272 273.928,2734.536 273.64,2734.752 L273.424,2734.92 C273.28,2735.016 273.064,2734.968 272.944,2734.872 C272.896,2734.848 272.896,2734.776 272.584,2734.776 C272.272,2734.776 271.96,2734.752 271.648,2734.752 C270.232,2734.752 268.84,2734.776 267.448,2734.872 C266.944,2734.896 266.464,2734.92 265.96,2734.968 C265.744,2735.256 265.528,2735.568 265.312,2735.856 C264.616,2736.84 263.944,2737.824 263.32,2738.856 C263.056,2739.312 262.768,2739.744 262.504,2740.2 L262.096,2740.968 L262.096,2740.992 C262,2741.16 261.904,2741.352 261.784,2741.544 L261.784,2741.568 C261.664,2741.808 261.544,2742.048 261.448,2742.288 C261.376,2742.528 261.28,2742.744 261.256,2743.008 L261.256,2743.248 L261.376,2743.248 C261.472,2743.224 261.304,2743.248 261.424,2743.224 C261.496,2743.224 261.568,2743.2 261.64,2743.176 C261.928,2743.104 262.216,2742.984 262.456,2742.888 C263.056,2742.624 263.656,2742.384 264.28,2742.144 C265.624,2741.664 266.968,2741.208 268.36,2740.872 C269.872,2740.488 271.408,2740.2 272.944,2740.056 C273.712,2739.984 274.456,2739.936 275.224,2739.912 C275.824,2739.912 276.688,2739.888 277,2740.512 C277.096,2740.68 276.904,2740.8 276.76,2740.824 C276.568,2740.824 276.352,2740.728 276.232,2740.584 L276.244,2740.584 Z M279.832,2727.504 C279.904,2727.648 279.808,2727.768 279.688,2727.792 C279.184,2727.936 278.68,2728.032 278.176,2728.08 C277.984,2728.08 277.744,2728.008 277.672,2727.816 C277.648,2727.768 277.648,2727.72 277.648,2727.672 L276.952,2727.672 C274,2727.648 271.096,2727.984 268.168,2728.08 C268.072,2728.104 267.952,2728.104 267.88,2728.104 C267.688,2728.128 267.52,2728.128 267.352,2728.128 C267.16,2728.152 266.944,2728.152 266.752,2728.128 C266.56,2728.104 266.248,2728.032 266.176,2727.816 C266.128,2727.72 266.152,2727.648 266.248,2727.576 L266.344,2727.504 C266.488,2727.384 266.752,2727.456 266.92,2727.576 L267.184,2727.576 C267.328,2727.576 267.472,2727.552 267.64,2727.552 C267.664,2727.552 267.712,2727.528 267.76,2727.528 L267.832,2727.528 C268.768,2727.48 269.704,2727.432 270.64,2727.36 C273.544,2727.168 276.52,2726.928 279.424,2727.24 C279.592,2727.264 279.76,2727.36 279.832,2727.504 Z M268.096,2728.08 L267.976,2728.08 L268.096,2728.08 Z M276.184,2740.56 C276.208,2740.56 276.208,2740.56 276.232,2740.584 L276.232,2740.56 L276.184,2740.56 Z M276.232,2740.584 L276.232,2740.56 L276.232,2740.584 Z M278.089858,2737.02181 C278.077535,2737.08097 278.066223,2737.14037 278.056,2737.2 C278.056,2737.248 278.056,2737.296 278.032,2737.344 L278.032,2737.92 C278.032,2737.968 278.056,2737.992 278.056,2738.016 C278.056,2738.04 278.104,2738.136 278.08,2738.064 C278.08,2738.13288 278.123928,2738.17979 278.148749,2738.24677 C278.151261,2738.24889 278.163631,2738.26763 278.176,2738.28 C278.176,2738.304 278.2,2738.328 278.248,2738.376 C278.248,2738.376 278.272,2738.4 278.296,2738.4 C278.296,2738.4 278.32,2738.424 278.344,2738.424 L278.536,2738.424 C278.555594,2738.424 278.575188,2738.424 278.594782,2738.41094 C278.584411,2738.41324 278.535796,2738.424 278.584,2738.424 C278.632,2738.4 278.656,2738.4 278.68,2738.4 C278.776,2738.376 278.848,2738.352 278.92,2738.328 C279.256,2738.232 279.592,2738.064 279.904,2737.872 C280.672,2737.44 281.416,2736.912 282.112,2736.384 C282.424,2736.144 282.712,2735.904 283,2735.688 L283.36,2735.4 C283.408,2735.376 283.432,2735.328 283.48,2735.304 L283.504,2735.28 C283.51114,2735.27286 283.522527,2735.2636 283.533108,2735.25537 C283.538419,2735.25424 283.546453,2735.25112 283.550091,2735.24243 C283.560135,2735.23489 283.563888,2735.23216 283.55066,2735.24092 C283.551506,2735.23839 283.552,2735.23544 283.552,2735.232 C283.672,2735.136 283.84,2735.16 283.984,2735.232 C284.08,2735.256 284.248,2735.424 284.128,2735.544 C283.984,2735.664 283.816,2735.808 283.672,2735.952 L283.6,2736.024 C283.576,2736.048 283.456,2736.144 283.528,2736.096 C283.456,2736.144 283.384,2736.216 283.312,2736.264 C283.168,2736.36 283.048,2736.48 282.904,2736.576 C282.232,2737.128 281.512,2737.656 280.744,2738.088 C280.384,2738.328 280.024,2738.52 279.616,2738.688 C279.328,2738.808 278.992,2738.904 278.656,2738.928 C278.272,2738.928 277.936,2738.808 277.672,2738.544 C277.462713,2738.33471 277.343552,2738.0353 277.336347,2737.75492 C277.147894,2737.9275 276.955921,2738.09491 276.76,2738.256 C276.304,2738.64 275.752,2739.12 275.152,2739.192 C274.864,2739.216 274.528,2739.12 274.36,2738.904 C274.144,2738.592 274.168,2738.208 274.288,2737.872 C274.456,2737.416 274.696,2737.008 274.984,2736.624 C275.224,2736.264 275.512,2735.928 275.8,2735.616 C276.112,2735.28 276.472,2734.944 276.904,2734.752 C277.24,2734.608 278.128,2734.56 277.912,2735.112 L277.864,2735.208 C277.792,2735.352 277.336,2735.4 277.288,2735.304 C277.264,2735.232 277.264,2735.208 277.264,2735.208 C277.192,2735.232 277.048,2735.232 276.88,2735.376 C276.592,2735.64 276.328,2735.904 276.088,2736.216 C275.776,2736.576 275.512,2736.936 275.272,2737.344 C275.152,2737.536 275.056,2737.728 274.984,2737.92 C274.936,2738.016 274.912,2738.112 274.888,2738.208 C274.888,2738.256 274.864,2738.304 274.864,2738.328 L274.864,2738.424 C274.84,2738.52 274.864,2738.592 274.888,2738.664 C274.912,2738.736 274.912,2738.712 274.96,2738.712 C274.984,2738.712 275.008,2738.688 275.056,2738.688 C275.056,2738.688 275.152,2738.64 275.08,2738.688 C275.68,2738.4 276.184,2737.968 276.832,2737.32 C277.027701,2737.1346 277.218981,2736.94588 277.40679,2736.75433 C277.505334,2736.29575 277.680517,2735.84742 277.864,2735.424 C278.176,2734.632 278.584,2733.864 279.016,2733.12 C279.256,2732.712 279.496,2732.304 279.76,2731.92 C280.12,2731.392 280.504,2730.84 280.912,2730.336 C281.368,2729.736 281.872,2729.112 282.448,2728.632 C282.664,2728.44 282.904,2728.248 283.192,2728.152 C283.48,2728.08 283.864,2728.128 284.056,2728.392 C284.272,2728.656 284.152,2729.04 284.032,2729.304 C283.864,2729.712 283.624,2730.096 283.384,2730.456 C282.256,2732.112 281.008,2733.696 279.712,2735.208 C279.191392,2735.82451 278.655142,2736.44102 278.089858,2737.02181 Z M283.55066,2735.24092 C283.545692,2735.24421 283.538327,2735.24912 283.528,2735.256 C283.528,2735.256 283.530124,2735.256 283.533108,2735.25537 C283.539412,2735.25047 283.545429,2735.24593 283.550091,2735.24243 C283.550295,2735.24194 283.550485,2735.24144 283.55066,2735.24092 Z M278.607405,2738.40613 C278.618756,2738.40262 278.623864,2738.4 278.608,2738.4 C278.603594,2738.40441 278.599188,2738.408 278.594782,2738.41094 L278.607405,2738.40613 Z M278.148749,2738.24677 C278.149703,2738.24934 278.15063,2738.25195 278.151524,2738.25459 C278.148376,2738.24792 278.147694,2738.24588 278.148749,2738.24677 Z M278.151524,2738.25459 C278.151684,2738.25506 278.151842,2738.25553 278.152,2738.256 C278.152,2738.256 278.176,2738.28 278.176,2738.304 C278.163123,2738.27825 278.155428,2738.26286 278.151524,2738.25459 Z M278.636475,2735.41912 C278.884729,2735.13579 279.130364,2734.84898 279.376,2734.56 C280.312,2733.456 281.248,2732.328 282.064,2731.128 C282.232,2730.864 282.424,2730.6 282.616,2730.36 C282.736,2730.168 282.856,2730 282.976,2729.808 C283.096,2729.616 283.192,2729.448 283.264,2729.28 C283.36,2729.112 283.384,2728.992 283.456,2728.824 C283.48,2728.776 283.48,2728.704 283.48,2728.656 C283.48,2728.608 283.36,2728.656 283.192,2728.824 L283.048,2728.968 C282.976,2729.016 282.928,2729.088 282.856,2729.136 C282.592,2729.4 282.328,2729.688 282.088,2729.976 C281.32,2730.864 280.624,2731.824 280,2732.832 C279.832,2733.12 279.664,2733.408 279.496,2733.72 C279.4,2733.864 279.304,2734.032 279.208,2734.224 L278.92,2734.8 C278.824132,2735.00452 278.728264,2735.21074 278.636475,2735.41912 Z M284.752,2735.016 L284.608,2735.16 L284.512,2735.232 L284.248,2735.472 C283.84,2735.88 283.456,2736.312 283.144,2736.792 C282.952,2737.056 282.808,2737.32 282.712,2737.536 C282.568,2737.8 282.424,2738.088 282.352,2738.376 C282.328,2738.472 282.304,2738.568 282.304,2738.64 C282.328,2738.712 282.4,2738.712 282.472,2738.688 L282.76,2738.616 C283.144,2738.52 283.528,2738.328 283.912,2738.184 L284.392,2737.944 C284.608,2737.848 284.968,2737.656 285.28,2737.464 C285.352,2737.416 285.472,2737.368 285.52,2737.32 L286.912,2736.456 C287.152,2736.264 287.464,2736.096 287.728,2735.928 C288.16,2735.616 288.448,2735.448 288.736,2735.304 C288.904,2735.256 289.432,2735.472 289.216,2735.712 C289.072,2735.88 288.832,2736.024 288.568,2736.192 C287.992,2736.576 287.824,2736.648 287.752,2736.72 C286.96,2737.248 286.168,2737.752 285.112,2738.304 C284.824,2738.448 284.392,2738.664 284.08,2738.784 C283.528,2739.024 282.04,2739.672 281.608,2738.832 C281.536,2738.664 281.536,2738.448 281.584,2738.28 C281.656,2738.016 281.776,2737.704 281.92,2737.464 C282.208,2736.912 282.544,2736.36 282.88,2735.928 C283.048,2735.712 283.24,2735.472 283.456,2735.28 L283.816,2734.944 L284.248,2734.632 C284.344,2734.584 284.512,2734.584 284.632,2734.656 L284.608,2734.656 C284.68,2734.704 284.776,2734.824 284.752,2735.016 Z M284.896,2733.936 C284.776,2733.912 284.632,2733.768 284.632,2733.624 C284.656,2733.552 284.728,2733.48 284.824,2733.408 C284.848,2733.408 284.92,2733.36 284.944,2733.336 L285.064,2733.264 L285.256,2733.12 L285.448,2732.952 C285.592,2732.832 285.88,2732.928 285.976,2733.024 C286.048,2733.072 286.192,2733.24 286.072,2733.36 L285.832,2733.552 L285.616,2733.72 C285.4,2733.864 285.184,2734.008 284.896,2733.936 Z M291.592155,2732.064 C292.096108,2732.064 292.624054,2732.088 293.152,2732.088 C293.776,2732.088 294.424,2732.064 295.048,2732.136 C295.192,2732.16 295.384,2732.256 295.456,2732.4 C295.504,2732.52 295.432,2732.664 295.288,2732.688 C294.88,2732.76 294.496,2732.904 294.064,2732.976 C293.872,2733 293.656,2732.952 293.536,2732.808 C293.488,2732.76 293.464,2732.712 293.464,2732.64 L291.256,2732.64 C290.824,2733.432 290.344,2734.248 289.912,2735.04 C289.408,2736.024 288.88,2737.008 288.52,2738.064 C288.448,2738.28 288.376,2738.496 288.352,2738.76 L288.352,2738.784 C288.352,2739.216 288.76,2739.048 289.024,2738.976 C289.36,2738.88 289.696,2738.76 290.08,2738.568 C292.024,2737.632 293.92,2736.384 295.6,2735.064 C295.744,2734.944 296.032,2735.04 296.152,2735.136 C296.248,2735.208 296.368,2735.376 296.248,2735.472 C295.744,2735.928 295.072,2736.336 294.52,2736.744 C293.944,2737.152 293.368,2737.512 292.744,2737.896 C291.88,2738.424 291.016,2738.928 290.08,2739.312 C289.456,2739.552 288.64,2739.816 288.016,2739.48 C287.752,2739.336 287.56,2739.096 287.536,2738.784 C287.512,2738.424 287.656,2738.04 287.776,2737.704 C288.136,2736.648 288.664,2735.664 289.216,2734.68 C289.576,2733.984 289.96,2733.312 290.368,2732.64 L289.912,2732.64 C288.52,2732.64 287.152,2732.64 285.784,2732.664 C284.464,2732.664 283.144,2732.688 281.824,2732.688 C280.84,2732.688 279.856,2732.712 278.848,2732.712 L278.008,2732.712 C277.72,2732.736 277.312,2732.76 277.216,2732.4 C277.192,2732.328 277.264,2732.256 277.312,2732.208 C277.36,2732.16 277.456,2732.16 277.528,2732.16 L277.492,2732.16 L277.576,2732.16 C278.344,2732.136 279.112,2732.136 279.904,2732.136 C280.288,2732.136 280.696,2732.136 285.664,2732.088 L289.768,2732.088 C290.08,2732.088 290.392,2732.088 290.704,2732.064 C290.776,2731.92 290.872,2731.776 290.968,2731.608 C291.016,2731.488 291.088,2731.368 291.16,2731.248 L291.304,2730.984 C291.448,2730.72 291.616,2730.456 291.784,2730.192 L292.36,2729.328 L292.696,2728.896 L292.864,2728.704 C292.936,2728.608 293.008,2728.584 293.152,2728.56 C293.296,2728.56 293.44,2728.608 293.512,2728.704 C293.584,2728.776 293.584,2728.872 293.536,2728.968 C293.104,2729.496 292.768,2730.096 292.408,2730.648 C292.336,2730.792 292.216,2730.936 292.144,2731.056 L292,2731.344 C291.88,2731.584 291.76,2731.8 291.616,2732.016 C291.616,2732.03609 291.599179,2732.05619 291.593701,2732.0622 L291.592155,2732.064 Z M277.492,2732.16 L277.48,2732.16 L277.492,2732.16 Z M301.192,2734.896 C301.408,2734.752 301.984,2735.04 301.696,2735.28 C301.264,2735.64 300.736,2735.88 300.208,2736.096 C299.68,2736.312 299.128,2736.504 298.552,2736.624 C298.336,2736.648 298.024,2736.72 297.736,2736.744 C297.616,2736.912 297.496,2737.08 297.352,2737.248 C297.112,2737.56 296.872,2737.848 296.608,2738.136 C296.296,2738.472 295.936,2738.808 295.504,2738.976 C295.096,2739.144 294.616,2739.24 294.208,2739 C294.016,2738.88 293.872,2738.712 293.824,2738.472 C293.776,2738.28 293.8,2738.064 293.848,2737.872 C293.992,2737.248 294.328,2736.672 294.688,2736.168 C295.096,2735.64 295.576,2735.16 296.152,2734.824 C296.296,2734.752 296.512,2734.8 296.632,2734.896 C296.824,2735.04 296.728,2735.304 296.512,2735.304 C296.104,2735.64 295.744,2736.024 295.408,2736.456 C295.072,2736.888 294.76,2737.392 294.616,2737.944 C294.592,2738.04 294.544,2738.16 294.544,2738.28 L294.544,2738.472 C294.544,2738.592 294.664,2738.592 294.736,2738.592 C294.784,2738.592 294.808,2738.568 294.856,2738.568 C294.88,2738.568 295,2738.496 294.928,2738.544 L295.048,2738.472 C295.432,2738.28 295.696,2738.016 296.008,2737.704 C296.272,2737.392 296.56,2737.08 296.8,2736.744 C296.872,2736.648 296.944,2736.576 296.992,2736.504 L296.92,2736.432 C296.776,2736.264 296.728,2736.048 296.728,2735.832 C296.728,2735.688 296.728,2735.496 296.8,2735.352 C296.872,2735.136 297.04,2734.92 297.232,2734.8 C297.544,2734.632 297.928,2734.728 298.12,2735.016 C298.36,2735.352 298.264,2735.736 298.12,2736.096 L298.12,2736.12 L298.168,2736.12 C298.744,2736 299.296,2735.808 299.848,2735.592 L300.568,2735.256 C300.784,2735.136 301,2735.04 301.192,2734.896 Z M297.496,2735.16 L297.472,2735.16 L297.496,2735.16 Z M301.12,2734.992 C301.24,2734.944 301.432,2734.992 301.576,2735.04 C301.576,2735.04 301.6,2735.064 301.648,2735.088 C301.84,2735.136 301.336,2736.024 301.12,2736.36 C301.744,2735.928 302.44,2735.448 303.208,2735.04 L303.352,2734.968 L303.568,2734.872 C303.904,2734.728 304.264,2734.608 304.6,2734.56 C304.6,2734.56 304.624,2734.56 304.792,2734.536 C304.936,2734.536 305.104,2734.536 305.152,2734.56 C305.368,2734.608 305.656,2734.752 305.584,2735.064 C305.488,2735.256 305.128,2735.184 304.936,2735.112 C304.888,2735.112 304.792,2735.112 304.552,2735.184 C304.528,2735.184 304.528,2735.184 304.48,2735.208 L304.264,2735.28 C304,2735.4 303.76,2735.52 303.544,2735.64 L303.304,2735.76 L302.848,2736.024 L302.584,2736.192 L302.008,2736.528 L301.576,2736.864 L300.976,2737.44 L300.424,2737.944 L299.872,2738.568 C299.752,2738.784 299.704,2738.856 299.536,2739.096 C299.512,2739.144 299.488,2739.192 299.464,2739.216 C299.416,2739.312 299.128,2739.24 299.032,2739.216 C298.912,2739.168 298.768,2738.952 298.816,2738.856 L299.104,2738.424 C299.56,2737.728 299.608,2737.68 299.824,2737.272 L299.968,2736.984 L300.472,2736.072 C300.64,2735.664 300.88,2735.184 301.12,2734.992 Z M307.168,2730.408 C307.264,2730.144 307.792,2730.288 307.816,2730.552 C307.816,2730.792 307.624,2731.056 307.48,2731.248 C307.36,2731.416 307.216,2731.68 307.024,2731.728 C306.856,2731.752 306.64,2731.704 306.544,2731.584 C306.472,2731.488 306.472,2731.368 306.568,2731.296 C306.592,2731.272 306.616,2731.224 306.664,2731.2 L306.88,2730.912 C307,2730.72 307.096,2730.6 307.168,2730.408 Z M315.352,2735.28 C315.448,2735.352 315.472,2735.448 315.4,2735.568 C315.256,2735.76 315.088,2735.88 314.872,2736.072 C314.704,2736.216 314.536,2736.384 314.344,2736.528 C313.96,2736.816 313.792,2736.984 313.384,2737.272 C312.808,2737.68 312.208,2738.064 311.56,2738.424 C310.696,2738.88 310.144,2739.144 309.184,2739.288 C308.992,2739.312 308.776,2739.336 308.584,2739.336 L308.512,2739.552 C308.488,2739.648 308.416,2739.744 308.344,2739.816 C308.32,2739.864 308.248,2739.888 308.176,2739.888 C308.008,2739.96 307.816,2739.888 307.672,2739.816 C307.504,2739.72 307.36,2739.576 307.24,2739.432 L306.712,2738.952 C306.568,2738.76 306.4,2738.592 306.232,2738.4 C306.16,2738.328 306.064,2738.232 306.016,2738.16 C305.968,2738.112 305.92,2738.016 305.896,2737.944 C305.872,2737.92 305.872,2737.896 305.872,2737.872 C305.824,2737.776 305.944,2737.704 306.016,2737.68 C306.208,2737.632 306.52,2737.68 306.592,2737.872 C306.64,2737.92 306.664,2737.968 306.712,2738.016 C306.76,2738.064 306.808,2738.112 306.856,2738.184 C306.88,2738.184 306.928,2738.256 306.928,2738.256 L307.024,2738.328 L307.288,2738.52 L307.384,2738.568 C307.456,2738.616 307.528,2738.64 307.6,2738.664 C307.624,2738.664 307.672,2738.688 307.672,2738.688 L307.768,2738.736 L307.912,2738.76 C308.152,2737.848 308.344,2736.984 308.728,2736.12 C309.112,2735.28 309.712,2734.488 310.624,2734.176 C310.84,2734.128 311.128,2734.224 311.224,2734.416 C311.296,2734.56 311.2,2734.656 311.056,2734.704 L311.08,2734.704 L310.984,2734.752 C310.96,2734.752 310.888,2734.8 310.96,2734.752 L310.792,2734.824 L310.504,2735.016 C310.48,2735.04 310.408,2735.088 310.288,2735.208 L310.072,2735.448 L309.712,2735.976 L309.568,2736.264 L309.424,2736.576 L309.184,2737.248 C309.016,2737.68 308.896,2738.16 308.776,2738.616 C308.752,2738.664 308.752,2738.712 308.728,2738.784 C309.16,2738.784 309.616,2738.616 310.072,2738.472 C310.504,2738.328 310.6,2738.28 310.696,2738.232 C311.2,2737.968 311.344,2737.872 311.776,2737.608 C312.28,2737.296 312.688,2736.984 313.168,2736.624 L313.96,2736 C314.248,2735.784 314.56,2735.448 314.872,2735.232 C315.016,2735.136 315.208,2735.184 315.352,2735.28 Z M339.352,2725.464 L339.304,2725.44 C339.28,2725.44 339.28,2725.44 339.352,2725.464 Z M341.872,2726.76 C342.136,2727.888 341.512,2729.016 340.84,2729.856 C340.216,2730.672 339.448,2731.392 338.608,2731.992 C337.792,2732.592 336.88,2733.072 335.992,2733.528 C334.912,2734.08 333.832,2734.56 332.728,2735.016 C331.624,2735.472 330.52,2735.88 329.392,2736.264 C328.888,2736.432 328.36,2736.6 327.832,2736.744 C327.616,2736.816 327.352,2736.912 327.112,2736.96 L326.752,2737.032 L326.584,2737.08 C326.464,2737.248 326.344,2737.416 326.224,2737.608 C325.384,2738.856 324.568,2740.128 323.776,2741.424 C323.368,2742.048 322.984,2742.696 322.648,2743.344 L322.144,2744.352 C322.072,2744.52 322,2744.712 321.952,2744.88 C321.904,2745.024 321.856,2745.168 321.832,2745.336 C321.832,2745.72 321.136,2745.6 321.04,2745.312 C321.04,2745.288 321.016,2745.264 321.016,2745.24 L321.016,2745.192 C320.944,2744.712 321.28,2744.232 321.472,2743.824 L322.312,2741.952 C322.624,2741.304 322.936,2740.632 323.224,2739.96 C323.752,2738.712 324.232,2737.392 324.304,2736.024 C324.352,2735.448 324.328,2734.848 324.232,2734.272 C324.136,2733.72 324.016,2733.264 323.776,2732.76 C323.728,2732.64 323.656,2732.52 323.584,2732.424 L323.512,2732.256 C323.536,2732.328 323.488,2732.256 323.488,2732.232 C323.464,2732.208 323.464,2732.184 323.44,2732.184 C323.368,2732.088 323.296,2731.992 323.2,2731.896 L323.128,2731.8 C323.104,2731.776 323.056,2731.728 323.032,2731.728 L322.888,2731.608 L322.864,2731.584 L322.84,2731.584 L322.696,2731.512 C322.696,2731.488 322.648,2731.488 322.624,2731.464 L322.48,2731.416 L322.408,2731.416 C322.36,2731.392 322.312,2731.392 322.264,2731.392 L322.216,2731.392 C322.048,2731.392 321.856,2731.368 321.712,2731.2 C321.616,2731.08 321.616,2730.96 321.736,2730.864 C323.584,2729.448 325.6,2728.2 327.712,2727.216 C330.184,2726.04 332.848,2725.152 335.584,2724.864 C336.784,2724.72 338.08,2724.648 339.28,2724.888 C340.336,2725.104 341.584,2725.608 341.872,2726.76 Z M340.96,2727.984 C341.056,2727.744 341.104,2727.48 341.104,2727.24 C341.104,2727.12 341.104,2726.976 341.08,2726.856 C341.08,2726.736 341.032,2726.64 341.008,2726.544 L340.936,2726.376 L340.888,2726.304 C340.84,2726.232 340.936,2726.352 340.888,2726.28 C340.84,2726.232 340.816,2726.184 340.768,2726.16 C340.768,2726.136 340.744,2726.112 340.72,2726.088 C340.624,2725.992 340.528,2725.92 340.432,2725.848 C340.336,2725.8 340.504,2725.896 340.408,2725.848 C340.384,2725.848 340.36,2725.824 340.336,2725.8 L340.168,2725.728 C340.144,2725.704 340.096,2725.68 340.072,2725.68 C340.048,2725.656 339.952,2725.632 340.048,2725.68 L339.88,2725.608 C339.736,2725.56 339.616,2725.512 339.496,2725.488 C339.448,2725.488 339.4,2725.464 339.376,2725.464 C339.352,2725.464 339.328,2725.44 339.304,2725.44 L339.136,2725.416 C339.016,2725.392 338.872,2725.368 338.728,2725.368 C338.584,2725.344 338.44,2725.32 338.296,2725.32 L338.08,2725.32 C338.032,2725.296 338.008,2725.296 337.96,2725.296 C337.648,2725.296 337.336,2725.32 337.024,2725.32 C334.384,2725.464 331.744,2726.184 329.296,2727.24 C327.016,2728.2 324.856,2729.472 322.84,2730.96 C323.128,2731.08 323.416,2731.248 323.656,2731.464 C324.448,2732.208 324.856,2733.264 325.024,2734.296 C325.24,2735.544 325.144,2736.816 324.808,2738.04 C324.76,2738.184 324.736,2738.304 324.688,2738.448 C325.168,2737.704 325.696,2736.96 326.2,2736.216 C327.688,2734.08 329.248,2731.992 330.76,2729.856 C330.952,2729.592 331.696,2729.904 331.48,2730.216 L331.216,2730.6 C329.872,2732.52 328.456,2734.368 327.112,2736.288 L328.12,2736 C328.912,2735.736 329.728,2735.448 330.52,2735.16 C332.656,2734.368 334.792,2733.48 336.784,2732.304 C337.192,2732.04 337.6,2731.8 337.984,2731.512 C338.176,2731.368 338.392,2731.248 338.728,2730.936 L338.992,2730.696 C339.4,2730.312 339.808,2729.88 340.144,2729.424 C340.504,2728.992 340.792,2728.512 340.96,2727.984 Z M322.864,2731.584 L322.84,2731.584 C322.768,2731.536 322.84,2731.584 322.864,2731.584 Z M322.648,2731.488 L322.624,2731.464 C322.6,2731.464 322.552,2731.44 322.648,2731.488 Z M338.8,2735.016 L338.656,2735.16 L338.56,2735.232 L338.296,2735.472 C337.888,2735.88 337.504,2736.312 337.192,2736.792 C337,2737.056 336.856,2737.32 336.76,2737.536 C336.616,2737.8 336.472,2738.088 336.4,2738.376 C336.376,2738.472 336.352,2738.568 336.352,2738.64 C336.376,2738.712 336.448,2738.712 336.52,2738.688 L336.808,2738.616 C337.192,2738.52 337.576,2738.328 337.96,2738.184 L338.44,2737.944 C338.656,2737.848 339.016,2737.656 339.328,2737.464 C339.4,2737.416 339.52,2737.368 339.568,2737.32 L340.96,2736.456 C341.2,2736.264 341.512,2736.096 341.776,2735.928 C342.208,2735.616 342.496,2735.448 342.784,2735.304 C342.952,2735.256 343.48,2735.472 343.264,2735.712 C343.12,2735.88 342.88,2736.024 342.616,2736.192 C342.04,2736.576 341.872,2736.648 341.8,2736.72 C341.008,2737.248 340.216,2737.752 339.16,2738.304 C338.872,2738.448 338.44,2738.664 338.128,2738.784 C337.576,2739.024 336.088,2739.672 335.656,2738.832 C335.584,2738.664 335.584,2738.448 335.632,2738.28 C335.704,2738.016 335.824,2737.704 335.968,2737.464 C336.256,2736.912 336.592,2736.36 336.928,2735.928 C337.096,2735.712 337.288,2735.472 337.504,2735.28 L337.864,2734.944 L338.296,2734.632 C338.392,2734.584 338.56,2734.584 338.68,2734.656 L338.656,2734.656 C338.728,2734.704 338.824,2734.824 338.8,2735.016 Z M338.944,2733.936 C338.824,2733.912 338.68,2733.768 338.68,2733.624 C338.704,2733.552 338.776,2733.48 338.872,2733.408 C338.896,2733.408 338.968,2733.36 338.992,2733.336 L339.112,2733.264 L339.304,2733.12 L339.496,2732.952 C339.64,2732.832 339.928,2732.928 340.024,2733.024 C340.096,2733.072 340.24,2733.24 340.12,2733.36 L339.88,2733.552 L339.664,2733.72 C339.448,2733.864 339.232,2734.008 338.944,2733.936 Z M344.536,2735.304 C344.44,2735.448 344.2,2735.376 344.104,2735.256 C344.056,2735.304 343.96,2735.328 343.912,2735.376 C343.768,2735.472 343.528,2735.616 343.384,2735.76 L343.192,2735.904 C343,2736.096 342.928,2736.168 342.736,2736.384 C342.448,2736.696 342.184,2737.008 341.944,2737.344 C341.584,2737.872 341.512,2737.896 341.416,2738.184 C341.368,2738.28 341.344,2738.424 341.344,2738.592 C341.344,2738.664 341.296,2738.856 342.064,2738.616 C342.496,2738.472 342.592,2738.4 342.664,2738.376 L343.216,2738.136 L343.504,2737.992 C343.96,2737.728 344.392,2737.488 344.824,2737.2 L346.072,2736.336 C346.072,2736.336 346.168,2736.264 346.192,2736.24 L346.864,2735.712 C347.176,2735.424 347.248,2735.424 347.464,2735.208 C347.56,2735.16 347.704,2735.16 347.8,2735.208 C347.896,2735.28 348.016,2735.4 348.04,2735.496 C347.992,2735.592 347.872,2735.76 347.776,2735.856 L347.44,2736.168 L347.152,2736.384 C346.936,2736.528 346.744,2736.696 346.528,2736.84 L345.952,2737.272 C344.968,2737.944 343.84,2738.64 342.568,2739.072 C342.16,2739.216 341.632,2739.288 341.2,2739.144 C340.864,2739.024 340.504,2738.784 340.528,2738.376 C340.552,2738.088 340.768,2737.704 340.912,2737.44 C341.344,2736.768 341.896,2736.192 342.448,2735.64 C342.856,2735.232 343.624,2734.488 344.296,2734.704 C344.44,2734.752 344.608,2734.848 344.632,2735.016 C344.656,2735.112 344.608,2735.208 344.536,2735.304 Z M355.312,2735.28 C355.408,2735.328 355.6,2735.496 355.456,2735.64 C354.472,2736.576 353.368,2737.344 352.192,2738.04 C351.808,2738.28 351.4,2738.472 350.968,2738.664 C350.392,2738.928 349.768,2739.192 349.12,2739.288 C348.568,2739.36 347.968,2739.312 347.56,2738.856 C347.44,2738.736 347.296,2738.472 347.248,2738.328 L347.104,2737.824 C347.056,2737.872 347.008,2737.92 346.96,2737.992 C346.744,2738.232 346.528,2738.52 346.36,2738.808 C346.24,2739.048 346.096,2739.312 345.976,2739.576 C345.904,2739.744 345.688,2739.744 345.544,2739.696 C345.424,2739.648 345.184,2739.504 345.256,2739.336 C345.352,2739.048 345.496,2738.808 345.64,2738.544 C346.648,2736.456 347.776,2734.44 349.12,2732.52 C349.504,2731.968 349.936,2731.416 350.368,2730.888 C350.704,2730.456 351.064,2730.048 351.424,2729.64 L352.216,2728.8 C352.36,2728.68 352.48,2728.536 352.648,2728.44 C352.816,2728.344 353.08,2728.32 353.248,2728.464 C353.32,2728.536 353.416,2728.68 353.272,2728.776 C353.248,2728.776 353.2,2728.8 353.152,2728.8 L353.128,2728.8 L353.128,2728.824 L353.056,2728.872 C352.936,2728.992 352.816,2729.088 352.72,2729.208 L352.072,2729.928 C351.448,2730.648 350.824,2731.368 350.272,2732.136 C349.408,2733.312 348.616,2734.56 347.896,2735.832 C348.16,2735.568 348.4,2735.328 348.688,2735.136 C349.072,2734.848 349.48,2734.656 349.936,2734.656 C350.368,2734.68 350.968,2734.968 350.872,2735.472 C350.848,2735.664 350.728,2735.832 350.608,2736 L350.152,2736.504 C349.816,2736.792 349.456,2737.008 349.048,2737.224 C348.664,2737.44 348.232,2737.656 347.8,2737.728 C347.848,2737.92 347.896,2738.088 347.944,2738.256 C348.136,2738.64 348.4,2738.784 348.856,2738.736 C349.48,2738.664 350.08,2738.4 350.656,2738.136 C351.064,2737.944 351.448,2737.704 351.832,2737.488 C352.888,2736.84 353.92,2736.12 354.808,2735.28 C354.928,2735.136 355.168,2735.16 355.312,2735.28 Z M348.04,2736.768 C347.944,2736.888 347.848,2737.008 347.728,2737.152 L347.896,2737.104 C348.16,2736.984 348.4,2736.864 348.64,2736.72 C348.808,2736.624 349,2736.552 349.144,2736.432 L349.384,2736.264 C349.384,2736.24 349.432,2736.216 349.48,2736.168 L349.6,2736.072 C349.744,2735.928 349.912,2735.76 350.032,2735.592 L350.104,2735.472 C350.128,2735.448 350.224,2735.112 349.888,2735.184 C349.72,2735.184 349.456,2735.328 349.264,2735.52 C349.072,2735.712 348.976,2735.76 348.808,2735.928 C348.544,2736.192 348.28,2736.48 348.04,2736.768 Z" id="Editor’s-Pick"></path>
        </g>
    </g>
</svg>