<?xml version="1.0" encoding="UTF-8"?>
<svg width="74px" height="24px" viewBox="0 0 74 24" version="1.1" xmlns="http://www.w3.org/2000/svg" xmlns:xlink="http://www.w3.org/1999/xlink">
    <!-- Generator: Sketch 51.2 (57519) - http://www.bohemiancoding.com/sketch -->
    <title>Ranking</title>
    <desc>Created with Sketch.</desc>
    <defs></defs>
    <g id="SP" stroke="none" stroke-width="1" fill="none" fill-rule="evenodd">
        <g id="トップ" transform="translate(-281.000000, -840.000000)" fill="#58DDC4">
            <path d="M301.64,841.776 L301.664,841.776 L301.64,841.776 Z M297.379623,858.853543 C297.383665,858.856389 297.387833,858.859833 297.392,858.864 C297.387974,858.861124 297.383961,858.858234 297.379962,858.855331 L297.379623,858.853543 Z M297.379623,858.853543 C297.360389,858.84 297.344,858.84 297.344,858.84 L297.44,858.912 L297.488,858.96 C297.776,859.176 298.04,859.416 298.28,859.68 C298.4,859.848 298.52,859.992 298.568,860.184 C298.64,860.424 298.376,860.544 298.184,860.568 C297.968,860.592 297.68,860.472 297.584,860.28 C297.56,860.184 297.56,860.088 297.608,860.04 L297.56,860.016 C297.536,859.944 297.488,859.896 297.44,859.848 C297.368,859.8 297.32,859.728 297.272,859.68 L297.272,859.656 L297.248,859.656 L297.248,859.632 L297.152,859.584 L296.888,859.344 C296.864,859.32 296.768,859.248 296.72,859.224 C296.672,859.152 296.6,859.104 296.552,859.056 L295.832,858.456 C295.352,858.048 294.848,857.664 294.344,857.256 L292.568,855.816 C292.16,855.504 291.776,855.168 291.416,854.808 C291.008,854.448 290.6,854.088 290.168,853.776 L289.856,853.536 C289.832,853.536 289.784,853.488 289.736,853.488 L289.592,853.416 L289.424,853.344 C289.424,853.32 289.424,853.32 289.4,853.32 L289.424,853.32 L289.376,853.32 L289.232,853.272 L289.208,853.272 C289.04,853.248 288.752,853.128 288.728,852.912 C288.656,852.768 288.728,852.624 288.872,852.6 C290.456,852.24 291.992,851.76 293.504,851.16 C294.704,850.68 295.928,850.08 297.056,849.384 C298.016,848.784 298.928,848.112 299.816,847.44 C300.56,846.816 300.752,846.696 301.016,846.432 C301.424,846.072 301.808,845.688 302.144,845.256 C302.312,845.04 302.456,844.848 302.576,844.632 C302.576,844.608 302.648,844.512 302.6,844.56 C302.624,844.536 302.648,844.512 302.648,844.488 L302.72,844.344 C302.768,844.248 302.816,844.152 302.84,844.032 C302.888,843.936 302.912,843.816 302.912,843.72 C302.936,843.696 302.936,843.672 302.936,843.648 L302.936,843.48 C302.936,843.336 302.936,843.216 302.912,843.096 C302.912,843.048 302.912,843 302.888,842.952 L302.864,842.904 C302.864,842.88 302.84,842.856 302.84,842.832 L302.696,842.544 C302.744,842.64 302.648,842.496 302.624,842.472 L302.528,842.352 L302.48,842.28 L302.36,842.184 L302.144,842.016 L302.096,842.016 C302.096,841.992 302.072,841.992 302.048,841.968 L301.904,841.896 C301.856,841.848 301.76,841.824 301.664,841.776 L301.64,841.776 C301.616,841.752 301.592,841.752 301.568,841.752 L301.448,841.704 L301.184,841.632 L301.04,841.584 L301.016,841.584 C300.944,841.584 300.872,841.56 300.8,841.56 C300.608,841.512 300.392,841.512 300.2,841.512 C300.2,841.512 300.032,841.488 300.104,841.488 L299.24,841.488 L298.232,841.536 C297.512,841.608 296.864,841.704 296.216,841.824 C295.52,841.968 294.824,842.136 294.128,842.328 C292.736,842.736 291.368,843.264 290.048,843.864 C287.456,845.04 284.984,846.48 282.608,848.064 C282.992,848.256 283.304,848.52 283.568,848.88 C284.144,849.648 284.336,850.632 284.384,851.568 C284.432,852.624 284.336,853.704 284.192,854.76 L284,856.128 C283.88,857.616 283.832,857.904 283.808,858.192 C283.88,858.048 283.952,857.904 284.024,857.784 L284.936,856.32 C286.328,854.184 287.864,852.144 289.376,850.104 C290.096,849.144 290.792,848.184 291.512,847.248 C291.752,846.936 291.968,846.6 292.184,846.288 L292.544,845.736 C292.64,845.616 292.736,845.472 292.88,845.4 C293.024,845.328 293.216,845.352 293.36,845.472 C293.456,845.544 293.528,845.712 293.384,845.808 C293.336,845.832 293.432,845.76 293.36,845.808 L293.312,845.88 C293.24,845.952 293.192,846.024 293.144,846.12 L292.784,846.672 C292.568,847.032 292.352,847.368 292.112,847.704 C290.648,849.72 289.136,851.712 287.72,853.728 C287,854.76 286.28,855.792 285.632,856.824 C285.32,857.304 285.032,857.76 284.768,858.24 C284.432,858.816 284.24,859.464 283.832,860.016 C283.736,860.136 283.496,860.136 283.376,860.088 C283.232,860.04 283.112,859.968 283.04,859.824 C282.968,859.704 282.944,859.512 282.92,859.368 C282.896,859.128 282.896,858.912 282.92,858.672 C282.92,857.712 283.04,856.728 283.16,855.768 C283.28,854.784 283.448,853.776 283.496,852.84 C283.52,852.312 283.544,851.784 283.496,851.28 C283.472,851.04 283.448,850.8 283.4,850.56 C283.4,850.44 283.376,850.32 283.328,850.2 C283.328,850.152 283.304,850.08 283.304,850.032 C283.304,850.104 283.28,850.032 283.28,850.008 C283.28,849.984 283.28,849.96 283.256,849.936 C283.184,849.744 283.112,849.528 282.992,849.336 L282.92,849.192 C282.872,849.12 282.968,849.264 282.896,849.192 C282.896,849.168 282.872,849.144 282.872,849.12 L282.68,848.88 L282.608,848.808 L282.488,848.712 L282.368,848.64 C282.344,848.616 282.2,848.52 282.32,848.592 C282.224,848.52 282.128,848.472 282.008,848.424 L282.008,848.4 C282.008,848.424 281.984,848.4 281.96,848.4 L281.936,848.4 C281.888,848.376 281.84,848.352 281.768,848.352 C281.576,848.28 281.264,848.016 281.528,847.824 C283.304,846.624 285.152,845.496 287.048,844.512 C289.664,843.12 292.448,841.944 295.352,841.32 C296.72,841.032 298.136,840.864 299.528,840.888 C300.008,840.888 300.488,840.888 300.944,840.984 C301.376,841.08 301.808,841.2 302.216,841.392 C303.08,841.8 303.824,842.568 303.824,843.576 C303.8,844.584 303.152,845.472 302.48,846.168 C301.76,846.936 300.896,847.632 300.056,848.28 C299.096,849 298.112,849.672 297.056,850.272 C294.896,851.496 292.544,852.36 290.144,852.984 C290.288,853.056 290.432,853.152 290.552,853.248 C290.96,853.512 291.344,853.848 291.728,854.184 C292.04,854.448 292.352,854.76 292.688,855.048 C293.168,855.48 293.72,855.864 294.224,856.272 C294.824,856.752 295.424,857.232 296.024,857.736 L296.936,858.48 C297.076549,858.597124 297.217098,858.737111 297.379962,858.855331 L297.379623,858.853543 Z M281.936,848.4 L282.008,848.4 L281.936,848.4 Z M302.888,842.952 C302.888,842.928 302.888,842.928 302.864,842.928 L302.888,842.952 Z M297.2,859.632 L297.248,859.632 L297.272,859.656 L297.2,859.632 Z M301.016,841.584 L300.968,841.584 C301.136,841.608 301.04,841.584 301.016,841.584 Z M306.728,851.28 C306.848,851.328 307.04,851.52 306.92,851.616 C306.128,852.312 305.408,852.96 304.52,853.536 C304.112,853.8 303.92,853.944 303.608,854.112 C302.648,854.64 302.312,854.784 301.952,854.856 C301.376,854.928 300.632,854.856 300.32,854.328 C300.128,854.04 300.176,853.656 300.272,853.32 C300.056,853.584 299.816,853.8 299.552,854.04 C299.312,854.256 299.096,854.544 298.856,854.712 C298.664,854.88 298.448,855 298.184,855.096 C297.896,855.216 297.56,855.216 297.248,855 C297.032,854.832 296.936,854.544 296.936,854.28 C296.96,853.68 297.32,853.2 297.656,852.744 C298.04,852.264 298.472,851.832 298.976,851.472 C299.336,851.208 299.744,851.016 300.248,850.848 C300.416,850.8 300.656,850.752 300.848,850.776 C301.064,850.848 301.376,851.016 301.256,851.28 C301.184,851.448 300.992,851.448 300.848,851.376 C300.8,851.376 300.776,851.352 300.728,851.328 L300.704,851.328 C300.68,851.352 300.632,851.328 300.608,851.352 C300.584,851.352 300.464,851.4 300.512,851.376 C300.128,851.544 299.768,851.76 299.432,852 C299.144,852.24 298.784,852.552 298.496,852.912 C298.208,853.248 297.896,853.608 297.752,854.064 C297.68,854.256 297.632,854.472 297.704,854.664 C297.728,854.664 297.752,854.664 297.776,854.64 C298.04,854.496 298.232,854.376 298.424,854.184 C298.688,853.968 298.928,853.728 299.144,853.488 L300.536,852 L301.28,851.328 L301.304,851.304 C301.472,851.088 301.688,850.896 301.832,850.68 C302,850.488 302.552,850.656 302.552,850.92 L302.552,850.944 C302.552,850.992 302.48,851.088 302.432,851.136 C302.408,851.184 302.36,851.208 302.336,851.256 C302.144,851.496 302.048,851.52 301.592,852.216 C301.52,852.336 301.424,852.456 301.376,852.576 C301.232,852.864 301.088,853.176 301.016,853.44 L300.944,853.68 C300.776,854.112 301.136,854.496 301.712,854.328 C302.192,854.184 302.6,853.944 303.104,853.68 C304.28,853.056 305.24,852.168 306.248,851.28 C306.416,851.184 306.608,851.208 306.728,851.28 Z M313.904,851.064 C314.024,851.088 314.192,851.28 314.072,851.4 C313.544,851.88 312.968,852.288 312.368,852.72 C311.648,853.224 310.904,853.704 310.112,854.184 C309.776,854.376 309.464,854.568 309.128,854.712 C308.864,854.856 308.552,854.976 308.264,855.024 C307.88,855.096 307.592,854.952 307.4,854.64 C307.184,854.256 307.304,853.824 307.472,853.44 C307.64,853.008 307.904,852.6 308.168,852.168 C308.264,851.976 308.384,851.784 308.456,851.544 C307.832,851.904 307.28,852.456 306.8,852.96 C306.176,853.656 305.624,854.448 304.976,855.168 C304.952,855.168 304.928,855.192 304.904,855.216 C304.808,855.36 304.592,855.312 304.448,855.24 C304.352,855.216 304.208,855.096 304.256,854.976 C304.688,853.968 305.24,853.08 305.84,852.216 C306.056,851.904 306.176,851.568 306.416,851.208 C306.56,850.92 306.776,850.488 307.16,850.488 C307.304,850.488 307.52,850.56 307.592,850.704 C307.664,850.872 307.544,850.968 307.4,850.968 C307.376,850.968 307.376,850.992 307.328,851.016 L307.184,851.208 L306.968,851.664 L306.776,852.096 C307.304,851.544 307.952,851.04 308.696,850.824 C308.864,850.752 309.2,850.872 309.248,851.088 C309.272,851.52 309.08,851.928 308.888,852.312 C308.672,852.72 308.408,853.104 308.24,853.536 C308.144,853.752 308.072,853.92 308.048,854.16 C308.024,854.256 308.024,854.4 308.072,854.52 C308.192,854.496 308.288,854.448 308.408,854.4 L308.864,854.16 L309.92,853.536 C310.664,853.056 311.384,852.6 312.104,852.072 L312.992,851.424 C313.088,851.328 313.184,851.256 313.304,851.184 L313.424,851.112 C313.472,851.088 313.52,851.016 313.472,851.088 C313.592,850.968 313.76,850.992 313.904,851.064 Z M321.2,851.28 C321.296,851.328 321.488,851.496 321.344,851.64 C320.36,852.576 319.256,853.344 318.08,854.04 C317.696,854.28 317.288,854.472 316.856,854.664 C316.28,854.928 315.656,855.192 315.008,855.288 C314.456,855.36 313.856,855.312 313.448,854.856 C313.328,854.736 313.184,854.472 313.136,854.328 L312.992,853.824 C312.944,853.872 312.896,853.92 312.848,853.992 C312.632,854.232 312.416,854.52 312.248,854.808 C312.128,855.048 311.984,855.312 311.864,855.576 C311.792,855.744 311.576,855.744 311.432,855.696 C311.312,855.648 311.072,855.504 311.144,855.336 C311.24,855.048 311.384,854.808 311.528,854.544 C312.536,852.456 313.664,850.44 315.008,848.52 C315.392,847.968 315.824,847.416 316.256,846.888 C316.592,846.456 316.952,846.048 317.312,845.64 L318.104,844.8 C318.248,844.68 318.368,844.536 318.536,844.44 C318.704,844.344 318.968,844.32 319.136,844.464 C319.208,844.536 319.304,844.68 319.16,844.776 C319.136,844.776 319.088,844.8 319.04,844.8 L319.016,844.8 L319.016,844.824 L318.944,844.872 C318.824,844.992 318.704,845.088 318.608,845.208 L317.96,845.928 C317.336,846.648 316.712,847.368 316.16,848.136 C315.296,849.312 314.504,850.56 313.784,851.832 C314.048,851.568 314.288,851.328 314.576,851.136 C314.96,850.848 315.368,850.656 315.824,850.656 C316.256,850.68 316.856,850.968 316.76,851.472 C316.736,851.664 316.616,851.832 316.496,852 L316.04,852.504 C315.704,852.792 315.344,853.008 314.936,853.224 C314.552,853.44 314.12,853.656 313.688,853.728 C313.736,853.92 313.784,854.088 313.832,854.256 C314.024,854.64 314.288,854.784 314.744,854.736 C315.368,854.664 315.968,854.4 316.544,854.136 C316.952,853.944 317.336,853.704 317.72,853.488 C318.776,852.84 319.808,852.12 320.696,851.28 C320.816,851.136 321.056,851.16 321.2,851.28 Z M313.928,852.768 C313.832,852.888 313.736,853.008 313.616,853.152 L313.784,853.104 C314.048,852.984 314.288,852.864 314.528,852.72 C314.696,852.624 314.888,852.552 315.032,852.432 L315.272,852.264 C315.272,852.24 315.32,852.216 315.368,852.168 L315.488,852.072 C315.632,851.928 315.8,851.76 315.92,851.592 L315.992,851.472 C316.016,851.448 316.112,851.112 315.776,851.184 C315.608,851.184 315.344,851.328 315.152,851.52 C314.96,851.712 314.864,851.76 314.696,851.928 C314.432,852.192 314.168,852.48 313.928,852.768 Z M322.112,851.016 L321.968,851.16 L321.872,851.232 L321.608,851.472 C321.2,851.88 320.816,852.312 320.504,852.792 C320.312,853.056 320.168,853.32 320.072,853.536 C319.928,853.8 319.784,854.088 319.712,854.376 C319.688,854.472 319.664,854.568 319.664,854.64 C319.688,854.712 319.76,854.712 319.832,854.688 L320.12,854.616 C320.504,854.52 320.888,854.328 321.272,854.184 L321.752,853.944 C321.968,853.848 322.328,853.656 322.64,853.464 C322.712,853.416 322.832,853.368 322.88,853.32 L324.272,852.456 C324.512,852.264 324.824,852.096 325.088,851.928 C325.52,851.616 325.808,851.448 326.096,851.304 C326.264,851.256 326.792,851.472 326.576,851.712 C326.432,851.88 326.192,852.024 325.928,852.192 C325.352,852.576 325.184,852.648 325.112,852.72 C324.32,853.248 323.528,853.752 322.472,854.304 C322.184,854.448 321.752,854.664 321.44,854.784 C320.888,855.024 319.4,855.672 318.968,854.832 C318.896,854.664 318.896,854.448 318.944,854.28 C319.016,854.016 319.136,853.704 319.28,853.464 C319.568,852.912 319.904,852.36 320.24,851.928 C320.408,851.712 320.6,851.472 320.816,851.28 L321.176,850.944 L321.608,850.632 C321.704,850.584 321.872,850.584 321.992,850.656 L321.968,850.656 C322.04,850.704 322.136,850.824 322.112,851.016 Z M322.256,849.936 C322.136,849.912 321.992,849.768 321.992,849.624 C322.016,849.552 322.088,849.48 322.184,849.408 C322.208,849.408 322.28,849.36 322.304,849.336 L322.424,849.264 L322.616,849.12 L322.808,848.952 C322.952,848.832 323.24,848.928 323.336,849.024 C323.408,849.072 323.552,849.24 323.432,849.36 L323.192,849.552 L322.976,849.72 C322.76,849.864 322.544,850.008 322.256,849.936 Z M333.776,851.064 C333.896,851.088 334.064,851.28 333.944,851.4 C333.416,851.88 332.84,852.288 332.24,852.72 C331.52,853.224 330.776,853.704 329.984,854.184 C329.648,854.376 329.336,854.568 329,854.712 C328.736,854.856 328.424,854.976 328.136,855.024 C327.752,855.096 327.464,854.952 327.272,854.64 C327.056,854.256 327.176,853.824 327.344,853.44 C327.512,853.008 327.776,852.6 328.04,852.168 C328.136,851.976 328.256,851.784 328.328,851.544 C327.704,851.904 327.152,852.456 326.672,852.96 C326.048,853.656 325.496,854.448 324.848,855.168 C324.824,855.168 324.8,855.192 324.776,855.216 C324.68,855.36 324.464,855.312 324.32,855.24 C324.224,855.216 324.08,855.096 324.128,854.976 C324.56,853.968 325.112,853.08 325.712,852.216 C325.928,851.904 326.048,851.568 326.288,851.208 C326.432,850.92 326.648,850.488 327.032,850.488 C327.176,850.488 327.392,850.56 327.464,850.704 C327.536,850.872 327.416,850.968 327.272,850.968 C327.248,850.968 327.248,850.992 327.2,851.016 L327.056,851.208 L326.84,851.664 L326.648,852.096 C327.176,851.544 327.824,851.04 328.568,850.824 C328.736,850.752 329.072,850.872 329.12,851.088 C329.144,851.52 328.952,851.928 328.76,852.312 C328.544,852.72 328.28,853.104 328.112,853.536 C328.016,853.752 327.944,853.92 327.92,854.16 C327.896,854.256 327.896,854.4 327.944,854.52 C328.064,854.496 328.16,854.448 328.28,854.4 L328.736,854.16 L329.792,853.536 C330.536,853.056 331.256,852.6 331.976,852.072 L332.864,851.424 C332.96,851.328 333.056,851.256 333.176,851.184 L333.296,851.112 C333.344,851.088 333.392,851.016 333.344,851.088 C333.464,850.968 333.632,850.992 333.776,851.064 Z M334.340096,854.030592 C334.34336,854.0256 334.3472,854.0208 334.352,854.016 C334.349167,854.018833 334.346417,854.021667 334.343741,854.024495 L334.340096,854.030592 Z M334.343741,854.024495 C334.301083,854.069583 334.277167,854.113417 334.232,854.136 C333.92,854.448 333.608,854.736 333.248,854.976 C332.912,855.192 332.552,855.312 332.144,855.192 C331.784,855.12 331.472,854.856 331.424,854.472 C331.4,854.136 331.52,853.8 331.664,853.488 C331.832,853.104 332.048,852.744 332.288,852.384 C332.648,851.832 333.056,851.28 333.56,850.848 C333.872,850.584 334.256,850.296 334.688,850.344 C334.904,850.368 335.168,850.512 335.24,850.728 C335.264,850.848 335.288,850.968 335.264,851.088 C335.24,851.232 335.192,851.328 335.12,851.472 C335.048,851.544 334.88,851.544 334.808,851.52 C334.712,851.472 334.592,851.4 334.592,851.304 C334.568,851.184 334.568,851.088 334.568,850.968 L334.568,850.944 C334.448,851.016 334.352,851.088 334.256,851.16 L334.112,851.304 C334.04,851.352 333.992,851.4 333.944,851.448 C333.896,851.52 333.824,851.592 333.776,851.64 C333.608,851.832 333.464,852 333.344,852.192 C333.104,852.528 332.864,852.864 332.672,853.2 C332.648,853.224 332.624,853.272 332.624,853.296 L332.6,853.296 L332.6,853.32 C332.576,853.368 332.552,853.392 332.528,853.44 C332.48,853.536 332.456,853.608 332.408,853.704 C332.336,853.872 332.264,854.016 332.24,854.208 C332.216,854.232 332.216,854.28 332.216,854.328 C332.192,854.352 332.192,854.424 332.192,854.4 L332.192,854.568 C332.192,854.592 332.216,854.64 332.216,854.64 C332.216,854.784 332.48,854.664 332.552,854.592 C332.72,854.496 332.864,854.4 333.008,854.28 L333.056,854.232 C333.08,854.232 333.104,854.208 333.128,854.184 C333.176,854.16 333.2,854.112 333.248,854.088 L333.488,853.848 C333.824,853.512 334.136,853.176 334.448,852.816 C334.712,852.528 334.976,852.216 335.216,851.928 C335.456,851.664 335.72,851.424 335.984,851.16 C336.104,850.944 336.248,850.752 336.512,850.68 C336.68,850.656 336.848,850.68 336.968,850.776 C337.064,850.848 337.16,850.992 337.064,851.112 C336.92,851.256 336.776,851.376 336.632,851.52 C336.56,851.664 336.488,851.784 336.416,851.904 C336.296,852.096 336.2,852.264 336.08,852.456 C335.888,852.768 335.696,853.08 335.504,853.416 C335.48,853.488 335.432,853.536 335.408,853.608 C335.384,853.608 335.384,853.632 335.384,853.656 C335.36,853.68 335.336,853.704 335.336,853.752 C335.264,853.872 335.192,854.016 335.12,854.136 C335,854.352 334.88,854.568 334.784,854.784 C334.448,855.456 334.112,856.176 333.776,856.848 C333.656,857.064 333.56,857.28 333.44,857.496 C334.904,857.136 336.392,856.8 337.88,856.512 C339.272,856.248 340.664,856.008 342.08,855.816 C343.472,855.648 344.888,855.528 346.304,855.456 C347.888,855.36 349.472,855.384 351.032,855.576 C351.728,855.648 352.448,855.72 353.12,855.936 C353.792,856.128 354.824,856.56 354.584,857.424 C354.464,857.784 353.648,857.544 353.744,857.184 C353.768,857.088 353.768,857.016 353.744,856.92 C353.744,856.896 353.744,856.872 353.72,856.848 L353.72,856.824 L353.696,856.824 C353.696,856.8 353.6,856.728 353.648,856.752 L353.624,856.728 L353.6,856.728 C353.528,856.68 353.456,856.632 353.384,856.608 C353.36,856.584 353.336,856.584 353.312,856.584 C353.312,856.56 353.312,856.56 353.288,856.56 C353.24,856.536 353.216,856.536 353.168,856.512 C353.096,856.488 353,856.464 352.928,856.44 C352.064,856.248 351.272,856.128 350.36,856.08 C348.824,855.96 347.288,855.96 345.728,856.08 C345.056,856.128 344.384,856.176 343.712,856.248 C342.992,856.32 342.296,856.416 341.6,856.512 C338.768,856.92 335.912,857.544 333.104,858.24 C333.08,858.264 333.056,858.264 333.032,858.264 C333.032,858.288 333.032,858.288 333.008,858.312 C333.008,858.336 332.984,858.36 332.984,858.36 C332.768,858.792 332.528,859.2 332.312,859.608 C331.856,860.376 331.4,861.168 330.872,861.888 C330.416,862.512 329.912,863.112 329.168,863.4 C328.64,863.616 327.968,863.616 327.488,863.256 C327.08,862.968 326.936,862.464 327.008,861.96 C327.104,861.432 327.368,860.904 327.68,860.472 C327.968,860.04 328.328,859.68 328.76,859.344 C329.6,858.696 330.608,858.288 331.616,857.976 L332.408,857.76 C332.504,857.568 332.624,857.376 332.72,857.184 L332.72,857.16 C332.96,856.656 333.224,856.2 333.752,855.168 C333.944,854.808 334.112,854.448 334.304,854.112 C334.3232,854.0736 334.32704,854.05056 334.340096,854.030592 L334.343741,854.024495 Z M328.352,863.016 C328.376,862.992 328.4,862.992 328.424,862.992 C328.472,862.992 328.544,862.968 328.592,862.944 C328.664,862.92 328.688,862.92 328.76,862.872 C328.904,862.8 329.072,862.704 329.192,862.608 C329.216,862.584 329.24,862.584 329.264,862.56 L329.288,862.56 L329.288,862.536 C329.528,862.344 329.72,862.104 329.912,861.864 C330.44,861.192 330.896,860.472 331.328,859.728 C331.568,859.32 331.784,858.912 332.024,858.504 C332,858.504 331.976,858.504 331.952,858.528 C331.424,858.672 330.992,858.84 330.512,859.08 C329.6,859.536 328.808,860.136 328.256,861.024 C328.016,861.408 327.752,861.96 327.776,862.416 C327.776,862.464 327.776,862.536 327.8,862.584 L327.8,862.632 C327.8,862.656 327.824,862.68 327.824,862.68 C327.848,862.728 327.848,862.776 327.872,862.824 L327.896,862.824 C327.896,862.848 327.92,862.872 327.92,862.872 L327.968,862.92 C327.992,862.944 328.016,862.968 328.064,862.992 L328.112,862.992 L328.136,863.016 L328.352,863.016 Z" id="Ranking"></path>
        </g>
    </g>
</svg>