<?xml version="1.0" encoding="UTF-8"?>
<svg width="60px" height="16px" viewBox="0 0 60 16" version="1.1" xmlns="http://www.w3.org/2000/svg" xmlns:xlink="http://www.w3.org/1999/xlink">
    <!-- Generator: Sketch 51.2 (57519) - http://www.bohemiancoding.com/sketch -->
    <title>Featured</title>
    <desc>Created with Sketch.</desc>
    <defs></defs>
    <g id="SP" stroke="none" stroke-width="1" fill="none" fill-rule="evenodd">
        <g id="トップ" transform="translate(-21.000000, -337.000000)" fill="#FFA9C8">
            <path d="M40.936,338.08 C40.984,338.224 40.912,338.344 40.768,338.368 C40.096,338.584 39.4,338.728 38.704,338.8 C38.536,338.824 38.296,338.728 38.224,338.56 C38.176,338.464 38.2,338.368 38.272,338.32 C36.064,338.272 33.856,338.32 31.648,338.44 C29.368,338.56 27.088,338.704 24.808,338.8 C24.688,338.848 24.544,338.848 24.448,338.848 C24.208,338.872 23.968,338.896 23.728,338.896 C23.464,338.92 23.2,338.92 22.936,338.896 C22.672,338.872 22.336,338.776 22.264,338.488 C22.264,338.44 22.264,338.392 22.312,338.344 L22.432,338.248 C22.576,338.104 22.792,338.128 22.96,338.224 C23.008,338.224 23.296,338.272 23.392,338.272 L23.92,338.248 C26.752,338.104 29.248,337.96 32.44,337.816 C35.128,337.72 37.816,337.72 40.504,337.84 C40.672,337.84 40.864,337.936 40.936,338.08 Z M33.976,344.296 C34.192,344.32 34.6,344.584 34.312,344.8 C34.216,344.848 34.168,344.92 34.072,344.968 C33.928,345.064 33.712,344.992 33.592,344.896 L33.52,344.824 L33.4,344.824 L33.4,344.8 C33.376,344.824 33.376,344.824 33.352,344.824 C33.328,344.824 33.28,344.8 33.232,344.8 L32.296,344.8 C30.904,344.776 29.512,344.824 28.096,344.896 L26.608,344.992 C26.392,345.28 26.176,345.592 25.96,345.904 C25.264,346.864 24.616,347.872 23.992,348.88 C23.632,349.432 23.32,349.984 23.008,350.56 C22.648,351.184 22.336,351.808 21.976,352.408 C21.832,352.648 21.184,352.408 21.304,352.144 C21.4,351.928 21.472,351.712 21.592,351.496 C22.744,349.264 24.088,347.152 25.576,345.112 L25.6,345.088 C25.384,345.088 25.192,345.112 25,345.136 L24.496,345.208 C24.376,345.208 24.256,345.232 24.136,345.208 C24.112,345.256 24.112,345.28 24.064,345.28 L24.04,345.28 C23.968,345.328 23.848,345.28 23.8,345.208 C23.728,345.136 23.728,345.064 23.68,344.992 C23.584,344.8 23.776,344.704 23.92,344.68 L25.72,344.488 C25.84,344.464 25.96,344.464 26.056,344.44 L27.76,342.208 L28.96,340.6 C29.152,340.312 29.368,340.024 29.584,339.736 L29.92,339.256 L30.064,339.04 C30.136,338.944 30.088,339.04 30.112,338.992 L30.112,338.944 C30.208,338.632 30.952,338.848 30.856,339.184 C30.784,339.376 30.616,339.544 30.52,339.712 C29.392,341.272 28.216,342.808 27.064,344.368 C28,344.32 28.96,344.272 29.92,344.248 C30.616,344.224 31.288,344.224 31.984,344.224 C32.32,344.224 32.656,344.224 32.968,344.248 C33.304,344.248 33.64,344.248 33.976,344.296 Z M23.776,345.088 C23.8,345.088 23.8,345.088 23.8,345.064 L23.776,345.088 Z M34.912,347.272 C34.672,347.392 34.288,347.44 34,347.32 L33.952,347.368 C33.904,347.464 33.856,347.56 33.832,347.68 C33.808,347.704 33.808,347.728 33.808,347.752 C33.808,347.776 33.784,347.8 33.784,347.824 L33.76,347.92 C33.76,348.088 33.736,348.256 33.904,348.4 C33.952,348.424 34,348.448 34.048,348.448 L34.264,348.448 C34.84,348.4 35.248,348.256 35.752,348.04 C36.928,347.512 38.008,346.816 39.304,345.928 C39.568,345.736 39.904,345.544 40.144,345.352 C40.264,345.28 40.432,345.16 40.6,345.112 C40.648,345.088 40.696,345.088 40.768,345.088 L40.792,345.088 C40.768,345.088 40.864,345.112 40.864,345.112 C40.984,345.136 40.936,345.136 41.008,345.184 L41.08,345.256 C41.104,345.328 41.104,345.352 41.08,345.424 L41.032,345.496 L40.96,345.568 L40.648,345.808 L40.552,345.88 L39.784,346.408 C39.088,346.888 38.272,347.44 37.36,347.92 C36.736,348.256 35.944,348.64 35.272,348.808 C34.912,348.904 34.504,348.952 34.12,348.928 C33.664,348.88 33.208,348.616 33.064,348.16 C32.968,347.728 33.208,347.224 33.424,346.864 C33.688,346.456 34.072,346 34.432,345.664 C34.744,345.352 35.152,345.016 35.608,344.752 C35.992,344.512 36.616,344.272 37.072,344.608 C37.456,344.92 37.24,345.4 37,345.736 C36.76,346.072 36.448,346.36 36.088,346.624 C35.752,346.864 35.32,347.128 34.912,347.272 Z M34.24,346.912 C34.144,347.056 35.728,346.456 36.52,345.256 C36.52,345.256 36.616,345.088 36.592,344.92 C36.376,344.968 36.16,345.088 35.92,345.256 C35.776,345.352 35.68,345.448 35.56,345.544 C35.536,345.568 35.44,345.64 35.44,345.64 C35.056,345.976 34.672,346.336 34.36,346.744 L34.24,346.912 Z M47.776,345.28 C47.896,345.328 48.088,345.52 47.968,345.616 C47.176,346.312 46.456,346.96 45.568,347.536 C45.16,347.8 44.968,347.944 44.656,348.112 C43.696,348.64 43.36,348.784 43,348.856 C42.424,348.928 41.68,348.856 41.368,348.328 C41.176,348.04 41.224,347.656 41.32,347.32 C41.104,347.584 40.864,347.8 40.6,348.04 C40.36,348.256 40.144,348.544 39.904,348.712 C39.712,348.88 39.496,349 39.232,349.096 C38.944,349.216 38.608,349.216 38.296,349 C38.08,348.832 37.984,348.544 37.984,348.28 C38.008,347.68 38.368,347.2 38.704,346.744 C39.088,346.264 39.52,345.832 40.024,345.472 C40.384,345.208 40.792,345.016 41.296,344.848 C41.464,344.8 41.704,344.752 41.896,344.776 C42.112,344.848 42.424,345.016 42.304,345.28 C42.232,345.448 42.04,345.448 41.896,345.376 C41.848,345.376 41.824,345.352 41.776,345.328 L41.752,345.328 C41.728,345.352 41.68,345.328 41.656,345.352 C41.632,345.352 41.512,345.4 41.56,345.376 C41.176,345.544 40.816,345.76 40.48,346 C40.192,346.24 39.832,346.552 39.544,346.912 C39.256,347.248 38.944,347.608 38.8,348.064 C38.728,348.256 38.68,348.472 38.752,348.664 C38.776,348.664 38.8,348.664 38.824,348.64 C39.088,348.496 39.28,348.376 39.472,348.184 C39.736,347.968 39.976,347.728 40.192,347.488 L41.584,346 L42.328,345.328 L42.352,345.304 C42.52,345.088 42.736,344.896 42.88,344.68 C43.048,344.488 43.6,344.656 43.6,344.92 L43.6,344.944 C43.6,344.992 43.528,345.088 43.48,345.136 C43.456,345.184 43.408,345.208 43.384,345.256 C43.192,345.496 43.096,345.52 42.64,346.216 C42.568,346.336 42.472,346.456 42.424,346.576 C42.28,346.864 42.136,347.176 42.064,347.44 L41.992,347.68 C41.824,348.112 42.184,348.496 42.76,348.328 C43.24,348.184 43.648,347.944 44.152,347.68 C45.328,347.056 46.288,346.168 47.296,345.28 C47.464,345.184 47.656,345.208 47.776,345.28 Z M50.1281549,342.064 C50.6321082,342.064005 51.1600541,342.088 51.688,342.088 C52.312,342.088 52.96,342.064 53.584,342.136 C53.728,342.16 53.92,342.256 53.992,342.4 C54.04,342.52 53.968,342.664 53.824,342.688 C53.416,342.76 53.032,342.904 52.6,342.976 C52.408,343 52.192,342.952 52.072,342.808 C52.024,342.76 52,342.712 52,342.64 L49.792,342.64 C49.36,343.432 48.88,344.248 48.448,345.04 C47.944,346.024 47.416,347.008 47.056,348.064 C46.984,348.28 46.912,348.496 46.888,348.76 L46.888,348.784 C46.888,349.216 47.296,349.048 47.56,348.976 C47.896,348.88 48.232,348.76 48.616,348.568 C50.56,347.632 52.456,346.384 54.136,345.064 C54.28,344.944 54.568,345.04 54.688,345.136 C54.784,345.208 54.904,345.376 54.784,345.472 C54.28,345.928 53.608,346.336 53.056,346.744 C52.48,347.152 51.904,347.512 51.28,347.896 C50.416,348.424 49.552,348.928 48.616,349.312 C47.992,349.552 47.176,349.816 46.552,349.48 C46.288,349.336 46.096,349.096 46.072,348.784 C46.048,348.424 46.192,348.04 46.312,347.704 C46.672,346.648 47.2,345.664 47.752,344.68 C48.112,343.984 48.496,343.312 48.904,342.64 L48.448,342.64 C47.056,342.64 45.688,342.64 44.32,342.664 C43,342.664 41.68,342.688 40.36,342.688 C39.376,342.688 38.392,342.712 37.384,342.712 L36.544,342.712 C36.256,342.736 35.848,342.76 35.752,342.4 C35.728,342.328 35.8,342.256 35.848,342.208 C35.896,342.16 35.992,342.16 36.064,342.16 L36.028,342.16 L36.112,342.16 C36.88,342.136 37.648,342.136 38.44,342.136 C38.824,342.136 39.232,342.136 44.2,342.088 L48.304,342.088 C48.616,342.088 48.928,342.088 49.24,342.064 C49.312,341.92 49.408,341.776 49.504,341.608 C49.552,341.488 49.624,341.368 49.696,341.248 L49.84,340.984 C49.984,340.72 50.152,340.456 50.32,340.192 L50.896,339.328 L51.232,338.896 L51.4,338.704 C51.472,338.608 51.544,338.584 51.688,338.56 C51.832,338.56 51.976,338.608 52.048,338.704 C52.12,338.776 52.12,338.872 52.072,338.968 C51.64,339.496 51.304,340.096 50.944,340.648 C50.872,340.792 50.752,340.936 50.68,341.056 L50.536,341.344 C50.416,341.584 50.296,341.8 50.152,342.016 C50.152,342.036093 50.1351785,342.056185 50.1297013,342.062195 L50.1281549,342.064 Z M36.028,342.16 L36.016,342.16 L36.028,342.16 Z M53.152,348.688 L53.128,348.688 L53.152,348.688 Z M62.656,345.088 C62.752,345.136 62.968,345.328 62.824,345.448 L62.632,345.64 C61.792,346.432 60.904,347.152 59.944,347.8 C59.488,348.112 59.032,348.4 58.552,348.616 C58.072,348.832 57.52,349.072 56.968,349 C56.488,348.976 56.08,348.664 55.984,348.184 C55.936,347.872 56.008,347.56 56.104,347.248 C55.96,347.392 55.816,347.512 55.648,347.656 C55.336,347.944 55.024,348.232 54.688,348.496 C54.424,348.688 54.136,348.904 53.848,349.048 C53.584,349.192 53.296,349.312 52.984,349.264 C52.648,349.216 52.312,349 52.24,348.664 C52.168,348.352 52.312,347.992 52.432,347.728 C52.624,347.32 52.84,346.936 53.104,346.552 C53.344,346.192 53.584,345.832 53.848,345.472 C53.968,345.328 54.064,345.184 54.16,345.04 L54.304,344.872 C54.304,344.848 54.328,344.824 54.352,344.8 C54.448,344.632 54.688,344.656 54.784,344.68 C54.928,344.704 55.072,344.752 55.12,344.872 C55.168,344.968 55.12,345.04 55.048,345.088 C55.048,345.112 55.048,345.112 55.024,345.112 L54.976,345.16 L54.904,345.28 L54.688,345.568 C54.52,345.832 54.328,346.072 54.16,346.312 L53.584,347.152 C53.56,347.176 53.44,347.44 53.368,347.56 L53.152,347.944 C53.08,348.112 53.032,348.256 52.984,348.424 C52.984,348.472 52.96,348.544 52.96,348.592 C52.96,348.64 52.96,348.664 52.984,348.688 C52.984,348.712 53.008,348.736 53.104,348.712 C53.128,348.688 53.224,348.664 53.152,348.688 C53.176,348.688 53.2,348.664 53.2,348.664 L53.608,348.424 L54.04,348.136 L54.256,347.944 C54.208,347.968 54.28,347.92 54.28,347.92 C54.304,347.896 54.328,347.896 54.328,347.872 L54.448,347.776 C55.096,347.224 55.696,346.624 56.296,346.048 C56.536,345.808 56.776,345.544 57.04,345.328 C57.208,345.16 57.4,344.992 57.592,344.872 C57.832,344.728 58.408,344.944 58.216,345.256 C58.216,345.28 58.264,345.184 58.216,345.28 C58.216,345.304 58.192,345.352 58.168,345.376 C58.168,345.376 58.024,345.52 58.096,345.424 L57.952,345.568 C57.832,345.688 57.736,345.832 57.64,345.976 C57.376,346.312 57.184,346.648 57.016,347.008 C56.944,347.2 56.848,347.416 56.8,347.608 L56.728,347.968 L56.728,348.088 C56.728,348.4 56.896,348.544 57.208,348.448 L57.376,348.4 C57.664,348.328 57.856,348.232 58.096,348.112 C58.576,347.872 59.032,347.608 59.464,347.296 C60.424,346.624 61.288,345.928 62.128,345.112 C62.272,344.968 62.488,344.992 62.656,345.088 Z M62.392,344.992 C62.512,344.944 62.704,344.992 62.848,345.04 C62.848,345.04 62.872,345.064 62.92,345.088 C63.112,345.136 62.608,346.024 62.392,346.36 C63.016,345.928 63.712,345.448 64.48,345.04 L64.624,344.968 L64.84,344.872 C65.176,344.728 65.536,344.608 65.872,344.56 C65.872,344.56 65.896,344.56 66.064,344.536 C66.208,344.536 66.376,344.536 66.424,344.56 C66.64,344.608 66.928,344.752 66.856,345.064 C66.76,345.256 66.4,345.184 66.208,345.112 C66.16,345.112 66.064,345.112 65.824,345.184 C65.8,345.184 65.8,345.184 65.752,345.208 L65.536,345.28 C65.272,345.4 65.032,345.52 64.816,345.64 L64.576,345.76 L64.12,346.024 L63.856,346.192 L63.28,346.528 L62.848,346.864 L62.248,347.44 L61.696,347.944 L61.144,348.568 C61.024,348.784 60.976,348.856 60.808,349.096 C60.784,349.144 60.76,349.192 60.736,349.216 C60.688,349.312 60.4,349.24 60.304,349.216 C60.184,349.168 60.04,348.952 60.088,348.856 L60.376,348.424 C60.832,347.728 60.88,347.68 61.096,347.272 L61.24,346.984 L61.744,346.072 C61.912,345.664 62.152,345.184 62.392,344.992 Z M66.736,347.272 C66.496,347.392 66.112,347.44 65.824,347.32 L65.776,347.368 C65.728,347.464 65.68,347.56 65.656,347.68 C65.632,347.704 65.632,347.728 65.632,347.752 C65.632,347.776 65.608,347.8 65.608,347.824 L65.584,347.92 C65.584,348.088 65.56,348.256 65.728,348.4 C65.776,348.424 65.824,348.448 65.872,348.448 L66.088,348.448 C66.664,348.4 67.072,348.256 67.576,348.04 C68.752,347.512 69.832,346.816 71.128,345.928 C71.392,345.736 71.728,345.544 71.968,345.352 C72.088,345.28 72.256,345.16 72.424,345.112 C72.472,345.088 72.52,345.088 72.592,345.088 L72.616,345.088 C72.592,345.088 72.688,345.112 72.688,345.112 C72.808,345.136 72.76,345.136 72.832,345.184 L72.904,345.256 C72.928,345.328 72.928,345.352 72.904,345.424 L72.856,345.496 L72.784,345.568 L72.472,345.808 L72.376,345.88 L71.608,346.408 C70.912,346.888 70.096,347.44 69.184,347.92 C68.56,348.256 67.768,348.64 67.096,348.808 C66.736,348.904 66.328,348.952 65.944,348.928 C65.488,348.88 65.032,348.616 64.888,348.16 C64.792,347.728 65.032,347.224 65.248,346.864 C65.512,346.456 65.896,346 66.256,345.664 C66.568,345.352 66.976,345.016 67.432,344.752 C67.816,344.512 68.44,344.272 68.896,344.608 C69.28,344.92 69.064,345.4 68.824,345.736 C68.584,346.072 68.272,346.36 67.912,346.624 C67.576,346.864 67.144,347.128 66.736,347.272 Z M66.064,346.912 C65.968,347.056 67.552,346.456 68.344,345.256 C68.344,345.256 68.44,345.088 68.416,344.92 C68.2,344.968 67.984,345.088 67.744,345.256 C67.6,345.352 67.504,345.448 67.384,345.544 C67.36,345.568 67.264,345.64 67.264,345.64 C66.88,345.976 66.496,346.336 66.184,346.744 L66.064,346.912 Z M73.3345588,345.208474 C73.26209,345.232006 73.1188864,345.232954 72.952,345.376 C72.664,345.64 72.4,345.904 72.16,346.216 C71.848,346.576 71.584,346.936 71.344,347.344 C71.224,347.536 71.128,347.728 71.056,347.92 C71.008,348.016 70.984,348.112 70.96,348.208 C70.96,348.256 70.936,348.304 70.936,348.328 C70.936,348.352 70.936,348.376 70.936,348.4 C70.936,348.352 70.936,348.424 70.936,348.424 C70.912,348.52 70.936,348.592 70.96,348.664 C70.984,348.736 70.984,348.712 71.032,348.712 C71.056,348.712 71.08,348.688 71.128,348.688 C71.128,348.688 71.224,348.64 71.152,348.688 C71.752,348.4 72.256,347.968 72.904,347.32 C73.099701,347.134599 73.2909815,346.945883 73.4787901,346.754326 C73.5773344,346.295745 73.752517,345.847422 73.936,345.424 C74.248,344.632 74.656,343.864 75.088,343.12 C75.328,342.712 75.568,342.304 75.832,341.92 C76.192,341.392 76.576,340.84 76.984,340.336 C77.44,339.736 77.944,339.112 78.52,338.632 C78.736,338.44 78.976,338.248 79.264,338.152 C79.552,338.08 79.936,338.128 80.128,338.392 C80.344,338.656 80.224,339.04 80.104,339.304 C79.936,339.712 79.696,340.096 79.456,340.456 C78.328,342.112 77.08,343.696 75.784,345.208 C75.2633916,345.82451 74.7271418,346.44102 74.1618576,347.021815 C74.1495346,347.080974 74.138223,347.140366 74.128,347.2 C74.128,347.248 74.128,347.296 74.104,347.344 C74.104,347.368 74.104,347.392 74.104,347.416 C74.104,347.416 74.104,347.488 74.104,347.44 C74.104,347.512 74.104,347.584 74.104,347.68 C74.104,347.752 74.104,347.824 74.104,347.92 C74.104,347.968 74.128,347.992 74.128,348.016 C74.128,348.04 74.176,348.136 74.152,348.064 C74.152,348.132878 74.1959279,348.179793 74.2207488,348.246766 C74.2230307,348.248692 74.2334451,348.264333 74.2446051,348.276454 C74.2503219,348.306322 74.2742683,348.330268 74.32,348.376 C74.32,348.376 74.344,348.4 74.368,348.4 C74.368,348.4 74.392,348.424 74.416,348.424 C74.44,348.424 74.464,348.424 74.488,348.424 C74.368,348.424 74.488,348.424 74.512,348.424 C74.536,348.424 74.584,348.424 74.608,348.424 C74.627594,348.424 74.647188,348.424 74.666782,348.41094 C74.6585343,348.412586 74.6165572,348.422044 74.6450248,348.423736 C74.7085225,348.4 74.7302613,348.4 74.752,348.4 C74.848,348.376 74.92,348.352 74.992,348.328 C75.328,348.232 75.664,348.064 75.976,347.872 C76.744,347.44 77.488,346.912 78.184,346.384 C78.496,346.144 78.784,345.904 79.072,345.688 C79.192,345.592 79.312,345.496 79.432,345.4 C79.48,345.376 79.504,345.328 79.552,345.304 C79.6,345.256 79.528,345.328 79.576,345.28 C79.5831397,345.27286 79.5945275,345.263597 79.6051082,345.255368 C79.6104186,345.254244 79.618453,345.251119 79.6220907,345.242432 C79.6321351,345.234893 79.6358883,345.232161 79.6226604,345.240917 C79.6235063,345.238391 79.624,345.235442 79.624,345.232 C79.744,345.136 79.912,345.16 80.056,345.232 C80.152,345.256 80.32,345.424 80.2,345.544 C80.056,345.664 79.888,345.808 79.744,345.952 C79.72,345.976 79.696,346 79.672,346.024 C79.648,346.048 79.528,346.144 79.6,346.096 C79.528,346.144 79.456,346.216 79.384,346.264 C79.24,346.36 79.12,346.48 78.976,346.576 C78.304,347.128 77.584,347.656 76.816,348.088 C76.456,348.328 76.096,348.52 75.688,348.688 C75.4,348.808 75.064,348.904 74.728,348.928 C74.344,348.928 74.008,348.808 73.744,348.544 C73.5347129,348.334713 73.4155515,348.0353 73.408347,347.754918 C73.2198939,347.927499 73.0279215,348.094909 72.832,348.256 C72.376,348.64 71.824,349.12 71.224,349.192 C70.936,349.216 70.6,349.12 70.432,348.904 C70.216,348.592 70.24,348.208 70.36,347.872 C70.528,347.416 70.768,347.008 71.056,346.624 C71.296,346.264 71.584,345.928 71.872,345.616 C72.184,345.28 72.544,344.944 72.976,344.752 C73.312,344.608 74.2,344.56 73.984,345.112 L73.936,345.208 C73.864,345.352 73.408,345.4 73.36,345.304 C73.3391493,345.241448 73.3364132,345.215125 73.3360542,345.209294 L73.3345588,345.208474 Z M74.7084746,345.419115 C74.9567289,345.135791 75.2023644,344.848983 75.448,344.56 C76.384,343.456 77.32,342.328 78.136,341.128 C78.304,340.864 78.496,340.6 78.688,340.36 C78.808,340.168 78.928,340 79.048,339.808 C79.168,339.616 79.264,339.448 79.336,339.28 C79.432,339.112 79.456,338.992 79.528,338.824 C79.552,338.776 79.552,338.704 79.552,338.656 C79.552,338.608 79.432,338.656 79.264,338.824 C79.216,338.872 79.192,338.896 79.168,338.92 C79.216,338.872 79.12,338.968 79.12,338.968 C79.048,339.016 79,339.088 78.928,339.136 C78.664,339.4 78.4,339.688 78.16,339.976 C77.392,340.864 76.696,341.824 76.072,342.832 C75.904,343.12 75.736,343.408 75.568,343.72 C75.472,343.864 75.376,344.032 75.28,344.224 C75.184,344.416 75.088,344.608 74.992,344.8 C74.8961318,345.004519 74.8002637,345.210739 74.7084746,345.419115 Z M74.2235243,348.254585 C74.2236839,348.255056 74.2238425,348.255527 74.224,348.256 C74.224,348.256 74.248,348.28 74.248,348.304 C74.2351231,348.278246 74.2274279,348.262856 74.2235243,348.254585 Z M74.2481608,348.283405 C74.2480536,348.282268 74.248,348.281134 74.248,348.28 C74.2468658,348.278866 74.2457317,348.277678 74.2446051,348.276454 L74.2481608,348.283405 Z M74.679405,348.406132 C74.690756,348.402621 74.6958637,348.4 74.68,348.4 C74.675594,348.404406 74.671188,348.408003 74.666782,348.41094 L74.679405,348.406132 Z M74.6450248,348.423736 C74.6479216,348.423908 74.6515478,348.424 74.656,348.424 C74.6605225,348.421739 74.664832,348.419691 74.6689485,348.417835 L74.6450248,348.423736 Z M79.6051082,345.255368 C79.602124,345.256 79.6,345.256 79.6,345.256 C79.6103271,345.249115 79.6176917,345.244206 79.6226604,345.240917 C79.6224852,345.24144 79.6222949,345.241945 79.6220907,345.242432 C79.6174288,345.245931 79.6114117,345.250466 79.6051082,345.255368 Z" id="Featured"></path>
        </g>
    </g>
</svg>