<?xml version="1.0" encoding="UTF-8"?>
<svg width="385px" height="144px" viewBox="0 0 385 144" version="1.1" xmlns="http://www.w3.org/2000/svg" xmlns:xlink="http://www.w3.org/1999/xlink">
    <!-- Generator: Sketch 51.2 (57519) - http://www.bohemiancoding.com/sketch -->
    <title>Whats on your mind?</title>
    <desc>Created with Sketch.</desc>
    <defs></defs>
    <g id="Symbols" stroke="none" stroke-width="1" fill="none" fill-rule="evenodd" opacity="0.649999976">
        <g id="calltoaction-sp" transform="translate(7.000000, -17.000000)" fill="#FFFFFF">
            <g id="Group-13" transform="translate(-24.000000, 0.000000)">
                <path d="M29.619204,66.2857293 C29.636704,66.2944793 29.654204,66.3119793 29.689204,66.3469793 C29.654204,66.3119793 29.619204,66.2944793 29.592954,66.2857293 L29.619204,66.2857293 Z M29.619204,66.2857293 C29.601704,66.2769793 29.584204,66.2769793 29.549204,66.2769793 C29.549204,66.2769793 29.566704,66.2769793 29.592954,66.2857293 L29.619204,66.2857293 Z M28.9366133,66.1581416 C29.0060577,66.178747 29.1670245,66.2069793 28.989204,66.2069793 L28.149204,66.2069793 C28.009204,66.3469793 27.869204,66.3469793 27.729204,66.4169793 L26.749204,66.6269793 L25.839204,67.0469793 C25.489204,67.1869793 25.139204,67.4669793 24.859204,67.6769793 C22.269204,69.4969793 20.309204,72.1569793 18.699204,74.9569793 C17.859204,76.2169793 17.229204,77.6869793 16.599204,79.0169793 L16.319204,79.5069793 C16.319204,79.5769793 16.249204,79.7869793 16.179204,79.8569793 C16.179204,79.9969793 16.179204,80.0669793 16.109204,80.2069793 C15.899204,80.6269793 15.689204,81.0469793 15.549204,81.4669793 C15.129204,82.6569793 14.709204,83.8469793 14.499204,85.0369793 C14.499204,85.3169793 14.429204,85.5969793 14.429204,85.8769793 C14.429204,86.0169793 14.359204,86.0869793 14.359204,86.2269793 L14.359204,86.4369793 C14.359204,86.5069793 14.429204,86.6469793 14.429204,86.7169793 C14.429204,87.0669793 15.129204,87.2769793 14.709204,87.7669793 C14.429204,88.1869793 13.659204,88.1169793 13.239204,87.9069793 C12.119204,87.4169793 11.979204,86.4369793 12.049204,85.3869793 C12.189204,84.1969793 12.469204,83.1469793 12.749204,82.1669793 L13.799204,79.2969793 C14.079204,78.5969793 14.289204,78.1769793 14.499204,77.7569793 L15.549204,75.5869793 C17.019204,72.6469793 18.909204,69.8469793 21.359204,67.6769793 C22.549204,66.5569793 23.949204,65.7169793 25.349204,65.0869793 C26.539204,64.6669793 27.939204,64.4569793 29.199204,64.5969793 C30.319204,64.8769793 31.439204,65.2269793 32.209204,66.2069793 C32.839204,66.9769793 33.189204,67.8869793 33.399204,68.8669793 C33.819204,70.9669793 33.609204,73.2069793 33.259204,75.2369793 C32.979204,76.9869793 32.489204,78.6669793 31.929204,80.3469793 C30.529204,84.8969793 29.129204,89.5169793 27.799204,94.0669793 C27.659204,94.9069793 27.379204,95.7469793 27.169204,96.5169793 C28.009204,95.1169793 28.919204,93.7169793 29.759204,92.3869793 C32.069204,88.9569793 34.519204,85.5969793 37.109204,82.3769793 L39.209204,79.9269793 C39.839204,79.1569793 40.539204,78.3869793 41.309204,77.6169793 C42.569204,76.3569793 43.689204,74.8869793 45.509204,74.1869793 C45.929204,73.9769793 46.559204,74.1169793 46.979204,74.3969793 C47.189204,74.6069793 47.469204,74.9569793 47.399204,75.2369793 C46.069204,78.8069793 44.879204,82.3069793 43.829204,85.8769793 C42.569204,89.6569793 41.099204,93.3669793 40.189204,97.2169793 C39.209204,100.716979 38.649204,104.286979 38.369204,107.996979 C39.349204,104.286979 40.749204,100.646979 42.429204,97.3569793 C43.899204,93.9969793 45.719204,90.7769793 47.749204,87.6269793 C49.849204,84.4769793 50.059204,83.6369793 54.259204,78.1069793 C56.639204,74.9569793 59.229204,71.7369793 61.959204,68.7969793 C64.829204,65.5769793 67.979204,62.4969793 71.129204,59.4169793 C73.439204,57.2469793 75.889204,54.1669793 78.619204,53.4669793 C79.249204,53.3269793 80.089204,53.4669793 80.509204,54.1669793 L80.789204,54.7969793 C81.139204,55.3569793 80.649204,55.7069793 80.229204,55.7069793 C79.879204,55.7769793 79.459204,55.7069793 79.039204,55.4969793 C78.899204,55.5669793 78.759204,55.7069793 78.479204,55.8469793 C77.849204,56.2669793 77.359204,56.7569793 76.799204,57.1769793 C74.069204,59.8369793 71.269204,62.3569793 68.609204,65.1569793 L63.989204,69.9169793 C62.729204,71.4569793 61.399204,72.7869793 60.139204,74.3969793 C55.519204,80.0669793 52.159204,84.8969793 47.049204,93.5769793 C45.229204,96.7269793 43.689204,100.016979 42.429204,103.516979 C41.099204,107.086979 39.699204,110.936979 39.909204,114.926979 C40.119204,115.206979 40.259204,115.556979 40.259204,115.906979 C40.469204,116.676979 39.279204,116.606979 38.859204,116.536979 C38.439204,116.396979 38.089204,116.186979 37.739204,116.046979 C35.289204,114.576979 35.639204,111.286979 35.779204,109.046979 C35.989204,104.846979 36.689204,100.716979 37.739204,96.7269793 C38.719204,92.8069793 40.119204,89.0269793 41.309204,85.1769793 C42.079204,83.0069793 42.849204,80.7669793 43.619204,78.5969793 C42.429204,79.8569793 41.379204,80.9769793 40.329204,82.2369793 C38.019204,84.9669793 35.849204,87.7669793 33.819204,90.6369793 C31.579204,93.7869793 29.479204,97.0069793 27.799204,100.296979 C26.259204,103.166979 24.859204,106.386979 24.509204,109.746979 C24.509204,110.026979 24.439204,110.306979 24.439204,110.516979 C24.439204,110.586979 24.439204,110.656979 24.369204,110.726979 C24.369204,111.286979 23.389204,111.216979 23.039204,111.076979 C22.759204,111.076979 21.989204,110.726979 22.059204,110.236979 L22.059204,109.956979 C22.129204,107.366979 22.479204,104.916979 22.969204,102.396979 C24.019204,98.1269793 25.279204,93.7169793 26.609204,89.4469793 C27.309204,86.9269793 28.079204,84.4769793 28.779204,82.0969793 C29.339204,80.3469793 29.899204,78.7369793 30.389204,77.0569793 C30.599204,76.0769793 30.809204,75.0969793 30.949204,74.1169793 L31.089204,72.5069793 C31.159204,72.2269793 31.229204,71.9469793 31.159204,71.6669793 C31.229204,71.5269793 31.229204,71.3869793 31.229204,71.2469793 L31.229204,71.0369793 C31.159204,70.0569793 31.159204,69.0769793 30.949204,68.0969793 L30.669204,67.7469793 L30.739204,67.7469793 C30.669204,67.6769793 30.669204,67.6769793 30.669204,67.6069793 L30.459204,67.1169793 L30.249204,66.8369793 L30.249204,66.7669793 L29.969204,66.5569793 C29.759204,66.3469793 30.249204,66.6969793 29.969204,66.4869793 L29.689204,66.3469793 C29.689204,66.2769793 29.689204,66.3469793 29.759204,66.3469793 L29.689204,66.2769793 L29.549204,66.2769793 C29.479204,66.2769793 29.479204,66.2069793 29.409204,66.2069793 L29.269204,66.2069793 C29.2080987,66.2069793 29.0936526,66.2069793 29.0189916,66.1604164 L28.9366133,66.1581416 Z M78.339204,87.9069793 C78.899204,87.4169793 80.509204,88.3269793 79.739204,88.9569793 C79.809204,88.8869793 79.669204,89.0269793 79.599204,89.0269793 C79.599204,89.0969793 79.529204,89.0969793 79.459204,89.1669793 C79.389204,89.2369793 79.249204,89.3069793 79.179204,89.4469793 C78.829204,89.6569793 78.549204,89.9369793 78.269204,90.1469793 C77.709204,90.6369793 77.079204,91.1269793 76.449204,91.5469793 C75.049204,92.5969793 73.649204,93.6469793 72.249204,94.6269793 L68.889204,96.7969793 C67.629204,97.6369793 66.229204,98.4769793 64.829204,99.0369793 C63.849204,99.4569793 62.519204,99.7369793 61.539204,99.1769793 C60.699204,98.6869793 60.489204,97.9169793 60.629204,97.0069793 C60.769204,96.1669793 61.189204,95.3269793 61.539204,94.5569793 L63.009204,91.6169793 C63.499204,90.7069793 63.989204,89.7969793 64.339204,88.8869793 C64.409204,88.8169793 64.409204,88.7469793 64.409204,88.7469793 C63.289204,89.4469793 62.449204,90.2869793 61.469204,91.2669793 C60.349204,92.3869793 59.299204,93.5069793 58.319204,94.6969793 C56.569204,96.7269793 54.959204,98.9669793 52.999204,100.786979 C52.649204,101.206979 52.019204,101.136979 51.599204,100.856979 C51.319204,100.716979 50.969204,100.436979 51.039204,100.016979 C51.739204,97.1469793 53.069204,94.4869793 54.399204,91.8269793 L58.389204,84.0569793 C60.419204,80.2069793 62.519204,76.4969793 65.109204,72.9969793 C65.529204,72.4369793 65.949204,71.9469793 66.369204,71.3169793 L67.489204,69.7769793 C68.329204,68.7269793 69.379204,67.6069793 70.849204,67.7469793 C71.269204,67.8169793 71.759204,68.0269793 71.899204,68.4469793 C71.969204,68.4469793 71.969204,68.5169793 71.969204,68.5169793 C72.039204,68.6569793 72.039204,68.8669793 71.969204,68.9369793 L71.479204,69.2869793 C71.339204,69.3569793 71.129204,69.3569793 70.989204,69.2869793 L70.919204,69.2869793 L70.709204,69.4269793 L70.359204,69.7069793 L69.939204,70.1269793 C69.379204,70.7569793 68.889204,71.4569793 68.399204,72.1569793 L66.719204,74.3969793 C65.949204,75.4469793 65.179204,76.5669793 64.479204,77.6869793 C62.169204,81.3269793 60.279204,85.1069793 58.319204,88.8869793 C57.269204,90.9869793 56.149204,93.0869793 55.099204,95.2569793 C56.359204,93.8569793 57.619204,92.3869793 58.879204,90.9869793 C59.859204,89.9369793 60.909204,88.9569793 62.029204,88.0469793 C62.939204,87.3469793 63.989204,86.7169793 65.109204,86.5069793 C65.599204,86.3669793 66.509204,86.5069793 66.719204,87.1369793 C66.929204,87.6969793 66.789204,88.3969793 66.579204,88.9569793 C66.369204,89.7269793 66.019204,90.4969793 65.669204,91.1969793 C64.689204,93.0869793 63.569204,94.9069793 62.939204,96.8669793 L62.729204,97.4269793 L62.729204,97.7069793 C62.729204,98.1269793 63.289204,97.7769793 63.639204,97.6369793 C63.709204,97.5669793 63.779204,97.5669793 63.779204,97.5669793 C63.849204,97.5669793 63.919204,97.4969793 64.059204,97.4969793 L64.479204,97.2169793 L65.529204,96.7269793 L67.489204,95.4669793 C68.609204,94.7669793 69.729204,94.0669793 70.849204,93.2969793 L74.979204,90.2869793 C76.099204,89.5169793 77.289204,88.7469793 78.339204,87.9069793 Z M99.059204,88.6069793 C99.409204,88.7469793 99.969204,89.3069793 99.619204,89.5869793 C97.309204,91.6169793 95.209204,93.5069793 92.619204,95.1869793 C91.429204,95.9569793 90.869204,96.3769793 89.959204,96.8669793 C87.159204,98.4069793 86.179204,98.8269793 85.129204,99.0369793 C83.449204,99.2469793 81.279204,99.0369793 80.369204,97.4969793 C79.809204,96.6569793 79.949204,95.5369793 80.229204,94.5569793 C79.599204,95.3269793 78.899204,95.9569793 78.129204,96.6569793 C77.429204,97.2869793 76.799204,98.1269793 76.099204,98.6169793 C75.539204,99.1069793 74.909204,99.4569793 74.139204,99.7369793 C73.299204,100.086979 72.319204,100.086979 71.409204,99.4569793 C70.779204,98.9669793 70.499204,98.1269793 70.499204,97.3569793 C70.569204,95.6069793 71.619204,94.2069793 72.599204,92.8769793 C73.719204,91.4769793 74.979204,90.2169793 76.449204,89.1669793 C77.499204,88.3969793 78.689204,87.8369793 80.159204,87.3469793 C80.649204,87.2069793 81.349204,87.0669793 81.909204,87.1369793 C82.539204,87.3469793 83.449204,87.8369793 83.099204,88.6069793 C82.889204,89.0969793 82.329204,89.0969793 81.909204,88.8869793 C81.769204,88.8869793 81.699204,88.8169793 81.559204,88.7469793 L81.489204,88.7469793 C81.419204,88.8169793 81.279204,88.7469793 81.209204,88.8169793 C81.139204,88.8169793 80.789204,88.9569793 80.929204,88.8869793 C79.809204,89.3769793 78.759204,90.0069793 77.779204,90.7069793 C76.939204,91.4069793 75.889204,92.3169793 75.049204,93.3669793 C74.209204,94.3469793 73.299204,95.3969793 72.879204,96.7269793 C72.669204,97.2869793 72.529204,97.9169793 72.739204,98.4769793 C72.809204,98.4769793 72.879204,98.4769793 72.949204,98.4069793 C73.719204,97.9869793 74.279204,97.6369793 74.839204,97.0769793 C75.609204,96.4469793 76.309204,95.7469793 76.939204,95.0469793 L80.999204,90.7069793 L83.169204,88.7469793 L83.239204,88.6769793 C83.729204,88.0469793 84.359204,87.4869793 84.779204,86.8569793 C85.269204,86.2969793 86.879204,86.7869793 86.879204,87.5569793 L86.879204,87.6269793 C86.879204,87.7669793 86.669204,88.0469793 86.529204,88.1869793 C86.459204,88.3269793 86.319204,88.3969793 86.249204,88.5369793 C85.689204,89.2369793 85.409204,89.3069793 84.079204,91.3369793 C83.869204,91.6869793 83.589204,92.0369793 83.449204,92.3869793 C83.029204,93.2269793 82.609204,94.1369793 82.399204,94.9069793 L82.189204,95.6069793 C81.699204,96.8669793 82.749204,97.9869793 84.429204,97.4969793 C85.829204,97.0769793 87.019204,96.3769793 88.489204,95.6069793 C91.919204,93.7869793 94.719204,91.1969793 97.659204,88.6069793 C98.149204,88.3269793 98.709204,88.3969793 99.059204,88.6069793 Z M64.794204,79.5069793 L64.759204,79.5069793 L64.794204,79.5069793 Z M64.794204,79.5069793 L65.039204,79.5069793 C67.279204,79.4369793 69.519204,79.4369793 71.829204,79.4369793 C72.949204,79.4369793 74.139204,79.4369793 88.629204,79.2969793 L100.599204,79.2969793 C101.509204,79.2969793 102.419204,79.2969793 103.329204,79.2269793 C103.539204,78.8069793 103.819204,78.3869793 104.099204,77.8969793 C104.239204,77.5469793 104.449204,77.1969793 104.659204,76.8469793 L105.079204,76.0769793 C105.499204,75.3069793 105.989204,74.5369793 106.479204,73.7669793 L108.159204,71.2469793 L109.139204,69.9869793 L109.629204,69.4269793 C109.839204,69.1469793 110.049204,69.0769793 110.469204,69.0069793 C110.889204,69.0069793 111.309204,69.1469793 111.519204,69.4269793 C111.729204,69.6369793 111.729204,69.9169793 111.589204,70.1969793 C110.329204,71.7369793 109.349204,73.4869793 108.299204,75.0969793 C108.089204,75.5169793 107.739204,75.9369793 107.529204,76.2869793 L107.109204,77.1269793 C106.759204,77.8269793 106.409204,78.4569793 105.989204,79.0869793 C105.989204,79.1569793 105.919204,79.2269793 105.919204,79.2269793 C107.389204,79.2269793 108.929204,79.2969793 110.469204,79.2969793 C112.289204,79.2969793 114.179204,79.2269793 115.999204,79.4369793 C116.419204,79.5069793 116.979204,79.7869793 117.189204,80.2069793 C117.329204,80.5569793 117.119204,80.9769793 116.699204,81.0469793 C115.509204,81.2569793 114.389204,81.6769793 113.129204,81.8869793 C112.569204,81.9569793 111.939204,81.8169793 111.589204,81.3969793 C111.449204,81.2569793 111.379204,81.1169793 111.379204,80.9069793 L104.939204,80.9069793 C103.679204,83.2169793 102.279204,85.5969793 101.019204,87.9069793 C99.549204,90.7769793 98.009204,93.6469793 96.959204,96.7269793 C96.749204,97.3569793 96.539204,97.9869793 96.469204,98.7569793 L96.469204,98.8269793 C96.469204,100.086979 97.659204,99.5969793 98.429204,99.3869793 C99.409204,99.1069793 100.389204,98.7569793 101.509204,98.1969793 C107.179204,95.4669793 112.709204,91.8269793 117.609204,87.9769793 C118.029204,87.6269793 118.869204,87.9069793 119.219204,88.1869793 C119.499204,88.3969793 119.849204,88.8869793 119.499204,89.1669793 C118.029204,90.4969793 116.069204,91.6869793 114.459204,92.8769793 C112.779204,94.0669793 111.099204,95.1169793 109.279204,96.2369793 C106.759204,97.7769793 104.239204,99.2469793 101.509204,100.366979 C99.689204,101.066979 97.309204,101.836979 95.489204,100.856979 C94.719204,100.436979 94.159204,99.7369793 94.089204,98.8269793 C94.019204,97.7769793 94.439204,96.6569793 94.789204,95.6769793 C95.839204,92.5969793 97.379204,89.7269793 98.989204,86.8569793 C100.039204,84.8269793 101.159204,82.8669793 102.349204,80.9069793 L101.019204,80.9069793 C96.959204,80.9069793 92.969204,80.9069793 88.979204,80.9769793 C85.129204,80.9769793 81.279204,81.0469793 77.429204,81.0469793 C74.559204,81.0469793 71.689204,81.1169793 68.749204,81.1169793 L66.299204,81.1169793 C65.459204,81.1869793 64.269204,81.2569793 63.989204,80.2069793 C63.919204,79.9969793 64.129204,79.7869793 64.269204,79.6469793 C64.409204,79.5069793 64.689204,79.5069793 64.899204,79.5069793 L64.794204,79.5069793 Z M122.159204,74.3969793 C122.439204,73.6269793 123.979204,74.0469793 124.049204,74.8169793 C124.049204,75.5169793 123.489204,76.2869793 123.069204,76.8469793 C122.719204,77.3369793 122.299204,78.1069793 121.739204,78.2469793 C121.249204,78.3169793 120.619204,78.1769793 120.339204,77.8269793 C120.129204,77.5469793 120.129204,77.1969793 120.409204,76.9869793 C120.479204,76.9169793 120.549204,76.7769793 120.689204,76.7069793 L121.319204,75.8669793 C121.669204,75.3069793 121.949204,74.9569793 122.159204,74.3969793 Z M146.029204,88.6069793 C146.309204,88.8169793 146.379204,89.0969793 146.169204,89.4469793 C145.749204,90.0069793 145.259204,90.3569793 144.629204,90.9169793 C144.139204,91.3369793 143.649204,91.8269793 143.089204,92.2469793 C141.969204,93.0869793 141.479204,93.5769793 140.289204,94.4169793 C138.609204,95.6069793 136.859204,96.7269793 134.969204,97.7769793 C132.449204,99.1069793 130.839204,99.8769793 128.039204,100.296979 C127.479204,100.366979 126.849204,100.436979 126.289204,100.436979 L126.079204,101.066979 C126.009204,101.346979 125.799204,101.626979 125.589204,101.836979 C125.519204,101.976979 125.309204,102.046979 125.099204,102.046979 C124.609204,102.256979 124.049204,102.046979 123.629204,101.836979 C123.139204,101.556979 122.719204,101.136979 122.369204,100.716979 L120.829204,99.3169793 C120.409204,98.7569793 119.919204,98.2669793 119.429204,97.7069793 C119.219204,97.4969793 118.939204,97.2169793 118.799204,97.0069793 C118.659204,96.8669793 118.519204,96.5869793 118.449204,96.3769793 C118.379204,96.3069793 118.379204,96.2369793 118.379204,96.1669793 C118.239204,95.8869793 118.589204,95.6769793 118.799204,95.6069793 C119.359204,95.4669793 120.269204,95.6069793 120.479204,96.1669793 C120.619204,96.3069793 120.689204,96.4469793 120.829204,96.5869793 C120.969204,96.7269793 121.109204,96.8669793 121.249204,97.0769793 C121.319204,97.0769793 121.459204,97.2869793 121.459204,97.2869793 L121.739204,97.4969793 L122.509204,98.0569793 L122.789204,98.1969793 C122.999204,98.3369793 123.209204,98.4069793 123.419204,98.4769793 C123.489204,98.4769793 123.629204,98.5469793 123.629204,98.5469793 L123.909204,98.6869793 L124.329204,98.7569793 C125.029204,96.0969793 125.589204,93.5769793 126.709204,91.0569793 C127.829204,88.6069793 129.579204,86.2969793 132.239204,85.3869793 C132.869204,85.2469793 133.709204,85.5269793 133.989204,86.0869793 C134.199204,86.5069793 133.919204,86.7869793 133.499204,86.9269793 L133.569204,86.9269793 L133.289204,87.0669793 C133.219204,87.0669793 133.009204,87.2069793 133.219204,87.0669793 L132.729204,87.2769793 L131.889204,87.8369793 C131.819204,87.9069793 131.609204,88.0469793 131.259204,88.3969793 L130.629204,89.0969793 L129.579204,90.6369793 L129.159204,91.4769793 L128.739204,92.3869793 L128.039204,94.3469793 C127.549204,95.6069793 127.199204,97.0069793 126.849204,98.3369793 C126.779204,98.4769793 126.779204,98.6169793 126.709204,98.8269793 C127.969204,98.8269793 129.299204,98.3369793 130.629204,97.9169793 C131.889204,97.4969793 132.169204,97.3569793 132.449204,97.2169793 C133.919204,96.4469793 134.339204,96.1669793 135.599204,95.3969793 C137.069204,94.4869793 138.259204,93.5769793 139.659204,92.5269793 L141.969204,90.7069793 C142.809204,90.0769793 143.719204,89.0969793 144.629204,88.4669793 C145.049204,88.1869793 145.609204,88.3269793 146.029204,88.6069793 Z M180.119204,87.4869793 C180.749204,87.0669793 182.429204,87.9069793 181.589204,88.6069793 C180.329204,89.6569793 178.789204,90.3569793 177.249204,90.9869793 C175.709204,91.6169793 174.099204,92.1769793 172.419204,92.5269793 C171.789204,92.5969793 170.879204,92.8069793 170.039204,92.8769793 C169.689204,93.3669793 169.339204,93.8569793 168.919204,94.3469793 C168.219204,95.2569793 167.519204,96.0969793 166.749204,96.9369793 C165.839204,97.9169793 164.789204,98.8969793 163.529204,99.3869793 C162.339204,99.8769793 160.939204,100.156979 159.749204,99.4569793 C159.189204,99.1069793 158.769204,98.6169793 158.629204,97.9169793 C158.489204,97.3569793 158.559204,96.7269793 158.699204,96.1669793 C159.119204,94.3469793 160.099204,92.6669793 161.149204,91.1969793 C162.339204,89.6569793 163.739204,88.2569793 165.419204,87.2769793 C165.839204,87.0669793 166.469204,87.2069793 166.819204,87.4869793 C167.379204,87.9069793 167.099204,88.6769793 166.469204,88.6769793 C165.279204,89.6569793 164.229204,90.7769793 163.249204,92.0369793 C162.269204,93.2969793 161.359204,94.7669793 160.939204,96.3769793 C160.869204,96.6569793 160.729204,97.0069793 160.729204,97.3569793 L160.729204,97.9169793 C160.729204,98.2669793 161.079204,98.2669793 161.289204,98.2669793 C161.429204,98.2669793 161.499204,98.1969793 161.639204,98.1969793 C161.709204,98.1969793 162.059204,97.9869793 161.849204,98.1269793 L162.199204,97.9169793 C163.319204,97.3569793 164.089204,96.5869793 164.999204,95.6769793 C165.769204,94.7669793 166.609204,93.8569793 167.309204,92.8769793 C167.519204,92.5969793 167.729204,92.3869793 167.869204,92.1769793 L167.659204,91.9669793 C167.239204,91.4769793 167.099204,90.8469793 167.099204,90.2169793 C167.099204,89.7969793 167.099204,89.2369793 167.309204,88.8169793 C167.519204,88.1869793 168.009204,87.5569793 168.569204,87.2069793 C169.479204,86.7169793 170.599204,86.9969793 171.159204,87.8369793 C171.859204,88.8169793 171.579204,89.9369793 171.159204,90.9869793 L171.159204,91.0569793 L171.299204,91.0569793 C172.979204,90.7069793 174.589204,90.1469793 176.199204,89.5169793 L178.299204,88.5369793 C178.929204,88.1869793 179.559204,87.9069793 180.119204,87.4869793 Z M169.339204,88.2569793 L169.269204,88.2569793 L169.339204,88.2569793 Z M201.119204,87.9769793 C201.469204,88.0469793 201.959204,88.6069793 201.609204,88.9569793 C200.069204,90.3569793 198.389204,91.5469793 196.639204,92.8069793 C194.539204,94.2769793 192.369204,95.6769793 190.059204,97.0769793 C189.079204,97.6369793 188.169204,98.1969793 187.189204,98.6169793 C186.419204,99.0369793 185.509204,99.3869793 184.669204,99.5269793 C183.549204,99.7369793 182.709204,99.3169793 182.149204,98.4069793 C181.519204,97.2869793 181.869204,96.0269793 182.359204,94.9069793 C182.849204,93.6469793 183.619204,92.4569793 184.389204,91.1969793 C184.669204,90.6369793 185.019204,90.0769793 185.229204,89.3769793 C183.409204,90.4269793 181.799204,92.0369793 180.399204,93.5069793 C178.579204,95.5369793 176.969204,97.8469793 175.079204,99.9469793 C175.009204,99.9469793 174.939204,100.016979 174.869204,100.086979 C174.589204,100.506979 173.959204,100.366979 173.539204,100.156979 C173.259204,100.086979 172.839204,99.7369793 172.979204,99.3869793 C174.239204,96.4469793 175.849204,93.8569793 177.599204,91.3369793 C178.229204,90.4269793 178.579204,89.4469793 179.279204,88.3969793 C179.699204,87.5569793 180.329204,86.2969793 181.449204,86.2969793 C181.869204,86.2969793 182.499204,86.5069793 182.709204,86.9269793 C182.919204,87.4169793 182.569204,87.6969793 182.149204,87.6969793 C182.079204,87.6969793 182.079204,87.7669793 181.939204,87.8369793 L181.519204,88.3969793 L180.889204,89.7269793 L180.329204,90.9869793 C181.869204,89.3769793 183.759204,87.9069793 185.929204,87.2769793 C186.419204,87.0669793 187.399204,87.4169793 187.539204,88.0469793 C187.609204,89.3069793 187.049204,90.4969793 186.489204,91.6169793 C185.859204,92.8069793 185.089204,93.9269793 184.599204,95.1869793 C184.319204,95.8169793 184.109204,96.3069793 184.039204,97.0069793 C183.969204,97.2869793 183.969204,97.7069793 184.109204,98.0569793 C184.459204,97.9869793 184.739204,97.8469793 185.089204,97.7069793 L186.419204,97.0069793 L189.499204,95.1869793 C191.669204,93.7869793 193.769204,92.4569793 195.869204,90.9169793 L198.459204,89.0269793 C198.739204,88.7469793 199.019204,88.5369793 199.369204,88.3269793 L199.719204,88.1169793 C199.859204,88.0469793 199.999204,87.8369793 199.859204,88.0469793 C200.209204,87.6969793 200.699204,87.7669793 201.119204,87.9769793 Z M276.929204,102.956979 C278.819204,103.516979 281.899204,104.776979 281.129204,107.296979 C280.849204,108.346979 278.399204,107.646979 278.749204,106.596979 C278.819204,106.316979 278.819204,106.106979 278.749204,105.826979 C278.749204,105.756979 278.679204,105.686979 278.679204,105.616979 L278.399204,105.336979 C278.399204,105.266979 278.329204,105.266979 278.329204,105.266979 L278.259204,105.266979 C277.839204,104.986979 277.489204,104.846979 276.999204,104.636979 C276.789204,104.566979 276.579204,104.496979 276.299204,104.426979 C276.229204,104.356979 275.599204,104.286979 275.599204,104.216979 L275.529204,104.216979 C273.289204,103.796979 271.049204,103.516979 268.809204,103.376979 C264.399204,103.026979 259.919204,103.026979 255.369204,103.376979 C253.409204,103.516979 251.379204,103.656979 249.419204,103.866979 C247.389204,104.076979 245.359204,104.356979 243.259204,104.636979 C235.069204,105.826979 226.739204,107.646979 218.549204,109.676979 C218.479204,109.746979 218.409204,109.746979 218.339204,109.746979 C217.639204,111.076979 216.939204,112.336979 216.169204,113.666979 C214.909204,115.906979 213.579204,118.216979 212.039204,120.316979 C210.639204,122.136979 209.169204,123.886979 206.999204,124.726979 C205.459204,125.356979 203.569204,125.356979 202.169204,124.306979 C200.979204,123.466979 200.489204,121.996979 200.769204,120.526979 C200.979204,118.986979 201.819204,117.446979 202.659204,116.186979 C203.569204,114.926979 204.619204,113.876979 205.809204,112.896979 C208.259204,111.006979 211.199204,109.816979 214.139204,108.906979 C214.909204,108.696979 215.679204,108.486979 216.519204,108.276979 L217.359204,106.596979 C217.359204,106.596979 217.359204,106.526979 217.429204,106.526979 C218.269204,104.566979 219.249204,102.676979 220.299204,100.786979 C220.719204,99.8069793 221.209204,98.8969793 221.629204,97.9169793 C220.859204,98.4769793 220.089204,99.0369793 219.249204,99.5269793 C218.409204,99.9469793 217.359204,100.366979 216.379204,100.226979 C215.189204,99.9469793 214.419204,99.1769793 214.209204,97.9869793 C214.069204,97.0069793 214.139204,96.2369793 214.489204,95.3269793 C214.979204,94.2769793 215.469204,93.2969793 216.029204,92.2469793 C216.589204,91.1969793 217.219204,90.1469793 217.849204,89.0269793 C217.919204,88.8169793 218.059204,88.6069793 218.199204,88.3969793 C218.199204,88.3969793 218.199204,88.3269793 218.269204,88.2569793 C218.269204,88.1869793 218.339204,88.1169793 218.409204,88.0469793 C218.479204,87.8369793 218.619204,87.6269793 218.689204,87.4169793 C218.969204,86.4369793 221.279204,87.1369793 220.999204,88.1169793 C220.859204,88.4669793 220.649204,88.8169793 220.509204,89.0969793 C220.159204,89.7269793 219.739204,90.4269793 219.389204,91.0569793 C218.619204,92.3869793 217.919204,93.7169793 217.149204,95.2569793 C217.009204,95.6769793 216.799204,96.0969793 216.659204,96.5869793 C216.589204,96.7269793 216.519204,96.9369793 216.519204,97.0769793 L216.519204,97.2869793 C216.519204,97.6369793 216.519204,97.9869793 216.589204,98.3369793 C216.589204,98.3369793 217.779204,98.4769793 219.109204,97.0769793 C219.529204,96.7269793 219.949204,96.3069793 220.439204,95.8169793 C221.419204,94.8369793 222.329204,93.7869793 223.239204,92.8069793 C224.009204,91.8969793 224.709204,91.0569793 225.479204,90.2169793 C226.179204,89.4469793 226.949204,88.6769793 227.649204,87.9769793 C228.069204,87.3469793 228.489204,86.7169793 229.259204,86.5769793 C229.679204,86.5069793 230.169204,86.5769793 230.519204,86.8569793 C230.799204,87.0669793 231.079204,87.4869793 230.799204,87.7669793 C230.379204,88.1869793 229.959204,88.5369793 229.539204,88.9569793 C229.469204,89.1669793 229.399204,89.3069793 229.259204,89.4469793 C228.839204,90.2869793 228.279204,91.0569793 227.789204,91.8969793 C226.809204,93.5069793 225.829204,95.1869793 224.849204,96.7969793 C224.709204,97.0069793 224.639204,97.1469793 224.499204,97.3569793 C223.169204,100.086979 221.839204,102.886979 220.439204,105.616979 C220.159204,106.246979 219.809204,106.876979 219.459204,107.506979 C223.799204,106.456979 228.069204,105.476979 232.409204,104.636979 C236.469204,103.866979 240.529204,103.166979 244.659204,102.606979 C248.789204,102.116979 252.919204,101.766979 257.049204,101.556979 C261.599204,101.276979 266.219204,101.346979 270.839204,101.906979 C272.869204,102.116979 274.969204,102.326979 276.929204,102.956979 Z M213.369204,114.016979 C213.999204,112.826979 214.699204,111.636979 215.329204,110.446979 C215.259204,110.446979 215.259204,110.446979 215.189204,110.516979 C213.649204,110.936979 212.319204,111.426979 210.989204,112.126979 C208.259204,113.456979 205.949204,115.206979 204.339204,117.796979 C203.709204,118.916979 202.869204,120.526979 202.939204,121.856979 C202.939204,121.996979 203.009204,122.206979 203.009204,122.346979 C203.009204,122.416979 203.009204,122.486979 203.079204,122.486979 L203.079204,122.626979 C203.149204,122.696979 203.289204,123.186979 203.429204,123.186979 C203.429204,123.256979 203.569204,123.326979 203.569204,123.326979 C203.569204,123.396979 203.569204,123.396979 203.639204,123.396979 L203.709204,123.466979 L203.779204,123.466979 C203.779204,123.536979 203.849204,123.536979 203.849204,123.536979 L203.919204,123.536979 C203.989204,123.536979 203.989204,123.536979 203.989204,123.606979 L204.689204,123.606979 C204.689204,123.536979 204.829204,123.536979 204.829204,123.536979 C205.039204,123.536979 205.179204,123.466979 205.389204,123.396979 C205.599204,123.326979 205.669204,123.326979 205.809204,123.186979 C206.299204,122.976979 206.719204,122.696979 207.139204,122.416979 C207.209204,122.346979 207.349204,122.276979 207.419204,122.206979 C208.049204,121.646979 208.679204,120.946979 209.239204,120.246979 C210.779204,118.286979 212.109204,116.186979 213.369204,114.016979 Z M250.959204,87.4869793 C251.589204,87.0669793 253.269204,87.9069793 252.429204,88.6069793 C251.169204,89.6569793 249.629204,90.3569793 248.089204,90.9869793 C246.549204,91.6169793 244.939204,92.1769793 243.259204,92.5269793 C242.629204,92.5969793 241.719204,92.8069793 240.879204,92.8769793 C240.529204,93.3669793 240.179204,93.8569793 239.759204,94.3469793 C239.059204,95.2569793 238.359204,96.0969793 237.589204,96.9369793 C236.679204,97.9169793 235.629204,98.8969793 234.369204,99.3869793 C233.179204,99.8769793 231.779204,100.156979 230.589204,99.4569793 C230.029204,99.1069793 229.609204,98.6169793 229.469204,97.9169793 C229.329204,97.3569793 229.399204,96.7269793 229.539204,96.1669793 C229.959204,94.3469793 230.939204,92.6669793 231.989204,91.1969793 C233.179204,89.6569793 234.579204,88.2569793 236.259204,87.2769793 C236.679204,87.0669793 237.309204,87.2069793 237.659204,87.4869793 C238.219204,87.9069793 237.939204,88.6769793 237.309204,88.6769793 C236.119204,89.6569793 235.069204,90.7769793 234.089204,92.0369793 C233.109204,93.2969793 232.199204,94.7669793 231.779204,96.3769793 C231.709204,96.6569793 231.569204,97.0069793 231.569204,97.3569793 L231.569204,97.9169793 C231.569204,98.2669793 231.919204,98.2669793 232.129204,98.2669793 C232.269204,98.2669793 232.339204,98.1969793 232.479204,98.1969793 C232.549204,98.1969793 232.899204,97.9869793 232.689204,98.1269793 L233.039204,97.9169793 C234.159204,97.3569793 234.929204,96.5869793 235.839204,95.6769793 C236.609204,94.7669793 237.449204,93.8569793 238.149204,92.8769793 C238.359204,92.5969793 238.569204,92.3869793 238.709204,92.1769793 L238.499204,91.9669793 C238.079204,91.4769793 237.939204,90.8469793 237.939204,90.2169793 C237.939204,89.7969793 237.939204,89.2369793 238.149204,88.8169793 C238.359204,88.1869793 238.849204,87.5569793 239.409204,87.2069793 C240.319204,86.7169793 241.439204,86.9969793 241.999204,87.8369793 C242.699204,88.8169793 242.419204,89.9369793 241.999204,90.9869793 L241.999204,91.0569793 L242.139204,91.0569793 C243.819204,90.7069793 245.429204,90.1469793 247.039204,89.5169793 L249.139204,88.5369793 C249.769204,88.1869793 250.399204,87.9069793 250.959204,87.4869793 Z M240.179204,88.2569793 L240.109204,88.2569793 L240.179204,88.2569793 Z M247.319204,98.5469793 L247.249204,98.5469793 L247.319204,98.5469793 Z M275.039204,88.0469793 C275.319204,88.1869793 275.949204,88.7469793 275.529204,89.0969793 L274.969204,89.6569793 C272.519204,91.9669793 269.929204,94.0669793 267.129204,95.9569793 C265.799204,96.8669793 264.469204,97.7069793 263.069204,98.3369793 C261.669204,98.9669793 260.059204,99.6669793 258.449204,99.4569793 C257.049204,99.3869793 255.859204,98.4769793 255.579204,97.0769793 C255.439204,96.1669793 255.649204,95.2569793 255.929204,94.3469793 C255.509204,94.7669793 255.089204,95.1169793 254.599204,95.5369793 C253.689204,96.3769793 252.779204,97.2169793 251.799204,97.9869793 C251.029204,98.5469793 250.189204,99.1769793 249.349204,99.5969793 C248.579204,100.016979 247.739204,100.366979 246.829204,100.226979 C245.849204,100.086979 244.869204,99.4569793 244.659204,98.4769793 C244.449204,97.5669793 244.869204,96.5169793 245.219204,95.7469793 C245.779204,94.5569793 246.409204,93.4369793 247.179204,92.3169793 C247.879204,91.2669793 248.579204,90.2169793 249.349204,89.1669793 C249.699204,88.7469793 249.979204,88.3269793 250.259204,87.9069793 L250.679204,87.4169793 C250.679204,87.3469793 250.749204,87.2769793 250.819204,87.2069793 C251.099204,86.7169793 251.799204,86.7869793 252.079204,86.8569793 C252.499204,86.9269793 252.919204,87.0669793 253.059204,87.4169793 C253.199204,87.6969793 253.059204,87.9069793 252.849204,88.0469793 C252.849204,88.1169793 252.849204,88.1169793 252.779204,88.1169793 L252.639204,88.2569793 L252.429204,88.6069793 L251.799204,89.4469793 C251.309204,90.2169793 250.749204,90.9169793 250.259204,91.6169793 L248.579204,94.0669793 C248.509204,94.1369793 248.159204,94.9069793 247.949204,95.2569793 L247.319204,96.3769793 C247.109204,96.8669793 246.969204,97.2869793 246.829204,97.7769793 C246.829204,97.9169793 246.759204,98.1269793 246.759204,98.2669793 C246.759204,98.4069793 246.759204,98.4769793 246.829204,98.5469793 C246.829204,98.6169793 246.899204,98.6869793 247.179204,98.6169793 C247.249204,98.5469793 247.529204,98.4769793 247.319204,98.5469793 C247.389204,98.5469793 247.459204,98.4769793 247.459204,98.4769793 L248.649204,97.7769793 L249.909204,96.9369793 L250.539204,96.3769793 C250.399204,96.4469793 250.609204,96.3069793 250.609204,96.3069793 C250.679204,96.2369793 250.749204,96.2369793 250.749204,96.1669793 L251.099204,95.8869793 C252.989204,94.2769793 254.739204,92.5269793 256.489204,90.8469793 C257.189204,90.1469793 257.889204,89.3769793 258.659204,88.7469793 C259.149204,88.2569793 259.709204,87.7669793 260.269204,87.4169793 C260.969204,86.9969793 262.649204,87.6269793 262.089204,88.5369793 C262.089204,88.6069793 262.229204,88.3269793 262.089204,88.6069793 C262.089204,88.6769793 262.019204,88.8169793 261.949204,88.8869793 C261.949204,88.8869793 261.529204,89.3069793 261.739204,89.0269793 L261.319204,89.4469793 C260.969204,89.7969793 260.689204,90.2169793 260.409204,90.6369793 C259.639204,91.6169793 259.079204,92.5969793 258.589204,93.6469793 C258.379204,94.2069793 258.099204,94.8369793 257.959204,95.3969793 L257.749204,96.4469793 L257.749204,96.7969793 C257.749204,97.7069793 258.239204,98.1269793 259.149204,97.8469793 L259.639204,97.7069793 C260.479204,97.4969793 261.039204,97.2169793 261.739204,96.8669793 C263.139204,96.1669793 264.469204,95.3969793 265.729204,94.4869793 C268.529204,92.5269793 271.049204,90.4969793 273.499204,88.1169793 C273.919204,87.6969793 274.549204,87.7669793 275.039204,88.0469793 Z M274.269204,87.7669793 C274.619204,87.6269793 275.179204,87.7669793 275.599204,87.9069793 C275.599204,87.9069793 275.669204,87.9769793 275.809204,88.0469793 C276.369204,88.1869793 274.899204,90.7769793 274.269204,91.7569793 C276.089204,90.4969793 278.119204,89.0969793 280.359204,87.9069793 L280.779204,87.6969793 L281.409204,87.4169793 C282.389204,86.9969793 283.439204,86.6469793 284.419204,86.5069793 C284.419204,86.5069793 284.489204,86.5069793 284.979204,86.4369793 C285.399204,86.4369793 285.889204,86.4369793 286.029204,86.5069793 C286.659204,86.6469793 287.499204,87.0669793 287.289204,87.9769793 C287.009204,88.5369793 285.959204,88.3269793 285.399204,88.1169793 C285.259204,88.1169793 284.979204,88.1169793 284.279204,88.3269793 C284.209204,88.3269793 284.209204,88.3269793 284.069204,88.3969793 L283.439204,88.6069793 C282.669204,88.9569793 281.969204,89.3069793 281.339204,89.6569793 L280.639204,90.0069793 L279.309204,90.7769793 L278.539204,91.2669793 L276.859204,92.2469793 L275.599204,93.2269793 L273.849204,94.9069793 L272.239204,96.3769793 L270.629204,98.1969793 C270.279204,98.8269793 270.139204,99.0369793 269.649204,99.7369793 C269.579204,99.8769793 269.509204,100.016979 269.439204,100.086979 C269.299204,100.366979 268.459204,100.156979 268.179204,100.086979 C267.829204,99.9469793 267.409204,99.3169793 267.549204,99.0369793 L268.389204,97.7769793 C269.719204,95.7469793 269.859204,95.6069793 270.489204,94.4169793 L270.909204,93.5769793 L272.379204,90.9169793 C272.869204,89.7269793 273.569204,88.3269793 274.269204,87.7669793 Z M333.139204,88.1169793 C334.049204,87.3469793 335.239204,88.5369793 334.679204,89.2369793 C334.609204,89.3069793 334.469204,89.3769793 334.189204,89.6569793 L333.629204,90.0769793 C333.069204,90.4969793 332.509204,90.8469793 332.019204,91.2669793 L327.679204,94.2069793 C325.509204,95.5369793 323.339204,96.9369793 320.959204,97.9869793 C320.119204,98.4069793 318.999204,98.8269793 318.019204,98.9669793 C317.039204,99.1769793 315.989204,99.1769793 315.289204,98.2669793 C314.729204,97.6369793 314.869204,96.6569793 315.149204,95.8869793 C315.429204,94.8369793 315.989204,93.8569793 316.479204,92.8069793 C317.039204,91.7569793 317.599204,90.7069793 318.089204,89.5869793 C318.299204,88.9569793 318.299204,89.0269793 318.229204,89.0969793 C318.019204,89.2369793 318.299204,88.9569793 318.089204,89.1669793 L317.949204,89.3069793 C317.809204,89.3769793 317.739204,89.5169793 317.669204,89.5869793 L317.039204,90.1469793 L315.779204,91.6169793 C314.099204,93.5769793 312.559204,95.6769793 310.529204,97.2869793 C309.969204,97.7069793 308.709204,97.2169793 308.639204,96.5169793 C308.499204,95.0469793 309.199204,93.6469793 309.899204,92.3169793 C310.179204,91.7569793 310.529204,91.1269793 310.739204,90.5669793 C309.479204,91.5469793 308.289204,92.7369793 307.169204,93.9269793 C305.419204,95.8169793 303.809204,97.8469793 302.479204,100.086979 C302.059204,100.716979 300.169204,100.086979 300.449204,99.2469793 C302.339204,94.6269793 305.139204,90.3569793 307.869204,86.1569793 C308.009204,85.8769793 308.569204,85.9469793 308.779204,86.0169793 C309.339204,86.1569793 309.689204,86.6469793 309.689204,87.2769793 C309.689204,87.5569793 309.479204,87.6969793 309.269204,87.6969793 C308.779204,88.0469793 307.309204,90.6369793 307.029204,91.1269793 C307.449204,90.7069793 307.939204,90.2869793 308.429204,89.9369793 C309.339204,89.1669793 310.319204,88.4669793 311.369204,87.9069793 C311.929204,87.6269793 313.119204,87.9069793 313.189204,88.6769793 C313.399204,90.1469793 312.699204,91.4769793 312.069204,92.7369793 C312.699204,91.8969793 313.469204,91.0569793 314.169204,90.2869793 C315.569204,88.6769793 317.459204,86.4369793 319.839204,86.7169793 C320.259204,86.7869793 320.959204,87.0669793 321.029204,87.5569793 C321.029204,88.6769793 320.399204,89.7969793 319.979204,90.7769793 C319.279204,92.1069793 318.579204,93.4369793 317.949204,94.7669793 C317.739204,95.2569793 317.459204,95.7469793 317.319204,96.2369793 L317.109204,96.9369793 C317.109204,97.0069793 317.039204,97.1469793 317.039204,97.2169793 C317.039204,97.2869793 316.969204,97.5669793 317.039204,97.3569793 L317.039204,97.5669793 C317.669204,97.5669793 318.299204,97.2869793 318.929204,97.0069793 C319.979204,96.5169793 320.889204,96.0269793 321.939204,95.4669793 C324.249204,94.1369793 326.489204,92.7369793 328.659204,91.1969793 L331.389204,89.3069793 L333.139204,88.1169793 Z M336.359204,87.8369793 L335.939204,88.2569793 L335.659204,88.4669793 L334.889204,89.1669793 C333.699204,90.3569793 332.579204,91.6169793 331.669204,93.0169793 C331.109204,93.7869793 330.689204,94.5569793 330.409204,95.1869793 C329.989204,95.9569793 329.569204,96.7969793 329.359204,97.6369793 C329.289204,97.9169793 329.219204,98.1969793 329.219204,98.4069793 C329.289204,98.6169793 329.499204,98.6169793 329.709204,98.5469793 L330.549204,98.3369793 C331.669204,98.0569793 332.789204,97.4969793 333.909204,97.0769793 L335.309204,96.3769793 C335.939204,96.0969793 336.989204,95.5369793 337.899204,94.9769793 C338.109204,94.8369793 338.459204,94.6969793 338.599204,94.5569793 L342.659204,92.0369793 C343.359204,91.4769793 344.269204,90.9869793 345.039204,90.4969793 C346.299204,89.5869793 347.139204,89.0969793 347.979204,88.6769793 C348.469204,88.5369793 350.009204,89.1669793 349.379204,89.8669793 C348.959204,90.3569793 348.259204,90.7769793 347.489204,91.2669793 C345.809204,92.3869793 345.319204,92.5969793 345.109204,92.8069793 C342.799204,94.3469793 340.489204,95.8169793 337.409204,97.4269793 C336.569204,97.8469793 335.309204,98.4769793 334.399204,98.8269793 C332.789204,99.5269793 328.449204,101.416979 327.189204,98.9669793 C326.979204,98.4769793 326.979204,97.8469793 327.119204,97.3569793 C327.329204,96.5869793 327.679204,95.6769793 328.099204,94.9769793 C328.939204,93.3669793 329.919204,91.7569793 330.899204,90.4969793 C331.389204,89.8669793 331.949204,89.1669793 332.579204,88.6069793 L333.629204,87.6269793 L334.889204,86.7169793 C335.169204,86.5769793 335.659204,86.5769793 336.009204,86.7869793 L335.939204,86.7869793 C336.149204,86.9269793 336.429204,87.2769793 336.359204,87.8369793 Z M336.779204,84.6869793 C336.429204,84.6169793 336.009204,84.1969793 336.009204,83.7769793 C336.079204,83.5669793 336.289204,83.3569793 336.569204,83.1469793 C336.639204,83.1469793 336.849204,83.0069793 336.919204,82.9369793 L337.269204,82.7269793 L337.829204,82.3069793 L338.389204,81.8169793 C338.809204,81.4669793 339.649204,81.7469793 339.929204,82.0269793 C340.139204,82.1669793 340.559204,82.6569793 340.209204,83.0069793 L339.509204,83.5669793 L338.879204,84.0569793 C338.249204,84.4769793 337.619204,84.8969793 336.779204,84.6869793 Z M370.379204,87.9769793 C370.729204,88.0469793 371.219204,88.6069793 370.869204,88.9569793 C369.329204,90.3569793 367.649204,91.5469793 365.899204,92.8069793 C363.799204,94.2769793 361.629204,95.6769793 359.319204,97.0769793 C358.339204,97.6369793 357.429204,98.1969793 356.449204,98.6169793 C355.679204,99.0369793 354.769204,99.3869793 353.929204,99.5269793 C352.809204,99.7369793 351.969204,99.3169793 351.409204,98.4069793 C350.779204,97.2869793 351.129204,96.0269793 351.619204,94.9069793 C352.109204,93.6469793 352.879204,92.4569793 353.649204,91.1969793 C353.929204,90.6369793 354.279204,90.0769793 354.489204,89.3769793 C352.669204,90.4269793 351.059204,92.0369793 349.659204,93.5069793 C347.839204,95.5369793 346.229204,97.8469793 344.339204,99.9469793 C344.269204,99.9469793 344.199204,100.016979 344.129204,100.086979 C343.849204,100.506979 343.219204,100.366979 342.799204,100.156979 C342.519204,100.086979 342.099204,99.7369793 342.239204,99.3869793 C343.499204,96.4469793 345.109204,93.8569793 346.859204,91.3369793 C347.489204,90.4269793 347.839204,89.4469793 348.539204,88.3969793 C348.959204,87.5569793 349.589204,86.2969793 350.709204,86.2969793 C351.129204,86.2969793 351.759204,86.5069793 351.969204,86.9269793 C352.179204,87.4169793 351.829204,87.6969793 351.409204,87.6969793 C351.339204,87.6969793 351.339204,87.7669793 351.199204,87.8369793 L350.779204,88.3969793 L350.149204,89.7269793 L349.589204,90.9869793 C351.129204,89.3769793 353.019204,87.9069793 355.189204,87.2769793 C355.679204,87.0669793 356.659204,87.4169793 356.799204,88.0469793 C356.869204,89.3069793 356.309204,90.4969793 355.749204,91.6169793 C355.119204,92.8069793 354.349204,93.9269793 353.859204,95.1869793 C353.579204,95.8169793 353.369204,96.3069793 353.299204,97.0069793 C353.229204,97.2869793 353.229204,97.7069793 353.369204,98.0569793 C353.719204,97.9869793 353.999204,97.8469793 354.349204,97.7069793 L355.679204,97.0069793 L358.759204,95.1869793 C360.929204,93.7869793 363.029204,92.4569793 365.129204,90.9169793 L367.719204,89.0269793 C367.999204,88.7469793 368.279204,88.5369793 368.629204,88.3269793 L368.979204,88.1169793 C369.119204,88.0469793 369.259204,87.8369793 369.119204,88.0469793 C369.469204,87.6969793 369.959204,87.7669793 370.379204,87.9769793 Z M374.327955,93.6872729 C374.292013,93.8598195 374.259021,94.0330466 374.229204,94.2069793 C374.229204,94.3469793 374.229204,94.4869793 374.159204,94.6269793 L374.159204,96.3069793 C374.159204,96.4469793 374.229204,96.5169793 374.229204,96.5869793 C374.229204,96.6569793 374.369204,96.9369793 374.299204,96.7269793 C374.299204,96.9278742 374.427327,97.0647075 374.499721,97.2600473 C374.507049,97.2662299 374.543126,97.3209017 374.579204,97.3569793 C374.579204,97.4269793 374.649204,97.4969793 374.789204,97.6369793 C374.789204,97.6369793 374.859204,97.7069793 374.929204,97.7069793 C374.929204,97.7069793 374.999204,97.7769793 375.069204,97.7769793 L375.629204,97.7769793 C375.686353,97.7769793 375.743502,97.7769793 375.800652,97.7388872 C375.770401,97.7456026 375.628608,97.7769793 375.769204,97.7769793 C375.909204,97.7069793 375.979204,97.7069793 376.049204,97.7069793 C376.329204,97.6369793 376.539204,97.5669793 376.749204,97.4969793 C377.729204,97.2169793 378.709204,96.7269793 379.619204,96.1669793 C381.859204,94.9069793 384.029204,93.3669793 386.059204,91.8269793 C386.969204,91.1269793 387.809204,90.4269793 388.649204,89.7969793 L389.699204,88.9569793 C389.839204,88.8869793 389.909204,88.7469793 390.049204,88.6769793 L390.119204,88.6069793 C390.140028,88.586155 390.173242,88.5591358 390.204103,88.5351363 C390.219592,88.5318569 390.243025,88.5227419 390.253635,88.4974069 C390.282931,88.4754178 390.293878,88.4674485 390.255297,88.4929862 C390.257764,88.4856196 390.259204,88.4770195 390.259204,88.4669793 C390.609204,88.1869793 391.099204,88.2569793 391.519204,88.4669793 C391.799204,88.5369793 392.289204,89.0269793 391.939204,89.3769793 C391.519204,89.7269793 391.029204,90.1469793 390.609204,90.5669793 L390.399204,90.7769793 C390.329204,90.8469793 389.979204,91.1269793 390.189204,90.9869793 C389.979204,91.1269793 389.769204,91.3369793 389.559204,91.4769793 C389.139204,91.7569793 388.789204,92.1069793 388.369204,92.3869793 C386.409204,93.9969793 384.309204,95.5369793 382.069204,96.7969793 C381.019204,97.4969793 379.969204,98.0569793 378.779204,98.5469793 C377.939204,98.8969793 376.959204,99.1769793 375.979204,99.2469793 C374.859204,99.2469793 373.879204,98.8969793 373.109204,98.1269793 C372.498783,97.5165586 372.151229,96.6432713 372.130216,95.8254889 C371.580561,96.3288527 371.020642,96.8171305 370.449204,97.2869793 C369.119204,98.4069793 367.509204,99.8069793 365.759204,100.016979 C364.919204,100.086979 363.939204,99.8069793 363.449204,99.1769793 C362.819204,98.2669793 362.889204,97.1469793 363.239204,96.1669793 C363.729204,94.8369793 364.429204,93.6469793 365.269204,92.5269793 C365.969204,91.4769793 366.809204,90.4969793 367.649204,89.5869793 C368.559204,88.6069793 369.609204,87.6269793 370.869204,87.0669793 C371.849204,86.6469793 374.439204,86.5069793 373.809204,88.1169793 L373.669204,88.3969793 C373.459204,88.8169793 372.129204,88.9569793 371.989204,88.6769793 C371.919204,88.4669793 371.919204,88.3969793 371.919204,88.3969793 C371.709204,88.4669793 371.289204,88.4669793 370.799204,88.8869793 C369.959204,89.6569793 369.189204,90.4269793 368.489204,91.3369793 C367.579204,92.3869793 366.809204,93.4369793 366.109204,94.6269793 C365.759204,95.1869793 365.479204,95.7469793 365.269204,96.3069793 C365.129204,96.5869793 365.059204,96.8669793 364.989204,97.1469793 C364.989204,97.2869793 364.919204,97.4269793 364.919204,97.4969793 L364.919204,97.7769793 C364.849204,98.0569793 364.919204,98.2669793 364.989204,98.4769793 C365.059204,98.6869793 365.059204,98.6169793 365.199204,98.6169793 C365.269204,98.6169793 365.339204,98.5469793 365.479204,98.5469793 C365.479204,98.5469793 365.759204,98.4069793 365.549204,98.5469793 C367.299204,97.7069793 368.769204,96.4469793 370.659204,94.5569793 C371.229998,94.0162266 371.7879,93.4658042 372.335675,92.9070954 C372.623096,91.56957 373.134045,90.2619608 373.669204,89.0269793 C374.579204,86.7169793 375.769204,84.4769793 377.029204,82.3069793 C377.729204,81.1169793 378.429204,79.9269793 379.199204,78.8069793 C380.249204,77.2669793 381.369204,75.6569793 382.559204,74.1869793 C383.889204,72.4369793 385.359204,70.6169793 387.039204,69.2169793 C387.669204,68.6569793 388.369204,68.0969793 389.209204,67.8169793 C390.049204,67.6069793 391.169204,67.7469793 391.729204,68.5169793 C392.359204,69.2869793 392.009204,70.4069793 391.659204,71.1769793 C391.169204,72.3669793 390.469204,73.4869793 389.769204,74.5369793 C386.479204,79.3669793 382.839204,83.9869793 379.059204,88.3969793 C377.540763,90.1951334 375.976701,91.9932875 374.327955,93.6872729 Z M390.255297,88.4929862 C390.254786,88.4945121 390.254231,88.4959851 390.253635,88.4974069 C390.240038,88.5076128 390.222488,88.5208387 390.204103,88.5351363 C390.195399,88.5369793 390.189204,88.5369793 390.189204,88.5369793 C390.219325,88.5168988 390.240805,88.5025787 390.255297,88.4929862 Z M375.837469,97.724863 C375.870576,97.7146251 375.885473,97.7069793 375.839204,97.7069793 C375.826353,97.7198301 375.813502,97.7303217 375.800652,97.7388872 L375.837469,97.724863 Z M374.507817,97.2828529 C374.508282,97.2842253 374.508744,97.2856008 374.509204,97.2869793 C374.509204,97.2869793 374.579204,97.3569793 374.579204,97.4269793 C374.541646,97.3518639 374.519202,97.3069752 374.507817,97.2828529 Z M375.922255,89.0127327 C376.64633,88.1863705 377.362767,87.3498464 378.079204,86.5069793 C380.809204,83.2869793 383.539204,79.9969793 385.919204,76.4969793 C386.409204,75.7269793 386.969204,74.9569793 387.529204,74.2569793 C387.879204,73.6969793 388.229204,73.2069793 388.579204,72.6469793 C388.929204,72.0869793 389.209204,71.5969793 389.419204,71.1069793 C389.699204,70.6169793 389.769204,70.2669793 389.979204,69.7769793 C390.049204,69.6369793 390.049204,69.4269793 390.049204,69.2869793 C390.049204,69.1469793 389.699204,69.2869793 389.209204,69.7769793 L388.789204,70.1969793 C388.579204,70.3369793 388.439204,70.5469793 388.229204,70.6869793 C387.459204,71.4569793 386.689204,72.2969793 385.989204,73.1369793 C383.749204,75.7269793 381.719204,78.5269793 379.899204,81.4669793 C379.409204,82.3069793 378.919204,83.1469793 378.429204,84.0569793 C378.149204,84.4769793 377.869204,84.9669793 377.589204,85.5269793 L376.749204,87.2069793 C376.469588,87.8034923 376.189973,88.4049695 375.922255,89.0127327 Z M408.879204,69.1469793 C408.937519,69.1664175 408.941856,69.1696624 408.925191,69.1672063 L408.879204,69.1469793 Z M408.879198,69.1469793 C408.878444,69.1469772 408.808824,69.1465994 408.739204,69.0769793 L408.319204,69.0769793 C408.249204,69.0769793 408.179204,69.0069793 408.109204,69.0069793 C408.039204,69.0069793 407.899204,69.0069793 407.829204,69.0769793 L407.479204,69.0769793 C407.409204,69.0769793 407.339204,69.1469793 407.269204,69.1469793 C406.989204,69.2169793 406.779204,69.2169793 406.499204,69.3569793 C406.359204,69.3569793 406.219204,69.4269793 406.079204,69.4969793 C406.009204,69.4969793 405.939204,69.5669793 405.869204,69.5669793 C405.659204,69.6369793 406.079204,69.4969793 405.799204,69.5669793 L405.029204,69.9869793 C404.399204,70.2669793 403.769204,70.6169793 403.209204,70.9669793 L401.459204,72.2269793 L399.849204,73.5569793 C398.869204,74.4669793 397.959204,75.5169793 397.189204,76.6369793 C396.979204,76.8469793 396.839204,77.1269793 396.699204,77.4069793 C396.559204,77.6169793 396.769204,77.2669793 396.629204,77.4069793 C396.629204,77.4769793 396.559204,77.5469793 396.559204,77.6169793 C396.489204,77.7569793 396.419204,77.8269793 396.419204,77.9669793 C396.419204,78.0369793 396.419204,78.1069793 396.349204,78.1769793 C396.699204,78.3869793 397.119204,78.8769793 396.699204,79.2269793 C396.559204,79.3669793 396.419204,79.5769793 396.209204,79.7169793 C395.719204,79.9269793 395.159204,79.9269793 394.599204,79.7169793 C394.249204,79.5769793 393.619204,79.2969793 393.619204,78.8069793 C393.759204,77.8269793 394.109204,76.9869793 394.599204,76.1469793 C395.999204,73.7669793 398.239204,71.8069793 400.479204,70.2669793 C401.599204,69.4269793 402.789204,68.7269793 404.049204,68.2369793 C405.099204,67.7469793 406.289204,67.3269793 407.409204,67.3969793 C409.159204,67.3969793 411.049204,68.0269793 411.819204,69.7069793 C412.449204,71.0369793 412.309204,72.7169793 411.819204,74.0469793 C410.629204,77.4069793 407.969204,80.2069793 405.379204,82.5169793 C402.789204,84.7569793 400.129204,86.8569793 397.189204,88.5369793 L395.089204,89.7969793 C394.459204,90.2169793 394.039204,90.4969793 393.619204,91.0569793 C392.569204,92.3169793 392.149204,93.9969793 391.449204,95.4669793 C391.169204,95.9569793 390.539204,95.9569793 390.049204,95.8169793 C389.699204,95.7469793 388.859204,95.2569793 389.069204,94.6969793 C389.349204,94.2069793 389.559204,93.6469793 389.769204,93.1569793 C390.119204,92.3169793 390.469204,91.4769793 390.959204,90.6369793 C391.309204,90.0069793 391.799204,89.5169793 392.429204,89.0969793 C393.619204,88.1169793 395.089204,87.3469793 396.419204,86.5069793 C397.749204,85.7369793 399.009204,84.7569793 400.269204,83.7769793 C401.739204,82.6569793 403.139204,81.5369793 404.469204,80.2769793 C405.729204,79.0169793 406.989204,77.6869793 408.039204,76.1469793 C408.879204,74.8869793 409.649204,73.4169793 409.859204,71.8069793 L409.859204,70.8969793 C409.789204,70.6869793 409.789204,70.5469793 409.789204,70.4069793 C409.719204,70.3369793 409.719204,70.2669793 409.719204,70.1969793 C409.719204,70.1969793 409.719204,70.1269793 409.649204,70.1269793 C409.649204,69.9869793 409.649204,69.8469793 409.509204,69.7069793 L409.439204,69.6369793 C409.369204,69.5669793 409.369204,69.4969793 409.299204,69.4969793 C409.299204,69.4269793 409.159204,69.3569793 409.229204,69.3569793 L409.159204,69.2869793 C409.089204,69.2869793 409.019204,69.2169793 408.949204,69.2169793 C408.696395,69.1158557 408.881842,69.1608175 408.925191,69.1672063 L408.879198,69.1469793 Z M408.669204,69.0769793 C408.459204,69.0069793 408.669204,69.0769793 408.739204,69.0769793 L408.669204,69.0769793 Z M390.119204,99.3169793 C390.469204,99.5969793 390.679204,100.156979 390.259204,100.436979 C389.979204,100.646979 389.699204,100.786979 389.489204,100.996979 L389.489204,101.066979 L389.419204,101.066979 L389.209204,101.276979 C388.999204,101.836979 388.299204,101.836979 387.809204,101.696979 C387.389204,101.556979 386.689204,101.136979 386.899204,100.576979 C387.039204,100.226979 387.249204,100.016979 387.529204,99.7369793 L388.439204,99.1069793 C388.999204,98.8269793 389.699204,99.0369793 390.119204,99.3169793 Z M389.139204,101.346979 C389.139204,101.416979 389.139204,101.416979 389.209204,101.346979 L389.139204,101.346979 Z M389.559204,100.996979 C389.559204,100.996979 389.489204,100.996979 389.489204,101.066979 L389.559204,100.996979 Z" id="Whats-on-your-mind?" transform="translate(212.137530, 89.287561) rotate(-15.000000) translate(-212.137530, -89.287561) "></path>
            </g>
        </g>
    </g>
</svg>
