<?xml version="1.0" encoding="UTF-8"?>
<svg width="48px" height="20px" viewBox="0 0 48 20" version="1.1" xmlns="http://www.w3.org/2000/svg" xmlns:xlink="http://www.w3.org/1999/xlink">
    <!-- Generator: Sketch 51.2 (57519) - http://www.bohemiancoding.com/sketch -->
    <title>Latest</title>
    <desc>Created with Sketch.</desc>
    <defs></defs>
    <g id="SP" stroke="none" stroke-width="1" fill="none" fill-rule="evenodd">
        <g id="トップ" transform="translate(-308.000000, -1219.000000)" fill="#FFA9C8">
            <path d="M331.152,1234.736 C331.2,1234.856 331.224,1234.976 331.104,1235.072 C331.008,1235.168 330.864,1235.216 330.72,1235.216 C330.552,1235.216 330.36,1235.168 330.216,1235.024 L329.664,1235 C329.496,1234.976 329.304,1234.976 329.112,1234.976 C328.968,1234.952 329.208,1234.976 329.064,1234.952 L328.656,1234.952 C327.936,1234.952 327.216,1234.952 326.496,1235 C323.544,1235.168 320.664,1235.648 317.784,1236.2 C316.32,1236.464 314.856,1236.752 313.416,1237.112 C312.696,1237.304 311.976,1237.496 311.256,1237.736 C310.896,1237.832 310.536,1237.952 310.2,1238.072 L309.648,1238.288 C309.6,1238.288 309.528,1238.312 309.456,1238.336 C309.36,1238.384 309.24,1238.408 309.144,1238.432 L309.096,1238.432 C308.952,1238.456 308.784,1238.408 308.712,1238.288 C308.64,1238.216 308.616,1238.12 308.688,1238.072 C308.76,1237.976 308.856,1237.952 308.952,1237.904 C309.048,1237.856 309.144,1237.832 309.216,1237.784 L309.768,1237.568 L310.848,1237.208 C311.592,1236.968 312.336,1236.728 313.08,1236.536 C314.52,1236.176 315.96,1235.864 317.424,1235.6 C318.888,1235.336 320.328,1235.072 321.792,1234.856 C324.72,1234.4 327.72,1234.136 330.672,1234.448 C330.84,1234.448 331.08,1234.568 331.152,1234.736 Z M314.04,1235.6 L314.016,1235.576 C314.064,1235.648 314.04,1235.624 314.04,1235.6 Z M314.016,1235.288 C314.016,1235.216 314.04,1235.144 314.064,1235.048 C314.112,1234.856 314.208,1234.64 314.28,1234.448 C314.544,1233.848 314.856,1233.296 315.168,1232.72 C315.936,1231.328 316.776,1229.984 317.64,1228.64 C318.264,1227.632 318.936,1226.648 319.584,1225.664 L321.192,1223.384 C321.648,1222.736 322.08,1222.088 322.536,1221.464 L323.232,1220.528 L323.592,1220.024 C323.64,1219.952 323.688,1219.88 323.76,1219.808 L323.76,1219.664 C323.784,1219.496 324.12,1219.52 324.216,1219.544 C324.336,1219.592 324.552,1219.688 324.528,1219.832 C324.528,1219.904 324.552,1219.976 324.528,1220.048 C324.504,1220.12 324.456,1220.168 324.408,1220.24 L324.096,1220.648 L323.496,1221.488 L320.832,1225.304 C320.568,1225.664 320.304,1226.048 320.064,1226.432 C319.296,1227.56 318.552,1228.688 317.832,1229.84 L316.56,1231.928 L315.984,1232.936 L315.864,1233.176 C315.888,1233.104 315.84,1233.224 315.816,1233.248 L315.768,1233.344 C315.672,1233.488 315.6,1233.656 315.528,1233.8 C315.288,1234.256 315.048,1234.736 314.88,1235.216 L314.808,1235.48 C314.808,1235.504 314.808,1235.552 314.784,1235.576 L314.784,1235.6 C314.856,1235.648 314.904,1235.696 314.904,1235.792 C314.904,1235.888 314.832,1235.936 314.736,1235.984 L314.64,1235.984 C314.616,1236.008 314.592,1236.008 314.568,1236.008 L314.568,1235.984 C314.424,1235.984 314.256,1235.888 314.136,1235.792 C314.112,1235.768 314.064,1235.72 314.064,1235.672 L314.04,1235.6 C314.04,1235.576 314.016,1235.528 314.016,1235.528 L314.016,1235.288 Z M330.264,1228.28 C330.384,1228.328 330.576,1228.52 330.456,1228.616 C329.664,1229.312 328.944,1229.96 328.056,1230.536 C327.648,1230.8 327.456,1230.944 327.144,1231.112 C326.184,1231.64 325.848,1231.784 325.488,1231.856 C324.912,1231.928 324.168,1231.856 323.856,1231.328 C323.664,1231.04 323.712,1230.656 323.808,1230.32 C323.592,1230.584 323.352,1230.8 323.088,1231.04 C322.848,1231.256 322.632,1231.544 322.392,1231.712 C322.2,1231.88 321.984,1232 321.72,1232.096 C321.432,1232.216 321.096,1232.216 320.784,1232 C320.568,1231.832 320.472,1231.544 320.472,1231.28 C320.496,1230.68 320.856,1230.2 321.192,1229.744 C321.576,1229.264 322.008,1228.832 322.512,1228.472 C322.872,1228.208 323.28,1228.016 323.784,1227.848 C323.952,1227.8 324.192,1227.752 324.384,1227.776 C324.6,1227.848 324.912,1228.016 324.792,1228.28 C324.72,1228.448 324.528,1228.448 324.384,1228.376 C324.336,1228.376 324.312,1228.352 324.264,1228.328 L324.24,1228.328 C324.216,1228.352 324.168,1228.328 324.144,1228.352 C324.12,1228.352 324,1228.4 324.048,1228.376 C323.664,1228.544 323.304,1228.76 322.968,1229 C322.68,1229.24 322.32,1229.552 322.032,1229.912 C321.744,1230.248 321.432,1230.608 321.288,1231.064 C321.216,1231.256 321.168,1231.472 321.24,1231.664 C321.264,1231.664 321.288,1231.664 321.312,1231.64 C321.576,1231.496 321.768,1231.376 321.96,1231.184 C322.224,1230.968 322.464,1230.728 322.68,1230.488 L324.072,1229 L324.816,1228.328 L324.84,1228.304 C325.008,1228.088 325.224,1227.896 325.368,1227.68 C325.536,1227.488 326.088,1227.656 326.088,1227.92 L326.088,1227.944 C326.088,1227.992 326.016,1228.088 325.968,1228.136 C325.944,1228.184 325.896,1228.208 325.872,1228.256 C325.68,1228.496 325.584,1228.52 325.128,1229.216 C325.056,1229.336 324.96,1229.456 324.912,1229.576 C324.768,1229.864 324.624,1230.176 324.552,1230.44 L324.48,1230.68 C324.312,1231.112 324.672,1231.496 325.248,1231.328 C325.728,1231.184 326.136,1230.944 326.64,1230.68 C327.816,1230.056 328.776,1229.168 329.784,1228.28 C329.952,1228.184 330.144,1228.208 330.264,1228.28 Z M332.616155,1225.064 C333.120108,1225.064 333.648054,1225.088 334.176,1225.088 C334.8,1225.088 335.448,1225.064 336.072,1225.136 C336.216,1225.16 336.408,1225.256 336.48,1225.4 C336.528,1225.52 336.456,1225.664 336.312,1225.688 C335.904,1225.76 335.52,1225.904 335.088,1225.976 C334.896,1226 334.68,1225.952 334.56,1225.808 C334.512,1225.76 334.488,1225.712 334.488,1225.64 L332.28,1225.64 C331.848,1226.432 331.368,1227.248 330.936,1228.04 C330.432,1229.024 329.904,1230.008 329.544,1231.064 C329.472,1231.28 329.4,1231.496 329.376,1231.76 L329.376,1231.784 C329.376,1232.216 329.784,1232.048 330.048,1231.976 C330.384,1231.88 330.72,1231.76 331.104,1231.568 C333.048,1230.632 334.944,1229.384 336.624,1228.064 C336.768,1227.944 337.056,1228.04 337.176,1228.136 C337.272,1228.208 337.392,1228.376 337.272,1228.472 C336.768,1228.928 336.096,1229.336 335.544,1229.744 C334.968,1230.152 334.392,1230.512 333.768,1230.896 C332.904,1231.424 332.04,1231.928 331.104,1232.312 C330.48,1232.552 329.664,1232.816 329.04,1232.48 C328.776,1232.336 328.584,1232.096 328.56,1231.784 C328.536,1231.424 328.68,1231.04 328.8,1230.704 C329.16,1229.648 329.688,1228.664 330.24,1227.68 C330.6,1226.984 330.984,1226.312 331.392,1225.64 L330.936,1225.64 C329.544,1225.64 328.176,1225.64 326.808,1225.664 C325.488,1225.664 324.168,1225.688 322.848,1225.688 C321.864,1225.688 320.88,1225.712 319.872,1225.712 L319.032,1225.712 C318.744,1225.736 318.336,1225.76 318.24,1225.4 C318.216,1225.328 318.288,1225.256 318.336,1225.208 C318.384,1225.16 318.48,1225.16 318.552,1225.16 L318.516,1225.16 L318.6,1225.16 C319.368,1225.136 320.136,1225.136 320.928,1225.136 C321.312,1225.136 321.72,1225.136 326.688,1225.088 L330.792,1225.088 C331.104,1225.088 331.416,1225.088 331.728,1225.064 C331.8,1224.92 331.896,1224.776 331.992,1224.608 C332.04,1224.488 332.112,1224.368 332.184,1224.248 L332.328,1223.984 C332.472,1223.72 332.64,1223.456 332.808,1223.192 L333.384,1222.328 L333.72,1221.896 L333.888,1221.704 C333.96,1221.608 334.032,1221.584 334.176,1221.56 C334.32,1221.56 334.464,1221.608 334.536,1221.704 C334.608,1221.776 334.608,1221.872 334.56,1221.968 C334.128,1222.496 333.792,1223.096 333.432,1223.648 C333.36,1223.792 333.24,1223.936 333.168,1224.056 L333.024,1224.344 C332.904,1224.584 332.784,1224.8 332.64,1225.016 C332.64,1225.03609 332.623179,1225.05619 332.617701,1225.0622 L332.616155,1225.064 Z M318.516,1225.16 L318.504,1225.16 L318.516,1225.16 Z M336.48,1230.272 C336.24,1230.392 335.856,1230.44 335.568,1230.32 L335.52,1230.368 C335.472,1230.464 335.424,1230.56 335.4,1230.68 C335.376,1230.704 335.376,1230.728 335.376,1230.752 C335.376,1230.776 335.352,1230.8 335.352,1230.824 L335.328,1230.92 C335.328,1231.088 335.304,1231.256 335.472,1231.4 C335.52,1231.424 335.568,1231.448 335.616,1231.448 L335.832,1231.448 C336.408,1231.4 336.816,1231.256 337.32,1231.04 C338.496,1230.512 339.576,1229.816 340.872,1228.928 C341.136,1228.736 341.472,1228.544 341.712,1228.352 C341.832,1228.28 342,1228.16 342.168,1228.112 C342.216,1228.088 342.264,1228.088 342.336,1228.088 L342.36,1228.088 C342.336,1228.088 342.432,1228.112 342.432,1228.112 C342.552,1228.136 342.504,1228.136 342.576,1228.184 L342.648,1228.256 C342.672,1228.328 342.672,1228.352 342.648,1228.424 L342.6,1228.496 L342.528,1228.568 L342.216,1228.808 L342.12,1228.88 L341.352,1229.408 C340.656,1229.888 339.84,1230.44 338.928,1230.92 C338.304,1231.256 337.512,1231.64 336.84,1231.808 C336.48,1231.904 336.072,1231.952 335.688,1231.928 C335.232,1231.88 334.776,1231.616 334.632,1231.16 C334.536,1230.728 334.776,1230.224 334.992,1229.864 C335.256,1229.456 335.64,1229 336,1228.664 C336.312,1228.352 336.72,1228.016 337.176,1227.752 C337.56,1227.512 338.184,1227.272 338.64,1227.608 C339.024,1227.92 338.808,1228.4 338.568,1228.736 C338.328,1229.072 338.016,1229.36 337.656,1229.624 C337.32,1229.864 336.888,1230.128 336.48,1230.272 Z M335.808,1229.912 C335.712,1230.056 337.296,1229.456 338.088,1228.256 C338.088,1228.256 338.184,1228.088 338.16,1227.92 C337.944,1227.968 337.728,1228.088 337.488,1228.256 C337.344,1228.352 337.248,1228.448 337.128,1228.544 C337.104,1228.568 337.008,1228.64 337.008,1228.64 C336.624,1228.976 336.24,1229.336 335.928,1229.744 L335.808,1229.912 Z M348.12,1228.28 C348.216,1228.352 348.24,1228.448 348.168,1228.568 C348.024,1228.76 347.856,1228.88 347.64,1229.072 C347.472,1229.216 347.304,1229.384 347.112,1229.528 C346.728,1229.816 346.56,1229.984 346.152,1230.272 C345.576,1230.68 344.976,1231.064 344.328,1231.424 C343.464,1231.88 342.912,1232.144 341.952,1232.288 C341.76,1232.312 341.544,1232.336 341.352,1232.336 L341.28,1232.552 C341.256,1232.648 341.184,1232.744 341.112,1232.816 C341.088,1232.864 341.016,1232.888 340.944,1232.888 C340.776,1232.96 340.584,1232.888 340.44,1232.816 C340.272,1232.72 340.128,1232.576 340.008,1232.432 L339.48,1231.952 C339.336,1231.76 339.168,1231.592 339,1231.4 C338.928,1231.328 338.832,1231.232 338.784,1231.16 C338.736,1231.112 338.688,1231.016 338.664,1230.944 C338.64,1230.92 338.64,1230.896 338.64,1230.872 C338.592,1230.776 338.712,1230.704 338.784,1230.68 C338.976,1230.632 339.288,1230.68 339.36,1230.872 C339.408,1230.92 339.432,1230.968 339.48,1231.016 C339.528,1231.064 339.576,1231.112 339.624,1231.184 C339.648,1231.184 339.696,1231.256 339.696,1231.256 L339.792,1231.328 L340.056,1231.52 L340.152,1231.568 C340.224,1231.616 340.296,1231.64 340.368,1231.664 C340.392,1231.664 340.44,1231.688 340.44,1231.688 L340.536,1231.736 L340.68,1231.76 C340.92,1230.848 341.112,1229.984 341.496,1229.12 C341.88,1228.28 342.48,1227.488 343.392,1227.176 C343.608,1227.128 343.896,1227.224 343.992,1227.416 C344.064,1227.56 343.968,1227.656 343.824,1227.704 L343.848,1227.704 L343.752,1227.752 C343.728,1227.752 343.656,1227.8 343.728,1227.752 L343.56,1227.824 L343.272,1228.016 C343.248,1228.04 343.176,1228.088 343.056,1228.208 L342.84,1228.448 L342.48,1228.976 L342.336,1229.264 L342.192,1229.576 L341.952,1230.248 C341.784,1230.68 341.664,1231.16 341.544,1231.616 C341.52,1231.664 341.52,1231.712 341.496,1231.784 C341.928,1231.784 342.384,1231.616 342.84,1231.472 C343.272,1231.328 343.368,1231.28 343.464,1231.232 C343.968,1230.968 344.112,1230.872 344.544,1230.608 C345.048,1230.296 345.456,1229.984 345.936,1229.624 L346.728,1229 C347.016,1228.784 347.328,1228.448 347.64,1228.232 C347.784,1228.136 347.976,1228.184 348.12,1228.28 Z M336.29223,1225.16 C336.284451,1225.16 336.278771,1225.16 336.264,1225.16 C336.288,1225.16 336.288,1225.16 336.288,1225.16 L336.36,1225.16 C337.128,1225.136 337.896,1225.136 338.688,1225.136 C339.072,1225.136 339.48,1225.136 344.448,1225.088 L348.552,1225.088 C348.864,1225.088 349.176,1225.088 349.488,1225.064 C349.56,1224.92 349.656,1224.776 349.752,1224.608 C349.8,1224.488 349.872,1224.368 349.944,1224.248 L350.088,1223.984 C350.232,1223.72 350.4,1223.456 350.568,1223.192 L351.144,1222.328 L351.48,1221.896 L351.648,1221.704 C351.72,1221.608 351.792,1221.584 351.936,1221.56 C352.08,1221.56 352.224,1221.608 352.296,1221.704 C352.368,1221.776 352.368,1221.872 352.32,1221.968 C351.888,1222.496 351.552,1223.096 351.192,1223.648 C351.12,1223.792 351,1223.936 350.928,1224.056 L350.784,1224.344 C350.664,1224.584 350.544,1224.8 350.4,1225.016 C350.4,1225.04 350.376,1225.064 350.376,1225.064 C350.88,1225.064 351.408,1225.088 351.936,1225.088 C352.56,1225.088 353.208,1225.064 353.832,1225.136 C353.976,1225.16 354.168,1225.256 354.24,1225.4 C354.288,1225.52 354.216,1225.664 354.072,1225.688 C353.664,1225.76 353.28,1225.904 352.848,1225.976 C352.656,1226 352.44,1225.952 352.32,1225.808 C352.272,1225.76 352.248,1225.712 352.248,1225.64 C352.2,1225.64 352.152,1225.64 352.104,1225.64 L350.04,1225.64 C349.608,1226.432 349.128,1227.248 348.696,1228.04 C348.192,1229.024 347.664,1230.008 347.304,1231.064 C347.232,1231.28 347.16,1231.496 347.136,1231.76 C347.136,1231.784 347.136,1231.784 347.136,1231.784 C347.136,1232.216 347.544,1232.048 347.808,1231.976 C348.144,1231.88 348.48,1231.76 348.864,1231.568 C350.808,1230.632 352.704,1229.384 354.384,1228.064 C354.528,1227.944 354.816,1228.04 354.936,1228.136 C355.032,1228.208 355.152,1228.376 355.032,1228.472 C354.528,1228.928 353.856,1229.336 353.304,1229.744 C352.728,1230.152 352.152,1230.512 351.528,1230.896 C350.664,1231.424 349.8,1231.928 348.864,1232.312 C348.24,1232.552 347.424,1232.816 346.8,1232.48 C346.536,1232.336 346.344,1232.096 346.32,1231.784 C346.296,1231.424 346.44,1231.04 346.56,1230.704 C346.92,1229.648 347.448,1228.664 348,1227.68 C348.36,1226.984 348.744,1226.312 349.152,1225.64 L348.696,1225.64 C347.304,1225.64 345.936,1225.64 344.568,1225.664 C343.248,1225.664 341.928,1225.688 340.608,1225.688 C339.624,1225.688 338.64,1225.712 337.632,1225.712 L336.792,1225.712 C336.504,1225.736 336.096,1225.76 336,1225.4 C335.976,1225.328 336.048,1225.256 336.096,1225.208 C336.140632,1225.16337 336.226764,1225.16024 336.296514,1225.16002 L336.29223,1225.16 Z" id="Latest"></path>
        </g>
    </g>
</svg>