<?xml version="1.0" encoding="UTF-8"?>
<svg width="127px" height="36px" viewBox="0 0 127 36" version="1.1" xmlns="http://www.w3.org/2000/svg" xmlns:xlink="http://www.w3.org/1999/xlink">
    <!-- Generator: Sketch 51.3 (57544) - http://www.bohemiancoding.com/sketch -->
    <title>Women’sTopic</title>
    <desc>Created with Sketch.</desc>
    <defs></defs>
    <g id="PC" stroke="none" stroke-width="1" fill="none" fill-rule="evenodd">
        <g id="トップ" transform="translate(-122.000000, -1388.000000)" fill="#58DDC4">
            <g id="Group-42" transform="translate(119.000000, 947.000000)">
                <g id="Group-45" transform="translate(0.000000, 440.000000)">
                    <path d="M12.924,7.9405 C12.933,7.945 12.942,7.954 12.96,7.972 C12.942,7.954 12.924,7.945 12.9105,7.9405 L12.924,7.9405 Z M12.924,7.9405 C12.915,7.936 12.906,7.936 12.888,7.936 C12.888,7.936 12.897,7.936 12.9105,7.9405 L12.924,7.9405 Z M12.5729534,7.87488347 C12.6086677,7.88548054 12.6914506,7.9 12.6,7.9 L12.168,7.9 C12.096,7.972 12.024,7.972 11.952,8.008 L11.448,8.116 L10.98,8.332 C10.8,8.404 10.62,8.548 10.476,8.656 C9.144,9.592 8.136,10.96 7.308,12.4 C6.876,13.048 6.552,13.804 6.228,14.488 L6.084,14.74 C6.084,14.776 6.048,14.884 6.012,14.92 C6.012,14.992 6.012,15.028 5.976,15.1 C5.868,15.316 5.76,15.532 5.688,15.748 C5.472,16.36 5.256,16.972 5.148,17.584 C5.148,17.728 5.112,17.872 5.112,18.016 C5.112,18.088 5.076,18.124 5.076,18.196 L5.076,18.304 C5.076,18.34 5.112,18.412 5.112,18.448 C5.112,18.628 5.472,18.736 5.256,18.988 C5.112,19.204 4.716,19.168 4.5,19.06 C3.924,18.808 3.852,18.304 3.888,17.764 C3.96,17.152 4.104,16.612 4.248,16.108 L4.788,14.632 C4.932,14.272 5.04,14.056 5.148,13.84 L5.688,12.724 C6.444,11.212 7.416,9.772 8.676,8.656 C9.288,8.08 10.008,7.648 10.728,7.324 C11.34,7.108 12.06,7 12.708,7.072 C13.284,7.216 13.86,7.396 14.256,7.9 C14.58,8.296 14.76,8.764 14.868,9.268 C15.084,10.348 14.976,11.5 14.796,12.544 C14.652,13.444 14.4,14.308 14.112,15.172 C13.392,17.512 12.672,19.888 11.988,22.228 C11.916,22.66 11.772,23.092 11.664,23.488 C12.096,22.768 12.564,22.048 12.996,21.364 C14.184,19.6 15.444,17.872 16.776,16.216 L17.856,14.956 C18.18,14.56 18.54,14.164 18.936,13.768 C19.584,13.12 20.16,12.364 21.096,12.004 C21.312,11.896 21.636,11.968 21.852,12.112 C21.96,12.22 22.104,12.4 22.068,12.544 C21.384,14.38 20.772,16.18 20.232,18.016 C19.584,19.96 18.828,21.868 18.36,23.848 C17.856,25.648 17.568,27.484 17.424,29.392 C17.928,27.484 18.648,25.612 19.512,23.92 C20.268,22.192 21.204,20.536 22.248,18.916 C23.328,17.296 23.436,16.864 25.596,14.02 C26.82,12.4 28.152,10.744 29.556,9.232 C31.032,7.576 32.652,5.992 34.272,4.408 C35.46,3.292 36.72,1.708 38.124,1.348 C38.448,1.276 38.88,1.348 39.096,1.708 L39.24,2.032 C39.42,2.32 39.168,2.5 38.952,2.5 C38.772,2.536 38.556,2.5 38.34,2.392 C38.268,2.428 38.196,2.5 38.052,2.572 C37.728,2.788 37.476,3.04 37.188,3.256 C35.784,4.624 34.344,5.92 32.976,7.36 L30.6,9.808 C29.952,10.6 29.268,11.284 28.62,12.112 C26.244,15.028 24.516,17.512 21.888,21.976 C20.952,23.596 20.16,25.288 19.512,27.088 C18.828,28.924 18.108,30.904 18.216,32.956 C18.324,33.1 18.396,33.28 18.396,33.46 C18.504,33.856 17.892,33.82 17.676,33.784 C17.46,33.712 17.28,33.604 17.1,33.532 C15.84,32.776 16.02,31.084 16.092,29.932 C16.2,27.772 16.56,25.648 17.1,23.596 C17.604,21.58 18.324,19.636 18.936,17.656 C19.332,16.54 19.728,15.388 20.124,14.272 C19.512,14.92 18.972,15.496 18.432,16.144 C17.244,17.548 16.128,18.988 15.084,20.464 C13.932,22.084 12.852,23.74 11.988,25.432 C11.196,26.908 10.476,28.564 10.296,30.292 C10.296,30.436 10.26,30.58 10.26,30.688 C10.26,30.724 10.26,30.76 10.224,30.796 C10.224,31.084 9.72,31.048 9.54,30.976 C9.396,30.976 9,30.796 9.036,30.544 L9.036,30.4 C9.072,29.068 9.252,27.808 9.504,26.512 C10.044,24.316 10.692,22.048 11.376,19.852 C11.736,18.556 12.132,17.296 12.492,16.072 C12.78,15.172 13.068,14.344 13.32,13.48 C13.428,12.976 13.536,12.472 13.608,11.968 L13.68,11.14 C13.716,10.996 13.752,10.852 13.716,10.708 C13.752,10.636 13.752,10.564 13.752,10.492 L13.752,10.384 C13.716,9.88 13.716,9.376 13.608,8.872 L13.464,8.692 L13.5,8.692 C13.464,8.656 13.464,8.656 13.464,8.62 L13.356,8.368 L13.248,8.224 L13.248,8.188 L13.104,8.08 C12.996,7.972 13.248,8.152 13.104,8.044 L12.96,7.972 C12.96,7.936 12.96,7.972 12.996,7.972 L12.96,7.936 L12.888,7.936 C12.852,7.936 12.852,7.9 12.816,7.9 L12.744,7.9 C12.7125744,7.9 12.6537165,7.9 12.6153194,7.87605337 L12.5729534,7.87488347 Z M35.064,18.844 C35.388,18.628 36.252,19.06 35.82,19.42 C35.172,19.96 34.38,20.32 33.588,20.644 C32.796,20.968 31.968,21.256 31.104,21.436 C30.78,21.472 30.312,21.58 29.88,21.616 C29.7,21.868 29.52,22.12 29.304,22.372 C28.944,22.84 28.584,23.272 28.188,23.704 C27.72,24.208 27.18,24.712 26.532,24.964 C25.92,25.216 25.2,25.36 24.588,25 C24.3,24.82 24.084,24.568 24.012,24.208 C23.94,23.92 23.976,23.596 24.048,23.308 C24.264,22.372 24.768,21.508 25.308,20.752 C25.92,19.96 26.64,19.24 27.504,18.736 C27.72,18.628 28.044,18.7 28.224,18.844 C28.512,19.06 28.368,19.456 28.044,19.456 C27.432,19.96 26.892,20.536 26.388,21.184 C25.884,21.832 25.416,22.588 25.2,23.416 C25.164,23.56 25.092,23.74 25.092,23.92 L25.092,24.208 C25.092,24.388 25.272,24.388 25.38,24.388 C25.452,24.388 25.488,24.352 25.56,24.352 C25.596,24.352 25.776,24.244 25.668,24.316 L25.848,24.208 C26.424,23.92 26.82,23.524 27.288,23.056 C27.684,22.588 28.116,22.12 28.476,21.616 C28.584,21.472 28.692,21.364 28.764,21.256 L28.656,21.148 C28.44,20.896 28.368,20.572 28.368,20.248 C28.368,20.032 28.368,19.744 28.476,19.528 C28.584,19.204 28.836,18.88 29.124,18.7 C29.592,18.448 30.168,18.592 30.456,19.024 C30.816,19.528 30.672,20.104 30.456,20.644 L30.456,20.68 L30.528,20.68 C31.392,20.5 32.22,20.212 33.048,19.888 L34.128,19.384 C34.452,19.204 34.776,19.06 35.064,18.844 Z M29.52,19.24 L29.484,19.24 L29.52,19.24 Z M40.8450067,19.6492362 C40.8429864,19.649497 40.8352515,19.6607485 40.824,19.672 C40.780353,19.701098 40.7778647,19.6949171 40.7832675,19.6843487 L40.8450067,19.6492362 Z M40.7832675,19.6843487 C40.7912333,19.6687667 40.816353,19.643647 40.752,19.708 L40.68,19.78 C40.608,19.816 40.572,19.888 40.536,19.924 L40.212,20.212 L39.564,20.968 C38.7,21.976 37.908,23.056 36.864,23.884 C36.576,24.1 35.928,23.848 35.892,23.488 C35.82,22.732 36.18,22.012 36.54,21.328 C36.684,21.04 36.864,20.716 36.972,20.428 C36.324,20.932 35.712,21.544 35.136,22.156 C34.236,23.128 33.408,24.172 32.724,25.324 C32.508,25.648 31.536,25.324 31.68,24.892 C32.652,22.516 34.092,20.32 35.496,18.16 C35.568,18.016 35.856,18.052 35.964,18.088 C36.252,18.16 36.432,18.412 36.432,18.736 C36.432,18.88 36.324,18.952 36.216,18.952 C35.964,19.132 35.208,20.464 35.064,20.716 C35.28,20.5 35.532,20.284 35.784,20.104 C36.252,19.708 36.756,19.348 37.296,19.06 C37.584,18.916 38.196,19.06 38.232,19.456 C38.34,20.212 37.98,20.896 37.656,21.544 C37.98,21.112 38.376,20.68 38.736,20.284 C39.456,19.456 40.428,18.304 41.652,18.448 C41.868,18.484 42.228,18.628 42.264,18.88 C42.264,19.456 41.94,20.032 41.724,20.536 C41.364,21.22 41.004,21.904 40.68,22.588 C40.572,22.84 40.428,23.092 40.356,23.344 L40.248,23.704 C40.248,23.74 40.212,23.812 40.212,23.848 C40.212,23.884 40.176,24.028 40.212,23.92 L40.212,24.028 C40.536,24.028 40.86,23.884 41.184,23.74 C41.724,23.488 42.192,23.236 42.732,22.948 C43.92,22.264 45.072,21.544 46.188,20.752 L47.592,19.78 L48.492,19.168 C48.96,18.772 49.572,19.384 49.284,19.744 C49.248,19.78 49.176,19.816 49.032,19.96 L48.744,20.176 C48.456,20.392 48.168,20.572 47.916,20.788 L45.684,22.3 C44.568,22.984 43.452,23.704 42.228,24.244 C41.796,24.46 41.22,24.676 40.716,24.748 C40.212,24.856 39.672,24.856 39.312,24.388 C39.024,24.064 39.096,23.56 39.24,23.164 C39.384,22.624 39.672,22.12 39.924,21.58 C40.212,21.04 40.5,20.5 40.752,19.924 C40.8262455,19.7012636 40.8494503,19.6486627 40.8450067,19.6492362 L40.7832675,19.6843487 Z M48.24,22.408 C47.88,22.588 47.304,22.66 46.872,22.48 L46.8,22.552 C46.728,22.696 46.656,22.84 46.62,23.02 C46.584,23.056 46.584,23.092 46.584,23.128 C46.584,23.164 46.548,23.2 46.548,23.236 L46.512,23.38 C46.512,23.632 46.476,23.884 46.728,24.1 C46.8,24.136 46.872,24.172 46.944,24.172 L47.268,24.172 C48.132,24.1 48.744,23.884 49.5,23.56 C51.264,22.768 52.884,21.724 54.828,20.392 C55.224,20.104 55.728,19.816 56.088,19.528 C56.268,19.42 56.52,19.24 56.772,19.168 C56.844,19.132 56.916,19.132 57.024,19.132 L57.06,19.132 C57.024,19.132 57.168,19.168 57.168,19.168 C57.348,19.204 57.276,19.204 57.384,19.276 L57.492,19.384 C57.528,19.492 57.528,19.528 57.492,19.636 L57.42,19.744 L57.312,19.852 L56.844,20.212 L56.7,20.32 L55.548,21.112 C54.504,21.832 53.28,22.66 51.912,23.38 C50.976,23.884 49.788,24.46 48.78,24.712 C48.24,24.856 47.628,24.928 47.052,24.892 C46.368,24.82 45.684,24.424 45.468,23.74 C45.324,23.092 45.684,22.336 46.008,21.796 C46.404,21.184 46.98,20.5 47.52,19.996 C47.988,19.528 48.6,19.024 49.284,18.628 C49.86,18.268 50.796,17.908 51.48,18.412 C52.056,18.88 51.732,19.6 51.372,20.104 C51.012,20.608 50.544,21.04 50.004,21.436 C49.5,21.796 48.852,22.192 48.24,22.408 Z M47.232,21.868 C47.088,22.084 49.464,21.184 50.652,19.384 C50.652,19.384 50.796,19.132 50.76,18.88 C50.436,18.952 50.112,19.132 49.752,19.384 C49.536,19.528 49.392,19.672 49.212,19.816 C49.176,19.852 49.032,19.96 49.032,19.96 C48.456,20.464 47.88,21.004 47.412,21.616 L47.232,21.868 Z M67.752,19.096 C67.932,19.132 68.184,19.42 68.004,19.6 C67.212,20.32 66.348,20.932 65.448,21.58 C64.368,22.336 63.252,23.056 62.064,23.776 C61.56,24.064 61.092,24.352 60.588,24.568 C60.192,24.784 59.724,24.964 59.292,25.036 C58.716,25.144 58.284,24.928 57.996,24.46 C57.672,23.884 57.852,23.236 58.104,22.66 C58.356,22.012 58.752,21.4 59.148,20.752 C59.292,20.464 59.472,20.176 59.58,19.816 C58.644,20.356 57.816,21.184 57.096,21.94 C56.16,22.984 55.332,24.172 54.36,25.252 C54.324,25.252 54.288,25.288 54.252,25.324 C54.108,25.54 53.784,25.468 53.568,25.36 C53.424,25.324 53.208,25.144 53.28,24.964 C53.928,23.452 54.756,22.12 55.656,20.824 C55.98,20.356 56.16,19.852 56.52,19.312 C56.736,18.88 57.06,18.232 57.636,18.232 C57.852,18.232 58.176,18.34 58.284,18.556 C58.392,18.808 58.212,18.952 57.996,18.952 C57.96,18.952 57.96,18.988 57.888,19.024 L57.672,19.312 L57.348,19.996 L57.06,20.644 C57.852,19.816 58.824,19.06 59.94,18.736 C60.192,18.628 60.696,18.808 60.768,19.132 C60.804,19.78 60.516,20.392 60.228,20.968 C59.904,21.58 59.508,22.156 59.256,22.804 C59.112,23.128 59.004,23.38 58.968,23.74 C58.932,23.884 58.932,24.1 59.004,24.28 C59.184,24.244 59.328,24.172 59.508,24.1 L60.192,23.74 L61.776,22.804 C62.892,22.084 63.972,21.4 65.052,20.608 L66.384,19.636 C66.528,19.492 66.672,19.384 66.852,19.276 L67.032,19.168 C67.104,19.132 67.176,19.024 67.104,19.132 C67.284,18.952 67.536,18.988 67.752,19.096 Z M69.3,12.112 C69.444,11.716 70.236,11.932 70.272,12.328 C70.272,12.688 69.984,13.084 69.768,13.372 C69.588,13.624 69.372,14.02 69.084,14.092 C68.832,14.128 68.508,14.056 68.364,13.876 C68.256,13.732 68.256,13.552 68.4,13.444 C68.436,13.408 68.472,13.336 68.544,13.3 L68.868,12.868 C69.048,12.58 69.192,12.4 69.3,12.112 Z M81.576,19.42 C81.72,19.528 81.756,19.672 81.648,19.852 C81.432,20.14 81.18,20.32 80.856,20.608 C80.604,20.824 80.352,21.076 80.064,21.292 C79.488,21.724 79.236,21.976 78.624,22.408 C77.76,23.02 76.86,23.596 75.888,24.136 C74.592,24.82 73.764,25.216 72.324,25.432 C72.036,25.468 71.712,25.504 71.424,25.504 L71.316,25.828 C71.28,25.972 71.172,26.116 71.064,26.224 C71.028,26.296 70.92,26.332 70.812,26.332 C70.56,26.44 70.272,26.332 70.056,26.224 C69.804,26.08 69.588,25.864 69.408,25.648 L68.616,24.928 C68.4,24.64 68.148,24.388 67.896,24.1 C67.788,23.992 67.644,23.848 67.572,23.74 C67.5,23.668 67.428,23.524 67.392,23.416 C67.356,23.38 67.356,23.344 67.356,23.308 C67.284,23.164 67.464,23.056 67.572,23.02 C67.86,22.948 68.328,23.02 68.436,23.308 C68.508,23.38 68.544,23.452 68.616,23.524 C68.688,23.596 68.76,23.668 68.832,23.776 C68.868,23.776 68.94,23.884 68.94,23.884 L69.084,23.992 L69.48,24.28 L69.624,24.352 C69.732,24.424 69.84,24.46 69.948,24.496 C69.984,24.496 70.056,24.532 70.056,24.532 L70.2,24.604 L70.416,24.64 C70.776,23.272 71.064,21.976 71.64,20.68 C72.216,19.42 73.116,18.232 74.484,17.764 C74.808,17.692 75.24,17.836 75.384,18.124 C75.492,18.34 75.348,18.484 75.132,18.556 L75.168,18.556 L75.024,18.628 C74.988,18.628 74.88,18.7 74.988,18.628 L74.736,18.736 L74.304,19.024 C74.268,19.06 74.16,19.132 73.98,19.312 L73.656,19.672 L73.116,20.464 L72.9,20.896 L72.684,21.364 L72.324,22.372 C72.072,23.02 71.892,23.74 71.712,24.424 C71.676,24.496 71.676,24.568 71.64,24.676 C72.288,24.676 72.972,24.424 73.656,24.208 C74.304,23.992 74.448,23.92 74.592,23.848 C75.348,23.452 75.564,23.308 76.212,22.912 C76.968,22.444 77.58,21.976 78.3,21.436 L79.488,20.5 C79.92,20.176 80.388,19.672 80.856,19.348 C81.072,19.204 81.36,19.276 81.576,19.42 Z M116.064,7.108 C116.136,7.288 116.1,7.468 115.92,7.54 C115.632,7.756 115.272,7.828 114.912,7.936 C114.66,8.044 114.264,7.9 114.084,7.684 C114.012,7.612 113.976,7.54 113.976,7.468 C113.616,7.432 113.256,7.396 112.896,7.396 C112.68,7.396 112.428,7.396 112.212,7.36 L111.672,7.36 C111.24,7.36 110.808,7.324 110.376,7.324 C108.432,7.324 106.524,7.432 104.58,7.504 C102.348,7.612 100.152,7.756 97.92,7.936 C95.688,8.116 93.456,8.296 91.224,8.548 C88.92,8.764 86.652,9.052 84.348,9.304 C83.232,9.412 82.08,9.484 80.964,9.664 C80.064,9.772 79.128,9.952 78.192,9.952 C77.868,9.916 77.472,9.808 77.292,9.484 C77.148,9.196 77.436,8.98 77.724,8.98 C78.516,9.016 79.344,8.872 80.136,8.764 C81.036,8.62 81.972,8.548 82.872,8.44 C84.888,8.26 86.868,8.008 88.884,7.756 C93.312,7.252 97.776,6.892 102.24,6.64 C104.544,6.496 106.848,6.388 109.152,6.388 C111.204,6.352 113.292,6.388 115.344,6.676 C115.632,6.712 115.956,6.856 116.064,7.108 Z M94.122,9.538 L94.14,9.52 L94.122,9.538 Z M94.122,9.538 L94.104,9.556 C94.14,9.448 94.284,9.412 94.392,9.412 C94.68,9.412 94.968,9.556 95.076,9.844 C95.184,10.06 95.04,10.312 94.968,10.528 C94.788,10.96 94.536,11.356 94.284,11.752 C94.068,12.112 93.78,12.472 93.528,12.832 C93.276,13.264 92.988,13.696 92.7,14.092 C91.62,15.784 90.54,17.44 89.496,19.132 L87.696,22.12 L85.896,25.072 C84.78,27.016 83.736,29.032 82.944,31.156 C82.8,31.516 82.188,31.408 81.936,31.192 C81.72,31.012 81.54,30.796 81.576,30.472 C81.612,30.292 81.756,30.148 81.792,30.04 C81.864,29.896 81.972,29.824 82.116,29.824 C83.376,26.8 85.104,23.92 86.832,21.148 L88.668,18.16 C89.28,17.152 89.928,16.144 90.576,15.172 L92.52,12.184 C92.808,11.716 93.132,11.32 93.42,10.852 C93.528,10.636 93.672,10.42 93.78,10.168 L93.924,9.808 C93.96,9.736 93.96,9.664 94.032,9.628 L94.122,9.538 Z M102.6,18.844 C102.924,18.628 103.788,19.06 103.356,19.42 C102.708,19.96 101.916,20.32 101.124,20.644 C100.332,20.968 99.504,21.256 98.64,21.436 C98.316,21.472 97.848,21.58 97.416,21.616 C97.236,21.868 97.056,22.12 96.84,22.372 C96.48,22.84 96.12,23.272 95.724,23.704 C95.256,24.208 94.716,24.712 94.068,24.964 C93.456,25.216 92.736,25.36 92.124,25 C91.836,24.82 91.62,24.568 91.548,24.208 C91.476,23.92 91.512,23.596 91.584,23.308 C91.8,22.372 92.304,21.508 92.844,20.752 C93.456,19.96 94.176,19.24 95.04,18.736 C95.256,18.628 95.58,18.7 95.76,18.844 C96.048,19.06 95.904,19.456 95.58,19.456 C94.968,19.96 94.428,20.536 93.924,21.184 C93.42,21.832 92.952,22.588 92.736,23.416 C92.7,23.56 92.628,23.74 92.628,23.92 L92.628,24.208 C92.628,24.388 92.808,24.388 92.916,24.388 C92.988,24.388 93.024,24.352 93.096,24.352 C93.132,24.352 93.312,24.244 93.204,24.316 L93.384,24.208 C93.96,23.92 94.356,23.524 94.824,23.056 C95.22,22.588 95.652,22.12 96.012,21.616 C96.12,21.472 96.228,21.364 96.3,21.256 L96.192,21.148 C95.976,20.896 95.904,20.572 95.904,20.248 C95.904,20.032 95.904,19.744 96.012,19.528 C96.12,19.204 96.372,18.88 96.66,18.7 C97.128,18.448 97.704,18.592 97.992,19.024 C98.352,19.528 98.208,20.104 97.992,20.644 L97.992,20.68 L98.064,20.68 C98.928,20.5 99.756,20.212 100.584,19.888 L101.664,19.384 C101.988,19.204 102.312,19.06 102.6,18.844 Z M97.056,19.24 L97.02,19.24 L97.056,19.24 Z M114.516,19.204 C114.66,19.276 114.912,19.528 114.732,19.708 C113.652,20.788 112.464,21.724 111.204,22.624 C109.98,23.488 108.648,24.316 107.28,24.892 C106.092,25.432 104.724,25.9 103.428,25.648 C103.212,25.612 102.96,25.504 102.852,25.288 C102.78,25.144 102.816,25.036 102.96,24.928 C102.996,24.928 103.032,24.892 103.068,24.856 C103.068,24.856 103.104,24.856 103.104,24.82 C103.104,24.82 103.14,24.82 103.14,24.784 L103.464,24.496 L104.292,23.704 C104.94,23.056 105.552,22.372 106.128,21.616 L106.596,20.968 L106.812,20.608 C106.812,20.572 106.848,20.572 106.848,20.536 L106.92,20.392 C106.992,20.212 107.064,20.032 107.1,19.852 C107.136,19.816 107.136,19.744 107.136,19.708 L107.136,19.6 C107.136,19.564 107.1,19.528 107.028,19.528 L106.848,19.528 C106.776,19.528 106.74,19.528 106.704,19.564 L106.668,19.564 C106.596,19.564 106.524,19.564 106.452,19.6 C106.38,19.6 106.308,19.636 106.236,19.672 C106.2,19.672 106.164,19.672 106.128,19.708 C105.804,19.852 105.516,19.996 105.264,20.212 C104.94,20.428 104.76,20.536 104.508,20.824 C104.256,21.04 104.004,21.292 103.788,21.544 C103.392,22.012 102.996,22.48 102.672,22.984 C102.492,23.236 102.312,23.488 102.168,23.74 L101.016,25.468 C100.296,27.34 99.54,29.176 98.856,31.012 C98.496,31.912 98.208,32.812 97.776,33.676 C97.38,34.504 96.912,35.296 96.228,35.908 C95.94,36.196 95.364,36.052 95.184,35.692 C94.896,35.044 94.968,34.288 95.112,33.64 C95.292,32.848 95.58,32.092 95.94,31.372 C96.264,30.652 96.696,29.968 97.092,29.284 C97.668,28.384 98.244,27.484 98.856,26.584 L100.116,24.712 L100.188,24.496 C100.548,23.524 100.98,22.552 101.34,21.58 C101.664,20.752 101.988,19.852 102.132,18.988 C102.06,18.952 102.024,18.88 101.988,18.808 C101.952,18.772 101.952,18.664 101.988,18.628 L102.06,18.556 L102.06,18.592 C102.096,18.52 102.168,18.484 102.24,18.448 C102.276,18.448 102.348,18.412 102.384,18.412 C102.564,18.376 102.708,18.412 102.888,18.484 C102.96,18.52 103.14,18.664 103.14,18.808 C103.104,19.6 102.888,20.356 102.672,21.112 C102.996,20.716 103.356,20.392 103.716,20.068 C104.256,19.6 104.832,19.168 105.516,18.916 C106.092,18.736 106.848,18.628 107.424,18.844 C107.856,19.024 108.288,19.348 108.288,19.852 C108.288,20.284 108.072,20.68 107.856,21.076 C107.316,22.048 106.524,22.912 105.768,23.74 C105.444,24.136 105.048,24.496 104.688,24.856 C104.868,24.82 105.048,24.784 105.192,24.712 C105.588,24.604 105.984,24.46 106.344,24.316 C106.272,24.352 106.416,24.28 106.452,24.28 C106.488,24.244 106.56,24.208 106.596,24.208 L107.46,23.776 C108.792,23.092 110.052,22.264 111.276,21.328 C111.564,21.148 111.852,20.932 112.104,20.716 L112.5,20.392 L112.788,20.176 C113.148,19.888 113.508,19.564 113.832,19.24 C114.012,19.06 114.3,19.096 114.516,19.204 Z M97.668,30.94 L98.064,29.968 C97.776,30.436 97.524,30.868 97.272,31.336 C96.876,32.092 96.516,32.884 96.3,33.676 C96.264,33.856 96.228,34.072 96.192,34.288 C96.84,33.244 97.236,32.056 97.668,30.94 Z M115.56,19.024 L115.344,19.24 L115.2,19.348 L114.804,19.708 C114.192,20.32 113.616,20.968 113.148,21.688 C112.86,22.084 112.644,22.48 112.5,22.804 C112.284,23.2 112.068,23.632 111.96,24.064 C111.924,24.208 111.888,24.352 111.888,24.46 C111.924,24.568 112.032,24.568 112.14,24.532 L112.572,24.424 C113.148,24.28 113.724,23.992 114.3,23.776 L115.02,23.416 C115.344,23.272 115.884,22.984 116.352,22.696 C116.46,22.624 116.64,22.552 116.712,22.48 L118.8,21.184 C119.16,20.896 119.628,20.644 120.024,20.392 C120.672,19.924 121.104,19.672 121.536,19.456 C121.788,19.384 122.58,19.708 122.256,20.068 C122.04,20.32 121.68,20.536 121.284,20.788 C120.42,21.364 120.168,21.472 120.06,21.58 C118.872,22.372 117.684,23.128 116.1,23.956 C115.668,24.172 115.02,24.496 114.552,24.676 C113.724,25.036 111.492,26.008 110.844,24.748 C110.736,24.496 110.736,24.172 110.808,23.92 C110.916,23.524 111.096,23.056 111.312,22.696 C111.744,21.868 112.248,21.04 112.752,20.392 C113.004,20.068 113.292,19.708 113.616,19.42 L114.156,18.916 L114.804,18.448 C114.948,18.376 115.2,18.376 115.38,18.484 L115.344,18.484 C115.452,18.556 115.596,18.736 115.56,19.024 Z M115.776,17.404 C115.596,17.368 115.38,17.152 115.38,16.936 C115.416,16.828 115.524,16.72 115.668,16.612 C115.704,16.612 115.812,16.54 115.848,16.504 L116.028,16.396 L116.316,16.18 L116.604,15.928 C116.82,15.748 117.252,15.892 117.396,16.036 C117.504,16.108 117.72,16.36 117.54,16.54 L117.18,16.828 L116.856,17.08 C116.532,17.296 116.208,17.512 115.776,17.404 Z M124.164,19.456 C124.02,19.672 123.66,19.564 123.516,19.384 C123.444,19.456 123.3,19.492 123.228,19.564 C123.012,19.708 122.652,19.924 122.436,20.14 L122.148,20.356 C121.86,20.644 121.752,20.752 121.464,21.076 C121.032,21.544 120.636,22.012 120.276,22.516 C119.736,23.308 119.628,23.344 119.484,23.776 C119.412,23.92 119.376,24.136 119.376,24.388 C119.376,24.496 119.304,24.784 120.456,24.424 C121.104,24.208 121.248,24.1 121.356,24.064 L122.184,23.704 L122.616,23.488 C123.3,23.092 123.948,22.732 124.596,22.3 L126.468,21.004 C126.468,21.004 126.612,20.896 126.648,20.86 L127.656,20.068 C128.124,19.636 128.232,19.636 128.556,19.312 C128.7,19.24 128.916,19.24 129.06,19.312 C129.204,19.42 129.384,19.6 129.42,19.744 C129.348,19.888 129.168,20.14 129.024,20.284 L128.52,20.752 L128.088,21.076 C127.764,21.292 127.476,21.544 127.152,21.76 L126.288,22.408 C124.812,23.416 123.12,24.46 121.212,25.108 C120.6,25.324 119.808,25.432 119.16,25.216 C118.656,25.036 118.116,24.676 118.152,24.064 C118.188,23.632 118.512,23.056 118.728,22.66 C119.376,21.652 120.204,20.788 121.032,19.96 C121.644,19.348 122.796,18.232 123.804,18.556 C124.02,18.628 124.272,18.772 124.308,19.024 C124.344,19.168 124.272,19.312 124.164,19.456 Z" id="Women’sTopic"></path>
                </g>
            </g>
        </g>
    </g>
</svg>