<?xml version="1.0" encoding="UTF-8"?>
<svg width="178px" height="37px" viewBox="0 0 178 37" version="1.1" xmlns="http://www.w3.org/2000/svg" xmlns:xlink="http://www.w3.org/1999/xlink">
    <!-- Generator: Sketch 51.2 (57519) - http://www.bohemiancoding.com/sketch -->
    <title>What is Loverage?</title>
    <desc>Created with Sketch.</desc>
    <defs></defs>
    <g id="SP" stroke="none" stroke-width="1" fill="none" fill-rule="evenodd">
        <g id="トップ" transform="translate(-82.000000, -3222.000000)" fill="#777777">
            <path d="M91.924,3228.9405 C91.933,3228.945 91.942,3228.954 91.96,3228.972 C91.942,3228.954 91.924,3228.945 91.9105,3228.9405 L91.924,3228.9405 Z M91.924,3228.9405 C91.915,3228.936 91.906,3228.936 91.888,3228.936 C91.888,3228.936 91.897,3228.936 91.9105,3228.9405 L91.924,3228.9405 Z M91.5729534,3228.87488 C91.6086677,3228.88548 91.6914506,3228.9 91.6,3228.9 L91.168,3228.9 C91.096,3228.972 91.024,3228.972 90.952,3229.008 L90.448,3229.116 L89.98,3229.332 C89.8,3229.404 89.62,3229.548 89.476,3229.656 C88.144,3230.592 87.136,3231.96 86.308,3233.4 C85.876,3234.048 85.552,3234.804 85.228,3235.488 L85.084,3235.74 C85.084,3235.776 85.048,3235.884 85.012,3235.92 C85.012,3235.992 85.012,3236.028 84.976,3236.1 C84.868,3236.316 84.76,3236.532 84.688,3236.748 C84.472,3237.36 84.256,3237.972 84.148,3238.584 C84.148,3238.728 84.112,3238.872 84.112,3239.016 C84.112,3239.088 84.076,3239.124 84.076,3239.196 L84.076,3239.304 C84.076,3239.34 84.112,3239.412 84.112,3239.448 C84.112,3239.628 84.472,3239.736 84.256,3239.988 C84.112,3240.204 83.716,3240.168 83.5,3240.06 C82.924,3239.808 82.852,3239.304 82.888,3238.764 C82.96,3238.152 83.104,3237.612 83.248,3237.108 L83.788,3235.632 C83.932,3235.272 84.04,3235.056 84.148,3234.84 L84.688,3233.724 C85.444,3232.212 86.416,3230.772 87.676,3229.656 C88.288,3229.08 89.008,3228.648 89.728,3228.324 C90.34,3228.108 91.06,3228 91.708,3228.072 C92.284,3228.216 92.86,3228.396 93.256,3228.9 C93.58,3229.296 93.76,3229.764 93.868,3230.268 C94.084,3231.348 93.976,3232.5 93.796,3233.544 C93.652,3234.444 93.4,3235.308 93.112,3236.172 C92.392,3238.512 91.672,3240.888 90.988,3243.228 C90.916,3243.66 90.772,3244.092 90.664,3244.488 C91.096,3243.768 91.564,3243.048 91.996,3242.364 C93.184,3240.6 94.444,3238.872 95.776,3237.216 L96.856,3235.956 C97.18,3235.56 97.54,3235.164 97.936,3234.768 C98.584,3234.12 99.16,3233.364 100.096,3233.004 C100.312,3232.896 100.636,3232.968 100.852,3233.112 C100.96,3233.22 101.104,3233.4 101.068,3233.544 C100.384,3235.38 99.772,3237.18 99.232,3239.016 C98.584,3240.96 97.828,3242.868 97.36,3244.848 C96.856,3246.648 96.568,3248.484 96.424,3250.392 C96.928,3248.484 97.648,3246.612 98.512,3244.92 C99.268,3243.192 100.204,3241.536 101.248,3239.916 C102.328,3238.296 102.436,3237.864 104.596,3235.02 C105.82,3233.4 107.152,3231.744 108.556,3230.232 C110.032,3228.576 111.652,3226.992 113.272,3225.408 C114.46,3224.292 115.72,3222.708 117.124,3222.348 C117.448,3222.276 117.88,3222.348 118.096,3222.708 L118.24,3223.032 C118.42,3223.32 118.168,3223.5 117.952,3223.5 C117.772,3223.536 117.556,3223.5 117.34,3223.392 C117.268,3223.428 117.196,3223.5 117.052,3223.572 C116.728,3223.788 116.476,3224.04 116.188,3224.256 C114.784,3225.624 113.344,3226.92 111.976,3228.36 L109.6,3230.808 C108.952,3231.6 108.268,3232.284 107.62,3233.112 C105.244,3236.028 103.516,3238.512 100.888,3242.976 C99.952,3244.596 99.16,3246.288 98.512,3248.088 C97.828,3249.924 97.108,3251.904 97.216,3253.956 C97.324,3254.1 97.396,3254.28 97.396,3254.46 C97.504,3254.856 96.892,3254.82 96.676,3254.784 C96.46,3254.712 96.28,3254.604 96.1,3254.532 C94.84,3253.776 95.02,3252.084 95.092,3250.932 C95.2,3248.772 95.56,3246.648 96.1,3244.596 C96.604,3242.58 97.324,3240.636 97.936,3238.656 C98.332,3237.54 98.728,3236.388 99.124,3235.272 C98.512,3235.92 97.972,3236.496 97.432,3237.144 C96.244,3238.548 95.128,3239.988 94.084,3241.464 C92.932,3243.084 91.852,3244.74 90.988,3246.432 C90.196,3247.908 89.476,3249.564 89.296,3251.292 C89.296,3251.436 89.26,3251.58 89.26,3251.688 C89.26,3251.724 89.26,3251.76 89.224,3251.796 C89.224,3252.084 88.72,3252.048 88.54,3251.976 C88.396,3251.976 88,3251.796 88.036,3251.544 L88.036,3251.4 C88.072,3250.068 88.252,3248.808 88.504,3247.512 C89.044,3245.316 89.692,3243.048 90.376,3240.852 C90.736,3239.556 91.132,3238.296 91.492,3237.072 C91.78,3236.172 92.068,3235.344 92.32,3234.48 C92.428,3233.976 92.536,3233.472 92.608,3232.968 L92.68,3232.14 C92.716,3231.996 92.752,3231.852 92.716,3231.708 C92.752,3231.636 92.752,3231.564 92.752,3231.492 L92.752,3231.384 C92.716,3230.88 92.716,3230.376 92.608,3229.872 L92.464,3229.692 L92.5,3229.692 C92.464,3229.656 92.464,3229.656 92.464,3229.62 L92.356,3229.368 L92.248,3229.224 L92.248,3229.188 L92.104,3229.08 C91.996,3228.972 92.248,3229.152 92.104,3229.044 L91.96,3228.972 C91.96,3228.936 91.96,3228.972 91.996,3228.972 L91.96,3228.936 L91.888,3228.936 C91.852,3228.936 91.852,3228.9 91.816,3228.9 L91.744,3228.9 C91.7125744,3228.9 91.6537165,3228.9 91.6153194,3228.87605 L91.5729534,3228.87488 Z M116.98,3240.06 C117.268,3239.808 118.096,3240.276 117.7,3240.6 C117.736,3240.564 117.664,3240.636 117.628,3240.636 C117.628,3240.672 117.592,3240.672 117.556,3240.708 C117.52,3240.744 117.448,3240.78 117.412,3240.852 C117.232,3240.96 117.088,3241.104 116.944,3241.212 C116.656,3241.464 116.332,3241.716 116.008,3241.932 C115.288,3242.472 114.568,3243.012 113.848,3243.516 L112.12,3244.632 C111.472,3245.064 110.752,3245.496 110.032,3245.784 C109.528,3246 108.844,3246.144 108.34,3245.856 C107.908,3245.604 107.8,3245.208 107.872,3244.74 C107.944,3244.308 108.16,3243.876 108.34,3243.48 L109.096,3241.968 C109.348,3241.5 109.6,3241.032 109.78,3240.564 C109.816,3240.528 109.816,3240.492 109.816,3240.492 C109.24,3240.852 108.808,3241.284 108.304,3241.788 C107.728,3242.364 107.188,3242.94 106.684,3243.552 C105.784,3244.596 104.956,3245.748 103.948,3246.684 C103.768,3246.9 103.444,3246.864 103.228,3246.72 C103.084,3246.648 102.904,3246.504 102.94,3246.288 C103.3,3244.812 103.984,3243.444 104.668,3242.076 L106.72,3238.08 C107.764,3236.1 108.844,3234.192 110.176,3232.392 C110.392,3232.104 110.608,3231.852 110.824,3231.528 L111.4,3230.736 C111.832,3230.196 112.372,3229.62 113.128,3229.692 C113.344,3229.728 113.596,3229.836 113.668,3230.052 C113.704,3230.052 113.704,3230.088 113.704,3230.088 C113.74,3230.16 113.74,3230.268 113.704,3230.304 L113.452,3230.484 C113.38,3230.52 113.272,3230.52 113.2,3230.484 L113.164,3230.484 L113.056,3230.556 L112.876,3230.7 L112.66,3230.916 C112.372,3231.24 112.12,3231.6 111.868,3231.96 L111.004,3233.112 C110.608,3233.652 110.212,3234.228 109.852,3234.804 C108.664,3236.676 107.692,3238.62 106.684,3240.564 C106.144,3241.644 105.568,3242.724 105.028,3243.84 C105.676,3243.12 106.324,3242.364 106.972,3241.644 C107.476,3241.104 108.016,3240.6 108.592,3240.132 C109.06,3239.772 109.6,3239.448 110.176,3239.34 C110.428,3239.268 110.896,3239.34 111.004,3239.664 C111.112,3239.952 111.04,3240.312 110.932,3240.6 C110.824,3240.996 110.644,3241.392 110.464,3241.752 C109.96,3242.724 109.384,3243.66 109.06,3244.668 L108.952,3244.956 L108.952,3245.1 C108.952,3245.316 109.24,3245.136 109.42,3245.064 C109.456,3245.028 109.492,3245.028 109.492,3245.028 C109.528,3245.028 109.564,3244.992 109.636,3244.992 L109.852,3244.848 L110.392,3244.596 L111.4,3243.948 C111.976,3243.588 112.552,3243.228 113.128,3242.832 L115.252,3241.284 C115.828,3240.888 116.44,3240.492 116.98,3240.06 Z M127.636,3240.42 C127.816,3240.492 128.104,3240.78 127.924,3240.924 C126.736,3241.968 125.656,3242.94 124.324,3243.804 C123.712,3244.2 123.424,3244.416 122.956,3244.668 C121.516,3245.46 121.012,3245.676 120.472,3245.784 C119.608,3245.892 118.492,3245.784 118.024,3244.992 C117.736,3244.56 117.808,3243.984 117.952,3243.48 C117.628,3243.876 117.268,3244.2 116.872,3244.56 C116.512,3244.884 116.188,3245.316 115.828,3245.568 C115.54,3245.82 115.216,3246 114.82,3246.144 C114.388,3246.324 113.884,3246.324 113.416,3246 C113.092,3245.748 112.948,3245.316 112.948,3244.92 C112.984,3244.02 113.524,3243.3 114.028,3242.616 C114.604,3241.896 115.252,3241.248 116.008,3240.708 C116.548,3240.312 117.16,3240.024 117.916,3239.772 C118.168,3239.7 118.528,3239.628 118.816,3239.664 C119.14,3239.772 119.608,3240.024 119.428,3240.42 C119.32,3240.672 119.032,3240.672 118.816,3240.564 C118.744,3240.564 118.708,3240.528 118.636,3240.492 L118.6,3240.492 C118.564,3240.528 118.492,3240.492 118.456,3240.528 C118.42,3240.528 118.24,3240.6 118.312,3240.564 C117.736,3240.816 117.196,3241.14 116.692,3241.5 C116.26,3241.86 115.72,3242.328 115.288,3242.868 C114.856,3243.372 114.388,3243.912 114.172,3244.596 C114.064,3244.884 113.992,3245.208 114.1,3245.496 C114.136,3245.496 114.172,3245.496 114.208,3245.46 C114.604,3245.244 114.892,3245.064 115.18,3244.776 C115.576,3244.452 115.936,3244.092 116.26,3243.732 L118.348,3241.5 L119.464,3240.492 L119.5,3240.456 C119.752,3240.132 120.076,3239.844 120.292,3239.52 C120.544,3239.232 121.372,3239.484 121.372,3239.88 L121.372,3239.916 C121.372,3239.988 121.264,3240.132 121.192,3240.204 C121.156,3240.276 121.084,3240.312 121.048,3240.384 C120.76,3240.744 120.616,3240.78 119.932,3241.824 C119.824,3242.004 119.68,3242.184 119.608,3242.364 C119.392,3242.796 119.176,3243.264 119.068,3243.66 L118.96,3244.02 C118.708,3244.668 119.248,3245.244 120.112,3244.992 C120.832,3244.776 121.444,3244.416 122.2,3244.02 C123.964,3243.084 125.404,3241.752 126.916,3240.42 C127.168,3240.276 127.456,3240.312 127.636,3240.42 Z M131.164232,3235.596 C131.920162,3235.59601 132.712081,3235.632 133.504,3235.632 C134.44,3235.632 135.412,3235.596 136.348,3235.704 C136.564,3235.74 136.852,3235.884 136.96,3236.1 C137.032,3236.28 136.924,3236.496 136.708,3236.532 C136.096,3236.64 135.52,3236.856 134.872,3236.964 C134.584,3237 134.26,3236.928 134.08,3236.712 C134.008,3236.64 133.972,3236.568 133.972,3236.46 L130.66,3236.46 C130.012,3237.648 129.292,3238.872 128.644,3240.06 C127.888,3241.536 127.096,3243.012 126.556,3244.596 C126.448,3244.92 126.34,3245.244 126.304,3245.64 L126.304,3245.676 C126.304,3246.324 126.916,3246.072 127.312,3245.964 C127.816,3245.82 128.32,3245.64 128.896,3245.352 C131.812,3243.948 134.656,3242.076 137.176,3240.096 C137.392,3239.916 137.824,3240.06 138.004,3240.204 C138.148,3240.312 138.328,3240.564 138.148,3240.708 C137.392,3241.392 136.384,3242.004 135.556,3242.616 C134.692,3243.228 133.828,3243.768 132.892,3244.344 C131.596,3245.136 130.3,3245.892 128.896,3246.468 C127.96,3246.828 126.736,3247.224 125.8,3246.72 C125.404,3246.504 125.116,3246.144 125.08,3245.676 C125.044,3245.136 125.26,3244.56 125.44,3244.056 C125.98,3242.472 126.772,3240.996 127.6,3239.52 C128.14,3238.476 128.716,3237.468 129.328,3236.46 L128.644,3236.46 C126.556,3236.46 124.504,3236.46 122.452,3236.496 C120.472,3236.496 118.492,3236.532 116.512,3236.532 C115.036,3236.532 113.56,3236.568 112.048,3236.568 L110.788,3236.568 C110.356,3236.604 109.744,3236.64 109.6,3236.1 C109.564,3235.992 109.672,3235.884 109.744,3235.812 C109.816,3235.74 109.96,3235.74 110.068,3235.74 L110.014,3235.74 L110.14,3235.74 C111.292,3235.704 112.444,3235.704 113.632,3235.704 C114.208,3235.704 114.82,3235.704 122.272,3235.632 L128.428,3235.632 C128.896,3235.632 129.364,3235.632 129.832,3235.596 C129.94,3235.38 130.084,3235.164 130.228,3234.912 C130.3,3234.732 130.408,3234.552 130.516,3234.372 L130.732,3233.976 C130.948,3233.58 131.2,3233.184 131.452,3232.788 L132.316,3231.492 L132.82,3230.844 L133.072,3230.556 C133.18,3230.412 133.288,3230.376 133.504,3230.34 C133.72,3230.34 133.936,3230.412 134.044,3230.556 C134.152,3230.664 134.152,3230.808 134.08,3230.952 C133.432,3231.744 132.928,3232.644 132.388,3233.472 C132.28,3233.688 132.1,3233.904 131.992,3234.084 L131.776,3234.516 C131.596,3234.876 131.416,3235.2 131.2,3235.524 C131.2,3235.55414 131.174768,3235.58428 131.166552,3235.59329 L131.164232,3235.596 Z M110.014,3235.74 L109.996,3235.74 L110.014,3235.74 Z M148.588,3240.024 L148.372,3240.24 L148.228,3240.348 L147.832,3240.708 C147.22,3241.32 146.644,3241.968 146.176,3242.688 C145.888,3243.084 145.672,3243.48 145.528,3243.804 C145.312,3244.2 145.096,3244.632 144.988,3245.064 C144.952,3245.208 144.916,3245.352 144.916,3245.46 C144.952,3245.568 145.06,3245.568 145.168,3245.532 L145.6,3245.424 C146.176,3245.28 146.752,3244.992 147.328,3244.776 L148.048,3244.416 C148.372,3244.272 148.912,3243.984 149.38,3243.696 C149.488,3243.624 149.668,3243.552 149.74,3243.48 L151.828,3242.184 C152.188,3241.896 152.656,3241.644 153.052,3241.392 C153.7,3240.924 154.132,3240.672 154.564,3240.456 C154.816,3240.384 155.608,3240.708 155.284,3241.068 C155.068,3241.32 154.708,3241.536 154.312,3241.788 C153.448,3242.364 153.196,3242.472 153.088,3242.58 C151.9,3243.372 150.712,3244.128 149.128,3244.956 C148.696,3245.172 148.048,3245.496 147.58,3245.676 C146.752,3246.036 144.52,3247.008 143.872,3245.748 C143.764,3245.496 143.764,3245.172 143.836,3244.92 C143.944,3244.524 144.124,3244.056 144.34,3243.696 C144.772,3242.868 145.276,3242.04 145.78,3241.392 C146.032,3241.068 146.32,3240.708 146.644,3240.42 L147.184,3239.916 L147.832,3239.448 C147.976,3239.376 148.228,3239.376 148.408,3239.484 L148.372,3239.484 C148.48,3239.556 148.624,3239.736 148.588,3240.024 Z M148.804,3238.404 C148.624,3238.368 148.408,3238.152 148.408,3237.936 C148.444,3237.828 148.552,3237.72 148.696,3237.612 C148.732,3237.612 148.84,3237.54 148.876,3237.504 L149.056,3237.396 L149.344,3237.18 L149.632,3236.928 C149.848,3236.748 150.28,3236.892 150.424,3237.036 C150.532,3237.108 150.748,3237.36 150.568,3237.54 L150.208,3237.828 L149.884,3238.08 C149.56,3238.296 149.236,3238.512 148.804,3238.404 Z M164.032,3240.42 C164.176,3240.528 164.212,3240.672 164.104,3240.852 C163.888,3241.14 163.636,3241.32 163.312,3241.608 C163.06,3241.824 162.808,3242.076 162.52,3242.292 C161.944,3242.724 161.692,3242.976 161.08,3243.408 C160.216,3244.02 159.316,3244.596 158.344,3245.136 C157.048,3245.82 156.22,3246.216 154.78,3246.432 C154.492,3246.468 154.168,3246.504 153.88,3246.504 L153.772,3246.828 C153.736,3246.972 153.628,3247.116 153.52,3247.224 C153.484,3247.296 153.376,3247.332 153.268,3247.332 C153.016,3247.44 152.728,3247.332 152.512,3247.224 C152.26,3247.08 152.044,3246.864 151.864,3246.648 L151.072,3245.928 C150.856,3245.64 150.604,3245.388 150.352,3245.1 C150.244,3244.992 150.1,3244.848 150.028,3244.74 C149.956,3244.668 149.884,3244.524 149.848,3244.416 C149.812,3244.38 149.812,3244.344 149.812,3244.308 C149.74,3244.164 149.92,3244.056 150.028,3244.02 C150.316,3243.948 150.784,3244.02 150.892,3244.308 C150.964,3244.38 151,3244.452 151.072,3244.524 C151.144,3244.596 151.216,3244.668 151.288,3244.776 C151.324,3244.776 151.396,3244.884 151.396,3244.884 L151.54,3244.992 L151.936,3245.28 L152.08,3245.352 C152.188,3245.424 152.296,3245.46 152.404,3245.496 C152.44,3245.496 152.512,3245.532 152.512,3245.532 L152.656,3245.604 L152.872,3245.64 C153.232,3244.272 153.52,3242.976 154.096,3241.68 C154.672,3240.42 155.572,3239.232 156.94,3238.764 C157.264,3238.692 157.696,3238.836 157.84,3239.124 C157.948,3239.34 157.804,3239.484 157.588,3239.556 L157.624,3239.556 L157.48,3239.628 C157.444,3239.628 157.336,3239.7 157.444,3239.628 L157.192,3239.736 L156.76,3240.024 C156.724,3240.06 156.616,3240.132 156.436,3240.312 L156.112,3240.672 L155.572,3241.464 L155.356,3241.896 L155.14,3242.364 L154.78,3243.372 C154.528,3244.02 154.348,3244.74 154.168,3245.424 C154.132,3245.496 154.132,3245.568 154.096,3245.676 C154.744,3245.676 155.428,3245.424 156.112,3245.208 C156.76,3244.992 156.904,3244.92 157.048,3244.848 C157.804,3244.452 158.02,3244.308 158.668,3243.912 C159.424,3243.444 160.036,3242.976 160.756,3242.436 L161.944,3241.5 C162.376,3241.176 162.844,3240.672 163.312,3240.348 C163.528,3240.204 163.816,3240.276 164.032,3240.42 Z M196.936,3250.104 C197.008,3250.284 197.044,3250.464 196.864,3250.608 C196.72,3250.752 196.504,3250.824 196.288,3250.824 C196.036,3250.824 195.748,3250.752 195.532,3250.536 L194.704,3250.5 C194.452,3250.464 194.164,3250.464 193.876,3250.464 C193.66,3250.428 194.02,3250.464 193.804,3250.428 L193.192,3250.428 C192.112,3250.428 191.032,3250.428 189.952,3250.5 C185.524,3250.752 181.204,3251.472 176.884,3252.3 C174.688,3252.696 172.492,3253.128 170.332,3253.668 C169.252,3253.956 168.172,3254.244 167.092,3254.604 C166.552,3254.748 166.012,3254.928 165.508,3255.108 L164.68,3255.432 C164.608,3255.432 164.5,3255.468 164.392,3255.504 C164.248,3255.576 164.068,3255.612 163.924,3255.648 L163.852,3255.648 C163.636,3255.684 163.384,3255.612 163.276,3255.432 C163.168,3255.324 163.132,3255.18 163.24,3255.108 C163.348,3254.964 163.492,3254.928 163.636,3254.856 C163.78,3254.784 163.924,3254.748 164.032,3254.676 L164.86,3254.352 L166.48,3253.812 C167.596,3253.452 168.712,3253.092 169.828,3252.804 C171.988,3252.264 174.148,3251.796 176.344,3251.4 C178.54,3251.004 180.7,3250.608 182.896,3250.284 C187.288,3249.6 191.788,3249.204 196.216,3249.672 C196.468,3249.672 196.828,3249.852 196.936,3250.104 Z M171.268,3251.4 L171.232,3251.364 C171.304,3251.472 171.268,3251.436 171.268,3251.4 Z M171.232,3250.932 C171.232,3250.824 171.268,3250.716 171.304,3250.572 C171.376,3250.284 171.52,3249.96 171.628,3249.672 C172.024,3248.772 172.492,3247.944 172.96,3247.08 C174.112,3244.992 175.372,3242.976 176.668,3240.96 C177.604,3239.448 178.612,3237.972 179.584,3236.496 L181.996,3233.076 C182.68,3232.104 183.328,3231.132 184.012,3230.196 L185.056,3228.792 L185.596,3228.036 C185.668,3227.928 185.74,3227.82 185.848,3227.712 L185.848,3227.496 C185.884,3227.244 186.388,3227.28 186.532,3227.316 C186.712,3227.388 187.036,3227.532 187,3227.748 C187,3227.856 187.036,3227.964 187,3228.072 C186.964,3228.18 186.892,3228.252 186.82,3228.36 L186.352,3228.972 L185.452,3230.232 L181.456,3235.956 C181.06,3236.496 180.664,3237.072 180.304,3237.648 C179.152,3239.34 178.036,3241.032 176.956,3242.76 L175.048,3245.892 L174.184,3247.404 L174.004,3247.764 C174.04,3247.656 173.968,3247.836 173.932,3247.872 L173.86,3248.016 C173.716,3248.232 173.608,3248.484 173.5,3248.7 C173.14,3249.384 172.78,3250.104 172.528,3250.824 L172.42,3251.22 C172.42,3251.256 172.42,3251.328 172.384,3251.364 L172.384,3251.4 C172.492,3251.472 172.564,3251.544 172.564,3251.688 C172.564,3251.832 172.456,3251.904 172.312,3251.976 L172.168,3251.976 C172.132,3252.012 172.096,3252.012 172.06,3252.012 L172.06,3251.976 C171.844,3251.976 171.592,3251.832 171.412,3251.688 C171.376,3251.652 171.304,3251.58 171.304,3251.508 L171.268,3251.4 C171.268,3251.364 171.232,3251.292 171.232,3251.292 L171.232,3250.932 Z M193.012,3239.844 C193.336,3239.628 194.2,3240.06 193.768,3240.42 C193.12,3240.96 192.328,3241.32 191.536,3241.644 C190.744,3241.968 189.916,3242.256 189.052,3242.436 C188.728,3242.472 188.26,3242.58 187.828,3242.616 C187.648,3242.868 187.468,3243.12 187.252,3243.372 C186.892,3243.84 186.532,3244.272 186.136,3244.704 C185.668,3245.208 185.128,3245.712 184.48,3245.964 C183.868,3246.216 183.148,3246.36 182.536,3246 C182.248,3245.82 182.032,3245.568 181.96,3245.208 C181.888,3244.92 181.924,3244.596 181.996,3244.308 C182.212,3243.372 182.716,3242.508 183.256,3241.752 C183.868,3240.96 184.588,3240.24 185.452,3239.736 C185.668,3239.628 185.992,3239.7 186.172,3239.844 C186.46,3240.06 186.316,3240.456 185.992,3240.456 C185.38,3240.96 184.84,3241.536 184.336,3242.184 C183.832,3242.832 183.364,3243.588 183.148,3244.416 C183.112,3244.56 183.04,3244.74 183.04,3244.92 L183.04,3245.208 C183.04,3245.388 183.22,3245.388 183.328,3245.388 C183.4,3245.388 183.436,3245.352 183.508,3245.352 C183.544,3245.352 183.724,3245.244 183.616,3245.316 L183.796,3245.208 C184.372,3244.92 184.768,3244.524 185.236,3244.056 C185.632,3243.588 186.064,3243.12 186.424,3242.616 C186.532,3242.472 186.64,3242.364 186.712,3242.256 L186.604,3242.148 C186.388,3241.896 186.316,3241.572 186.316,3241.248 C186.316,3241.032 186.316,3240.744 186.424,3240.528 C186.532,3240.204 186.784,3239.88 187.072,3239.7 C187.54,3239.448 188.116,3239.592 188.404,3240.024 C188.764,3240.528 188.62,3241.104 188.404,3241.644 L188.404,3241.68 L188.476,3241.68 C189.34,3241.5 190.168,3241.212 190.996,3240.888 L192.076,3240.384 C192.4,3240.204 192.724,3240.06 193.012,3239.844 Z M187.468,3240.24 L187.432,3240.24 L187.468,3240.24 Z M202.670498,3239.80057 C202.966695,3239.60312 203.735714,3240.06343 203.38,3240.348 C203.236,3240.528 202.984,3240.672 202.768,3240.78 L201.904,3241.212 C201.112,3241.536 200.32,3241.824 199.492,3242.004 C199.024,3242.076 198.556,3242.148 198.088,3242.148 C197.728,3242.148 197.368,3242.112 197.044,3242.004 C196.792,3242.22 196.576,3242.472 196.324,3242.688 C195.64,3243.3 194.956,3243.948 194.236,3244.488 C193.408,3245.172 192.508,3245.82 191.644,3246.468 C191.464,3246.576 191.14,3246.504 190.96,3246.432 C190.816,3246.36 190.636,3246.216 190.636,3246.036 C190.708,3244.956 191.068,3243.912 191.5,3242.94 C191.716,3242.436 191.932,3241.968 192.112,3241.464 L192.436,3240.672 C192.508,3240.42 192.58,3240.168 192.724,3239.952 C192.94,3239.628 193.84,3239.916 193.696,3240.312 C193.66,3240.564 193.588,3240.852 193.516,3241.068 C193.408,3241.32 193.336,3241.572 193.228,3241.788 C193.048,3242.292 192.832,3242.76 192.616,3243.228 C192.4,3243.768 192.184,3244.344 192.004,3244.884 C192.58,3244.488 193.12,3244.092 193.66,3243.66 C194.308,3243.12 194.92,3242.544 195.532,3241.968 C195.784,3241.752 196,3241.536 196.216,3241.32 C196.108,3241.068 196.036,3240.78 196.108,3240.456 C196.216,3239.88 196.54,3239.376 196.936,3238.944 C197.332,3238.548 197.8,3238.188 198.412,3238.116 C198.664,3238.116 199.132,3238.26 199.132,3238.584 C199.132,3238.728 199.132,3238.908 199.096,3239.052 C198.952,3239.772 198.484,3240.456 198.016,3240.996 C197.908,3241.14 197.764,3241.248 197.656,3241.392 C197.872,3241.392 198.052,3241.392 198.268,3241.356 C199.132,3241.284 199.996,3241.032 200.86,3240.672 C201.148,3240.564 201.544,3240.384 201.868,3240.204 C202.38699,3239.89261 202.739714,3239.74748 202.670498,3239.80057 Z M201.976,3243.408 C201.616,3243.588 201.04,3243.66 200.608,3243.48 L200.536,3243.552 C200.464,3243.696 200.392,3243.84 200.356,3244.02 C200.32,3244.056 200.32,3244.092 200.32,3244.128 C200.32,3244.164 200.284,3244.2 200.284,3244.236 L200.248,3244.38 C200.248,3244.632 200.212,3244.884 200.464,3245.1 C200.536,3245.136 200.608,3245.172 200.68,3245.172 L201.004,3245.172 C201.868,3245.1 202.48,3244.884 203.236,3244.56 C205,3243.768 206.62,3242.724 208.564,3241.392 C208.96,3241.104 209.464,3240.816 209.824,3240.528 C210.004,3240.42 210.256,3240.24 210.508,3240.168 C210.58,3240.132 210.652,3240.132 210.76,3240.132 L210.796,3240.132 C210.76,3240.132 210.904,3240.168 210.904,3240.168 C211.084,3240.204 211.012,3240.204 211.12,3240.276 L211.228,3240.384 C211.264,3240.492 211.264,3240.528 211.228,3240.636 L211.156,3240.744 L211.048,3240.852 L210.58,3241.212 L210.436,3241.32 L209.284,3242.112 C208.24,3242.832 207.016,3243.66 205.648,3244.38 C204.712,3244.884 203.524,3245.46 202.516,3245.712 C201.976,3245.856 201.364,3245.928 200.788,3245.892 C200.104,3245.82 199.42,3245.424 199.204,3244.74 C199.06,3244.092 199.42,3243.336 199.744,3242.796 C200.14,3242.184 200.716,3241.5 201.256,3240.996 C201.724,3240.528 202.336,3240.024 203.02,3239.628 C203.596,3239.268 204.532,3238.908 205.216,3239.412 C205.792,3239.88 205.468,3240.6 205.108,3241.104 C204.748,3241.608 204.28,3242.04 203.74,3242.436 C203.236,3242.796 202.588,3243.192 201.976,3243.408 Z M200.968,3242.868 C200.824,3243.084 203.2,3242.184 204.388,3240.384 C204.388,3240.384 204.532,3240.132 204.496,3239.88 C204.172,3239.952 203.848,3240.132 203.488,3240.384 C203.272,3240.528 203.128,3240.672 202.948,3240.816 C202.912,3240.852 202.768,3240.96 202.768,3240.96 C202.192,3241.464 201.616,3242.004 201.148,3242.616 L200.968,3242.868 Z M210.58,3239.988 C210.76,3239.916 211.048,3239.988 211.264,3240.06 C211.264,3240.06 211.3,3240.096 211.372,3240.132 C211.66,3240.204 210.904,3241.536 210.58,3242.04 C211.516,3241.392 212.56,3240.672 213.712,3240.06 L213.928,3239.952 L214.252,3239.808 C214.756,3239.592 215.296,3239.412 215.8,3239.34 C215.8,3239.34 215.836,3239.34 216.088,3239.304 C216.304,3239.304 216.556,3239.304 216.628,3239.34 C216.952,3239.412 217.384,3239.628 217.276,3240.096 C217.132,3240.384 216.592,3240.276 216.304,3240.168 C216.232,3240.168 216.088,3240.168 215.728,3240.276 C215.692,3240.276 215.692,3240.276 215.62,3240.312 L215.296,3240.42 C214.9,3240.6 214.54,3240.78 214.216,3240.96 L213.856,3241.14 L213.172,3241.536 L212.776,3241.788 L211.912,3242.292 L211.264,3242.796 L210.364,3243.66 L209.536,3244.416 L208.708,3245.352 C208.528,3245.676 208.456,3245.784 208.204,3246.144 C208.168,3246.216 208.132,3246.288 208.096,3246.324 C208.024,3246.468 207.592,3246.36 207.448,3246.324 C207.268,3246.252 207.052,3245.928 207.124,3245.784 L207.556,3245.136 C208.24,3244.092 208.312,3244.02 208.636,3243.408 L208.852,3242.976 L209.608,3241.608 C209.86,3240.996 210.22,3240.276 210.58,3239.988 Z M228.292,3240.42 C228.472,3240.492 228.76,3240.78 228.58,3240.924 C227.392,3241.968 226.312,3242.94 224.98,3243.804 C224.368,3244.2 224.08,3244.416 223.612,3244.668 C222.172,3245.46 221.668,3245.676 221.128,3245.784 C220.264,3245.892 219.148,3245.784 218.68,3244.992 C218.392,3244.56 218.464,3243.984 218.608,3243.48 C218.284,3243.876 217.924,3244.2 217.528,3244.56 C217.168,3244.884 216.844,3245.316 216.484,3245.568 C216.196,3245.82 215.872,3246 215.476,3246.144 C215.044,3246.324 214.54,3246.324 214.072,3246 C213.748,3245.748 213.604,3245.316 213.604,3244.92 C213.64,3244.02 214.18,3243.3 214.684,3242.616 C215.26,3241.896 215.908,3241.248 216.664,3240.708 C217.204,3240.312 217.816,3240.024 218.572,3239.772 C218.824,3239.7 219.184,3239.628 219.472,3239.664 C219.796,3239.772 220.264,3240.024 220.084,3240.42 C219.976,3240.672 219.688,3240.672 219.472,3240.564 C219.4,3240.564 219.364,3240.528 219.292,3240.492 L219.256,3240.492 C219.22,3240.528 219.148,3240.492 219.112,3240.528 C219.076,3240.528 218.896,3240.6 218.968,3240.564 C218.392,3240.816 217.852,3241.14 217.348,3241.5 C216.916,3241.86 216.376,3242.328 215.944,3242.868 C215.512,3243.372 215.044,3243.912 214.828,3244.596 C214.72,3244.884 214.648,3245.208 214.756,3245.496 C214.792,3245.496 214.828,3245.496 214.864,3245.46 C215.26,3245.244 215.548,3245.064 215.836,3244.776 C216.232,3244.452 216.592,3244.092 216.916,3243.732 L219.004,3241.5 L220.12,3240.492 L220.156,3240.456 C220.408,3240.132 220.732,3239.844 220.948,3239.52 C221.2,3239.232 222.028,3239.484 222.028,3239.88 L222.028,3239.916 C222.028,3239.988 221.92,3240.132 221.848,3240.204 C221.812,3240.276 221.74,3240.312 221.704,3240.384 C221.416,3240.744 221.272,3240.78 220.588,3241.824 C220.48,3242.004 220.336,3242.184 220.264,3242.364 C220.048,3242.796 219.832,3243.264 219.724,3243.66 L219.616,3244.02 C219.364,3244.668 219.904,3245.244 220.768,3244.992 C221.488,3244.776 222.1,3244.416 222.856,3244.02 C224.62,3243.084 226.06,3241.752 227.572,3240.42 C227.824,3240.276 228.112,3240.312 228.292,3240.42 Z M229.498144,3244.54589 C229.50304,3244.5384 229.5088,3244.5312 229.516,3244.524 C229.51175,3244.52825 229.507625,3244.5325 229.503611,3244.53674 L229.498144,3244.54589 Z M229.503611,3244.53674 C229.439624,3244.60437 229.40375,3244.67013 229.336,3244.704 C228.868,3245.172 228.4,3245.604 227.86,3245.964 C227.356,3246.288 226.816,3246.468 226.204,3246.288 C225.664,3246.18 225.196,3245.784 225.124,3245.208 C225.088,3244.704 225.268,3244.2 225.484,3243.732 C225.736,3243.156 226.06,3242.616 226.42,3242.076 C226.96,3241.248 227.572,3240.42 228.328,3239.772 C228.796,3239.376 229.372,3238.944 230.02,3239.016 C230.344,3239.052 230.74,3239.268 230.848,3239.592 C230.884,3239.772 230.92,3239.952 230.884,3240.132 C230.848,3240.348 230.776,3240.492 230.668,3240.708 C230.56,3240.816 230.308,3240.816 230.2,3240.78 C230.056,3240.708 229.876,3240.6 229.876,3240.456 C229.84,3240.276 229.84,3240.132 229.84,3239.952 L229.84,3239.916 C229.66,3240.024 229.516,3240.132 229.372,3240.24 L229.156,3240.456 C229.048,3240.528 228.976,3240.6 228.904,3240.672 C228.832,3240.78 228.724,3240.888 228.652,3240.96 C228.4,3241.248 228.184,3241.5 228.004,3241.788 C227.644,3242.292 227.284,3242.796 226.996,3243.3 C226.96,3243.336 226.924,3243.408 226.924,3243.444 L226.888,3243.444 L226.888,3243.48 C226.852,3243.552 226.816,3243.588 226.78,3243.66 C226.708,3243.804 226.672,3243.912 226.6,3244.056 C226.492,3244.308 226.384,3244.524 226.348,3244.812 C226.312,3244.848 226.312,3244.92 226.312,3244.992 C226.276,3245.028 226.276,3245.136 226.276,3245.1 L226.276,3245.352 C226.276,3245.388 226.312,3245.46 226.312,3245.46 C226.312,3245.676 226.708,3245.496 226.816,3245.388 C227.068,3245.244 227.284,3245.1 227.5,3244.92 L227.572,3244.848 C227.608,3244.848 227.644,3244.812 227.68,3244.776 C227.752,3244.74 227.788,3244.668 227.86,3244.632 L228.22,3244.272 C228.724,3243.768 229.192,3243.264 229.66,3242.724 C230.056,3242.292 230.452,3241.824 230.812,3241.392 C231.172,3240.996 231.568,3240.636 231.964,3240.24 C232.144,3239.916 232.36,3239.628 232.756,3239.52 C233.008,3239.484 233.26,3239.52 233.44,3239.664 C233.584,3239.772 233.728,3239.988 233.584,3240.168 C233.368,3240.384 233.152,3240.564 232.936,3240.78 C232.828,3240.996 232.72,3241.176 232.612,3241.356 C232.432,3241.644 232.288,3241.896 232.108,3242.184 C231.82,3242.652 231.532,3243.12 231.244,3243.624 C231.208,3243.732 231.136,3243.804 231.1,3243.912 C231.064,3243.912 231.064,3243.948 231.064,3243.984 C231.028,3244.02 230.992,3244.056 230.992,3244.128 C230.884,3244.308 230.776,3244.524 230.668,3244.704 C230.488,3245.028 230.308,3245.352 230.164,3245.676 C229.66,3246.684 229.156,3247.764 228.652,3248.772 C228.472,3249.096 228.328,3249.42 228.148,3249.744 C230.344,3249.204 232.576,3248.7 234.808,3248.268 C236.896,3247.872 238.984,3247.512 241.108,3247.224 C243.196,3246.972 245.32,3246.792 247.444,3246.684 C249.82,3246.54 252.196,3246.576 254.536,3246.864 C255.58,3246.972 256.66,3247.08 257.668,3247.404 C258.676,3247.692 260.224,3248.34 259.864,3249.636 C259.684,3250.176 258.46,3249.816 258.604,3249.276 C258.64,3249.132 258.64,3249.024 258.604,3248.88 C258.604,3248.844 258.604,3248.808 258.568,3248.772 L258.568,3248.736 L258.532,3248.736 C258.532,3248.7 258.388,3248.592 258.46,3248.628 L258.424,3248.592 L258.388,3248.592 C258.28,3248.52 258.172,3248.448 258.064,3248.412 C258.028,3248.376 257.992,3248.376 257.956,3248.376 C257.956,3248.34 257.956,3248.34 257.92,3248.34 C257.848,3248.304 257.812,3248.304 257.74,3248.268 C257.632,3248.232 257.488,3248.196 257.38,3248.16 C256.084,3247.872 254.896,3247.692 253.528,3247.62 C251.224,3247.44 248.92,3247.44 246.58,3247.62 C245.572,3247.692 244.564,3247.764 243.556,3247.872 C242.476,3247.98 241.432,3248.124 240.388,3248.268 C236.14,3248.88 231.856,3249.816 227.644,3250.86 C227.608,3250.896 227.572,3250.896 227.536,3250.896 C227.536,3250.932 227.536,3250.932 227.5,3250.968 C227.5,3251.004 227.464,3251.04 227.464,3251.04 C227.14,3251.688 226.78,3252.3 226.456,3252.912 C225.772,3254.064 225.088,3255.252 224.296,3256.332 C223.612,3257.268 222.856,3258.168 221.74,3258.6 C220.948,3258.924 219.94,3258.924 219.22,3258.384 C218.608,3257.952 218.392,3257.196 218.5,3256.44 C218.644,3255.648 219.04,3254.856 219.508,3254.208 C219.94,3253.56 220.48,3253.02 221.128,3252.516 C222.388,3251.544 223.9,3250.932 225.412,3250.464 L226.6,3250.14 C226.744,3249.852 226.924,3249.564 227.068,3249.276 L227.068,3249.24 C227.428,3248.484 227.824,3247.8 228.616,3246.252 C228.904,3245.712 229.156,3245.172 229.444,3244.668 C229.4728,3244.6104 229.47856,3244.57584 229.498144,3244.54589 L229.503611,3244.53674 Z M220.516,3258.024 C220.552,3257.988 220.588,3257.988 220.624,3257.988 C220.696,3257.988 220.804,3257.952 220.876,3257.916 C220.984,3257.88 221.02,3257.88 221.128,3257.808 C221.344,3257.7 221.596,3257.556 221.776,3257.412 C221.812,3257.376 221.848,3257.376 221.884,3257.34 L221.92,3257.34 L221.92,3257.304 C222.28,3257.016 222.568,3256.656 222.856,3256.296 C223.648,3255.288 224.332,3254.208 224.98,3253.092 C225.34,3252.48 225.664,3251.868 226.024,3251.256 C225.988,3251.256 225.952,3251.256 225.916,3251.292 C225.124,3251.508 224.476,3251.76 223.756,3252.12 C222.388,3252.804 221.2,3253.704 220.372,3255.036 C220.012,3255.612 219.616,3256.44 219.652,3257.124 C219.652,3257.196 219.652,3257.304 219.688,3257.376 L219.688,3257.448 C219.688,3257.484 219.724,3257.52 219.724,3257.52 C219.76,3257.592 219.76,3257.664 219.796,3257.736 L219.832,3257.736 C219.832,3257.772 219.868,3257.808 219.868,3257.808 L219.94,3257.88 C219.976,3257.916 220.012,3257.952 220.084,3257.988 L220.156,3257.988 L220.192,3258.024 L220.516,3258.024 Z M235.492,3243.408 C235.132,3243.588 234.556,3243.66 234.124,3243.48 L234.052,3243.552 C233.98,3243.696 233.908,3243.84 233.872,3244.02 C233.836,3244.056 233.836,3244.092 233.836,3244.128 C233.836,3244.164 233.8,3244.2 233.8,3244.236 L233.764,3244.38 C233.764,3244.632 233.728,3244.884 233.98,3245.1 C234.052,3245.136 234.124,3245.172 234.196,3245.172 L234.52,3245.172 C235.384,3245.1 235.996,3244.884 236.752,3244.56 C238.516,3243.768 240.136,3242.724 242.08,3241.392 C242.476,3241.104 242.98,3240.816 243.34,3240.528 C243.52,3240.42 243.772,3240.24 244.024,3240.168 C244.096,3240.132 244.168,3240.132 244.276,3240.132 L244.312,3240.132 C244.276,3240.132 244.42,3240.168 244.42,3240.168 C244.6,3240.204 244.528,3240.204 244.636,3240.276 L244.744,3240.384 C244.78,3240.492 244.78,3240.528 244.744,3240.636 L244.672,3240.744 L244.564,3240.852 L244.096,3241.212 L243.952,3241.32 L242.8,3242.112 C241.756,3242.832 240.532,3243.66 239.164,3244.38 C238.228,3244.884 237.04,3245.46 236.032,3245.712 C235.492,3245.856 234.88,3245.928 234.304,3245.892 C233.62,3245.82 232.936,3245.424 232.72,3244.74 C232.576,3244.092 232.936,3243.336 233.26,3242.796 C233.656,3242.184 234.232,3241.5 234.772,3240.996 C235.24,3240.528 235.852,3240.024 236.536,3239.628 C237.112,3239.268 238.048,3238.908 238.732,3239.412 C239.308,3239.88 238.984,3240.6 238.624,3241.104 C238.264,3241.608 237.796,3242.04 237.256,3242.436 C236.752,3242.796 236.104,3243.192 235.492,3243.408 Z M234.484,3242.868 C234.34,3243.084 236.716,3242.184 237.904,3240.384 C237.904,3240.384 238.048,3240.132 238.012,3239.88 C237.688,3239.952 237.364,3240.132 237.004,3240.384 C236.788,3240.528 236.644,3240.672 236.464,3240.816 C236.428,3240.852 236.284,3240.96 236.284,3240.96 C235.708,3241.464 235.132,3242.004 234.664,3242.616 L234.484,3242.868 Z M253.29965,3230.4224 C253.308221,3230.42367 253.30599,3230.422 253.276,3230.412 L253.29965,3230.4224 Z M253.29965,3230.4224 C253.277357,3230.41912 253.181984,3230.39599 253.312,3230.448 C253.348,3230.448 253.384,3230.484 253.42,3230.484 L253.456,3230.52 C253.42,3230.52 253.492,3230.556 253.492,3230.592 C253.528,3230.592 253.528,3230.628 253.564,3230.664 L253.6,3230.7 C253.672,3230.772 253.672,3230.844 253.672,3230.916 C253.708,3230.916 253.708,3230.952 253.708,3230.952 C253.708,3230.988 253.708,3231.024 253.744,3231.06 C253.744,3231.132 253.744,3231.204 253.78,3231.312 L253.78,3231.78 C253.672,3232.608 253.276,3233.364 252.844,3234.012 C252.304,3234.804 251.656,3235.488 251.008,3236.136 C250.324,3236.784 249.604,3237.36 248.848,3237.936 C248.2,3238.44 247.552,3238.944 246.868,3239.34 C246.184,3239.772 245.428,3240.168 244.816,3240.672 C244.492,3240.888 244.24,3241.14 244.06,3241.464 C243.808,3241.896 243.628,3242.328 243.448,3242.76 C243.34,3243.012 243.232,3243.3 243.088,3243.552 C242.98,3243.84 243.412,3244.092 243.592,3244.128 C243.844,3244.2 244.168,3244.2 244.312,3243.948 C244.672,3243.192 244.888,3242.328 245.428,3241.68 C245.644,3241.392 245.86,3241.248 246.184,3241.032 L247.264,3240.384 C248.776,3239.52 250.144,3238.44 251.476,3237.288 C252.808,3236.1 254.176,3234.66 254.788,3232.932 C255.04,3232.248 255.112,3231.384 254.788,3230.7 C254.392,3229.836 253.42,3229.512 252.52,3229.512 C251.944,3229.476 251.332,3229.692 250.792,3229.944 C250.144,3230.196 249.532,3230.556 248.956,3230.988 C247.804,3231.78 246.652,3232.788 245.932,3234.012 C245.68,3234.444 245.5,3234.876 245.428,3235.38 C245.428,3235.632 245.752,3235.776 245.932,3235.848 C246.22,3235.956 246.508,3235.956 246.76,3235.848 C246.868,3235.776 246.94,3235.668 247.012,3235.596 C247.228,3235.416 247.012,3235.164 246.832,3235.056 C246.868,3235.02 246.868,3234.984 246.868,3234.948 C246.868,3234.876 246.904,3234.84 246.94,3234.768 C246.94,3234.732 246.976,3234.696 246.976,3234.66 C247.048,3234.588 246.94,3234.768 247.012,3234.66 C247.084,3234.516 247.156,3234.372 247.264,3234.264 C247.66,3233.688 248.128,3233.148 248.632,3232.68 L249.46,3231.996 L250.36,3231.348 C250.648,3231.168 250.972,3230.988 251.296,3230.844 L251.692,3230.628 C251.836,3230.592 251.62,3230.664 251.728,3230.628 C251.764,3230.628 251.8,3230.592 251.836,3230.592 C251.908,3230.556 251.98,3230.52 252.052,3230.52 C252.196,3230.448 252.304,3230.448 252.448,3230.412 C252.484,3230.412 252.52,3230.376 252.556,3230.376 L252.736,3230.376 C252.772,3230.34 252.844,3230.34 252.88,3230.34 C252.916,3230.34 252.952,3230.376 252.988,3230.376 L253.204,3230.376 C253.239805,3230.4118 253.275609,3230.412 253.275997,3230.412 L253.29965,3230.4224 Z M253.168,3230.376 C253.06,3230.34 253.168,3230.376 253.204,3230.376 L253.168,3230.376 Z M243.628,3245.928 C243.808,3246.072 243.916,3246.36 243.7,3246.504 C243.556,3246.612 243.412,3246.684 243.304,3246.792 L243.304,3246.828 L243.268,3246.828 L243.16,3246.936 C243.052,3247.224 242.692,3247.224 242.44,3247.152 C242.224,3247.08 241.864,3246.864 241.972,3246.576 C242.044,3246.396 242.152,3246.288 242.296,3246.144 L242.764,3245.82 C243.052,3245.676 243.412,3245.784 243.628,3245.928 Z M243.124,3246.972 C243.124,3247.008 243.124,3247.008 243.16,3246.972 L243.124,3246.972 Z M243.34,3246.792 C243.34,3246.792 243.304,3246.792 243.304,3246.828 L243.34,3246.792 Z" id="What-is-Loverage?"></path>
        </g>
    </g>
</svg>