<?xml version="1.0" encoding="UTF-8"?>
<svg width="69px" height="22px" viewBox="0 0 69 22" version="1.1" xmlns="http://www.w3.org/2000/svg" xmlns:xlink="http://www.w3.org/1999/xlink">
    <!-- Generator: Sketch 51.2 (57519) - http://www.bohemiancoding.com/sketch -->
    <title>Hot Topic</title>
    <desc>Created with Sketch.</desc>
    <defs></defs>
    <g id="SP" stroke="none" stroke-width="1" fill="none" fill-rule="evenodd">
        <g id="トップ" transform="translate(-287.000000, -2287.000000)" fill="#FFA9C8">
            <path d="M305.608,2289.144 C305.776,2289.216 305.776,2289.408 305.704,2289.576 L305.704,2289.6 C305.68,2289.624 305.68,2289.648 305.656,2289.672 L305.656,2289.696 C305.32,2290.2 305.008,2290.704 304.696,2291.208 L303.424,2293.176 C302.992,2293.824 302.536,2294.448 302.128,2295.12 C301.84,2295.6 301.528,2296.08 301.216,2296.56 C301.696,2296.56 302.152,2296.536 302.608,2296.512 C302.968,2296.512 303.352,2296.512 303.712,2296.56 C304.024,2296.608 304.768,2296.824 304.48,2297.28 C304.36,2297.448 304.072,2297.376 303.928,2297.304 C303.856,2297.256 303.784,2297.184 303.736,2297.112 C303.616,2297.088 303.472,2297.088 303.352,2297.088 L302.944,2297.088 C302.464,2297.088 301.984,2297.088 301.504,2297.112 C301.288,2297.112 301.072,2297.136 300.856,2297.136 C300.472,2297.784 300.064,2298.408 299.68,2299.056 C298.888,2300.376 298.096,2301.72 297.376,2303.064 L296.632,2304.48 C296.536,2304.696 296.416,2304.912 296.344,2305.152 C296.296,2305.224 296.272,2305.32 296.224,2305.416 C296.224,2305.464 296.2,2305.488 296.2,2305.512 C296.2,2305.92 295.408,2305.8 295.384,2305.44 C295.384,2305.272 295.432,2305.128 295.504,2304.984 C295.576,2304.792 295.648,2304.6 295.744,2304.432 C296.296,2303.28 296.92,2302.176 297.544,2301.048 C298.288,2299.752 299.08,2298.48 299.872,2297.184 C299.224,2297.232 298.552,2297.256 297.88,2297.304 C296.752,2297.376 295.648,2297.448 294.52,2297.52 C294.016,2298.36 293.512,2299.176 293.008,2300.016 L290.728,2303.928 C290.248,2304.768 289.744,2305.608 289.312,2306.472 C289.432,2306.568 289.504,2306.688 289.408,2306.808 C289.192,2307.192 288.952,2307.552 288.64,2307.888 C288.52,2308.032 288.256,2307.984 288.112,2307.912 C287.992,2307.864 287.824,2307.72 287.872,2307.576 C288.544,2306.016 289.408,2304.576 290.248,2303.136 C291.016,2301.84 291.76,2300.52 292.552,2299.2 L293.536,2297.592 C293.464,2297.616 293.392,2297.616 293.296,2297.616 L290.92,2297.76 C290.128,2297.808 289.336,2297.856 288.544,2297.856 C288.376,2297.856 288.184,2297.808 288.112,2297.64 C288.04,2297.496 288.184,2297.4 288.328,2297.4 C289.048,2297.328 289.768,2297.304 290.488,2297.256 C291.64,2297.184 292.768,2297.112 293.896,2297.016 L294.976,2295.216 L297.496,2291.256 L298.72,2289.432 L299.584,2288.064 L299.728,2287.872 C299.776,2287.848 299.8,2287.824 299.848,2287.824 C299.968,2287.608 300.472,2287.776 300.448,2288.016 C300.448,2288.088 300.448,2288.136 300.424,2288.16 C300.4,2288.256 300.352,2288.352 300.304,2288.424 L299.872,2289.144 L299.248,2290.08 L297.952,2292.072 C296.92,2293.68 295.888,2295.312 294.88,2296.944 L299.272,2296.656 C299.608,2296.632 299.92,2296.632 300.232,2296.608 L301.168,2295.096 C301.6,2294.424 302.032,2293.8 302.464,2293.152 C302.896,2292.504 303.328,2291.856 303.736,2291.184 L304.936,2289.312 L304.936,2289.264 C304.96,2289.216 304.984,2289.168 305.032,2289.144 C305.056,2289.144 305.056,2289.12 305.08,2289.12 C305.248,2288.976 305.464,2289.048 305.608,2289.144 Z M310,2296.896 C310.216,2296.752 310.792,2297.04 310.504,2297.28 C310.072,2297.64 309.544,2297.88 309.016,2298.096 C308.488,2298.312 307.936,2298.504 307.36,2298.624 C307.144,2298.648 306.832,2298.72 306.544,2298.744 C306.424,2298.912 306.304,2299.08 306.16,2299.248 C305.92,2299.56 305.68,2299.848 305.416,2300.136 C305.104,2300.472 304.744,2300.808 304.312,2300.976 C303.904,2301.144 303.424,2301.24 303.016,2301 C302.824,2300.88 302.68,2300.712 302.632,2300.472 C302.584,2300.28 302.608,2300.064 302.656,2299.872 C302.8,2299.248 303.136,2298.672 303.496,2298.168 C303.904,2297.64 304.384,2297.16 304.96,2296.824 C305.104,2296.752 305.32,2296.8 305.44,2296.896 C305.632,2297.04 305.536,2297.304 305.32,2297.304 C304.912,2297.64 304.552,2298.024 304.216,2298.456 C303.88,2298.888 303.568,2299.392 303.424,2299.944 C303.4,2300.04 303.352,2300.16 303.352,2300.28 L303.352,2300.472 C303.352,2300.592 303.472,2300.592 303.544,2300.592 C303.592,2300.592 303.616,2300.568 303.664,2300.568 C303.688,2300.568 303.808,2300.496 303.736,2300.544 L303.856,2300.472 C304.24,2300.28 304.504,2300.016 304.816,2299.704 C305.08,2299.392 305.368,2299.08 305.608,2298.744 C305.68,2298.648 305.752,2298.576 305.8,2298.504 L305.728,2298.432 C305.584,2298.264 305.536,2298.048 305.536,2297.832 C305.536,2297.688 305.536,2297.496 305.608,2297.352 C305.68,2297.136 305.848,2296.92 306.04,2296.8 C306.352,2296.632 306.736,2296.728 306.928,2297.016 C307.168,2297.352 307.072,2297.736 306.928,2298.096 L306.928,2298.12 L306.976,2298.12 C307.552,2298 308.104,2297.808 308.656,2297.592 L309.376,2297.256 C309.592,2297.136 309.808,2297.04 310,2296.896 Z M306.304,2297.16 L306.28,2297.16 L306.304,2297.16 Z M312.376155,2294.064 C312.880108,2294.064 313.408054,2294.088 313.936,2294.088 C314.56,2294.088 315.208,2294.064 315.832,2294.136 C315.976,2294.16 316.168,2294.256 316.24,2294.4 C316.288,2294.52 316.216,2294.664 316.072,2294.688 C315.664,2294.76 315.28,2294.904 314.848,2294.976 C314.656,2295 314.44,2294.952 314.32,2294.808 C314.272,2294.76 314.248,2294.712 314.248,2294.64 L312.04,2294.64 C311.608,2295.432 311.128,2296.248 310.696,2297.04 C310.192,2298.024 309.664,2299.008 309.304,2300.064 C309.232,2300.28 309.16,2300.496 309.136,2300.76 L309.136,2300.784 C309.136,2301.216 309.544,2301.048 309.808,2300.976 C310.144,2300.88 310.48,2300.76 310.864,2300.568 C312.808,2299.632 314.704,2298.384 316.384,2297.064 C316.528,2296.944 316.816,2297.04 316.936,2297.136 C317.032,2297.208 317.152,2297.376 317.032,2297.472 C316.528,2297.928 315.856,2298.336 315.304,2298.744 C314.728,2299.152 314.152,2299.512 313.528,2299.896 C312.664,2300.424 311.8,2300.928 310.864,2301.312 C310.24,2301.552 309.424,2301.816 308.8,2301.48 C308.536,2301.336 308.344,2301.096 308.32,2300.784 C308.296,2300.424 308.44,2300.04 308.56,2299.704 C308.92,2298.648 309.448,2297.664 310,2296.68 C310.36,2295.984 310.744,2295.312 311.152,2294.64 L310.696,2294.64 C309.304,2294.64 307.936,2294.64 306.568,2294.664 C305.248,2294.664 303.928,2294.688 302.608,2294.688 C301.624,2294.688 300.64,2294.712 299.632,2294.712 L298.792,2294.712 C298.504,2294.736 298.096,2294.76 298,2294.4 C297.976,2294.328 298.048,2294.256 298.096,2294.208 C298.144,2294.16 298.24,2294.16 298.312,2294.16 L298.276,2294.16 L298.36,2294.16 C299.128,2294.136 299.896,2294.136 300.688,2294.136 C301.072,2294.136 301.48,2294.136 306.448,2294.088 L310.552,2294.088 C310.864,2294.088 311.176,2294.088 311.488,2294.064 C311.56,2293.92 311.656,2293.776 311.752,2293.608 C311.8,2293.488 311.872,2293.368 311.944,2293.248 L312.088,2292.984 C312.232,2292.72 312.4,2292.456 312.568,2292.192 L313.144,2291.328 L313.48,2290.896 L313.648,2290.704 C313.72,2290.608 313.792,2290.584 313.936,2290.56 C314.08,2290.56 314.224,2290.608 314.296,2290.704 C314.368,2290.776 314.368,2290.872 314.32,2290.968 C313.888,2291.496 313.552,2292.096 313.192,2292.648 C313.12,2292.792 313,2292.936 312.928,2293.056 L312.784,2293.344 C312.664,2293.584 312.544,2293.8 312.4,2294.016 C312.4,2294.03609 312.383179,2294.05619 312.377701,2294.0622 L312.376155,2294.064 Z M298.276,2294.16 L298.264,2294.16 L298.276,2294.16 Z M346.24,2289.072 C346.288,2289.192 346.264,2289.312 346.144,2289.36 C345.952,2289.504 345.712,2289.552 345.472,2289.624 C345.304,2289.696 345.04,2289.6 344.92,2289.456 C344.872,2289.408 344.848,2289.36 344.848,2289.312 C344.608,2289.288 344.368,2289.264 344.128,2289.264 C343.984,2289.264 343.816,2289.264 343.672,2289.24 L343.312,2289.24 C343.024,2289.24 342.736,2289.216 342.448,2289.216 C341.152,2289.216 339.88,2289.288 338.584,2289.336 C337.096,2289.408 335.632,2289.504 334.144,2289.624 C332.656,2289.744 331.168,2289.864 329.68,2290.032 C328.144,2290.176 326.632,2290.368 325.096,2290.536 C324.352,2290.608 323.584,2290.656 322.84,2290.776 C322.24,2290.848 321.616,2290.968 320.992,2290.968 C320.776,2290.944 320.512,2290.872 320.392,2290.656 C320.296,2290.464 320.488,2290.32 320.68,2290.32 C321.208,2290.344 321.76,2290.248 322.288,2290.176 C322.888,2290.08 323.512,2290.032 324.112,2289.96 C325.456,2289.84 326.776,2289.672 328.12,2289.504 C331.072,2289.168 334.048,2288.928 337.024,2288.76 C338.56,2288.664 340.096,2288.592 341.632,2288.592 C343,2288.568 344.392,2288.592 345.76,2288.784 C345.952,2288.808 346.168,2288.904 346.24,2289.072 Z M331.612,2290.692 L331.624,2290.68 L331.612,2290.692 Z M331.612,2290.692 L331.6,2290.704 C331.624,2290.632 331.72,2290.608 331.792,2290.608 C331.984,2290.608 332.176,2290.704 332.248,2290.896 C332.32,2291.04 332.224,2291.208 332.176,2291.352 C332.056,2291.64 331.888,2291.904 331.72,2292.168 C331.576,2292.408 331.384,2292.648 331.216,2292.888 C331.048,2293.176 330.856,2293.464 330.664,2293.728 C329.944,2294.856 329.224,2295.96 328.528,2297.088 L327.328,2299.08 L326.128,2301.048 C325.384,2302.344 324.688,2303.688 324.16,2305.104 C324.064,2305.344 323.656,2305.272 323.488,2305.128 C323.344,2305.008 323.224,2304.864 323.248,2304.648 C323.272,2304.528 323.368,2304.432 323.392,2304.36 C323.44,2304.264 323.512,2304.216 323.608,2304.216 C324.448,2302.2 325.6,2300.28 326.752,2298.432 L327.976,2296.44 C328.384,2295.768 328.816,2295.096 329.248,2294.448 L330.544,2292.456 C330.736,2292.144 330.952,2291.88 331.144,2291.568 C331.216,2291.424 331.312,2291.28 331.384,2291.112 L331.48,2290.872 C331.504,2290.824 331.504,2290.776 331.552,2290.752 L331.612,2290.692 Z M337.264,2296.896 C337.48,2296.752 338.056,2297.04 337.768,2297.28 C337.336,2297.64 336.808,2297.88 336.28,2298.096 C335.752,2298.312 335.2,2298.504 334.624,2298.624 C334.408,2298.648 334.096,2298.72 333.808,2298.744 C333.688,2298.912 333.568,2299.08 333.424,2299.248 C333.184,2299.56 332.944,2299.848 332.68,2300.136 C332.368,2300.472 332.008,2300.808 331.576,2300.976 C331.168,2301.144 330.688,2301.24 330.28,2301 C330.088,2300.88 329.944,2300.712 329.896,2300.472 C329.848,2300.28 329.872,2300.064 329.92,2299.872 C330.064,2299.248 330.4,2298.672 330.76,2298.168 C331.168,2297.64 331.648,2297.16 332.224,2296.824 C332.368,2296.752 332.584,2296.8 332.704,2296.896 C332.896,2297.04 332.8,2297.304 332.584,2297.304 C332.176,2297.64 331.816,2298.024 331.48,2298.456 C331.144,2298.888 330.832,2299.392 330.688,2299.944 C330.664,2300.04 330.616,2300.16 330.616,2300.28 L330.616,2300.472 C330.616,2300.592 330.736,2300.592 330.808,2300.592 C330.856,2300.592 330.88,2300.568 330.928,2300.568 C330.952,2300.568 331.072,2300.496 331,2300.544 L331.12,2300.472 C331.504,2300.28 331.768,2300.016 332.08,2299.704 C332.344,2299.392 332.632,2299.08 332.872,2298.744 C332.944,2298.648 333.016,2298.576 333.064,2298.504 L332.992,2298.432 C332.848,2298.264 332.8,2298.048 332.8,2297.832 C332.8,2297.688 332.8,2297.496 332.872,2297.352 C332.944,2297.136 333.112,2296.92 333.304,2296.8 C333.616,2296.632 334,2296.728 334.192,2297.016 C334.432,2297.352 334.336,2297.736 334.192,2298.096 L334.192,2298.12 L334.24,2298.12 C334.816,2298 335.368,2297.808 335.92,2297.592 L336.64,2297.256 C336.856,2297.136 337.072,2297.04 337.264,2296.896 Z M333.568,2297.16 L333.544,2297.16 L333.568,2297.16 Z M345.208,2297.136 C345.304,2297.184 345.472,2297.352 345.352,2297.472 C344.632,2298.192 343.84,2298.816 343,2299.416 C342.184,2299.992 341.296,2300.544 340.384,2300.928 C339.592,2301.288 338.68,2301.6 337.816,2301.432 C337.672,2301.408 337.504,2301.336 337.432,2301.192 C337.384,2301.096 337.408,2301.024 337.504,2300.952 C337.528,2300.952 337.552,2300.928 337.576,2300.904 C337.576,2300.904 337.6,2300.904 337.6,2300.88 C337.6,2300.88 337.624,2300.88 337.624,2300.856 L337.84,2300.664 L338.392,2300.136 C338.824,2299.704 339.232,2299.248 339.616,2298.744 L339.928,2298.312 L340.072,2298.072 C340.072,2298.048 340.096,2298.048 340.096,2298.024 L340.144,2297.928 C340.192,2297.808 340.24,2297.688 340.264,2297.568 C340.288,2297.544 340.288,2297.496 340.288,2297.472 L340.288,2297.4 C340.288,2297.376 340.264,2297.352 340.216,2297.352 L340.096,2297.352 C340.048,2297.352 340.024,2297.352 340,2297.376 L339.976,2297.376 C339.928,2297.376 339.88,2297.376 339.832,2297.4 C339.784,2297.4 339.736,2297.424 339.688,2297.448 C339.664,2297.448 339.64,2297.448 339.616,2297.472 C339.4,2297.568 339.208,2297.664 339.04,2297.808 C338.824,2297.952 338.704,2298.024 338.536,2298.216 C338.368,2298.36 338.2,2298.528 338.056,2298.696 C337.792,2299.008 337.528,2299.32 337.312,2299.656 C337.192,2299.824 337.072,2299.992 336.976,2300.16 L336.208,2301.312 C335.728,2302.56 335.224,2303.784 334.768,2305.008 C334.528,2305.608 334.336,2306.208 334.048,2306.784 C333.784,2307.336 333.472,2307.864 333.016,2308.272 C332.824,2308.464 332.44,2308.368 332.32,2308.128 C332.128,2307.696 332.176,2307.192 332.272,2306.76 C332.392,2306.232 332.584,2305.728 332.824,2305.248 C333.04,2304.768 333.328,2304.312 333.592,2303.856 C333.976,2303.256 334.36,2302.656 334.768,2302.056 L335.608,2300.808 L335.656,2300.664 C335.896,2300.016 336.184,2299.368 336.424,2298.72 C336.64,2298.168 336.856,2297.568 336.952,2296.992 C336.904,2296.968 336.88,2296.92 336.856,2296.872 C336.832,2296.848 336.832,2296.776 336.856,2296.752 L336.904,2296.704 L336.904,2296.728 C336.928,2296.68 336.976,2296.656 337.024,2296.632 C337.048,2296.632 337.096,2296.608 337.12,2296.608 C337.24,2296.584 337.336,2296.608 337.456,2296.656 C337.504,2296.68 337.624,2296.776 337.624,2296.872 C337.6,2297.4 337.456,2297.904 337.312,2298.408 C337.528,2298.144 337.768,2297.928 338.008,2297.712 C338.368,2297.4 338.752,2297.112 339.208,2296.944 C339.592,2296.824 340.096,2296.752 340.48,2296.896 C340.768,2297.016 341.056,2297.232 341.056,2297.568 C341.056,2297.856 340.912,2298.12 340.768,2298.384 C340.408,2299.032 339.88,2299.608 339.376,2300.16 C339.16,2300.424 338.896,2300.664 338.656,2300.904 C338.776,2300.88 338.896,2300.856 338.992,2300.808 C339.256,2300.736 339.52,2300.64 339.76,2300.544 C339.712,2300.568 339.808,2300.52 339.832,2300.52 C339.856,2300.496 339.904,2300.472 339.928,2300.472 L340.504,2300.184 C341.392,2299.728 342.232,2299.176 343.048,2298.552 C343.24,2298.432 343.432,2298.288 343.6,2298.144 L343.864,2297.928 L344.056,2297.784 C344.296,2297.592 344.536,2297.376 344.752,2297.16 C344.872,2297.04 345.064,2297.064 345.208,2297.136 Z M333.976,2304.96 L334.24,2304.312 C334.048,2304.624 333.88,2304.912 333.712,2305.224 C333.448,2305.728 333.208,2306.256 333.064,2306.784 C333.04,2306.904 333.016,2307.048 332.992,2307.192 C333.424,2306.496 333.688,2305.704 333.976,2304.96 Z M345.904,2297.016 L345.76,2297.16 L345.664,2297.232 L345.4,2297.472 C344.992,2297.88 344.608,2298.312 344.296,2298.792 C344.104,2299.056 343.96,2299.32 343.864,2299.536 C343.72,2299.8 343.576,2300.088 343.504,2300.376 C343.48,2300.472 343.456,2300.568 343.456,2300.64 C343.48,2300.712 343.552,2300.712 343.624,2300.688 L343.912,2300.616 C344.296,2300.52 344.68,2300.328 345.064,2300.184 L345.544,2299.944 C345.76,2299.848 346.12,2299.656 346.432,2299.464 C346.504,2299.416 346.624,2299.368 346.672,2299.32 L348.064,2298.456 C348.304,2298.264 348.616,2298.096 348.88,2297.928 C349.312,2297.616 349.6,2297.448 349.888,2297.304 C350.056,2297.256 350.584,2297.472 350.368,2297.712 C350.224,2297.88 349.984,2298.024 349.72,2298.192 C349.144,2298.576 348.976,2298.648 348.904,2298.72 C348.112,2299.248 347.32,2299.752 346.264,2300.304 C345.976,2300.448 345.544,2300.664 345.232,2300.784 C344.68,2301.024 343.192,2301.672 342.76,2300.832 C342.688,2300.664 342.688,2300.448 342.736,2300.28 C342.808,2300.016 342.928,2299.704 343.072,2299.464 C343.36,2298.912 343.696,2298.36 344.032,2297.928 C344.2,2297.712 344.392,2297.472 344.608,2297.28 L344.968,2296.944 L345.4,2296.632 C345.496,2296.584 345.664,2296.584 345.784,2296.656 L345.76,2296.656 C345.832,2296.704 345.928,2296.824 345.904,2297.016 Z M346.048,2295.936 C345.928,2295.912 345.784,2295.768 345.784,2295.624 C345.808,2295.552 345.88,2295.48 345.976,2295.408 C346,2295.408 346.072,2295.36 346.096,2295.336 L346.216,2295.264 L346.408,2295.12 L346.6,2294.952 C346.744,2294.832 347.032,2294.928 347.128,2295.024 C347.2,2295.072 347.344,2295.24 347.224,2295.36 L346.984,2295.552 L346.768,2295.72 C346.552,2295.864 346.336,2296.008 346.048,2295.936 Z M351.64,2297.304 C351.544,2297.448 351.304,2297.376 351.208,2297.256 C351.16,2297.304 351.064,2297.328 351.016,2297.376 C350.872,2297.472 350.632,2297.616 350.488,2297.76 L350.296,2297.904 C350.104,2298.096 350.032,2298.168 349.84,2298.384 C349.552,2298.696 349.288,2299.008 349.048,2299.344 C348.688,2299.872 348.616,2299.896 348.52,2300.184 C348.472,2300.28 348.448,2300.424 348.448,2300.592 C348.448,2300.664 348.4,2300.856 349.168,2300.616 C349.6,2300.472 349.696,2300.4 349.768,2300.376 L350.32,2300.136 L350.608,2299.992 C351.064,2299.728 351.496,2299.488 351.928,2299.2 L353.176,2298.336 C353.176,2298.336 353.272,2298.264 353.296,2298.24 L353.968,2297.712 C354.28,2297.424 354.352,2297.424 354.568,2297.208 C354.664,2297.16 354.808,2297.16 354.904,2297.208 C355,2297.28 355.12,2297.4 355.144,2297.496 C355.096,2297.592 354.976,2297.76 354.88,2297.856 L354.544,2298.168 L354.256,2298.384 C354.04,2298.528 353.848,2298.696 353.632,2298.84 L353.056,2299.272 C352.072,2299.944 350.944,2300.64 349.672,2301.072 C349.264,2301.216 348.736,2301.288 348.304,2301.144 C347.968,2301.024 347.608,2300.784 347.632,2300.376 C347.656,2300.088 347.872,2299.704 348.016,2299.44 C348.448,2298.768 349,2298.192 349.552,2297.64 C349.96,2297.232 350.728,2296.488 351.4,2296.704 C351.544,2296.752 351.712,2296.848 351.736,2297.016 C351.76,2297.112 351.712,2297.208 351.64,2297.304 Z" id="Hot-Topic"></path>
        </g>
    </g>
</svg>