<?xml version="1.0" encoding="UTF-8"?>
<svg width="61px" height="28px" viewBox="0 0 61 28" version="1.1" xmlns="http://www.w3.org/2000/svg" xmlns:xlink="http://www.w3.org/1999/xlink">
    <!-- Generator: Sketch 51.2 (57519) - http://www.bohemiancoding.com/sketch -->
    <title>Share Copy</title>
    <desc>Created with Sketch.</desc>
    <defs></defs>
    <g id="SP" stroke="none" stroke-width="1" fill="none" fill-rule="evenodd">
        <g id="質問詳細1" transform="translate(-156.000000, -1555.000000)" fill="#AAAAAA">
            <g id="Group-5" transform="translate(0.000000, 1101.000000)">
                <path d="M161.7,467.592 L161.772,467.628 C161.808,467.628 161.808,467.628 161.7,467.592 Z M163.14,468.024 C163.176,468.06 163.176,468.06 163.212,468.06 C163.248,468.06 163.212,468.06 163.14,468.024 Z M172.5,470.976 L172.536,471.012 L172.5,470.976 Z M161.112355,467.325411 C161.092571,467.316075 161.085991,467.314661 161.124,467.34 C161.129445,467.34 161.13489,467.340824 161.140335,467.342222 L161.112355,467.325411 Z M161.140335,467.342222 C161.17089,467.350067 161.201445,467.376 161.232,467.376 C161.376,467.484 161.52,467.556 161.7,467.628 L161.772,467.628 L161.808,467.664 L162.06,467.736 C162.42,467.88 162.78,467.952 163.176,468.06 L163.248,468.06 C163.32,468.06 163.356,468.096 163.392,468.096 C163.5,468.096 163.608,468.132 163.716,468.168 L164.364,468.276 L165.804,468.456 C166.812,468.6 167.856,468.708 168.864,468.888 C170.376,469.104 172.068,469.392 173.256,470.436 C173.868,470.976 174.408,471.66 174.552,472.488 C174.732,473.424 174.372,474.324 173.832,475.08 C173.256,475.908 172.428,476.592 171.6,477.204 C170.772,477.816 169.872,478.356 168.9,478.788 C167.964,479.256 166.992,479.652 165.984,480.012 C165.192,480.264 164.4,480.552 163.572,480.732 C162.132,481.056 160.548,481.236 159.108,480.948 C158.352,480.768 157.596,480.516 157.02,480.012 C156.408,479.472 156.012,478.752 156.12,477.96 C156.192,477.168 156.732,476.484 157.308,475.98 C157.632,475.692 157.992,475.44 158.352,475.188 L159.396,474.648 C159.576,474.576 159.828,474.612 160.008,474.756 C160.152,474.828 160.224,475.08 160.044,475.152 C159.792,475.296 159.54,475.512 159.288,475.692 C159,475.872 158.748,476.088 158.496,476.304 C158.028,476.7 157.596,477.204 157.416,477.744 C157.308,478.068 157.272,478.284 157.308,478.572 C157.344,478.752 157.344,478.824 157.452,479.004 L157.56,479.184 L157.56,479.256 L157.596,479.256 L157.74,479.436 L157.776,479.472 L158.064,479.724 L158.1,479.76 L158.136,479.76 L158.28,479.832 C158.352,479.868 158.388,479.904 158.424,479.904 L158.46,479.904 L158.496,479.94 L158.532,479.94 C158.676,480.012 158.856,480.048 159.036,480.084 C159.072,480.084 159.18,480.12 159.072,480.084 C159.108,480.12 159.108,480.12 159.144,480.12 C159.216,480.12 159.288,480.156 159.396,480.156 C159.576,480.192 159.756,480.192 159.936,480.192 C160.008,480.192 160.26,480.228 160.116,480.228 L160.368,480.228 C160.728,480.228 161.088,480.192 161.484,480.156 C161.664,480.156 161.844,480.12 162.024,480.084 L162.168,480.084 C162.312,480.048 162.06,480.084 162.168,480.048 C162.276,480.048 162.348,480.048 162.42,480.012 C163.176,479.868 163.86,479.652 164.58,479.436 C165.552,479.112 166.524,478.752 167.424,478.356 C168.36,477.924 169.296,477.42 170.16,476.844 C170.988,476.304 171.816,475.656 172.464,474.9 C173.004,474.216 173.436,473.424 173.364,472.56 C173.328,472.308 173.292,472.128 173.184,471.948 C173.112,471.732 173.004,471.588 172.932,471.444 L172.608,471.084 C172.608,471.048 172.464,470.94 172.5,470.976 L172.392,470.868 L172.176,470.688 C172.14,470.688 172.068,470.652 172.032,470.616 L171.708,470.436 L171.456,470.328 L171.42,470.292 L171.348,470.292 C171.168,470.22 171.024,470.148 170.88,470.112 L170.304,469.968 C170.232,469.968 170.196,469.932 170.16,469.932 C169.98,469.896 170.304,469.968 170.124,469.932 L169.836,469.86 L168.504,469.644 C166.56,469.392 164.58,469.212 162.636,468.744 C161.916,468.564 161.196,468.348 160.548,467.952 C159.936,467.592 159.36,467.088 159.144,466.368 C158.82,465.36 159.252,464.388 159.864,463.596 C160.368,462.876 161.016,462.264 161.7,461.688 C164.364,459.456 167.604,457.908 170.916,456.756 C174.192,455.604 177.612,454.812 181.068,454.416 C182.328,454.272 183.588,454.2 184.848,454.308 C186.036,454.416 187.368,454.632 188.376,455.388 C188.844,455.712 189.168,456.144 189.312,456.684 C189.456,457.224 189.312,457.8 189.096,458.304 C188.376,459.852 187.008,461.076 185.604,461.976 C184.092,462.912 182.436,463.56 180.78,464.172 L178.404,464.964 C177.54,465.252 176.64,465.54 175.74,465.792 C175.2,465.9 174.66,466.044 174.084,466.08 C173.76,466.116 173.4,466.116 173.112,466.008 C172.824,465.9 172.536,465.72 172.464,465.396 L172.464,465.288 C172.5,465.072 172.572,464.892 172.824,464.82 C173.04,464.748 173.256,464.784 173.472,464.856 C173.652,464.928 173.868,465.036 173.94,465.216 L174.048,465.216 C174.084,465.18 174.156,465.18 174.228,465.18 L174.624,465.072 C174.984,465 175.344,464.892 175.704,464.784 C176.604,464.532 177.468,464.244 178.368,463.92 C179.196,463.668 179.988,463.416 180.78,463.092 C181.608,462.804 182.328,462.516 183.12,462.12 C184.668,461.364 186.108,460.428 187.152,459.06 C187.584,458.52 187.98,457.98 188.124,457.26 L188.124,457.116 C188.124,457.044 188.16,457.008 188.16,456.936 C188.124,456.828 188.124,456.72 188.124,456.612 C188.088,456.576 188.052,456.504 188.088,456.54 L188.088,456.504 L188.016,456.36 C188.016,456.324 187.98,456.324 187.98,456.252 C187.98,456.288 187.98,456.288 187.944,456.252 C187.944,456.216 187.944,456.216 187.908,456.18 L187.8,456.036 C187.770281,456.036 187.765096,456.011467 187.743938,456.002905 C187.750988,456.002235 187.810855,456.046855 187.764,456 L187.512,455.82 C187.512,455.82 187.476,455.82 187.476,455.784 L187.44,455.784 L187.26,455.676 L187.116,455.604 L187.08,455.604 L187.044,455.568 C186.792,455.496 186.54,455.388 186.252,455.352 C186.216,455.316 186.18,455.316 186.144,455.316 C186.072,455.28 186,455.28 185.928,455.28 C185.784,455.244 185.64,455.208 185.496,455.208 L184.632,455.1 L183.876,455.1 C183.264,455.1 182.688,455.136 182.112,455.172 C181.32,455.28 180.528,455.352 179.772,455.496 C179.7,455.496 179.628,455.496 179.556,455.532 L179.52,455.532 C179.412,455.532 179.304,455.568 179.232,455.568 L178.62,455.676 L177.36,455.928 C175.632,456.324 173.904,456.792 172.212,457.368 C170.484,457.944 168.9,458.556 167.316,459.384 C165.804,460.14 164.364,461.004 163.032,462.048 C162.78,462.264 162.492,462.516 162.204,462.804 C161.88,463.092 161.556,463.416 161.268,463.776 C160.692,464.424 160.08,465.324 160.296,466.26 C160.332,466.404 160.404,466.548 160.476,466.692 C160.476,466.692 160.548,466.8 160.584,466.836 L160.692,466.98 L160.8,467.088 L160.98,467.196 C161.013761,467.263523 161.079185,467.299383 161.146577,467.333275 C161.229195,467.386229 161.148607,467.342519 161.112355,467.325411 L161.140335,467.342222 Z M161.146577,467.333275 C161.151045,467.335523 161.155523,467.337761 161.16,467.34 C161.160343,467.340229 161.160683,467.340456 161.16102,467.34068 L161.146577,467.333275 Z M187.743938,456.002905 C187.739467,456.001096 187.734281,456 187.728,456 C187.702855,455.974855 187.708445,455.976055 187.723303,455.985197 L187.743938,456.002905 Z M187.08,455.604 C187.044,455.568 187.044,455.568 187.008,455.568 C186.936,455.532 187.044,455.568 187.08,455.604 Z M160.5075,466.71 C160.512,466.719 160.512,466.728 160.512,466.728 C160.512,466.71 160.503,466.701 160.494,466.6965 L160.5075,466.71 Z M160.5075,466.71 C160.503,466.701 160.494,466.692 160.476,466.692 C160.476,466.692 160.485,466.692 160.494,466.6965 L160.5075,466.71 Z M173.94,465.216 L173.976,465.216 C174.012,465.216 174.12,465.18 173.94,465.216 Z M186.108,455.316 L186.144,455.316 L186.108,455.316 Z M190.464,468.06 C190.752,467.808 191.58,468.276 191.184,468.6 C191.22,468.564 191.148,468.636 191.112,468.636 C191.112,468.672 191.076,468.672 191.04,468.708 C191.004,468.744 190.932,468.78 190.896,468.852 C190.716,468.96 190.572,469.104 190.428,469.212 C190.14,469.464 189.816,469.716 189.492,469.932 C188.772,470.472 188.052,471.012 187.332,471.516 L185.604,472.632 C184.956,473.064 184.236,473.496 183.516,473.784 C183.012,474 182.328,474.144 181.824,473.856 C181.392,473.604 181.284,473.208 181.356,472.74 C181.428,472.308 181.644,471.876 181.824,471.48 L182.58,469.968 C182.832,469.5 183.084,469.032 183.264,468.564 C183.3,468.528 183.3,468.492 183.3,468.492 C182.724,468.852 182.292,469.284 181.788,469.788 C181.212,470.364 180.672,470.94 180.168,471.552 C179.268,472.596 178.44,473.748 177.432,474.684 C177.252,474.9 176.928,474.864 176.712,474.72 C176.568,474.648 176.388,474.504 176.424,474.288 C176.784,472.812 177.468,471.444 178.152,470.076 L180.204,466.08 C181.248,464.1 182.328,462.192 183.66,460.392 C183.876,460.104 184.092,459.852 184.308,459.528 L184.884,458.736 C185.316,458.196 185.856,457.62 186.612,457.692 C186.828,457.728 187.08,457.836 187.152,458.052 C187.188,458.052 187.188,458.088 187.188,458.088 C187.224,458.16 187.224,458.268 187.188,458.304 L186.936,458.484 C186.864,458.52 186.756,458.52 186.684,458.484 L186.648,458.484 L186.54,458.556 L186.36,458.7 L186.144,458.916 C185.856,459.24 185.604,459.6 185.352,459.96 L184.488,461.112 C184.092,461.652 183.696,462.228 183.336,462.804 C182.148,464.676 181.176,466.62 180.168,468.564 C179.628,469.644 179.052,470.724 178.512,471.84 C179.16,471.12 179.808,470.364 180.456,469.644 C180.96,469.104 181.5,468.6 182.076,468.132 C182.544,467.772 183.084,467.448 183.66,467.34 C183.912,467.268 184.38,467.34 184.488,467.664 C184.596,467.952 184.524,468.312 184.416,468.6 C184.308,468.996 184.128,469.392 183.948,469.752 C183.444,470.724 182.868,471.66 182.544,472.668 L182.436,472.956 L182.436,473.1 C182.436,473.316 182.724,473.136 182.904,473.064 C182.94,473.028 182.976,473.028 182.976,473.028 C183.012,473.028 183.048,472.992 183.12,472.992 L183.336,472.848 L183.876,472.596 L184.884,471.948 C185.46,471.588 186.036,471.228 186.612,470.832 L188.736,469.284 C189.312,468.888 189.924,468.492 190.464,468.06 Z M201.12,468.42 C201.3,468.492 201.588,468.78 201.408,468.924 C200.22,469.968 199.14,470.94 197.808,471.804 C197.196,472.2 196.908,472.416 196.44,472.668 C195,473.46 194.496,473.676 193.956,473.784 C193.092,473.892 191.976,473.784 191.508,472.992 C191.22,472.56 191.292,471.984 191.436,471.48 C191.112,471.876 190.752,472.2 190.356,472.56 C189.996,472.884 189.672,473.316 189.312,473.568 C189.024,473.82 188.7,474 188.304,474.144 C187.872,474.324 187.368,474.324 186.9,474 C186.576,473.748 186.432,473.316 186.432,472.92 C186.468,472.02 187.008,471.3 187.512,470.616 C188.088,469.896 188.736,469.248 189.492,468.708 C190.032,468.312 190.644,468.024 191.4,467.772 C191.652,467.7 192.012,467.628 192.3,467.664 C192.624,467.772 193.092,468.024 192.912,468.42 C192.804,468.672 192.516,468.672 192.3,468.564 C192.228,468.564 192.192,468.528 192.12,468.492 L192.084,468.492 C192.048,468.528 191.976,468.492 191.94,468.528 C191.904,468.528 191.724,468.6 191.796,468.564 C191.22,468.816 190.68,469.14 190.176,469.5 C189.744,469.86 189.204,470.328 188.772,470.868 C188.34,471.372 187.872,471.912 187.656,472.596 C187.548,472.884 187.476,473.208 187.584,473.496 C187.62,473.496 187.656,473.496 187.692,473.46 C188.088,473.244 188.376,473.064 188.664,472.776 C189.06,472.452 189.42,472.092 189.744,471.732 L191.832,469.5 L192.948,468.492 L192.984,468.456 C193.236,468.132 193.56,467.844 193.776,467.52 C194.028,467.232 194.856,467.484 194.856,467.88 L194.856,467.916 C194.856,467.988 194.748,468.132 194.676,468.204 C194.64,468.276 194.568,468.312 194.532,468.384 C194.244,468.744 194.1,468.78 193.416,469.824 C193.308,470.004 193.164,470.184 193.092,470.364 C192.876,470.796 192.66,471.264 192.552,471.66 L192.444,472.02 C192.192,472.668 192.732,473.244 193.596,472.992 C194.316,472.776 194.928,472.416 195.684,472.02 C197.448,471.084 198.888,469.752 200.4,468.42 C200.652,468.276 200.94,468.312 201.12,468.42 Z M200.976,467.988 C201.156,467.916 201.444,467.988 201.66,468.06 C201.66,468.06 201.696,468.096 201.768,468.132 C202.056,468.204 201.3,469.536 200.976,470.04 C201.912,469.392 202.956,468.672 204.108,468.06 L204.324,467.952 L204.648,467.808 C205.152,467.592 205.692,467.412 206.196,467.34 C206.196,467.34 206.232,467.34 206.484,467.304 C206.7,467.304 206.952,467.304 207.024,467.34 C207.348,467.412 207.78,467.628 207.672,468.096 C207.528,468.384 206.988,468.276 206.7,468.168 C206.628,468.168 206.484,468.168 206.124,468.276 C206.088,468.276 206.088,468.276 206.016,468.312 L205.692,468.42 C205.296,468.6 204.936,468.78 204.612,468.96 L204.252,469.14 L203.568,469.536 L203.172,469.788 L202.308,470.292 L201.66,470.796 L200.76,471.66 L199.932,472.416 L199.104,473.352 C198.924,473.676 198.852,473.784 198.6,474.144 C198.564,474.216 198.528,474.288 198.492,474.324 C198.42,474.468 197.988,474.36 197.844,474.324 C197.664,474.252 197.448,473.928 197.52,473.784 L197.952,473.136 C198.636,472.092 198.708,472.02 199.032,471.408 L199.248,470.976 L200.004,469.608 C200.256,468.996 200.616,468.276 200.976,467.988 Z M207.492,471.408 C207.132,471.588 206.556,471.66 206.124,471.48 L206.052,471.552 C205.98,471.696 205.908,471.84 205.872,472.02 C205.836,472.056 205.836,472.092 205.836,472.128 C205.836,472.164 205.8,472.2 205.8,472.236 L205.764,472.38 C205.764,472.632 205.728,472.884 205.98,473.1 C206.052,473.136 206.124,473.172 206.196,473.172 L206.52,473.172 C207.384,473.1 207.996,472.884 208.752,472.56 C210.516,471.768 212.136,470.724 214.08,469.392 C214.476,469.104 214.98,468.816 215.34,468.528 C215.52,468.42 215.772,468.24 216.024,468.168 C216.096,468.132 216.168,468.132 216.276,468.132 L216.312,468.132 C216.276,468.132 216.42,468.168 216.42,468.168 C216.6,468.204 216.528,468.204 216.636,468.276 L216.744,468.384 C216.78,468.492 216.78,468.528 216.744,468.636 L216.672,468.744 L216.564,468.852 L216.096,469.212 L215.952,469.32 L214.8,470.112 C213.756,470.832 212.532,471.66 211.164,472.38 C210.228,472.884 209.04,473.46 208.032,473.712 C207.492,473.856 206.88,473.928 206.304,473.892 C205.62,473.82 204.936,473.424 204.72,472.74 C204.576,472.092 204.936,471.336 205.26,470.796 C205.656,470.184 206.232,469.5 206.772,468.996 C207.24,468.528 207.852,468.024 208.536,467.628 C209.112,467.268 210.048,466.908 210.732,467.412 C211.308,467.88 210.984,468.6 210.624,469.104 C210.264,469.608 209.796,470.04 209.256,470.436 C208.752,470.796 208.104,471.192 207.492,471.408 Z M206.484,470.868 C206.34,471.084 208.716,470.184 209.904,468.384 C209.904,468.384 210.048,468.132 210.012,467.88 C209.688,467.952 209.364,468.132 209.004,468.384 C208.788,468.528 208.644,468.672 208.464,468.816 C208.428,468.852 208.284,468.96 208.284,468.96 C207.708,469.464 207.132,470.004 206.664,470.616 L206.484,470.868 Z" id="Share-Copy"></path>
            </g>
        </g>
    </g>
</svg>