<svg width="24" height="24" viewBox="0 0 24 24" fill="none" xmlns="http://www.w3.org/2000/svg">
<path d="M12 16C14.2091 16 16 14.2091 16 12C16 9.79086 14.2091 8 12 8C9.79086 8 8 9.79086 8 12C8 14.2091 9.79086 16 12 16Z" fill="black"/>
<path fill-rule="evenodd" clip-rule="evenodd" d="M12 19.5C17 19.5 21.27 16.39 23 12C21.27 7.61 17 4.5 12 4.5C7 4.5 2.73 7.61 1 12C2.73 16.39 7 19.5 12 19.5ZM12 18.5C7.56631 18.5 3.75589 15.8274 2.08269 12C3.75589 8.17262 7.56631 5.5 12 5.5C16.4337 5.5 20.2441 8.17262 21.9173 12C20.2441 15.8274 16.4337 18.5 12 18.5Z" fill="black"/>
</svg>
