<svg width="24" height="24" viewBox="0 0 24 24" fill="none" xmlns="http://www.w3.org/2000/svg">
<path fill-rule="evenodd" clip-rule="evenodd" d="M10.082 8.17184C10.154 7.91037 10.322 7.64891 10.586 7.38745C10.85 7.12598 11.1859 6.98337 11.5939 6.9596H13.3218C13.7057 6.98337 14.0297 7.12004 14.2937 7.36962C14.5576 7.6192 14.7376 7.8866 14.8336 8.17184L15.8775 11.8799C15.9495 12.1413 15.9195 12.3493 15.7875 12.5038C15.6556 12.6583 15.4936 12.7118 15.3016 12.6643C15.1096 12.6167 14.9776 12.4741 14.9056 12.2364L13.9697 8.81361H13.6457L15.3016 14.8392H13.7537V19.3672C13.7537 19.6287 13.6577 19.8129 13.4657 19.9199C13.2738 20.0268 13.0878 20.0268 12.9078 19.9199C12.7278 19.8129 12.6378 19.6287 12.6378 19.3672V14.8392H12.2778V19.3672C12.2778 19.6287 12.1818 19.8129 11.9899 19.9199C11.7979 20.0268 11.6059 20.0268 11.4139 19.9199C11.2219 19.8129 11.1259 19.6287 11.1259 19.3672V14.8392H9.61407L11.2339 8.81361H10.982L10.01 12.2364C9.93804 12.4741 9.80605 12.6167 9.61407 12.6643C9.42208 12.7118 9.2601 12.6583 9.12811 12.5038C8.99612 12.3493 8.96612 12.1413 9.03811 11.8799L10.082 8.17184ZM13.7898 5.3192C13.7898 5.69952 13.6578 6.01446 13.3939 6.26404C13.1299 6.51362 12.8179 6.63841 12.4579 6.63841C12.098 6.63841 11.786 6.51362 11.522 6.26404C11.258 6.01446 11.126 5.69952 11.126 5.3192C11.126 4.93889 11.258 4.62395 11.522 4.37437C11.786 4.12479 12.098 4 12.4579 4C12.8179 4 13.1299 4.12479 13.3939 4.37437C13.6578 4.62395 13.7898 4.93889 13.7898 5.3192Z" fill="black"/>
</svg>
