<svg width="44" height="44" viewBox="0 0 44 44" fill="none" xmlns="http://www.w3.org/2000/svg">
<rect x="1.41424" y="21.9204" width="29" height="29" rx="1" transform="rotate(-45 1.41424 21.9204)" fill="white" stroke="#CCCCCC" stroke-width="2"/>
<path fill-rule="evenodd" clip-rule="evenodd" d="M27.25 17.1562V25.623C27.25 25.9941 27.1133 26.3164 26.8399 26.5898C26.5664 26.8633 26.2344 27 25.8438 27H17.4063C17.0157 27 16.6836 26.8633 16.4102 26.5898C16.1367 26.3164 16 25.9941 16 25.623V17.1562C16 16.7656 16.1367 16.4336 16.4102 16.1602C16.6836 15.8867 17.0157 15.75 17.4063 15.75H25.8438C26.2344 15.75 26.5664 15.8867 26.8399 16.1602C27.1133 16.4336 27.25 16.7656 27.25 17.1562ZM21.625 19.0312C20.9805 19.0312 20.4287 19.2607 19.9698 19.7197C19.5108 20.1787 19.2813 20.7305 19.2813 21.375C19.2813 22.0195 19.5108 22.5713 19.9698 23.0303C20.4287 23.4893 20.9805 23.7188 21.625 23.7188C22.2696 23.7188 22.8213 23.4893 23.2803 23.0303C23.7393 22.5713 23.9688 22.0195 23.9688 21.375C23.9688 20.7305 23.7393 20.1787 23.2803 19.7197C22.8213 19.2607 22.2696 19.0312 21.625 19.0312ZM26.3125 18.5625V17.1562C26.3125 16.8437 26.1563 16.6875 25.8438 16.6875H24.4375C24.125 16.6875 23.9688 16.8437 23.9688 17.1562V18.5625C23.9688 18.875 24.125 19.0312 24.4375 19.0312H25.8438C26.1563 19.0312 26.3125 18.875 26.3125 18.5625ZM25.8731 26.0625C26.166 26.0625 26.3125 25.9063 26.3125 25.5938V20.4375H24.7891C24.8672 20.6914 24.9063 21.0039 24.9063 21.375C24.9063 22.293 24.5938 23.0645 23.9688 23.6895C23.3242 24.334 22.543 24.6562 21.625 24.6562C20.7266 24.6562 19.9551 24.334 19.3106 23.6895C18.666 23.0449 18.3438 22.2734 18.3438 21.375C18.3438 21.082 18.3926 20.7695 18.4903 20.4375H16.9375V25.5938C16.9375 25.7305 16.9864 25.8428 17.084 25.9307C17.1817 26.0186 17.2989 26.0625 17.4356 26.0625H25.8731Z" fill="#333333"/>
</svg>
