<svg width="24" height="24" viewBox="0 0 24 24" fill="none" xmlns="http://www.w3.org/2000/svg">
<path fill-rule="evenodd" clip-rule="evenodd" d="M12.0663 6.67694C11.6769 6.67694 11.3545 6.54607 11.099 6.28432C10.8434 6.02258 10.7157 5.70135 10.7157 5.32062C10.7157 4.9399 10.8434 4.62462 11.099 4.37477C11.3545 4.12492 11.6769 4 12.0663 4C12.4557 4 12.7781 4.12492 13.0337 4.37477C13.2892 4.62462 13.417 4.9399 13.417 5.32062C13.417 5.70135 13.2892 6.02258 13.0337 6.28432C12.7781 6.54607 12.4557 6.67694 12.0663 6.67694ZM13.417 6.96251C13.9037 6.96251 14.3113 7.13502 14.6398 7.48005C14.9684 7.82508 15.1326 8.22364 15.1326 8.67575V12.7447C15.1326 12.9827 15.0353 13.1552 14.8406 13.2622C14.6459 13.3693 14.4512 13.3693 14.2565 13.2622C14.0619 13.1552 13.9645 12.9827 13.9645 12.7447V8.99698H13.782V19.2051C13.782 19.5144 13.6542 19.7404 13.3987 19.8832C13.1432 20.026 12.8877 20.0379 12.6321 19.9189C12.3766 19.7999 12.2367 19.562 12.2123 19.2051V13.3158H11.9203V19.2051C11.9203 19.5382 11.7865 19.7702 11.5188 19.9011C11.2511 20.0319 10.9895 20.0319 10.7339 19.9011C10.4784 19.7702 10.3506 19.5382 10.3506 19.2051V8.99698H10.1316V12.7447C10.1316 12.9827 10.0404 13.1552 9.85784 13.2622C9.67532 13.3693 9.48672 13.3693 9.29203 13.2622C9.09734 13.1552 9 12.9827 9 12.7447V8.67575C9 8.22364 9.16427 7.82508 9.4928 7.48005C9.82134 7.13502 10.229 6.96251 10.7157 6.96251H13.417Z" fill="black"/>
</svg>
