<svg width="45" height="45" viewBox="0 0 45 45" fill="none" xmlns="http://www.w3.org/2000/svg">
<rect x="1.99393" y="22.5" width="29" height="29" rx="1" transform="rotate(-45 1.99393 22.5)" fill="white" stroke="#CCCCCC" stroke-width="2"/>
<path fill-rule="evenodd" clip-rule="evenodd" d="M28.9844 18.418C28.6797 18.8919 28.2735 19.3151 27.7657 19.6875V19.9922C27.7657 21.7695 27.1267 23.3818 25.8487 24.8291C24.5707 26.2764 22.8737 27 20.7578 27C19.4037 27 18.1511 26.6276 17 25.8828C17.2709 25.9167 17.4655 25.9336 17.584 25.9336C18.7181 25.9336 19.7337 25.5781 20.6309 24.8672C20.1061 24.8503 19.6322 24.6852 19.209 24.3721C18.7858 24.0589 18.4981 23.6569 18.3457 23.166C18.5489 23.1999 18.7012 23.2168 18.8028 23.2168C18.972 23.2168 19.1921 23.1829 19.4629 23.1152C18.9043 22.9967 18.4346 22.7132 18.0537 22.2646C17.6729 21.8161 17.4825 21.2956 17.4825 20.7031V20.6777C17.8549 20.8809 18.2272 20.9824 18.5996 20.9824C17.8718 20.5085 17.5078 19.8229 17.5078 18.9258C17.5078 18.5026 17.6179 18.0964 17.8379 17.707C19.1413 19.3151 20.8255 20.1699 22.8907 20.2715C22.8568 20.153 22.8399 19.9668 22.8399 19.7129C22.8399 19.0189 23.0769 18.4349 23.5508 17.9609C24.0248 17.487 24.6088 17.25 25.3028 17.25C25.9968 17.25 26.5892 17.5124 27.0801 18.0371C27.5879 17.9525 28.1127 17.7494 28.6543 17.4277C28.4851 18.0202 28.1211 18.4772 27.5625 18.7988C28.0873 18.748 28.5612 18.6211 28.9844 18.418Z" fill="#333333"/>
</svg>
